<?xml version="1.0" encoding="UTF-8" standalone="no"?>
<svg
   width="15.24mm"
   height="128.5mm"
   viewBox="0 0 15.24 128.5"
   version="1.1"
   id="svg_root"
   sodipodi:docname="JWork.svg"
   inkscape:version="1.4.4 (dcaf3e7, 2026-05-05)"
   xmlns:inkscape="http://www.inkscape.org/namespaces/inkscape"
   xmlns:sodipodi="http://sodipodi.sourceforge.net/DTD/sodipodi-0.dtd"
   xmlns="http://www.w3.org/2000/svg"
   xmlns:svg="http://www.w3.org/2000/svg">
  <defs
     id="defs1" />
  <sodipodi:namedview
     id="namedview1"
     pagecolor="#ffffff"
     bordercolor="#000000"
     borderopacity="0.25"
     inkscape:showpageshadow="2"
     inkscape:pageopacity="0.0"
     inkscape:pagecheckerboard="0"
     inkscape:document-units="mm"
     inkscape:deskcolor="#d1d1d1"
     showguides="true"
     showgrid="true"
     inkscape:zoom="28.256941"
     inkscape:cx="19.216518"
     inkscape:cy="10.776113"
     inkscape:window-width="2560"
     inkscape:window-height="1494"
     inkscape:window-x="-11"
     inkscape:window-y="-11"
     inkscape:window-maximized="1"
     inkscape:current-layer="layer-text-work">
    <inkscape:grid
       type="xygrid"
       id="grid1"
       originx="0"
       originy="-0.252750"
       spacingx="0.254000"
       spacingy="0.254000"
       units="mm"
       visible="true" />
    <sodipodi:guide
       position="8.3556783,120.88"
       orientation="0,-1"
       id="guide1"
       inkscape:locked="false" />
    <sodipodi:guide
       position="0,120.85277"
       orientation="0.70710678,-0.70710678"
       id="guide2"
       inkscape:locked="false" />
    <sodipodi:guide
       position="0,128.5"
       orientation="-0.70710678,-0.70710678"
       id="guide3"
       inkscape:locked="false" />
    <sodipodi:guide
       position="3.823615,124.67638"
       orientation="0,-1"
       id="guide4"
       inkscape:locked="false" />
    <sodipodi:guide
       position="7.6200002,122.0313"
       orientation="1,0"
       id="guide5"
       inkscape:locked="false" />
  </sodipodi:namedview>
  <g
     inkscape:groupmode="layer"
     id="layer-bg-bright"
     inkscape:label="BackgroundBright"
     style="display:none"
     sodipodi:insensitive="true">
    <path
       id="bg-bright"
       style="fill:#e6e6e6;fill-opacity:1;stroke:none"
       d="M 0,0 H 15.24 V 128.5 H 0 Z" />
  </g>
  <g
     inkscape:groupmode="layer"
     id="layer-panel-bright"
     inkscape:label="PanelBright"
     style="display:none"
     sodipodi:insensitive="true">
    <path
       id="accent-bright"
       style="fill:none;stroke:#ff6600;stroke-width:0.3;stroke-linecap:round"
       d="M 0.762,124.71525 H 14.478" />
    <path
       id="frame-bright"
       style="fill:none;stroke:#606080;stroke-opacity:0.98;stroke-width:0.3"
       d="M 3.262,7.620 H 11.978 A 2.5,2.5 0 0 1 14.478,10.12 V 118.38 A 2.5,2.5 0 0 1 11.978,120.88 H 3.262 A 2.5,2.5 0 0 1 0.762,118.38 V 10.12 A 2.5,2.5 0 0 1 3.262,7.620 Z" />
    <path
       id="outbox-bright"
       style="fill:#808094;fill-opacity:0.98;stroke:#606080;stroke-opacity:0.98;stroke-width:0.3"
       d="M 4.315,109.447 H 10.925 A 1.27,1.27 0 0 1 12.195,110.717 V 117.327 A 1.27,1.27 0 0 1 10.925,118.597 H 4.315 A 1.27,1.27 0 0 1 3.045,117.327 V 110.717 A 1.27,1.27 0 0 1 4.315,109.447 Z" />
    <path
       id="knobring-bright"
       style="fill:none;stroke:#606080;stroke-opacity:0.98;stroke-width:0.3"
       d="M 3.048,100.07725 A 4.572,4.572 0 1 0 12.192,100.07725 A 4.572,4.572 0 1 0 3.048,100.07725 Z" />
  </g>
  <g
     inkscape:groupmode="layer"
     id="layer-text-bright"
     inkscape:label="TextBright"
     style="display:none"
     sodipodi:insensitive="true">
    <path
       id="text-title-bright"
       style="fill:#15152b;fill-rule:nonzero;stroke:none"
       d="M 7.9286806,2.0438866 H 8.6376813 V 4.474746 q 0,0.5112522 -0.2845649,0.8199328 Q 8.0685515,5.6033593 7.62,5.6033593 q -0.4823134,0 -0.7499973,-0.2869764 Q 6.6023188,5.0294064 6.6023188,4.5181542 H 7.313731 q 0,0.4967828 0.306269,0.4967828 0.3086806,0 0.3086806,-0.5739529 z" />
    <path
       id="text-orange-bright"
       style="fill:#15152b;fill-rule:nonzero;stroke:none"
       d="m 3.4807266,123.14444 q 0,0.50471 -0.2385724,0.78376 -0.2385723,0.27905 -0.6623181,0.27905 -0.4220233,0 -0.6631794,-0.27647 -0.2411562,-0.27647 -0.2446013,-0.77428 v -0.42891 q 0,-0.51677 0.2394337,-0.80702 0.2394336,-0.29024 0.6649019,-0.29024 0.4185782,0 0.6597343,0.28508 0.2411562,0.28508 0.2446013,0.80012 z m -0.5081505,-0.4203 q 0,-0.33934 -0.096462,-0.5047 -0.096462,-0.16537 -0.2997227,-0.16537 -0.2015376,0 -0.2980001,0.15934 -0.096462,0.15933 -0.099908,0.48489 v 0.44614 q 0,0.32901 0.098185,0.4849 0.098185,0.15589 0.3031677,0.15589 0.1980926,0 0.294555,-0.15245 0.096462,-0.15244 0.098185,-0.47284 z m 1.6312491,0.53227 H 4.3523338 v 0.91639 H 3.8459059 v -2.50802 H 4.653779 q 0.3806822,0 0.5882488,0.19723 0.2075665,0.19723 0.2075665,0.56069 0,0.49953 -0.3634568,0.69935 l 0.4392487,1.02663 v 0.0241 H 4.9810624 Z m -0.2514914,-0.42203 h 0.2876649 q 0.1515838,0 0.2273758,-0.10077 0.075792,-0.10076 0.075792,-0.26957 0,-0.37724 -0.294555,-0.37724 H 4.3523338 Z m 2.6423824,0.8251 H 6.3039761 L 6.1696177,124.1728 H 5.6339065 l 0.7837575,-2.50802 h 0.4633643 l 0.7889252,2.50802 H 7.1290747 Z m -0.5804973,-0.42202 h 0.468532 l -0.234266,-0.894 z m 3.2435503,0.93534 H 9.1513413 l -0.7406939,-1.64503 v 1.64503 h -0.506428 v -2.50802 h 0.506428 l 0.7424164,1.64675 v -1.64675 h 0.5047054 z m 2.1118388,-0.28422 q -0.146416,0.15847 -0.35915,0.23857 -0.212735,0.0801 -0.465948,0.0801 -0.432359,0 -0.671793,-0.26785 -0.239433,-0.26786 -0.246323,-0.77946 v -0.4513 q 0,-0.51849 0.226514,-0.7984 0.226515,-0.27991 0.660596,-0.27991 0.408243,0 0.615809,0.20153 0.207567,0.20154 0.240295,0.63218 H 11.27696 q -0.02067,-0.23944 -0.09991,-0.32643 -0.07924,-0.087 -0.248046,-0.087 -0.204983,0 -0.298,0.14986 -0.09302,0.14986 -0.09646,0.47714 v 0.45475 q 0,0.34279 0.102491,0.49868 0.102492,0.15589 0.336758,0.15589 0.149861,0 0.242878,-0.0603 l 0.04479,-0.031 v -0.45992 h -0.354844 v -0.38241 h 0.862994 z m 1.653642,-0.80098 h -0.788925 v 0.6649 h 0.933619 v 0.4203 h -1.440047 v -2.50802 h 1.436602 v 0.42202 h -0.930174 v 0.59255 h 0.788925 z" />
    <path
       id="text-line-bright"
       style="fill:#15152b;fill-rule:nonzero;stroke:none"
       d="m 5.0051811,127.3085 h 0.8888326 v 0.4203 H 4.4987531 v -2.50802 h 0.506428 z m 1.7104861,0.4203 H 6.2092393 v -2.50802 h 0.5064279 z m 2.1790181,0 H 8.3882574 l -0.7406939,-1.64503 v 1.64503 H 7.1411356 v -2.50802 h 0.5064279 l 0.7424164,1.64675 v -1.64675 h 0.5047054 z m 1.7018737,-1.0852 H 9.8076336 v 0.6649 h 0.9336184 v 0.4203 H 9.3012057 v -2.50802 h 1.4366013 v 0.42202 H 9.8076336 v 0.59255 h 0.7889254 z" />
    <path
       id="text-label-out-bright"
       style="fill:#15152b;fill-rule:nonzero;stroke:none"
       d="M 4.1209888,107.77896 H 3.894646 v 0.82475 H 3.4388599 v -2.25722 h 0.7270874 q 0.3426147,0 0.529425,0.1775 0.1868103,0.17751 0.1868103,0.50463 0,0.44958 -0.3271118,0.62941 l 0.3953247,0.92398 v 0.0217 H 4.4605029 Z M 3.894646,107.39914 h 0.2588989 q 0.1364258,0 0.2046387,-0.0907 0.068213,-0.0907 0.068213,-0.24262 0,-0.33951 -0.2651001,-0.33951 H 3.894646 Z m 2.4665161,0.22789 H 5.6511279 v 0.59841 h 0.8402588 v 0.37827 H 5.1953418 v -2.25722 h 1.2929443 v 0.37982 H 5.6511279 v 0.5333 h 0.7100342 z m 1.4696777,0.5147 H 7.2091724 l -0.1209229,0.46198 H 6.6061084 l 0.7053833,-2.25722 h 0.4170288 l 0.7100342,2.25722 H 7.9517627 Z M 7.3083911,107.7619 H 7.7300708 L 7.519231,106.9573 Z m 1.3410034,0.84181 v -2.25722 h 0.5968628 q 0.3953247,0 0.6301941,0.25114 0.2348696,0.25115 0.2395206,0.68833 v 0.36587 q 0,0.44494 -0.2348697,0.69841 -0.2348694,0.25347 -0.6472473,0.25347 z m 0.4557862,-1.8774 v 1.49913 h 0.1364257 q 0.2278931,0 0.3209107,-0.12015 0.093018,-0.12014 0.097668,-0.4147 v -0.39222 q 0,-0.31626 -0.088367,-0.44106 -0.088367,-0.1248 -0.3007568,-0.131 z m 2.0184813,0.63407 0.339514,-1.01389 h 0.496094 l -0.604614,1.43867 v 0.81855 h -0.461988 v -0.81855 l -0.606164,-1.43867 h 0.496094 z" />
    <path
       id="text-label-len-bright"
       style="fill:#15152b;fill-rule:nonzero;stroke:none"
       d="m 5.7464709,94.001441 h 0.7999512 v 0.378271 H 5.2906848 V 92.122486 H 5.7464709 Z M 7.9757922,93.403028 H 7.2657581 v 0.598413 h 0.8402587 v 0.378271 H 6.8099719 v -2.257226 h 1.2929444 v 0.379822 H 7.2657581 v 0.5333 h 0.7100341 z m 1.9704224,0.976684 H 9.4904285 l -0.666626,-1.480529 v 1.480529 H 8.3680164 v -2.257226 h 0.4557861 l 0.6681763,1.48208 v -1.48208 h 0.4542358 z" />
  </g>
  <g
     inkscape:groupmode="layer"
     id="layer-bg-dark"
     inkscape:label="BackgroundDark"
     style="display:none"
     sodipodi:insensitive="true">
    <path
       id="bg-dark"
       style="fill:#202020;fill-opacity:1;stroke:none"
       d="M 0,0 H 15.24 V 128.5 H 0 Z" />
  </g>
  <g
     inkscape:groupmode="layer"
     id="layer-panel-dark"
     inkscape:label="PanelDark"
     style="display:none"
     sodipodi:insensitive="true">
    <path
       id="accent-dark"
       style="fill:none;stroke:#ff6600;stroke-width:0.3;stroke-linecap:round"
       d="M 0.762,124.71525 H 14.478" />
    <path
       id="frame-dark"
       style="fill:none;stroke:#606060;stroke-opacity:0.98;stroke-width:0.3"
       d="M 3.262,7.620 H 11.978 A 2.5,2.5 0 0 1 14.478,10.12 V 118.38 A 2.5,2.5 0 0 1 11.978,120.88 H 3.262 A 2.5,2.5 0 0 1 0.762,118.38 V 10.12 A 2.5,2.5 0 0 1 3.262,7.620 Z" />
    <path
       id="outbox-dark"
       style="fill:#171717;fill-opacity:1;stroke:#606060;stroke-opacity:0.98;stroke-width:0.3"
       d="M 4.315,109.447 H 10.925 A 1.27,1.27 0 0 1 12.195,110.717 V 117.327 A 1.27,1.27 0 0 1 10.925,118.597 H 4.315 A 1.27,1.27 0 0 1 3.045,117.327 V 110.717 A 1.27,1.27 0 0 1 4.315,109.447 Z" />
    <path
       id="knobring-dark"
       style="fill:none;stroke:#606060;stroke-opacity:0.98;stroke-width:0.3"
       d="M 3.048,100.07725 A 4.572,4.572 0 1 0 12.192,100.07725 A 4.572,4.572 0 1 0 3.048,100.07725 Z" />
  </g>
  <g
     inkscape:groupmode="layer"
     id="layer-text-dark"
     inkscape:label="TextDark"
     style="display:none"
     sodipodi:insensitive="true">
    <path
       id="text-title-dark"
       style="fill:#c4bac4;fill-rule:nonzero;stroke:none"
       d="M 7.9286806,2.0438866 H 8.6376813 V 4.474746 q 0,0.5112522 -0.2845649,0.8199328 Q 8.0685515,5.6033593 7.62,5.6033593 q -0.4823134,0 -0.7499973,-0.2869764 Q 6.6023188,5.0294064 6.6023188,4.5181542 H 7.313731 q 0,0.4967828 0.306269,0.4967828 0.3086806,0 0.3086806,-0.5739529 z" />
    <path
       id="text-orange-dark"
       style="fill:#c4bac4;fill-rule:nonzero;stroke:none"
       d="m 3.4807266,123.14444 q 0,0.50471 -0.2385724,0.78376 -0.2385723,0.27905 -0.6623181,0.27905 -0.4220233,0 -0.6631794,-0.27647 -0.2411562,-0.27647 -0.2446013,-0.77428 v -0.42891 q 0,-0.51677 0.2394337,-0.80702 0.2394336,-0.29024 0.6649019,-0.29024 0.4185782,0 0.6597343,0.28508 0.2411562,0.28508 0.2446013,0.80012 z m -0.5081505,-0.4203 q 0,-0.33934 -0.096462,-0.5047 -0.096462,-0.16537 -0.2997227,-0.16537 -0.2015376,0 -0.2980001,0.15934 -0.096462,0.15933 -0.099908,0.48489 v 0.44614 q 0,0.32901 0.098185,0.4849 0.098185,0.15589 0.3031677,0.15589 0.1980926,0 0.294555,-0.15245 0.096462,-0.15244 0.098185,-0.47284 z m 1.6312491,0.53227 H 4.3523338 v 0.91639 H 3.8459059 v -2.50802 H 4.653779 q 0.3806822,0 0.5882488,0.19723 0.2075665,0.19723 0.2075665,0.56069 0,0.49953 -0.3634568,0.69935 l 0.4392487,1.02663 v 0.0241 H 4.9810624 Z m -0.2514914,-0.42203 h 0.2876649 q 0.1515838,0 0.2273758,-0.10077 0.075792,-0.10076 0.075792,-0.26957 0,-0.37724 -0.294555,-0.37724 H 4.3523338 Z m 2.6423824,0.8251 H 6.3039761 L 6.1696177,124.1728 H 5.6339065 l 0.7837575,-2.50802 h 0.4633643 l 0.7889252,2.50802 H 7.1290747 Z m -0.5804973,-0.42202 h 0.468532 l -0.234266,-0.894 z m 3.2435503,0.93534 H 9.1513413 l -0.7406939,-1.64503 v 1.64503 h -0.506428 v -2.50802 h 0.506428 l 0.7424164,1.64675 v -1.64675 h 0.5047054 z m 2.1118388,-0.28422 q -0.146416,0.15847 -0.35915,0.23857 -0.212735,0.0801 -0.465948,0.0801 -0.432359,0 -0.671793,-0.26785 -0.239433,-0.26786 -0.246323,-0.77946 v -0.4513 q 0,-0.51849 0.226514,-0.7984 0.226515,-0.27991 0.660596,-0.27991 0.408243,0 0.615809,0.20153 0.207567,0.20154 0.240295,0.63218 H 11.27696 q -0.02067,-0.23944 -0.09991,-0.32643 -0.07924,-0.087 -0.248046,-0.087 -0.204983,0 -0.298,0.14986 -0.09302,0.14986 -0.09646,0.47714 v 0.45475 q 0,0.34279 0.102491,0.49868 0.102492,0.15589 0.336758,0.15589 0.149861,0 0.242878,-0.0603 l 0.04479,-0.031 v -0.45992 h -0.354844 v -0.38241 h 0.862994 z m 1.653642,-0.80098 h -0.788925 v 0.6649 h 0.933619 v 0.4203 h -1.440047 v -2.50802 h 1.436602 v 0.42202 h -0.930174 v 0.59255 h 0.788925 z" />
    <path
       id="text-line-dark"
       style="fill:#c4bac4;fill-rule:nonzero;stroke:none"
       d="m 5.0051811,127.3085 h 0.8888326 v 0.4203 H 4.4987531 v -2.50802 h 0.506428 z m 1.7104861,0.4203 H 6.2092393 v -2.50802 h 0.5064279 z m 2.1790181,0 H 8.3882574 l -0.7406939,-1.64503 v 1.64503 H 7.1411356 v -2.50802 h 0.5064279 l 0.7424164,1.64675 v -1.64675 h 0.5047054 z m 1.7018737,-1.0852 H 9.8076336 v 0.6649 h 0.9336184 v 0.4203 H 9.3012057 v -2.50802 h 1.4366013 v 0.42202 H 9.8076336 v 0.59255 h 0.7889254 z" />
    <path
       id="text-label-out-dark"
       style="fill:#c4bac4;fill-rule:nonzero;stroke:none"
       d="M 4.1209888,107.77896 H 3.894646 v 0.82475 H 3.4388599 v -2.25722 h 0.7270874 q 0.3426147,0 0.529425,0.1775 0.1868103,0.17751 0.1868103,0.50463 0,0.44958 -0.3271118,0.62941 l 0.3953247,0.92398 v 0.0217 H 4.4605029 Z M 3.894646,107.39914 h 0.2588989 q 0.1364258,0 0.2046387,-0.0907 0.068213,-0.0907 0.068213,-0.24262 0,-0.33951 -0.2651001,-0.33951 H 3.894646 Z m 2.4665161,0.22789 H 5.6511279 v 0.59841 h 0.8402588 v 0.37827 H 5.1953418 v -2.25722 h 1.2929443 v 0.37982 H 5.6511279 v 0.5333 h 0.7100342 z m 1.4696777,0.5147 H 7.2091724 l -0.1209229,0.46198 H 6.6061084 l 0.7053833,-2.25722 h 0.4170288 l 0.7100342,2.25722 H 7.9517627 Z M 7.3083911,107.7619 H 7.7300708 L 7.519231,106.9573 Z m 1.3410034,0.84181 v -2.25722 h 0.5968628 q 0.3953247,0 0.6301941,0.25114 0.2348696,0.25115 0.2395206,0.68833 v 0.36587 q 0,0.44494 -0.2348697,0.69841 -0.2348694,0.25347 -0.6472473,0.25347 z m 0.4557862,-1.8774 v 1.49913 h 0.1364257 q 0.2278931,0 0.3209107,-0.12015 0.093018,-0.12014 0.097668,-0.4147 v -0.39222 q 0,-0.31626 -0.088367,-0.44106 -0.088367,-0.1248 -0.3007568,-0.131 z m 2.0184813,0.63407 0.339514,-1.01389 h 0.496094 l -0.604614,1.43867 v 0.81855 h -0.461988 v -0.81855 l -0.606164,-1.43867 h 0.496094 z" />
    <path
       id="text-label-len-dark"
       style="fill:#c4bac4;fill-rule:nonzero;stroke:none"
       d="m 5.7464709,94.001441 h 0.7999512 v 0.378271 H 5.2906848 V 92.122486 H 5.7464709 Z M 7.9757922,93.403028 H 7.2657581 v 0.598413 h 0.8402587 v 0.378271 H 6.8099719 v -2.257226 h 1.2929444 v 0.379822 H 7.2657581 v 0.5333 h 0.7100341 z m 1.9704224,0.976684 H 9.4904285 l -0.666626,-1.480529 v 1.480529 H 8.3680164 v -2.257226 h 0.4557861 l 0.6681763,1.48208 v -1.48208 h 0.4542358 z" />
  </g>
  <g
     inkscape:groupmode="layer"
     id="layer-bg-orange"
     inkscape:label="BackgroundOrange"
     style="display:inline"
     sodipodi:insensitive="true">
    <path
       id="bg-orange"
       style="fill:#15152b;fill-opacity:1;stroke:none"
       d="M 0,0 H 15.24 V 128.5 H 0 Z" />
  </g>
  <g
     inkscape:groupmode="layer"
     id="layer-panel-orange"
     inkscape:label="PanelOrange"
     style="display:inline">
    <path
       id="accent-orange"
       style="fill:none;stroke:#ff6600;stroke-width:0.3;stroke-linecap:round"
       d="M 0.762,124.71525 H 14.478" />
    <path
       id="frame-orange"
       style="fill:none;stroke:#803300;stroke-width:0.3"
       d="m 3.262,7.62 h 8.716 a 2.5,2.5 0 0 1 2.5,2.5 v 108.26 a 2.5,2.5 0 0 1 -2.5,2.5 H 3.262 a 2.5,2.5 0 0 1 -2.5,-2.5 V 10.12 a 2.5,2.5 0 0 1 2.5,-2.5 z" />
    <path
       id="outbox-orange"
       style="fill:#101020;fill-opacity:1;stroke:#803300;stroke-width:0.3"
       d="m 4.315,109.447 h 6.61 a 1.27,1.27 0 0 1 1.27,1.27 v 6.61 a 1.27,1.27 0 0 1 -1.27,1.27 h -6.61 a 1.27,1.27 0 0 1 -1.27,-1.27 v -6.61 a 1.27,1.27 0 0 1 1.27,-1.27 z" />
    <path
       id="knobring-orange"
       style="fill:none;stroke:#803300;stroke-width:0.3"
       d="m 3.048,100.07725 a 4.572,4.572 0 1 0 9.144,0 4.572,4.572 0 1 0 -9.144,0 z" />
  </g>
  <g
     inkscape:groupmode="layer"
     id="layer-text-orange"
     inkscape:label="TextOrange"
     style="display:none">
    <path
       id="text-title-orange"
       style="fill:#ff6600;fill-rule:nonzero;stroke:none"
       d="M 7.9269993,2.0438866 H 8.636 V 4.474746 q 0,0.5112522 -0.2845649,0.8199328 -0.2845649,0.3086805 -0.7331164,0.3086805 -0.4823134,0 -0.7499973,-0.2869764 Q 6.6006375,5.0294064 6.6006375,4.5181542 h 0.7114122 q 0,0.4967828 0.306269,0.4967828 0.3086806,0 0.3086806,-0.5739529 z" />
    <path
       id="text-orange-orange"
       style="fill:#ff6600;fill-rule:nonzero;stroke:none"
       d="m 3.4807266,123.14444 q 0,0.50471 -0.2385724,0.78376 -0.2385723,0.27905 -0.6623181,0.27905 -0.4220233,0 -0.6631794,-0.27647 -0.2411562,-0.27647 -0.2446013,-0.77428 v -0.42891 q 0,-0.51677 0.2394337,-0.80702 0.2394336,-0.29024 0.6649019,-0.29024 0.4185782,0 0.6597343,0.28508 0.2411562,0.28508 0.2446013,0.80012 z m -0.5081505,-0.4203 q 0,-0.33934 -0.096462,-0.5047 -0.096462,-0.16537 -0.2997227,-0.16537 -0.2015376,0 -0.2980001,0.15934 -0.096462,0.15933 -0.099908,0.48489 v 0.44614 q 0,0.32901 0.098185,0.4849 0.098185,0.15589 0.3031677,0.15589 0.1980926,0 0.294555,-0.15245 0.096462,-0.15244 0.098185,-0.47284 z m 1.6312491,0.53227 H 4.3523338 v 0.91639 H 3.8459059 v -2.50802 H 4.653779 q 0.3806822,0 0.5882488,0.19723 0.2075665,0.19723 0.2075665,0.56069 0,0.49953 -0.3634568,0.69935 l 0.4392487,1.02663 v 0.0241 H 4.9810624 Z m -0.2514914,-0.42203 h 0.2876649 q 0.1515838,0 0.2273758,-0.10077 0.075792,-0.10076 0.075792,-0.26957 0,-0.37724 -0.294555,-0.37724 H 4.3523338 Z m 2.6423824,0.8251 H 6.3039761 L 6.1696177,124.1728 H 5.6339065 l 0.7837575,-2.50802 h 0.4633643 l 0.7889252,2.50802 H 7.1290747 Z m -0.5804973,-0.42202 h 0.468532 l -0.234266,-0.894 z m 3.2435503,0.93534 H 9.1513413 l -0.7406939,-1.64503 v 1.64503 h -0.506428 v -2.50802 h 0.506428 l 0.7424164,1.64675 v -1.64675 h 0.5047054 z m 2.1118388,-0.28422 q -0.146416,0.15847 -0.35915,0.23857 -0.212735,0.0801 -0.465948,0.0801 -0.432359,0 -0.671793,-0.26785 -0.239433,-0.26786 -0.246323,-0.77946 v -0.4513 q 0,-0.51849 0.226514,-0.7984 0.226515,-0.27991 0.660596,-0.27991 0.408243,0 0.615809,0.20153 0.207567,0.20154 0.240295,0.63218 H 11.27696 q -0.02067,-0.23944 -0.09991,-0.32643 -0.07924,-0.087 -0.248046,-0.087 -0.204983,0 -0.298,0.14986 -0.09302,0.14986 -0.09646,0.47714 v 0.45475 q 0,0.34279 0.102491,0.49868 0.102492,0.15589 0.336758,0.15589 0.149861,0 0.242878,-0.0603 l 0.04479,-0.031 v -0.45992 h -0.354844 v -0.38241 h 0.862994 z m 1.653642,-0.80098 h -0.788925 v 0.6649 h 0.933619 v 0.4203 h -1.440047 v -2.50802 h 1.436602 v 0.42202 h -0.930174 v 0.59255 h 0.788925 z" />
    <path
       id="text-line-orange"
       style="fill:#ff6600;fill-rule:nonzero;stroke:none"
       d="m 5.0051811,127.3085 h 0.8888326 v 0.4203 H 4.4987531 v -2.50802 h 0.506428 z m 1.7104861,0.4203 H 6.2092393 v -2.50802 h 0.5064279 z m 2.1790181,0 H 8.3882574 l -0.7406939,-1.64503 v 1.64503 H 7.1411356 v -2.50802 h 0.5064279 l 0.7424164,1.64675 v -1.64675 h 0.5047054 z m 1.7018737,-1.0852 H 9.8076336 v 0.6649 h 0.9336184 v 0.4203 H 9.3012057 v -2.50802 h 1.4366013 v 0.42202 H 9.8076336 v 0.59255 h 0.7889254 z" />
    <path
       id="text-label-out-orange"
       style="fill:#ff6600;fill-rule:nonzero;stroke:none"
       d="M 4.1209888,107.77896 H 3.894646 v 0.82475 H 3.4388599 v -2.25722 h 0.7270874 q 0.3426147,0 0.529425,0.1775 0.1868103,0.17751 0.1868103,0.50463 0,0.44958 -0.3271118,0.62941 l 0.3953247,0.92398 v 0.0217 H 4.4605029 Z M 3.894646,107.39914 h 0.2588989 q 0.1364258,0 0.2046387,-0.0907 0.068213,-0.0907 0.068213,-0.24262 0,-0.33951 -0.2651001,-0.33951 H 3.894646 Z m 2.4665161,0.22789 H 5.6511279 v 0.59841 h 0.8402588 v 0.37827 H 5.1953418 v -2.25722 h 1.2929443 v 0.37982 H 5.6511279 v 0.5333 h 0.7100342 z m 1.4696777,0.5147 H 7.2091724 l -0.1209229,0.46198 H 6.6061084 l 0.7053833,-2.25722 h 0.4170288 l 0.7100342,2.25722 H 7.9517627 Z M 7.3083911,107.7619 H 7.7300708 L 7.519231,106.9573 Z m 1.3410034,0.84181 v -2.25722 h 0.5968628 q 0.3953247,0 0.6301941,0.25114 0.2348696,0.25115 0.2395206,0.68833 v 0.36587 q 0,0.44494 -0.2348697,0.69841 -0.2348694,0.25347 -0.6472473,0.25347 z m 0.4557862,-1.8774 v 1.49913 h 0.1364257 q 0.2278931,0 0.3209107,-0.12015 0.093018,-0.12014 0.097668,-0.4147 v -0.39222 q 0,-0.31626 -0.088367,-0.44106 -0.088367,-0.1248 -0.3007568,-0.131 z m 2.0184813,0.63407 0.339514,-1.01389 h 0.496094 l -0.604614,1.43867 v 0.81855 h -0.461988 v -0.81855 l -0.606164,-1.43867 h 0.496094 z" />
    <path
       id="text-label-len-orange"
       style="fill:#ff6600;fill-rule:nonzero;stroke:none"
       d="m 5.7464709,94.001441 h 0.7999512 v 0.378271 H 5.2906848 V 92.122486 H 5.7464709 Z M 7.9757922,93.403028 H 7.2657581 v 0.598413 h 0.8402587 v 0.378271 H 6.8099719 v -2.257226 h 1.2929444 v 0.379822 H 7.2657581 v 0.5333 h 0.7100341 z m 1.9704224,0.976684 H 9.4904285 l -0.666626,-1.480529 v 1.480529 H 8.3680164 v -2.257226 h 0.4557861 l 0.6681763,1.48208 v -1.48208 h 0.4542358 z" />
  </g>
  <g
     inkscape:groupmode="layer"
     id="layer-text-work"
     inkscape:label="TextWork"
     style="display:inline">
    <text
       id="text-title"
       x="7.7031989"
       y="5.5551286"
       style="font-style:normal;font-weight:bold;font-size:4.93889px;font-family:'Roboto Condensed';-inkscape-font-specification:'Roboto Condensed, Bold';text-align:center;text-anchor:middle;fill:#ff6600;stroke:none"><tspan
         id="tspan-title"
         x="7.7031989"
         y="5.5551286">J</tspan></text>
    <text
       id="text-orange"
       x="1.5135814"
       y="124.1728"
       style="font-style:normal;font-weight:bold;font-size:3.52777px;font-family:'Roboto Condensed';-inkscape-font-specification:'Roboto Condensed, Bold';text-align:start;text-anchor:start;fill:#ff6600;stroke:none"><tspan
         id="tspan-orange"
         x="1.5135814"
         y="124.1728">ORANGE</tspan></text>
    <text
       id="text-line"
       x="4.2972155"
       y="127.7288"
       style="font-style:normal;font-weight:bold;font-size:3.52777px;font-family:'Roboto Condensed';-inkscape-font-specification:'Roboto Condensed, Bold';text-align:start;text-anchor:start;fill:#ff6600;stroke:none"><tspan
         id="tspan-line"
         x="4.2972155"
         y="127.7288">LINE</tspan></text>
    <text
       id="text-label-out"
       x="7.6199999"
       y="108.60371"
       style="font-style:normal;font-weight:bold;font-size:3.175px;font-family:'Roboto Condensed';-inkscape-font-specification:'Roboto Condensed, Bold';text-align:center;text-anchor:middle;fill:#ff6600;stroke:none"><tspan
         id="tspan-label-out"
         x="7.6199999"
         y="108.60371">READY</tspan></text>
    <text
       id="text-label-len"
       x="7.6199999"
       y="94.379715"
       style="font-style:normal;font-weight:bold;font-size:3.175px;font-family:'Roboto Condensed';-inkscape-font-specification:'Roboto Condensed, Bold';text-align:center;text-anchor:middle;fill:#ff6600;stroke:none"><tspan
         id="tspan-label-len"
         x="7.6199999"
         y="94.379715">LEN</tspan></text>
  </g>
  <g
     inkscape:groupmode="layer"
     id="layer-controls"
     inkscape:label="Controls"
     style="display:inline">
    <g
       id="jack-in1"
       transform="translate(-22.860001,-102.109220)"
       style="display:inline;opacity:0.98">
      <path
         style="fill:#e6e6e6;fill-opacity:1;fill-rule:nonzero;stroke:#636663;stroke-width:0.3048;stroke-miterlimit:4;stroke-dasharray:none;stroke-opacity:1"
         d="m 30.480001,120.64004 c -2.235179,0 -4.05281,-1.81762 -4.05281,-4.05282 0,-2.23516 1.817631,-4.05281 4.05281,-4.05281 2.235176,0 4.05281,1.81765 4.05281,4.05281 0,2.2352 -1.817634,4.05282 -4.05281,4.05282"
         id="jack-in1-p1" />
      <path
         style="fill:#e6e6e6;fill-opacity:1;fill-rule:nonzero;stroke:#636663;stroke-width:0.3048;stroke-miterlimit:4;stroke-dasharray:none;stroke-opacity:1"
         d="m 30.480001,119.50593 c -1.609548,0 -2.918685,-1.30916 -2.918685,-2.91871 0,-1.60954 1.309137,-2.91867 2.918685,-2.91867 1.609549,0 2.918682,1.30913 2.918682,2.91867 0,1.60955 -1.309133,2.91871 -2.918682,2.91871"
         id="jack-in1-p2" />
      <path
         style="fill:#000000;fill-opacity:1;fill-rule:nonzero;stroke:none;stroke-width:0.3048;stroke-miterlimit:4;stroke-dasharray:none"
         d="m 32.279718,116.58722 c 0,0.99357 -0.806153,1.79974 -1.799717,1.79974 -0.993567,0 -1.79972,-0.80617 -1.79972,-1.79974 0,-0.99356 0.806153,-1.79969 1.79972,-1.79969 0.993564,0 1.799717,0.80613 1.799717,1.79969"
         id="jack-in1-p3" />
    </g>
    <g
       id="jack-in2"
       transform="translate(-22.860001,-91.949220)"
       style="display:inline;opacity:0.98">
      <path
         style="fill:#e6e6e6;fill-opacity:1;fill-rule:nonzero;stroke:#636663;stroke-width:0.3048;stroke-miterlimit:4;stroke-dasharray:none;stroke-opacity:1"
         d="m 30.480001,120.64004 c -2.235179,0 -4.05281,-1.81762 -4.05281,-4.05282 0,-2.23516 1.817631,-4.05281 4.05281,-4.05281 2.235176,0 4.05281,1.81765 4.05281,4.05281 0,2.2352 -1.817634,4.05282 -4.05281,4.05282"
         id="jack-in2-p1" />
      <path
         style="fill:#e6e6e6;fill-opacity:1;fill-rule:nonzero;stroke:#636663;stroke-width:0.3048;stroke-miterlimit:4;stroke-dasharray:none;stroke-opacity:1"
         d="m 30.480001,119.50593 c -1.609548,0 -2.918685,-1.30916 -2.918685,-2.91871 0,-1.60954 1.309137,-2.91867 2.918685,-2.91867 1.609549,0 2.918682,1.30913 2.918682,2.91867 0,1.60955 -1.309133,2.91871 -2.918682,2.91871"
         id="jack-in2-p2" />
      <path
         style="fill:#000000;fill-opacity:1;fill-rule:nonzero;stroke:none;stroke-width:0.3048;stroke-miterlimit:4;stroke-dasharray:none"
         d="m 32.279718,116.58722 c 0,0.99357 -0.806153,1.79974 -1.799717,1.79974 -0.993567,0 -1.79972,-0.80617 -1.79972,-1.79974 0,-0.99356 0.806153,-1.79969 1.79972,-1.79969 0.993564,0 1.799717,0.80613 1.799717,1.79969"
         id="jack-in2-p3" />
    </g>
    <g
       id="jack-in3"
       transform="translate(-22.860001,-81.789220)"
       style="display:inline;opacity:0.98">
      <path
         style="fill:#e6e6e6;fill-opacity:1;fill-rule:nonzero;stroke:#636663;stroke-width:0.3048;stroke-miterlimit:4;stroke-dasharray:none;stroke-opacity:1"
         d="m 30.480001,120.64004 c -2.235179,0 -4.05281,-1.81762 -4.05281,-4.05282 0,-2.23516 1.817631,-4.05281 4.05281,-4.05281 2.235176,0 4.05281,1.81765 4.05281,4.05281 0,2.2352 -1.817634,4.05282 -4.05281,4.05282"
         id="jack-in3-p1" />
      <path
         style="fill:#e6e6e6;fill-opacity:1;fill-rule:nonzero;stroke:#636663;stroke-width:0.3048;stroke-miterlimit:4;stroke-dasharray:none;stroke-opacity:1"
         d="m 30.480001,119.50593 c -1.609548,0 -2.918685,-1.30916 -2.918685,-2.91871 0,-1.60954 1.309137,-2.91867 2.918685,-2.91867 1.609549,0 2.918682,1.30913 2.918682,2.91867 0,1.60955 -1.309133,2.91871 -2.918682,2.91871"
         id="jack-in3-p2" />
      <path
         style="fill:#000000;fill-opacity:1;fill-rule:nonzero;stroke:none;stroke-width:0.3048;stroke-miterlimit:4;stroke-dasharray:none"
         d="m 32.279718,116.58722 c 0,0.99357 -0.806153,1.79974 -1.799717,1.79974 -0.993567,0 -1.79972,-0.80617 -1.79972,-1.79974 0,-0.99356 0.806153,-1.79969 1.79972,-1.79969 0.993564,0 1.799717,0.80613 1.799717,1.79969"
         id="jack-in3-p3" />
    </g>
    <g
       id="jack-in4"
       transform="translate(-22.860001,-71.629220)"
       style="display:inline;opacity:0.98">
      <path
         style="fill:#e6e6e6;fill-opacity:1;fill-rule:nonzero;stroke:#636663;stroke-width:0.3048;stroke-miterlimit:4;stroke-dasharray:none;stroke-opacity:1"
         d="m 30.480001,120.64004 c -2.235179,0 -4.05281,-1.81762 -4.05281,-4.05282 0,-2.23516 1.817631,-4.05281 4.05281,-4.05281 2.235176,0 4.05281,1.81765 4.05281,4.05281 0,2.2352 -1.817634,4.05282 -4.05281,4.05282"
         id="jack-in4-p1" />
      <path
         style="fill:#e6e6e6;fill-opacity:1;fill-rule:nonzero;stroke:#636663;stroke-width:0.3048;stroke-miterlimit:4;stroke-dasharray:none;stroke-opacity:1"
         d="m 30.480001,119.50593 c -1.609548,0 -2.918685,-1.30916 -2.918685,-2.91871 0,-1.60954 1.309137,-2.91867 2.918685,-2.91867 1.609549,0 2.918682,1.30913 2.918682,2.91867 0,1.60955 -1.309133,2.91871 -2.918682,2.91871"
         id="jack-in4-p2" />
      <path
         style="fill:#000000;fill-opacity:1;fill-rule:nonzero;stroke:none;stroke-width:0.3048;stroke-miterlimit:4;stroke-dasharray:none"
         d="m 32.279718,116.58722 c 0,0.99357 -0.806153,1.79974 -1.799717,1.79974 -0.993567,0 -1.79972,-0.80617 -1.79972,-1.79974 0,-0.99356 0.806153,-1.79969 1.79972,-1.79969 0.993564,0 1.799717,0.80613 1.799717,1.79969"
         id="jack-in4-p3" />
    </g>
    <g
       id="jack-in5"
       transform="translate(-22.860001,-61.469220)"
       style="display:inline;opacity:0.98">
      <path
         style="fill:#e6e6e6;fill-opacity:1;fill-rule:nonzero;stroke:#636663;stroke-width:0.3048;stroke-miterlimit:4;stroke-dasharray:none;stroke-opacity:1"
         d="m 30.480001,120.64004 c -2.235179,0 -4.05281,-1.81762 -4.05281,-4.05282 0,-2.23516 1.817631,-4.05281 4.05281,-4.05281 2.235176,0 4.05281,1.81765 4.05281,4.05281 0,2.2352 -1.817634,4.05282 -4.05281,4.05282"
         id="jack-in5-p1" />
      <path
         style="fill:#e6e6e6;fill-opacity:1;fill-rule:nonzero;stroke:#636663;stroke-width:0.3048;stroke-miterlimit:4;stroke-dasharray:none;stroke-opacity:1"
         d="m 30.480001,119.50593 c -1.609548,0 -2.918685,-1.30916 -2.918685,-2.91871 0,-1.60954 1.309137,-2.91867 2.918685,-2.91867 1.609549,0 2.918682,1.30913 2.918682,2.91867 0,1.60955 -1.309133,2.91871 -2.918682,2.91871"
         id="jack-in5-p2" />
      <path
         style="fill:#000000;fill-opacity:1;fill-rule:nonzero;stroke:none;stroke-width:0.3048;stroke-miterlimit:4;stroke-dasharray:none"
         d="m 32.279718,116.58722 c 0,0.99357 -0.806153,1.79974 -1.799717,1.79974 -0.993567,0 -1.79972,-0.80617 -1.79972,-1.79974 0,-0.99356 0.806153,-1.79969 1.79972,-1.79969 0.993564,0 1.799717,0.80613 1.799717,1.79969"
         id="jack-in5-p3" />
    </g>
    <g
       id="jack-in6"
       transform="translate(-22.860001,-51.309220)"
       style="display:inline;opacity:0.98">
      <path
         style="fill:#e6e6e6;fill-opacity:1;fill-rule:nonzero;stroke:#636663;stroke-width:0.3048;stroke-miterlimit:4;stroke-dasharray:none;stroke-opacity:1"
         d="m 30.480001,120.64004 c -2.235179,0 -4.05281,-1.81762 -4.05281,-4.05282 0,-2.23516 1.817631,-4.05281 4.05281,-4.05281 2.235176,0 4.05281,1.81765 4.05281,4.05281 0,2.2352 -1.817634,4.05282 -4.05281,4.05282"
         id="jack-in6-p1" />
      <path
         style="fill:#e6e6e6;fill-opacity:1;fill-rule:nonzero;stroke:#636663;stroke-width:0.3048;stroke-miterlimit:4;stroke-dasharray:none;stroke-opacity:1"
         d="m 30.480001,119.50593 c -1.609548,0 -2.918685,-1.30916 -2.918685,-2.91871 0,-1.60954 1.309137,-2.91867 2.918685,-2.91867 1.609549,0 2.918682,1.30913 2.918682,2.91867 0,1.60955 -1.309133,2.91871 -2.918682,2.91871"
         id="jack-in6-p2" />
      <path
         style="fill:#000000;fill-opacity:1;fill-rule:nonzero;stroke:none;stroke-width:0.3048;stroke-miterlimit:4;stroke-dasharray:none"
         d="m 32.279718,116.58722 c 0,0.99357 -0.806153,1.79974 -1.799717,1.79974 -0.993567,0 -1.79972,-0.80617 -1.79972,-1.79974 0,-0.99356 0.806153,-1.79969 1.79972,-1.79969 0.993564,0 1.799717,0.80613 1.799717,1.79969"
         id="jack-in6-p3" />
    </g>
    <g
       id="jack-in7"
       transform="translate(-22.860001,-41.149220)"
       style="display:inline;opacity:0.98">
      <path
         style="fill:#e6e6e6;fill-opacity:1;fill-rule:nonzero;stroke:#636663;stroke-width:0.3048;stroke-miterlimit:4;stroke-dasharray:none;stroke-opacity:1"
         d="m 30.480001,120.64004 c -2.235179,0 -4.05281,-1.81762 -4.05281,-4.05282 0,-2.23516 1.817631,-4.05281 4.05281,-4.05281 2.235176,0 4.05281,1.81765 4.05281,4.05281 0,2.2352 -1.817634,4.05282 -4.05281,4.05282"
         id="jack-in7-p1" />
      <path
         style="fill:#e6e6e6;fill-opacity:1;fill-rule:nonzero;stroke:#636663;stroke-width:0.3048;stroke-miterlimit:4;stroke-dasharray:none;stroke-opacity:1"
         d="m 30.480001,119.50593 c -1.609548,0 -2.918685,-1.30916 -2.918685,-2.91871 0,-1.60954 1.309137,-2.91867 2.918685,-2.91867 1.609549,0 2.918682,1.30913 2.918682,2.91867 0,1.60955 -1.309133,2.91871 -2.918682,2.91871"
         id="jack-in7-p2" />
      <path
         style="fill:#000000;fill-opacity:1;fill-rule:nonzero;stroke:none;stroke-width:0.3048;stroke-miterlimit:4;stroke-dasharray:none"
         d="m 32.279718,116.58722 c 0,0.99357 -0.806153,1.79974 -1.799717,1.79974 -0.993567,0 -1.79972,-0.80617 -1.79972,-1.79974 0,-0.99356 0.806153,-1.79969 1.79972,-1.79969 0.993564,0 1.799717,0.80613 1.799717,1.79969"
         id="jack-in7-p3" />
    </g>
    <g
       id="jack-in8"
       transform="translate(-22.860001,-30.989220)"
       style="display:inline;opacity:0.98">
      <path
         style="fill:#e6e6e6;fill-opacity:1;fill-rule:nonzero;stroke:#636663;stroke-width:0.3048;stroke-miterlimit:4;stroke-dasharray:none;stroke-opacity:1"
         d="m 30.480001,120.64004 c -2.235179,0 -4.05281,-1.81762 -4.05281,-4.05282 0,-2.23516 1.817631,-4.05281 4.05281,-4.05281 2.235176,0 4.05281,1.81765 4.05281,4.05281 0,2.2352 -1.817634,4.05282 -4.05281,4.05282"
         id="jack-in8-p1" />
      <path
         style="fill:#e6e6e6;fill-opacity:1;fill-rule:nonzero;stroke:#636663;stroke-width:0.3048;stroke-miterlimit:4;stroke-dasharray:none;stroke-opacity:1"
         d="m 30.480001,119.50593 c -1.609548,0 -2.918685,-1.30916 -2.918685,-2.91871 0,-1.60954 1.309137,-2.91867 2.918685,-2.91867 1.609549,0 2.918682,1.30913 2.918682,2.91867 0,1.60955 -1.309133,2.91871 -2.918682,2.91871"
         id="jack-in8-p2" />
      <path
         style="fill:#000000;fill-opacity:1;fill-rule:nonzero;stroke:none;stroke-width:0.3048;stroke-miterlimit:4;stroke-dasharray:none"
         d="m 32.279718,116.58722 c 0,0.99357 -0.806153,1.79974 -1.799717,1.79974 -0.993567,0 -1.79972,-0.80617 -1.79972,-1.79974 0,-0.99356 0.806153,-1.79969 1.79972,-1.79969 0.993564,0 1.799717,0.80613 1.799717,1.79969"
         id="jack-in8-p3" />
    </g>
    <g
       id="knob-gatelen"
       style="display:inline;opacity:0.98"
       transform="translate(-164.473573,28.680205)">
      <path
         id="knob-gatelen-p1"
         d="m 176.09263,71.397045 c 0,2.208995 -1.79006,3.999067 -3.99905,3.999067 -2.20902,0 -4.00046,-1.790072 -4.00046,-3.999067 0,-2.210372 1.79144,-4.000444 4.00046,-4.000444 2.20899,0 3.99905,1.790072 3.99905,4.000444"
         style="fill:#000000;fill-opacity:1;fill-rule:nonzero;stroke:none;stroke-width:0.352778"
         inkscape:connector-curvature="0" />
      <path
         id="knob-gatelen-p2"
         d="m 172.22587,67.41176 c -0.0427,-0.0097 -0.0868,-0.01517 -0.13229,-0.01517 -0.0455,0 -0.0896,0.0055 -0.13367,0.01517 v 4.034896 h 0.26596 z m 0,0"
         style="fill:#ffffff;fill-opacity:1;fill-rule:evenodd;stroke:none;stroke-width:0.352778"
         inkscape:connector-curvature="0" />
    </g>
    <g
       id="jack-out"
       transform="translate(-22.860001,-2.56522)"
       style="display:inline;opacity:0.98">
      <path
         style="fill:#e6e6e6;fill-opacity:1;fill-rule:nonzero;stroke:#636663;stroke-width:0.3048;stroke-miterlimit:4;stroke-dasharray:none;stroke-opacity:1"
         d="m 30.480001,120.64004 c -2.235179,0 -4.05281,-1.81762 -4.05281,-4.05282 0,-2.23516 1.817631,-4.05281 4.05281,-4.05281 2.235176,0 4.05281,1.81765 4.05281,4.05281 0,2.2352 -1.817634,4.05282 -4.05281,4.05282"
         id="jack-out-p1" />
      <path
         style="fill:#e6e6e6;fill-opacity:1;fill-rule:nonzero;stroke:#636663;stroke-width:0.3048;stroke-miterlimit:4;stroke-dasharray:none;stroke-opacity:1"
         d="m 30.480001,119.50593 c -1.609548,0 -2.918685,-1.30916 -2.918685,-2.91871 0,-1.60954 1.309137,-2.91867 2.918685,-2.91867 1.609549,0 2.918682,1.30913 2.918682,2.91867 0,1.60955 -1.309133,2.91871 -2.918682,2.91871"
         id="jack-out-p2" />
      <path
         style="fill:#000000;fill-opacity:1;fill-rule:nonzero;stroke:none;stroke-width:0.3048;stroke-miterlimit:4;stroke-dasharray:none"
         d="m 32.279718,116.58722 c 0,0.99357 -0.806153,1.79974 -1.799717,1.79974 -0.993567,0 -1.79972,-0.80617 -1.79972,-1.79974 0,-0.99356 0.806153,-1.79969 1.79972,-1.79969 0.993564,0 1.799717,0.80613 1.799717,1.79969"
         id="jack-out-p3" />
    </g>
  </g>
</svg>
