<?xml version="1.0" encoding="UTF-8" standalone="no"?>
<svg width="168.0mm" height="128.5mm" viewBox="0 0 168.0 128.5" version="1.1" id="svg_root" sodipodi:docname="LanesWork.svg" xmlns:inkscape="http://www.inkscape.org/namespaces/inkscape" xmlns:sodipodi="http://sodipodi.sourceforge.net/DTD/sodipodi-0.dtd" xmlns="http://www.w3.org/2000/svg" xmlns:svg="http://www.w3.org/2000/svg">
  <g inkscape:label="background" inkscape:groupmode="layer" id="layer_background">
    <rect x="0" y="0" width="168.0" height="128.5" fill="#d9d9d9" stroke="#000000" stroke-width="0.5" id="panel_background"/>
  </g>
  <g inkscape:label="controls" inkscape:groupmode="layer" id="layer_controls">
    <circle cx="12.200" cy="20.200" r="3.5" fill="none" stroke="#000000" stroke-width="0.3" id="control_1"/>
    <circle cx="20.200" cy="20.200" r="3.5" fill="none" stroke="#000000" stroke-width="0.3" id="control_2"/>
    <circle cx="28.200" cy="20.200" r="3.5" fill="none" stroke="#000000" stroke-width="0.3" id="control_3"/>
    <circle cx="36.200" cy="20.200" r="3.5" fill="none" stroke="#000000" stroke-width="0.3" id="control_4"/>
    <circle cx="12.200" cy="32.200" r="3.5" fill="none" stroke="#000000" stroke-width="0.3" id="control_5"/>
    <circle cx="20.200" cy="32.200" r="3.5" fill="none" stroke="#000000" stroke-width="0.3" id="control_6"/>
    <circle cx="28.200" cy="32.200" r="3.5" fill="none" stroke="#000000" stroke-width="0.3" id="control_7"/>
    <circle cx="36.200" cy="32.200" r="3.5" fill="none" stroke="#000000" stroke-width="0.3" id="control_8"/>
    <circle cx="12.200" cy="44.200" r="3.5" fill="none" stroke="#000000" stroke-width="0.3" id="control_9"/>
    <circle cx="20.200" cy="44.200" r="3.5" fill="none" stroke="#000000" stroke-width="0.3" id="control_10"/>
    <circle cx="28.200" cy="44.200" r="3.5" fill="none" stroke="#000000" stroke-width="0.3" id="control_11"/>
    <circle cx="36.200" cy="44.200" r="3.5" fill="none" stroke="#000000" stroke-width="0.3" id="control_12"/>
    <circle cx="12.200" cy="56.200" r="3.5" fill="none" stroke="#000000" stroke-width="0.3" id="control_13"/>
    <circle cx="20.200" cy="56.200" r="3.5" fill="none" stroke="#000000" stroke-width="0.3" id="control_14"/>
    <circle cx="28.200" cy="56.200" r="3.5" fill="none" stroke="#000000" stroke-width="0.3" id="control_15"/>
    <circle cx="36.200" cy="56.200" r="3.5" fill="none" stroke="#000000" stroke-width="0.3" id="control_16"/>
    <circle cx="12.200" cy="68.200" r="3.5" fill="none" stroke="#000000" stroke-width="0.3" id="control_17"/>
    <circle cx="20.200" cy="68.200" r="3.5" fill="none" stroke="#000000" stroke-width="0.3" id="control_18"/>
    <circle cx="28.200" cy="68.200" r="3.5" fill="none" stroke="#000000" stroke-width="0.3" id="control_19"/>
    <circle cx="36.200" cy="68.200" r="3.5" fill="none" stroke="#000000" stroke-width="0.3" id="control_20"/>
    <circle cx="12.200" cy="80.200" r="3.5" fill="none" stroke="#000000" stroke-width="0.3" id="control_21"/>
    <circle cx="20.200" cy="80.200" r="3.5" fill="none" stroke="#000000" stroke-width="0.3" id="control_22"/>
    <circle cx="28.200" cy="80.200" r="3.5" fill="none" stroke="#000000" stroke-width="0.3" id="control_23"/>
    <circle cx="36.200" cy="80.200" r="3.5" fill="none" stroke="#000000" stroke-width="0.3" id="control_24"/>
    <circle cx="12.200" cy="92.200" r="3.5" fill="none" stroke="#000000" stroke-width="0.3" id="control_25"/>
    <circle cx="20.200" cy="92.200" r="3.5" fill="none" stroke="#000000" stroke-width="0.3" id="control_26"/>
    <circle cx="28.200" cy="92.200" r="3.5" fill="none" stroke="#000000" stroke-width="0.3" id="control_27"/>
    <circle cx="36.200" cy="92.200" r="3.5" fill="none" stroke="#000000" stroke-width="0.3" id="control_28"/>
    <circle cx="12.200" cy="104.200" r="3.5" fill="none" stroke="#000000" stroke-width="0.3" id="control_29"/>
    <circle cx="20.200" cy="104.200" r="3.5" fill="none" stroke="#000000" stroke-width="0.3" id="control_30"/>
    <circle cx="28.200" cy="104.200" r="3.5" fill="none" stroke="#000000" stroke-width="0.3" id="control_31"/>
    <circle cx="36.200" cy="104.200" r="3.5" fill="none" stroke="#000000" stroke-width="0.3" id="control_32"/>
    <circle cx="52.200" cy="20.200" r="3.5" fill="none" stroke="#000000" stroke-width="0.3" id="control_33"/>
    <circle cx="60.200" cy="20.200" r="3.5" fill="none" stroke="#000000" stroke-width="0.3" id="control_34"/>
    <circle cx="68.200" cy="20.200" r="3.5" fill="none" stroke="#000000" stroke-width="0.3" id="control_35"/>
    <circle cx="76.200" cy="20.200" r="3.5" fill="none" stroke="#000000" stroke-width="0.3" id="control_36"/>
    <circle cx="52.200" cy="32.200" r="3.5" fill="none" stroke="#000000" stroke-width="0.3" id="control_37"/>
    <circle cx="60.200" cy="32.200" r="3.5" fill="none" stroke="#000000" stroke-width="0.3" id="control_38"/>
    <circle cx="68.200" cy="32.200" r="3.5" fill="none" stroke="#000000" stroke-width="0.3" id="control_39"/>
    <circle cx="76.200" cy="32.200" r="3.5" fill="none" stroke="#000000" stroke-width="0.3" id="control_40"/>
    <circle cx="52.200" cy="44.200" r="3.5" fill="none" stroke="#000000" stroke-width="0.3" id="control_41"/>
    <circle cx="60.200" cy="44.200" r="3.5" fill="none" stroke="#000000" stroke-width="0.3" id="control_42"/>
    <circle cx="68.200" cy="44.200" r="3.5" fill="none" stroke="#000000" stroke-width="0.3" id="control_43"/>
    <circle cx="76.200" cy="44.200" r="3.5" fill="none" stroke="#000000" stroke-width="0.3" id="control_44"/>
    <circle cx="52.200" cy="56.200" r="3.5" fill="none" stroke="#000000" stroke-width="0.3" id="control_45"/>
    <circle cx="60.200" cy="56.200" r="3.5" fill="none" stroke="#000000" stroke-width="0.3" id="control_46"/>
    <circle cx="68.200" cy="56.200" r="3.5" fill="none" stroke="#000000" stroke-width="0.3" id="control_47"/>
    <circle cx="76.200" cy="56.200" r="3.5" fill="none" stroke="#000000" stroke-width="0.3" id="control_48"/>
    <circle cx="52.200" cy="68.200" r="3.5" fill="none" stroke="#000000" stroke-width="0.3" id="control_49"/>
    <circle cx="60.200" cy="68.200" r="3.5" fill="none" stroke="#000000" stroke-width="0.3" id="control_50"/>
    <circle cx="68.200" cy="68.200" r="3.5" fill="none" stroke="#000000" stroke-width="0.3" id="control_51"/>
    <circle cx="76.200" cy="68.200" r="3.5" fill="none" stroke="#000000" stroke-width="0.3" id="control_52"/>
    <circle cx="52.200" cy="80.200" r="3.5" fill="none" stroke="#000000" stroke-width="0.3" id="control_53"/>
    <circle cx="60.200" cy="80.200" r="3.5" fill="none" stroke="#000000" stroke-width="0.3" id="control_54"/>
    <circle cx="68.200" cy="80.200" r="3.5" fill="none" stroke="#000000" stroke-width="0.3" id="control_55"/>
    <circle cx="76.200" cy="80.200" r="3.5" fill="none" stroke="#000000" stroke-width="0.3" id="control_56"/>
    <circle cx="52.200" cy="92.200" r="3.5" fill="none" stroke="#000000" stroke-width="0.3" id="control_57"/>
    <circle cx="60.200" cy="92.200" r="3.5" fill="none" stroke="#000000" stroke-width="0.3" id="control_58"/>
    <circle cx="68.200" cy="92.200" r="3.5" fill="none" stroke="#000000" stroke-width="0.3" id="control_59"/>
    <circle cx="76.200" cy="92.200" r="3.5" fill="none" stroke="#000000" stroke-width="0.3" id="control_60"/>
    <circle cx="52.200" cy="104.200" r="3.5" fill="none" stroke="#000000" stroke-width="0.3" id="control_61"/>
    <circle cx="60.200" cy="104.200" r="3.5" fill="none" stroke="#000000" stroke-width="0.3" id="control_62"/>
    <circle cx="68.200" cy="104.200" r="3.5" fill="none" stroke="#000000" stroke-width="0.3" id="control_63"/>
    <circle cx="76.200" cy="104.200" r="3.5" fill="none" stroke="#000000" stroke-width="0.3" id="control_64"/>
    <circle cx="92.200" cy="20.200" r="3.5" fill="none" stroke="#000000" stroke-width="0.3" id="control_65"/>
    <circle cx="100.200" cy="20.200" r="3.5" fill="none" stroke="#000000" stroke-width="0.3" id="control_66"/>
    <circle cx="108.200" cy="20.200" r="3.5" fill="none" stroke="#000000" stroke-width="0.3" id="control_67"/>
    <circle cx="116.200" cy="20.200" r="3.5" fill="none" stroke="#000000" stroke-width="0.3" id="control_68"/>
    <circle cx="92.200" cy="32.200" r="3.5" fill="none" stroke="#000000" stroke-width="0.3" id="control_69"/>
    <circle cx="100.200" cy="32.200" r="3.5" fill="none" stroke="#000000" stroke-width="0.3" id="control_70"/>
    <circle cx="108.200" cy="32.200" r="3.5" fill="none" stroke="#000000" stroke-width="0.3" id="control_71"/>
    <circle cx="116.200" cy="32.200" r="3.5" fill="none" stroke="#000000" stroke-width="0.3" id="control_72"/>
    <circle cx="92.200" cy="44.200" r="3.5" fill="none" stroke="#000000" stroke-width="0.3" id="control_73"/>
    <circle cx="100.200" cy="44.200" r="3.5" fill="none" stroke="#000000" stroke-width="0.3" id="control_74"/>
    <circle cx="108.200" cy="44.200" r="3.5" fill="none" stroke="#000000" stroke-width="0.3" id="control_75"/>
    <circle cx="116.200" cy="44.200" r="3.5" fill="none" stroke="#000000" stroke-width="0.3" id="control_76"/>
    <circle cx="92.200" cy="56.200" r="3.5" fill="none" stroke="#000000" stroke-width="0.3" id="control_77"/>
    <circle cx="100.200" cy="56.200" r="3.5" fill="none" stroke="#000000" stroke-width="0.3" id="control_78"/>
    <circle cx="108.200" cy="56.200" r="3.5" fill="none" stroke="#000000" stroke-width="0.3" id="control_79"/>
    <circle cx="116.200" cy="56.200" r="3.5" fill="none" stroke="#000000" stroke-width="0.3" id="control_80"/>
    <circle cx="92.200" cy="68.200" r="3.5" fill="none" stroke="#000000" stroke-width="0.3" id="control_81"/>
    <circle cx="100.200" cy="68.200" r="3.5" fill="none" stroke="#000000" stroke-width="0.3" id="control_82"/>
    <circle cx="108.200" cy="68.200" r="3.5" fill="none" stroke="#000000" stroke-width="0.3" id="control_83"/>
    <circle cx="116.200" cy="68.200" r="3.5" fill="none" stroke="#000000" stroke-width="0.3" id="control_84"/>
    <circle cx="92.200" cy="80.200" r="3.5" fill="none" stroke="#000000" stroke-width="0.3" id="control_85"/>
    <circle cx="100.200" cy="80.200" r="3.5" fill="none" stroke="#000000" stroke-width="0.3" id="control_86"/>
    <circle cx="108.200" cy="80.200" r="3.5" fill="none" stroke="#000000" stroke-width="0.3" id="control_87"/>
    <circle cx="116.200" cy="80.200" r="3.5" fill="none" stroke="#000000" stroke-width="0.3" id="control_88"/>
    <circle cx="92.200" cy="92.200" r="3.5" fill="none" stroke="#000000" stroke-width="0.3" id="control_89"/>
    <circle cx="100.200" cy="92.200" r="3.5" fill="none" stroke="#000000" stroke-width="0.3" id="control_90"/>
    <circle cx="108.200" cy="92.200" r="3.5" fill="none" stroke="#000000" stroke-width="0.3" id="control_91"/>
    <circle cx="116.200" cy="92.200" r="3.5" fill="none" stroke="#000000" stroke-width="0.3" id="control_92"/>
    <circle cx="92.200" cy="104.200" r="3.5" fill="none" stroke="#000000" stroke-width="0.3" id="control_93"/>
    <circle cx="100.200" cy="104.200" r="3.5" fill="none" stroke="#000000" stroke-width="0.3" id="control_94"/>
    <circle cx="108.200" cy="104.200" r="3.5" fill="none" stroke="#000000" stroke-width="0.3" id="control_95"/>
    <circle cx="116.200" cy="104.200" r="3.5" fill="none" stroke="#000000" stroke-width="0.3" id="control_96"/>
    <circle cx="132.200" cy="20.200" r="3.5" fill="none" stroke="#000000" stroke-width="0.3" id="control_97"/>
    <circle cx="140.200" cy="20.200" r="3.5" fill="none" stroke="#000000" stroke-width="0.3" id="control_98"/>
    <circle cx="148.200" cy="20.200" r="3.5" fill="none" stroke="#000000" stroke-width="0.3" id="control_99"/>
    <circle cx="156.200" cy="20.200" r="3.5" fill="none" stroke="#000000" stroke-width="0.3" id="control_100"/>
    <circle cx="132.200" cy="32.200" r="3.5" fill="none" stroke="#000000" stroke-width="0.3" id="control_101"/>
    <circle cx="140.200" cy="32.200" r="3.5" fill="none" stroke="#000000" stroke-width="0.3" id="control_102"/>
    <circle cx="148.200" cy="32.200" r="3.5" fill="none" stroke="#000000" stroke-width="0.3" id="control_103"/>
    <circle cx="156.200" cy="32.200" r="3.5" fill="none" stroke="#000000" stroke-width="0.3" id="control_104"/>
    <circle cx="132.200" cy="44.200" r="3.5" fill="none" stroke="#000000" stroke-width="0.3" id="control_105"/>
    <circle cx="140.200" cy="44.200" r="3.5" fill="none" stroke="#000000" stroke-width="0.3" id="control_106"/>
    <circle cx="148.200" cy="44.200" r="3.5" fill="none" stroke="#000000" stroke-width="0.3" id="control_107"/>
    <circle cx="156.200" cy="44.200" r="3.5" fill="none" stroke="#000000" stroke-width="0.3" id="control_108"/>
    <circle cx="132.200" cy="56.200" r="3.5" fill="none" stroke="#000000" stroke-width="0.3" id="control_109"/>
    <circle cx="140.200" cy="56.200" r="3.5" fill="none" stroke="#000000" stroke-width="0.3" id="control_110"/>
    <circle cx="148.200" cy="56.200" r="3.5" fill="none" stroke="#000000" stroke-width="0.3" id="control_111"/>
    <circle cx="156.200" cy="56.200" r="3.5" fill="none" stroke="#000000" stroke-width="0.3" id="control_112"/>
    <circle cx="132.200" cy="68.200" r="3.5" fill="none" stroke="#000000" stroke-width="0.3" id="control_113"/>
    <circle cx="140.200" cy="68.200" r="3.5" fill="none" stroke="#000000" stroke-width="0.3" id="control_114"/>
    <circle cx="148.200" cy="68.200" r="3.5" fill="none" stroke="#000000" stroke-width="0.3" id="control_115"/>
    <circle cx="156.200" cy="68.200" r="3.5" fill="none" stroke="#000000" stroke-width="0.3" id="control_116"/>
    <circle cx="132.200" cy="80.200" r="3.5" fill="none" stroke="#000000" stroke-width="0.3" id="control_117"/>
    <circle cx="140.200" cy="80.200" r="3.5" fill="none" stroke="#000000" stroke-width="0.3" id="control_118"/>
    <circle cx="148.200" cy="80.200" r="3.5" fill="none" stroke="#000000" stroke-width="0.3" id="control_119"/>
    <circle cx="156.200" cy="80.200" r="3.5" fill="none" stroke="#000000" stroke-width="0.3" id="control_120"/>
    <circle cx="132.200" cy="92.200" r="3.5" fill="none" stroke="#000000" stroke-width="0.3" id="control_121"/>
    <circle cx="140.200" cy="92.200" r="3.5" fill="none" stroke="#000000" stroke-width="0.3" id="control_122"/>
    <circle cx="148.200" cy="92.200" r="3.5" fill="none" stroke="#000000" stroke-width="0.3" id="control_123"/>
    <circle cx="156.200" cy="92.200" r="3.5" fill="none" stroke="#000000" stroke-width="0.3" id="control_124"/>
    <circle cx="132.200" cy="104.200" r="3.5" fill="none" stroke="#000000" stroke-width="0.3" id="control_125"/>
    <circle cx="140.200" cy="104.200" r="3.5" fill="none" stroke="#000000" stroke-width="0.3" id="control_126"/>
    <circle cx="148.200" cy="104.200" r="3.5" fill="none" stroke="#000000" stroke-width="0.3" id="control_127"/>
    <circle cx="156.200" cy="104.200" r="3.5" fill="none" stroke="#000000" stroke-width="0.3" id="control_128"/>
  </g>
</svg>
