<?xml version="1.0" encoding="UTF-8" standalone="no"?>
<svg
   width="121.92mm"
   height="128.5mm"
   viewBox="0 0 121.92 128.5"
   version="1.1"
   id="svg_root"
   sodipodi:docname="NeoDark.svg"
   inkscape:version="1.4.4 (dcaf3e7, 2026-05-05)"
   xmlns:inkscape="http://www.inkscape.org/namespaces/inkscape"
   xmlns:sodipodi="http://sodipodi.sourceforge.net/DTD/sodipodi-0.dtd"
   xmlns="http://www.w3.org/2000/svg"
   xmlns:svg="http://www.w3.org/2000/svg">
  <defs
     id="defs1" />
  <sodipodi:namedview
     id="namedview1"
     pagecolor="#ffffff"
     bordercolor="#000000"
     borderopacity="0.25"
     inkscape:showpageshadow="2"
     inkscape:pageopacity="0.0"
     inkscape:pagecheckerboard="0"
     inkscape:document-units="mm"
     inkscape:deskcolor="#d1d1d1"
     showguides="true"
     showgrid="true"
     inkscape:zoom="4"
     inkscape:cx="60.96"
     inkscape:cy="64.25"
     inkscape:window-width="2560"
     inkscape:window-height="1494"
     inkscape:window-x="-11"
     inkscape:window-y="-11"
     inkscape:window-maximized="1"
     inkscape:current-layer="layer-text-work">
    <inkscape:grid
       type="xygrid"
       id="grid1"
       originx="0"
       originy="-0.252750"
       spacingx="0.254000"
       spacingy="0.254000"
       units="mm"
       visible="true" />
  </sodipodi:namedview>
  <!--
    NEO is a runtime-resizable module (panel width follows a user-dragged handle, persisted in
    PANEL_WIDTH_HP_JSON - see NeoResizeHandle/NeoPanelWidget in Neo.cpp) - unlike every other
    OrangeLine module, this Work.svg is NOT loaded at runtime via setPanel(). It exists purely as
    the authored reference/documentation for NeoPanelWidget's own code-drawn rendering: exact
    frame margins/corner radius/stroke colors, the accent stripe, and the title/wordmark
    typography all come from here, replicated procedurally in C++ against the ACTUAL current
    box.size.x every frame (see PanelDesignGuide.md's own conventions, applied below). The one
    deliberate structural difference from every other module: per Dieter's own spec, NEO's usual
    single outer content frame is split into two independent, fully-rounded peer frames instead -
    a fixed-width "global" sidebar frame (module-wide controls, deliberately abstract/empty for
    now) on the left and a "row area" frame (resizes with the module) on the right - separated by
    a real gap at NEO_GLOBAL_AREA_WIDTH_MM (6HP = 30.48mm, itself always a whole-HP value so the
    seam lines up with real Eurorack pitch) rather than sharing one touching edge. The gap itself
    is NEO_FRAME_GAP_MM (1.524mm, PanelDesignGuide.md's own "Nested frames" padding value, reused
    here for two peer frames set apart rather than one frame nested inside another).
    Reference width shown here: NEO_DEFAULT_WIDTH_HP = 24HP = 121.92mm. Title "NEO" and the
    "ORANGE"/"LINE" wordmark are both centered on the FULL panel width (not per-frame) here and,
    critically, in the runtime code too - recomputed from the live box.size.x on every resize, so
    they never drift off-center the way a baked, fixed-x position would.
  -->
  <g
     inkscape:groupmode="layer"
     id="layer-bg-bright"
     inkscape:label="BackgroundBright"
     style="display:none"
     sodipodi:insensitive="true">
    <path
       id="bg-bright"
       style="fill:#e6e6e6;fill-opacity:1;stroke:none"
       d="M 0,0 H 121.92 V 128.5 H 0 Z" />
  </g>
      <g
     inkscape:groupmode="layer"
     id="layer-panel-bright"
     inkscape:label="PanelBright"
     style="display:none"
     sodipodi:insensitive="true">
    <path
       id="accent-orange-bright"
       style="fill:none;stroke:#ff6600;stroke-width:0.3;stroke-linecap:round"
       d="M 0.762,124.71525 H 121.158" />
    <path
       id="frame-global-orange-bright"
       style="fill:none;stroke:#606080;stroke-width:0.3;stroke-opacity:0.98"
       d="M 3.262,7.620 H 27.218 A 2.5,2.5 0 0 1 29.718,10.12 V 118.38 A 2.5,2.5 0 0 1 27.218,120.88 H 3.262 A 2.5,2.5 0 0 1 0.762,118.38 V 10.12 A 2.5,2.5 0 0 1 3.262,7.620 Z" />
    <path
       id="frame-row-orange-bright"
       style="fill:none;stroke:#606080;stroke-width:0.3;stroke-opacity:0.98"
       d="M 33.742,7.620 H 118.658 A 2.5,2.5 0 0 1 121.158,10.12 V 118.38 A 2.5,2.5 0 0 1 118.658,120.88 H 33.742 A 2.5,2.5 0 0 1 31.242,118.38 V 10.12 A 2.5,2.5 0 0 1 33.742,7.620 Z" />
  </g>


      <g
     inkscape:groupmode="layer"
     id="layer-text-bright"
     inkscape:label="TextBright"
     style="display:none">
    <path
       id="text-title-bright"
       style="fill:#15152b;fill-rule:nonzero;stroke:none"
       d="M59.27190454101563 5.873H58.46161872070313L57.276506806640626 3.24094912109375V5.873H56.466220986328125V1.8601559375H57.276506806640626L58.46437479492188 4.4949628906250005V1.8601559375H59.27190454101563Z M61.99490586914063 4.1366732421875H60.73262387695313V5.200517890625H62.22641610351563V5.873H59.922338056640626V1.8601559375H62.22090395507813V2.53539412109375H60.73262387695313V3.4834836523437502H61.99490586914063Z M65.51716872070314 4.22762369140625Q65.51716872070314 5.0351534375 65.13545244140626 5.481637460937501Q64.75373616210938 5.9281214843750005 64.07574190429688 5.9281214843750005Q63.400503720703135 5.9281214843750005 63.01465333007813 5.485771572265625Q62.62880293945313 5.04342166015625 62.623290791015634 4.2469162109375V3.5606537304687502Q62.623290791015634 2.73383146484375 63.006385107421885 2.2694329589843747Q63.389479423828135 1.8050344531249998 64.07022975585939 1.8050344531249998Q64.73995579101563 1.8050344531249998 65.12580618164063 2.2611647363281246Q65.51165657226564 2.71729501953125 65.51716872070314 3.5413612109375ZM64.70412682617189 3.55514158203125Q64.70412682617189 3.0121949609375 64.54978666992189 2.7476118359374997Q64.39544651367189 2.4830287109375 64.07022975585939 2.4830287109375Q63.74776907226563 2.4830287109375 63.59342891601563 2.737965576171875Q63.43908875976563 2.99290244140625 63.433576611328135 3.51380046875V4.22762369140625Q63.433576611328135 4.7540338671875 63.59067284179689 5.003458583984376Q63.74776907226563 5.25288330078125 64.07574190429688 5.25288330078125Q64.39269043945313 5.25288330078125 64.54703059570313 5.008970732421876Q64.70137075195314 4.7650581640625 64.70412682617189 4.252428359375Z" />
    <path
       id="text-orange-bright"
       style="fill:#15152b;fill-rule:nonzero;stroke:none"
       d="M56.85517777832032 123.14444126464844Q56.85517777832032 123.64914664062499 56.616605441894535 123.92819875976562Q56.37803310546875 124.20725087890625 55.954287294921876 124.20725087890625Q55.53226402832032 124.20725087890625 55.291107875976564 123.9307825756836Q55.049951723632816 123.65431427246094 55.04650663574219 123.15649907226562V122.72758562988281Q55.04650663574219 122.21082244628906 55.28594024414063 121.9205737915039Q55.52537385253907 121.63032513671874 55.95084220703126 121.63032513671874Q56.36942038574219 121.63032513671874 56.61057653808594 121.91540615966795Q56.85173269042969 122.20048718261718 56.85517777832032 122.71552782226561ZM56.34702731445313 122.72414054199218Q56.34702731445313 122.38479938476561 56.25056485351563 122.21943516601561Q56.15410239257813 122.05407094726561 55.95084220703126 122.05407094726561Q55.74930456542969 122.05407094726561 55.652842104492194 122.21340626220703Q55.55637964355469 122.37274157714843 55.552934555664066 122.6983023828125V123.14444126464844Q55.552934555664066 123.47344715820311 55.651119560546874 123.6293373852539Q55.74930456542969 123.78522761230468 55.954287294921876 123.78522761230468Q56.15237984863282 123.78522761230468 56.24884230957032 123.63278247314452Q56.345304770507816 123.48033733398437 56.34702731445313 123.15994416015624Z M57.97827643066407 123.25640662109375H57.72678501464844V124.1728H57.220357094726566V121.664776015625H58.02823020507813Q58.408912416992194 121.664776015625 58.616478962402354 121.86200729736328Q58.82404550781251 122.05923857910156 58.82404550781251 122.4226953515625Q58.82404550781251 122.92223309570312 58.460588735351564 123.12204819335938L58.899837441406255 124.14868438476562V124.1728H58.355513554687505ZM57.72678501464844 122.83438335449219H58.01444985351563Q58.166033720703126 122.83438335449219 58.241825654296875 122.7336145336914Q58.31761758789063 122.63284571289061 58.31761758789063 122.46403640624999Q58.31761758789063 122.08679928222656 58.02306257324219 122.08679928222656H57.72678501464844Z M60.36916742675781 123.65948190429687H59.6784273046875L59.544068876953126 124.1728H59.00835770996094L59.792115205078126 121.664776015625H60.25547952636719L61.04440465332031 124.1728H60.50352585449219ZM59.7886701171875 123.23745863769531H60.2572020703125L60.022936093750005 122.34345833007812Z M63.032220366210936 124.1728H62.52579244628906L61.78509854980469 122.52777053222655V124.1728H61.27867062988281V121.664776015625H61.78509854980469L62.52751499023437 123.31152802734374V121.664776015625H63.032220366210936Z M65.14405924316407 123.88858024902343Q64.9976430078125 124.04705429199218 64.7849088305664 124.12715258544921Q64.5721746533203 124.20725087890625 64.31896069335937 124.20725087890625Q63.88660216308593 124.20725087890625 63.6471685546875 123.93939529541015Q63.40773494628906 123.67153971191406 63.40084477050781 123.15994416015624V122.70863764648438Q63.40084477050781 122.1901519189453 63.6273592993164 121.91023852783202Q63.853873828124996 121.63032513671874 64.28795490234374 121.63032513671874Q64.69619781738281 121.63032513671874 64.90376436279297 121.8318627783203Q65.11133090820313 122.03340041992188 65.14405924316407 122.46403640624999H64.65141167480469Q64.63074114746094 122.22460279785156 64.55150412597656 122.13761432861327Q64.47226710449219 122.05062585937499 64.30345779785156 122.05062585937499Q64.09847506835938 122.05062585937499 64.0054576953125 122.20048718261718Q63.912440322265624 122.35034850585937 63.908995234375 122.67763185546875V123.13238345703124Q63.908995234375 123.47516970214843 64.0114865991211 123.63105992919921Q64.11397796386719 123.78695015625 64.34824394042968 123.78695015625Q64.49810526367187 123.78695015625 64.59112263671875 123.72666111816406L64.63590877929687 123.69565532714843V123.23573609374999H64.28106472656249V122.85333133789062H65.14405924316407Z M66.79770143066406 123.08759731445312H66.00877630371093V123.75249927734374H66.94239512207031V124.1728H65.50234838378906V121.664776015625H66.93895003417968V122.08679928222656H66.00877630371093V122.67935439941405H66.79770143066406Z" />
    <path
       id="text-line-bright"
       style="fill:#15152b;fill-rule:nonzero;stroke:none"
       d="M58.40116096923828 127.30849927734376H59.289993645019536V127.7288H57.89473304931641V125.220776015625H58.40116096923828Z M60.1116471069336 127.7288H59.60521918701173V125.220776015625H60.1116471069336Z M62.29066519775391 127.7288H61.784237277832034L61.04354338134766 126.08377053222657V127.7288H60.537115461425785V125.220776015625H61.04354338134766L61.78595982177735 126.86752802734375V125.220776015625H62.29066519775391Z M63.99253861572266 126.64359731445313H63.203613488769534V127.30849927734376H64.13723230712891V127.7288H62.69718556884766V125.220776015625H64.13378721923829V125.64279928222658H63.203613488769534V126.23535439941406H63.99253861572266Z" />
  </g>


  <g
     inkscape:groupmode="layer"
     id="layer-bg-dark"
     inkscape:label="BackgroundDark"
     style="display:inline"
     sodipodi:insensitive="true">
    <path
       id="bg-dark"
       style="fill:#202020;fill-opacity:1;stroke:none"
       d="M 0,0 H 121.92 V 128.5 H 0 Z" />
  </g>
      <g
     inkscape:groupmode="layer"
     id="layer-panel-dark"
     inkscape:label="PanelDark"
     style="display:inline"
     sodipodi:insensitive="true">
    <path
       id="accent-orange-dark"
       style="fill:none;stroke:#ff6600;stroke-width:0.3;stroke-linecap:round"
       d="M 0.762,124.71525 H 121.158" />
    <path
       id="frame-global-orange-dark"
       style="fill:none;stroke:#606060;stroke-width:0.3;stroke-opacity:0.98"
       d="M 3.262,7.620 H 27.218 A 2.5,2.5 0 0 1 29.718,10.12 V 118.38 A 2.5,2.5 0 0 1 27.218,120.88 H 3.262 A 2.5,2.5 0 0 1 0.762,118.38 V 10.12 A 2.5,2.5 0 0 1 3.262,7.620 Z" />
    <path
       id="frame-row-orange-dark"
       style="fill:none;stroke:#606060;stroke-width:0.3;stroke-opacity:0.98"
       d="M 33.742,7.620 H 118.658 A 2.5,2.5 0 0 1 121.158,10.12 V 118.38 A 2.5,2.5 0 0 1 118.658,120.88 H 33.742 A 2.5,2.5 0 0 1 31.242,118.38 V 10.12 A 2.5,2.5 0 0 1 33.742,7.620 Z" />
  </g>


      <g
     inkscape:groupmode="layer"
     id="layer-text-dark"
     inkscape:label="TextDark"
     style="display:inline">
    <path
       id="text-title-dark"
       style="fill:#c4bac4;fill-rule:nonzero;stroke:none"
       d="M59.27190454101563 5.873H58.46161872070313L57.276506806640626 3.24094912109375V5.873H56.466220986328125V1.8601559375H57.276506806640626L58.46437479492188 4.4949628906250005V1.8601559375H59.27190454101563Z M61.99490586914063 4.1366732421875H60.73262387695313V5.200517890625H62.22641610351563V5.873H59.922338056640626V1.8601559375H62.22090395507813V2.53539412109375H60.73262387695313V3.4834836523437502H61.99490586914063Z M65.51716872070314 4.22762369140625Q65.51716872070314 5.0351534375 65.13545244140626 5.481637460937501Q64.75373616210938 5.9281214843750005 64.07574190429688 5.9281214843750005Q63.400503720703135 5.9281214843750005 63.01465333007813 5.485771572265625Q62.62880293945313 5.04342166015625 62.623290791015634 4.2469162109375V3.5606537304687502Q62.623290791015634 2.73383146484375 63.006385107421885 2.2694329589843747Q63.389479423828135 1.8050344531249998 64.07022975585939 1.8050344531249998Q64.73995579101563 1.8050344531249998 65.12580618164063 2.2611647363281246Q65.51165657226564 2.71729501953125 65.51716872070314 3.5413612109375ZM64.70412682617189 3.55514158203125Q64.70412682617189 3.0121949609375 64.54978666992189 2.7476118359374997Q64.39544651367189 2.4830287109375 64.07022975585939 2.4830287109375Q63.74776907226563 2.4830287109375 63.59342891601563 2.737965576171875Q63.43908875976563 2.99290244140625 63.433576611328135 3.51380046875V4.22762369140625Q63.433576611328135 4.7540338671875 63.59067284179689 5.003458583984376Q63.74776907226563 5.25288330078125 64.07574190429688 5.25288330078125Q64.39269043945313 5.25288330078125 64.54703059570313 5.008970732421876Q64.70137075195314 4.7650581640625 64.70412682617189 4.252428359375Z" />
    <path
       id="text-orange-dark"
       style="fill:#c4bac4;fill-rule:nonzero;stroke:none"
       d="M56.85517777832032 123.14444126464844Q56.85517777832032 123.64914664062499 56.616605441894535 123.92819875976562Q56.37803310546875 124.20725087890625 55.954287294921876 124.20725087890625Q55.53226402832032 124.20725087890625 55.291107875976564 123.9307825756836Q55.049951723632816 123.65431427246094 55.04650663574219 123.15649907226562V122.72758562988281Q55.04650663574219 122.21082244628906 55.28594024414063 121.9205737915039Q55.52537385253907 121.63032513671874 55.95084220703126 121.63032513671874Q56.36942038574219 121.63032513671874 56.61057653808594 121.91540615966795Q56.85173269042969 122.20048718261718 56.85517777832032 122.71552782226561ZM56.34702731445313 122.72414054199218Q56.34702731445313 122.38479938476561 56.25056485351563 122.21943516601561Q56.15410239257813 122.05407094726561 55.95084220703126 122.05407094726561Q55.74930456542969 122.05407094726561 55.652842104492194 122.21340626220703Q55.55637964355469 122.37274157714843 55.552934555664066 122.6983023828125V123.14444126464844Q55.552934555664066 123.47344715820311 55.651119560546874 123.6293373852539Q55.74930456542969 123.78522761230468 55.954287294921876 123.78522761230468Q56.15237984863282 123.78522761230468 56.24884230957032 123.63278247314452Q56.345304770507816 123.48033733398437 56.34702731445313 123.15994416015624Z M57.97827643066407 123.25640662109375H57.72678501464844V124.1728H57.220357094726566V121.664776015625H58.02823020507813Q58.408912416992194 121.664776015625 58.616478962402354 121.86200729736328Q58.82404550781251 122.05923857910156 58.82404550781251 122.4226953515625Q58.82404550781251 122.92223309570312 58.460588735351564 123.12204819335938L58.899837441406255 124.14868438476562V124.1728H58.355513554687505ZM57.72678501464844 122.83438335449219H58.01444985351563Q58.166033720703126 122.83438335449219 58.241825654296875 122.7336145336914Q58.31761758789063 122.63284571289061 58.31761758789063 122.46403640624999Q58.31761758789063 122.08679928222656 58.02306257324219 122.08679928222656H57.72678501464844Z M60.36916742675781 123.65948190429687H59.6784273046875L59.544068876953126 124.1728H59.00835770996094L59.792115205078126 121.664776015625H60.25547952636719L61.04440465332031 124.1728H60.50352585449219ZM59.7886701171875 123.23745863769531H60.2572020703125L60.022936093750005 122.34345833007812Z M63.032220366210936 124.1728H62.52579244628906L61.78509854980469 122.52777053222655V124.1728H61.27867062988281V121.664776015625H61.78509854980469L62.52751499023437 123.31152802734374V121.664776015625H63.032220366210936Z M65.14405924316407 123.88858024902343Q64.9976430078125 124.04705429199218 64.7849088305664 124.12715258544921Q64.5721746533203 124.20725087890625 64.31896069335937 124.20725087890625Q63.88660216308593 124.20725087890625 63.6471685546875 123.93939529541015Q63.40773494628906 123.67153971191406 63.40084477050781 123.15994416015624V122.70863764648438Q63.40084477050781 122.1901519189453 63.6273592993164 121.91023852783202Q63.853873828124996 121.63032513671874 64.28795490234374 121.63032513671874Q64.69619781738281 121.63032513671874 64.90376436279297 121.8318627783203Q65.11133090820313 122.03340041992188 65.14405924316407 122.46403640624999H64.65141167480469Q64.63074114746094 122.22460279785156 64.55150412597656 122.13761432861327Q64.47226710449219 122.05062585937499 64.30345779785156 122.05062585937499Q64.09847506835938 122.05062585937499 64.0054576953125 122.20048718261718Q63.912440322265624 122.35034850585937 63.908995234375 122.67763185546875V123.13238345703124Q63.908995234375 123.47516970214843 64.0114865991211 123.63105992919921Q64.11397796386719 123.78695015625 64.34824394042968 123.78695015625Q64.49810526367187 123.78695015625 64.59112263671875 123.72666111816406L64.63590877929687 123.69565532714843V123.23573609374999H64.28106472656249V122.85333133789062H65.14405924316407Z M66.79770143066406 123.08759731445312H66.00877630371093V123.75249927734374H66.94239512207031V124.1728H65.50234838378906V121.664776015625H66.93895003417968V122.08679928222656H66.00877630371093V122.67935439941405H66.79770143066406Z" />
    <path
       id="text-line-dark"
       style="fill:#c4bac4;fill-rule:nonzero;stroke:none"
       d="M58.40116096923828 127.30849927734376H59.289993645019536V127.7288H57.89473304931641V125.220776015625H58.40116096923828Z M60.1116471069336 127.7288H59.60521918701173V125.220776015625H60.1116471069336Z M62.29066519775391 127.7288H61.784237277832034L61.04354338134766 126.08377053222657V127.7288H60.537115461425785V125.220776015625H61.04354338134766L61.78595982177735 126.86752802734375V125.220776015625H62.29066519775391Z M63.99253861572266 126.64359731445313H63.203613488769534V127.30849927734376H64.13723230712891V127.7288H62.69718556884766V125.220776015625H64.13378721923829V125.64279928222658H63.203613488769534V126.23535439941406H63.99253861572266Z" />
  </g>


  <g
     inkscape:groupmode="layer"
     id="layer-bg-orange"
     inkscape:label="BackgroundOrange"
     style="display:none"
     sodipodi:insensitive="true">
    <path
       id="bg-orange"
       style="fill:#15152b;fill-opacity:1;stroke:none"
       d="M 0,0 H 121.92 V 128.5 H 0 Z" />
  </g>
  <g
     inkscape:groupmode="layer"
     id="layer-panel-orange"
     inkscape:label="PanelOrange"
     style="display:none"
     sodipodi:insensitive="true">
    <path
       id="accent-orange"
       style="fill:none;stroke:#ff6600;stroke-width:0.3;stroke-linecap:round"
       d="M 0.762,124.71525 H 121.158" />
    <path
       id="frame-global-orange"
       style="fill:none;stroke:#803300;stroke-width:0.3"
       d="M 3.262,7.620 H 27.218 A 2.5,2.5 0 0 1 29.718,10.12 V 118.38 A 2.5,2.5 0 0 1 27.218,120.88 H 3.262 A 2.5,2.5 0 0 1 0.762,118.38 V 10.12 A 2.5,2.5 0 0 1 3.262,7.620 Z" />
    <path
       id="frame-row-orange"
       style="fill:none;stroke:#803300;stroke-width:0.3"
       d="M 33.742,7.620 H 118.658 A 2.5,2.5 0 0 1 121.158,10.12 V 118.38 A 2.5,2.5 0 0 1 118.658,120.88 H 33.742 A 2.5,2.5 0 0 1 31.242,118.38 V 10.12 A 2.5,2.5 0 0 1 33.742,7.620 Z" />
  </g>
      <g
     inkscape:groupmode="layer"
     id="layer-text-orange"
     inkscape:label="TextOrange"
     style="display:none">
    <path
       id="text-title-orange"
       style="fill:#ff6600;fill-rule:nonzero;stroke:none"
       d="M59.27190454101563 5.873H58.46161872070313L57.276506806640626 3.24094912109375V5.873H56.466220986328125V1.8601559375H57.276506806640626L58.46437479492188 4.4949628906250005V1.8601559375H59.27190454101563Z M61.99490586914063 4.1366732421875H60.73262387695313V5.200517890625H62.22641610351563V5.873H59.922338056640626V1.8601559375H62.22090395507813V2.53539412109375H60.73262387695313V3.4834836523437502H61.99490586914063Z M65.51716872070314 4.22762369140625Q65.51716872070314 5.0351534375 65.13545244140626 5.481637460937501Q64.75373616210938 5.9281214843750005 64.07574190429688 5.9281214843750005Q63.400503720703135 5.9281214843750005 63.01465333007813 5.485771572265625Q62.62880293945313 5.04342166015625 62.623290791015634 4.2469162109375V3.5606537304687502Q62.623290791015634 2.73383146484375 63.006385107421885 2.2694329589843747Q63.389479423828135 1.8050344531249998 64.07022975585939 1.8050344531249998Q64.73995579101563 1.8050344531249998 65.12580618164063 2.2611647363281246Q65.51165657226564 2.71729501953125 65.51716872070314 3.5413612109375ZM64.70412682617189 3.55514158203125Q64.70412682617189 3.0121949609375 64.54978666992189 2.7476118359374997Q64.39544651367189 2.4830287109375 64.07022975585939 2.4830287109375Q63.74776907226563 2.4830287109375 63.59342891601563 2.737965576171875Q63.43908875976563 2.99290244140625 63.433576611328135 3.51380046875V4.22762369140625Q63.433576611328135 4.7540338671875 63.59067284179689 5.003458583984376Q63.74776907226563 5.25288330078125 64.07574190429688 5.25288330078125Q64.39269043945313 5.25288330078125 64.54703059570313 5.008970732421876Q64.70137075195314 4.7650581640625 64.70412682617189 4.252428359375Z" />
    <path
       id="text-orange-orange"
       style="fill:#ff6600;fill-rule:nonzero;stroke:none"
       d="M56.85517777832032 123.14444126464844Q56.85517777832032 123.64914664062499 56.616605441894535 123.92819875976562Q56.37803310546875 124.20725087890625 55.954287294921876 124.20725087890625Q55.53226402832032 124.20725087890625 55.291107875976564 123.9307825756836Q55.049951723632816 123.65431427246094 55.04650663574219 123.15649907226562V122.72758562988281Q55.04650663574219 122.21082244628906 55.28594024414063 121.9205737915039Q55.52537385253907 121.63032513671874 55.95084220703126 121.63032513671874Q56.36942038574219 121.63032513671874 56.61057653808594 121.91540615966795Q56.85173269042969 122.20048718261718 56.85517777832032 122.71552782226561ZM56.34702731445313 122.72414054199218Q56.34702731445313 122.38479938476561 56.25056485351563 122.21943516601561Q56.15410239257813 122.05407094726561 55.95084220703126 122.05407094726561Q55.74930456542969 122.05407094726561 55.652842104492194 122.21340626220703Q55.55637964355469 122.37274157714843 55.552934555664066 122.6983023828125V123.14444126464844Q55.552934555664066 123.47344715820311 55.651119560546874 123.6293373852539Q55.74930456542969 123.78522761230468 55.954287294921876 123.78522761230468Q56.15237984863282 123.78522761230468 56.24884230957032 123.63278247314452Q56.345304770507816 123.48033733398437 56.34702731445313 123.15994416015624Z M57.97827643066407 123.25640662109375H57.72678501464844V124.1728H57.220357094726566V121.664776015625H58.02823020507813Q58.408912416992194 121.664776015625 58.616478962402354 121.86200729736328Q58.82404550781251 122.05923857910156 58.82404550781251 122.4226953515625Q58.82404550781251 122.92223309570312 58.460588735351564 123.12204819335938L58.899837441406255 124.14868438476562V124.1728H58.355513554687505ZM57.72678501464844 122.83438335449219H58.01444985351563Q58.166033720703126 122.83438335449219 58.241825654296875 122.7336145336914Q58.31761758789063 122.63284571289061 58.31761758789063 122.46403640624999Q58.31761758789063 122.08679928222656 58.02306257324219 122.08679928222656H57.72678501464844Z M60.36916742675781 123.65948190429687H59.6784273046875L59.544068876953126 124.1728H59.00835770996094L59.792115205078126 121.664776015625H60.25547952636719L61.04440465332031 124.1728H60.50352585449219ZM59.7886701171875 123.23745863769531H60.2572020703125L60.022936093750005 122.34345833007812Z M63.032220366210936 124.1728H62.52579244628906L61.78509854980469 122.52777053222655V124.1728H61.27867062988281V121.664776015625H61.78509854980469L62.52751499023437 123.31152802734374V121.664776015625H63.032220366210936Z M65.14405924316407 123.88858024902343Q64.9976430078125 124.04705429199218 64.7849088305664 124.12715258544921Q64.5721746533203 124.20725087890625 64.31896069335937 124.20725087890625Q63.88660216308593 124.20725087890625 63.6471685546875 123.93939529541015Q63.40773494628906 123.67153971191406 63.40084477050781 123.15994416015624V122.70863764648438Q63.40084477050781 122.1901519189453 63.6273592993164 121.91023852783202Q63.853873828124996 121.63032513671874 64.28795490234374 121.63032513671874Q64.69619781738281 121.63032513671874 64.90376436279297 121.8318627783203Q65.11133090820313 122.03340041992188 65.14405924316407 122.46403640624999H64.65141167480469Q64.63074114746094 122.22460279785156 64.55150412597656 122.13761432861327Q64.47226710449219 122.05062585937499 64.30345779785156 122.05062585937499Q64.09847506835938 122.05062585937499 64.0054576953125 122.20048718261718Q63.912440322265624 122.35034850585937 63.908995234375 122.67763185546875V123.13238345703124Q63.908995234375 123.47516970214843 64.0114865991211 123.63105992919921Q64.11397796386719 123.78695015625 64.34824394042968 123.78695015625Q64.49810526367187 123.78695015625 64.59112263671875 123.72666111816406L64.63590877929687 123.69565532714843V123.23573609374999H64.28106472656249V122.85333133789062H65.14405924316407Z M66.79770143066406 123.08759731445312H66.00877630371093V123.75249927734374H66.94239512207031V124.1728H65.50234838378906V121.664776015625H66.93895003417968V122.08679928222656H66.00877630371093V122.67935439941405H66.79770143066406Z" />
    <path
       id="text-line-orange"
       style="fill:#ff6600;fill-rule:nonzero;stroke:none"
       d="M58.40116096923828 127.30849927734376H59.289993645019536V127.7288H57.89473304931641V125.220776015625H58.40116096923828Z M60.1116471069336 127.7288H59.60521918701173V125.220776015625H60.1116471069336Z M62.29066519775391 127.7288H61.784237277832034L61.04354338134766 126.08377053222657V127.7288H60.537115461425785V125.220776015625H61.04354338134766L61.78595982177735 126.86752802734375V125.220776015625H62.29066519775391Z M63.99253861572266 126.64359731445313H63.203613488769534V127.30849927734376H64.13723230712891V127.7288H62.69718556884766V125.220776015625H64.13378721923829V125.64279928222658H63.203613488769534V126.23535439941406H63.99253861572266Z" />
  </g>


  <g
     inkscape:groupmode="layer"
     id="layer-text-work"
     inkscape:label="TextWork"
     style="display:none">
    <text
       id="text-title"
       x="60.96"
       y="5.873"
       style="font-style:normal;font-weight:bold;font-size:5.64444px;font-family:'Roboto Condensed';-inkscape-font-specification:'Roboto Condensed, Bold';text-align:center;text-anchor:middle;fill:#ff6600;stroke:none"><tspan
         id="tspan-title"
         x="60.96"
         y="5.873">NEO</tspan></text>
    <text
       id="text-orange"
       x="60.96"
       y="124.1728"
       style="font-style:normal;font-weight:bold;font-size:3.52777px;font-family:'Roboto Condensed';-inkscape-font-specification:'Roboto Condensed, Bold';text-align:center;text-anchor:middle;fill:#ff6600;stroke:none"><tspan
         id="tspan-orange"
         x="60.96"
         y="124.1728">ORANGE</tspan></text>
    <text
       id="text-line"
       x="60.96"
       y="127.7288"
       style="font-style:normal;font-weight:bold;font-size:3.52777px;font-family:'Roboto Condensed';-inkscape-font-specification:'Roboto Condensed, Bold';text-align:center;text-anchor:middle;fill:#ff6600;stroke:none"><tspan
         id="tspan-line"
         x="60.96"
         y="127.7288">LINE</tspan></text>
  </g>
  <g
     inkscape:groupmode="layer"
     id="layer-controls"
     inkscape:label="Controls"
     style="display:none">
    <!-- Deliberately empty: the global-area sidebar has no concrete controls yet (abstract
         placeholder, per Neo.cpp's own comment), and the row area's per-row controls are a
         programmatically generated 16-row grid with no single fixed guide position to trace -
         their real coordinates already live directly in NeoWidget's constructor (Neo.cpp). -->
  </g>
</svg>
