<?xml version="1.0" encoding="UTF-8" standalone="no"?>
<svg
   width="15.24mm"
   height="128.5mm"
   viewBox="0 0 15.24 128.5"
   version="1.1"
   id="svg_root"
   sodipodi:docname="XD8Bright.svg"
   inkscape:version="1.4.4 (dcaf3e7, 2026-05-05)"
   xmlns:inkscape="http://www.inkscape.org/namespaces/inkscape"
   xmlns:sodipodi="http://sodipodi.sourceforge.net/DTD/sodipodi-0.dtd"
   xmlns="http://www.w3.org/2000/svg"
   xmlns:svg="http://www.w3.org/2000/svg">
  <defs
     id="defs1">
    <inkscape:path-effect
       effect="fillet_chamfer"
       id="path-effect8"
       is_visible="true"
       lpeversion="1"
       nodesatellites_param="F,0,0,1,0,0.74083393,0,1 @ F,0,0,1,0,0.74083393,0,1 @ F,0,0,1,0,2.0319999,0,1 @ F,0,0,1,0,2.0743376,0,1"
       radius="12"
       unit="px"
       method="auto"
       mode="F"
       chamfer_steps="1"
       flexible="false"
       use_knot_distance="true"
       apply_no_radius="true"
       apply_with_radius="true"
       only_selected="true"
       hide_knots="false" />
    <inkscape:path-effect
       effect="fillet_chamfer"
       id="path-effect23"
       is_visible="true"
       lpeversion="1"
       nodesatellites_param="F,0,0,1,0,0.52916668,0,1 @ F,0,0,1,0,0.52916668,0,1 @ F,0,0,1,0,0.52916668,0,1 @ F,0,0,1,0,0.52916668,0,1"
       radius="2"
       unit="px"
       method="auto"
       mode="F"
       chamfer_steps="1"
       flexible="false"
       use_knot_distance="true"
       apply_no_radius="true"
       apply_with_radius="true"
       only_selected="false"
       hide_knots="false" />
    <inkscape:path-effect
       effect="fillet_chamfer"
       id="path-effect6"
       is_visible="true"
       lpeversion="1"
       nodesatellites_param="F,0,1,1,0,0,0,1 @ F,0,1,1,0,0,0,1 @ F,0,0,1,0,0.76200048,0,1 @ F,0,0,1,0,0.76200048,0,1"
       radius="2"
       unit="px"
       method="auto"
       mode="F"
       chamfer_steps="1"
       flexible="false"
       use_knot_distance="true"
       apply_no_radius="true"
       apply_with_radius="true"
       only_selected="false"
       hide_knots="false" />
    <inkscape:path-effect
       effect="fillet_chamfer"
       id="path-effect23-8"
       is_visible="true"
       lpeversion="1"
       nodesatellites_param="F,0,0,1,0,0.52916668,0,1 @ F,0,0,1,0,0.52916668,0,1 @ F,0,0,1,0,0.52916668,0,1 @ F,0,0,1,0,0.52916668,0,1"
       radius="2"
       unit="px"
       method="auto"
       mode="F"
       chamfer_steps="1"
       flexible="false"
       use_knot_distance="true"
       apply_no_radius="true"
       apply_with_radius="true"
       only_selected="false"
       hide_knots="false" />
    <inkscape:path-effect
       effect="fillet_chamfer"
       id="path-effect8-7"
       is_visible="true"
       lpeversion="1"
       nodesatellites_param="F,0,1,1,0,2.0319998,0,1 @ F,0,0,1,0,2.0319998,0,1 @ F,0,0,1,0,2.6458334,0,1 @ F,0,0,1,0,2.6458334,0,1"
       radius="10"
       unit="px"
       method="auto"
       mode="F"
       chamfer_steps="1"
       flexible="false"
       use_knot_distance="true"
       apply_no_radius="true"
       apply_with_radius="true"
       only_selected="false"
       hide_knots="false" />
  </defs>
  <sodipodi:namedview
     id="namedview1"
     pagecolor="#ffffff"
     bordercolor="#000000"
     borderopacity="0.25"
     inkscape:showpageshadow="2"
     inkscape:pageopacity="0.0"
     inkscape:pagecheckerboard="0"
     inkscape:document-units="mm"
     inkscape:deskcolor="#d1d1d1"
     showguides="true"
     showgrid="true"
     inkscape:zoom="2.8284271"
     inkscape:cx="158.92225"
     inkscape:cy="312.71797"
     inkscape:window-width="2560"
     inkscape:window-height="1494"
     inkscape:window-x="-11"
     inkscape:window-y="-11"
     inkscape:window-maximized="1"
     inkscape:current-layer="layer2">
    <inkscape:grid
       type="xygrid"
       id="grid1"
       originx="0"
       originy="-0.252750"
       spacingx="0.254000"
       spacingy="0.254000"
       units="mm"
       visible="true" />
    <sodipodi:guide
       position="0.91038492,93.463425"
       orientation="1,0"
       id="guide38"
       inkscape:locked="false" />
    <sodipodi:guide
       position="14.326771,12.113306"
       orientation="1,0"
       id="guide39"
       inkscape:locked="false" />
  </sodipodi:namedview>
  <g
     inkscape:groupmode="layer"
     id="layer-bg-bright"
     inkscape:label="BackgroundBright"
     style="display:inline"
     sodipodi:insensitive="true">
    <path
       id="bg-bright"
       style="fill:#e6e6e6;fill-opacity:1;stroke:none"
       d="M 0,0 H 15.24 V 128.5 H 0 Z" />
  </g>
    <g
     inkscape:groupmode="layer"
     id="layer-panel-bright"
     inkscape:label="PanelBright"
     style="display:inline"
     sodipodi:insensitive="true">
    <path
       id="accent-orange-bright"
       style="fill:none;stroke:#ff6600;stroke-width:0.3;stroke-linecap:round"
       d="M 0.762,124.71525 H 14.478" />
    <path
       style="fill:#15152b;fill-opacity:1;stroke:#606080;stroke-width:0.3;stroke-opacity:0.98;stroke-linejoin:round;stroke-dasharray:none;stroke-opacity:1"
       d="m 0.762,8.382 c -1e-8,-0.420841 0.341159,-0.762 0.762,-0.762 h 12.192 c 0.420841,0 0.762,0.341159 0.762,0.762 v 5.84325 H 0.76200008 Z"
       id="path6-bright"
       sodipodi:nodetypes="ssssccs" />
    <path
       id="rect8-bright"
       style="fill:none;stroke:#606080;stroke-width:0.3;stroke-opacity:0.98;stroke-linejoin:round"
       d="m 1.5028339,7.6212501 12.2131661,0 a 0.74193715,0.74193715 44.957371 0 1 0.741936,0.7408331 l 0.01704,11.4511688 A 2.0289784,2.0289784 134.95737 0 1 12.446,21.84525 H 2.8363374 A 2.0743376,2.0743376 45 0 1 0.76199985,19.770912 l 1.4e-7,-11.408828 A 0.74083394,0.74083394 135 0 1 1.5028339,7.6212501 Z"
       sodipodi:nodetypes="ccccc"
       inkscape:path-effect="#path-effect8"
       inkscape:original-d="M 0.762,7.6212501 H 14.456834 L 14.478,21.84525 H 0.76199983 Z" />
    <path
       id="rect8-7-bright"
       style="display:inline;fill:none;stroke:#606080;stroke-width:0.3;stroke-opacity:0.98;stroke-linejoin:round"
       d="m 2.7919419,-61.509087 h 9.6520001 a 2.032047,2.032047 44.999335 0 1 2.032047,2.032 l 0.002,85.788504 a 2.645772,2.645772 134.99933 0 1 -2.645772,2.645833 l -8.4243758,0 A 2.6458936,2.6458936 44.999348 0 1 0.76193957,26.311417 l -0.001951,-85.788504 a 2.0319536,2.0319536 134.99935 0 1 2.03195357,-2.032 z"
       sodipodi:nodetypes="ccccc"
       inkscape:path-effect="#path-effect8-7"
       inkscape:original-d="M 0.75994211,-61.509087 H 14.475942 l 0.0021,90.466337 H 0.76199975 Z"
       transform="translate(0.00205789,91.990337)" />
    <rect
       style="display:inline;opacity:1;fill:#15152b;fill-opacity:1;stroke:#606080;stroke-width:0.3;stroke-opacity:0.98;stroke-dasharray:none;stroke-opacity:1"
       id="rect1-bright"
       width="13.716001"
       height="4.5719995"
       x="0.76200002"
       y="35.307251" />
    <rect
       style="display:inline;fill:#15152b;fill-opacity:1;stroke:#606080;stroke-width:0.3;stroke-opacity:0.98;stroke-dasharray:none;stroke-opacity:1"
       id="rect1-2-bright"
       width="13.716001"
       height="4.5719995"
       x="0.76200002"
       y="111.76125" />
    <rect
       style="display:inline;fill:#15152b;fill-opacity:1;stroke:#606080;stroke-width:0.3;stroke-opacity:0.98;stroke-dasharray:none;stroke-opacity:1"
       id="rect1-2-4-bright"
       width="13.716001"
       height="4.5719995"
       x="0.76200002"
       y="46.229252" />
    <rect
       style="display:inline;fill:#15152b;fill-opacity:1;stroke:#606080;stroke-width:0.3;stroke-opacity:0.98;stroke-dasharray:none;stroke-opacity:1"
       id="rect1-2-8-bright"
       width="13.716001"
       height="4.5719995"
       x="0.76200002"
       y="57.151253" />
    <rect
       style="display:inline;fill:#15152b;fill-opacity:1;stroke:#606080;stroke-width:0.3;stroke-opacity:0.98;stroke-dasharray:none;stroke-opacity:1"
       id="rect1-2-1-bright"
       width="13.716001"
       height="4.5719995"
       x="0.76200002"
       y="68.07325" />
    <rect
       style="display:inline;fill:#15152b;fill-opacity:1;stroke:#606080;stroke-width:0.3;stroke-opacity:0.98;stroke-dasharray:none;stroke-opacity:1"
       id="rect1-2-88-bright"
       width="13.716001"
       height="4.5719995"
       x="0.76200002"
       y="78.995255" />
    <rect
       style="display:inline;fill:#15152b;fill-opacity:1;stroke:#606080;stroke-width:0.3;stroke-opacity:0.98;stroke-dasharray:none;stroke-opacity:1"
       id="rect1-2-7-bright"
       width="13.716001"
       height="4.5719995"
       x="0.76200002"
       y="89.917252" />
    <rect
       style="display:inline;fill:#15152b;fill-opacity:1;stroke:#606080;stroke-width:0.3;stroke-opacity:0.98;stroke-dasharray:none;stroke-opacity:1"
       id="rect1-2-3-bright"
       width="13.716001"
       height="4.5719995"
       x="0.76200002"
       y="100.83926" />
  </g>

    <g
     inkscape:groupmode="layer"
     id="layer-text-bright"
     inkscape:label="TextBright"
     style="display:inline">
    <path
       id="text-title-bright"
       style="fill:#15152b;fill-rule:nonzero;stroke:none"
       d="M4.597965019140625 3.181559246875 5.138155566015626 1.8035221375H6.066952577734376L5.124375194921876 3.7934077234375L6.089001171484376 5.8163662H5.149179862890626L4.597965019140625 4.41352442265625L4.049506249609376 5.8163662H3.1096849410156255L4.074310917578126 3.7934077234375L3.1289774605468756 1.8035221375H4.057774472265626Z M6.499656230078125 5.8163662V1.8035221375H7.560744804296876Q8.263543730078126 1.8035221375 8.681088974218751 2.2500061609374997Q9.098634218359376 2.696490184375 9.106902441015626 3.4737031140625V4.1241366296875Q9.106902441015626 4.91512993046875 8.689357196875001 5.365748065234375Q8.271811952734375 5.8163662 7.538696210546876 5.8163662ZM7.309942050390625 2.4787603210937497V5.143884090625H7.552476581640626Q7.957619491796875 5.143884090625 8.122983944921875 4.930288338671875Q8.288348398046875 4.71669258671875 8.296616620703126 4.19303848515625V3.4957517078125Q8.296616620703126 2.9335125671875 8.139520390234376 2.7116485925781246Q7.982424159765626 2.4897846179687497 7.604841991796875 2.4787603210937497Z M11.876757030859375 2.87012286015625Q11.876757030859375 3.16226672734375 11.752733691015624 3.38826481328125Q11.628710351171875 3.6142628992187498 11.410980487890626 3.7493105359375Q11.659027167578126 3.88987032109375 11.802343026953125 4.136538963671875Q11.945658886328125 4.38320760625 11.945658886328125 4.71669258671875Q11.945658886328125 5.25137098515625 11.636978573828126 5.561429334765625Q11.328298261328126 5.871487684375 10.796375937109374 5.871487684375Q10.264453612890625 5.871487684375 9.950261151953125 5.561429334765625Q9.636068691015625 5.25137098515625 9.636068691015625 4.71669258671875Q9.636068691015625 4.38320760625 9.779384550390624 4.1351609265625004Q9.922700409765625 3.887114246875 10.173503163671874 3.7493105359375Q9.953017226171875 3.6142628992187498 9.828993886328124 3.38826481328125Q9.704970546484375 3.16226672734375 9.704970546484375 2.87012286015625Q9.704970546484375 2.343712684375 9.999870487890625 2.0460566687499995Q10.294770429296875 1.7484006531249996 10.790863788671876 1.7484006531249996Q11.292469296484375 1.7484006531249996 11.584613163671875 2.0488127429687495Q11.876757030859375 2.3492248328125 11.876757030859375 2.87012286015625ZM10.796375937109376 5.22381024296875Q10.972764687109375 5.22381024296875 11.06784924765625 5.0736041980468745Q11.162933808203125 4.9233981531249995 11.162933808203125 4.65605895390625Q11.162933808203125 4.3887197546875 11.063715136328124 4.23713567265625Q10.964496464453125 4.085551590625 10.790863788671874 4.085551590625Q10.617231112890625 4.085551590625 10.51663440390625 4.23713567265625Q10.416037694921876 4.3887197546875 10.416037694921876 4.65605895390625Q10.416037694921876 4.9233981531249995 10.51663440390625 5.0736041980468745Q10.617231112890625 5.22381024296875 10.796375937109376 5.22381024296875ZM11.099544101171876 2.9114639734375Q11.099544101171876 2.67719766484375 11.023752060156252 2.5366378796874995Q10.947960019140625 2.3960780945312496 10.790863788671876 2.3960780945312496Q10.642035780859375 2.3960780945312496 10.564865702734377 2.5325037683593745Q10.487695624609376 2.6689294421875 10.487695624609376 2.9114639734375Q10.487695624609376 3.14848635625 10.564865702734377 3.2931802527343748Q10.642035780859375 3.4378741492187497 10.796375937109374 3.4378741492187497Q10.950716093359375 3.4378741492187497 11.025130097265626 3.2931802527343748Q11.099544101171876 3.14848635625 11.099544101171876 2.9114639734375Z" />
    <path
       id="text-orange-bright"
       style="fill:#15152b;fill-rule:nonzero;stroke:none"
       d="M3.4807265855468748 123.14444126464844Q3.4807265855468748 123.64914664062499 3.2421542491210937 123.92819875976562Q3.0035819126953127 124.20725087890625 2.5798361021484375 124.20725087890625Q2.157812835546875 124.20725087890625 1.916656683203125 123.9307825756836Q1.6755005308593751 123.65431427246094 1.67205544296875 123.15649907226562V122.72758562988281Q1.67205544296875 122.21082244628906 1.9114890513671874 121.9205737915039Q2.150922659765625 121.63032513671874 2.576391014257813 121.63032513671874Q2.99496919296875 121.63032513671874 3.2361253453125 121.91540615966795Q3.47728149765625 122.20048718261718 3.4807265855468748 122.71552782226561ZM2.9725761216796878 122.72414054199218Q2.9725761216796878 122.38479938476561 2.8761136607421878 122.21943516601561Q2.7796511998046878 122.05407094726561 2.576391014257813 122.05407094726561Q2.37485337265625 122.05407094726561 2.27839091171875 122.21340626220703Q2.18192845078125 122.37274157714843 2.178483362890625 122.6983023828125V123.14444126464844Q2.178483362890625 123.47344715820311 2.2766683677734374 123.6293373852539Q2.37485337265625 123.78522761230468 2.5798361021484375 123.78522761230468Q2.777928655859375 123.78522761230468 2.874391116796875 123.63278247314452Q2.970853577734375 123.48033733398437 2.9725761216796878 123.15994416015624Z M4.603825237890625 123.25640662109375H4.352333821875V124.1728H3.8459059019531248V121.664776015625H4.653779012304687Q5.03446122421875 121.664776015625 5.242027769628907 121.86200729736328Q5.449594315039063 122.05923857910156 5.449594315039063 122.4226953515625Q5.449594315039063 122.92223309570312 5.086137542578125 123.12204819335938L5.525386248632812 124.14868438476562V124.1728H4.981062361914062ZM4.352333821875 122.83438335449219H4.6399986607421875Q4.7915825279296875 122.83438335449219 4.867374461523437 122.7336145336914Q4.943166395117187 122.63284571289061 4.943166395117187 122.46403640624999Q4.943166395117187 122.08679928222656 4.64861138046875 122.08679928222656H4.352333821875Z M6.994716233984375 123.65948190429687H6.3039761119140625L6.169617684179688 124.1728H5.6339065171875005L6.417664012304687 121.664776015625H6.8810283335937505L7.669953460546875 124.1728H7.12907466171875ZM6.414218924414063 123.23745863769531H6.8827508775390625L6.6484849009765625 122.34345833007812Z M9.6577691734375 124.1728H9.151341253515625L8.41064735703125 122.52777053222655V124.1728H7.904219437109375V121.664776015625H8.41064735703125L9.153063797460938 123.31152802734374V121.664776015625H9.6577691734375Z M11.769608050390625 123.88858024902343Q11.623191815039062 124.04705429199218 11.41045763779297 124.12715258544921Q11.197723460546875 124.20725087890625 10.944509500585937 124.20725087890625Q10.5121509703125 124.20725087890625 10.272717361914063 123.93939529541015Q10.033283753515626 123.67153971191406 10.026393577734375 123.15994416015624V122.70863764648438Q10.026393577734375 122.1901519189453 10.252908106542968 121.91023852783202Q10.479422635351563 121.63032513671874 10.913503709570312 121.63032513671874Q11.321746624609375 121.63032513671874 11.529313170019531 121.8318627783203Q11.736879715429687 122.03340041992188 11.769608050390625 122.46403640624999H11.27696048203125Q11.2562899546875 122.22460279785156 11.177052933203125 122.13761432861327Q11.097815911718751 122.05062585937499 10.929006605078126 122.05062585937499Q10.724023875585937 122.05062585937499 10.631006502539062 122.20048718261718Q10.537989129492187 122.35034850585937 10.534544041601563 122.67763185546875V123.13238345703124Q10.534544041601563 123.47516970214843 10.637035406347657 123.63105992919921Q10.73952677109375 123.78695015625 10.973792747656251 123.78695015625Q11.123654070898437 123.78695015625 11.216671443945312 123.72666111816406L11.261457586523438 123.69565532714843V123.23573609374999H10.906613533789063V122.85333133789062H11.769608050390625Z M13.423250237890624 123.08759731445312H12.6343251109375V123.75249927734374H13.567943929296876V124.1728H12.127897191015625V121.664776015625H13.56449884140625V122.08679928222656H12.6343251109375V122.67935439941405H13.423250237890624Z" />
    <path
       id="text-line-bright"
       style="fill:#15152b;fill-rule:nonzero;stroke:none"
       d="M5.005181061523437 127.30849927734376H5.894013737304688V127.7288H4.498753141601562V125.220776015625H5.005181061523437Z M6.71566719921875 127.7288H6.209239279296875V125.220776015625H6.71566719921875Z M8.894685290039062 127.7288H8.388257370117188L7.647563473632812 126.08377053222657V127.7288H7.141135553710937V125.220776015625H7.647563473632812L8.389979914062499 126.86752802734375V125.220776015625H8.894685290039062Z M10.596558708007812 126.64359731445313H9.807633581054688V127.30849927734376H10.741252399414064V127.7288H9.301205661132814V125.220776015625H10.737807311523438V125.64279928222658H9.807633581054688V126.23535439941406H10.596558708007812Z" />
    <path
       id="text-title-4-bright"
       style="fill:#15152b;fill-rule:nonzero;stroke:none"
       d="M2.7356812109375 34.420345H2.5399999414062497V33.6541563671875L2.3491418017578125 33.72788135253906V33.56527297363281L2.715010654296875 33.41575594726562H2.7356812109375Z" />
    <path
       id="text-title-4-0-bright"
       style="fill:#15152b;fill-rule:nonzero;stroke:none"
       d="M2.845923871289062 45.348549H2.254745951367187V45.2107452890625L2.526219261914062 44.86554699316406Q2.5778956535156246 44.79388906347656 2.6023558122070307 44.7398011069336Q2.6268159708984373 44.685713150390626 2.6268159708984373 44.63610381445312Q2.6268159708984373 44.569269014648434 2.6037338493164057 44.531372994140625Q2.5806517277343746 44.49347697363281 2.5372435587890623 44.49347697363281Q2.4897012785156245 44.49347697363281 2.461796027050781 44.53757416113281Q2.433890775585937 44.58167134863281 2.433890775585937 44.66159750097656H2.238209506054687Q2.238209506054687 44.569269014648434 2.276450035839843 44.49278795507812Q2.3146905656249994 44.41630689550781 2.3839369303710933 44.37393225439453Q2.4531832951171872 44.33155761328125 2.5406886515625 44.33155761328125Q2.675047269726562 44.33155761328125 2.7491167643554686 44.40562710791015Q2.8231862589843746 44.47969660253906 2.8231862589843746 44.616122276367186Q2.8231862589843746 44.70087155859375 2.7821896549804683 44.78803240576171Q2.741193050976562 44.875193252929684 2.633706156445312 45.002661685546876L2.5048596867187496 45.18662963964844H2.845923871289062Z" />
    <path
       id="text-title-4-9-bright"
       style="fill:#15152b;fill-rule:nonzero;stroke:none"
       d="M2.435957427148437 55.673168098632814H2.530352969140625Q2.5840964164062497 55.673168098632814 2.6092455936523438 55.635616587402346Q2.6343947708984374 55.59806507617188 2.6343947708984374 55.53536438769532Q2.6343947708984374 55.4754197734375 2.608556575097656 55.44200237353516Q2.5827183792968746 55.40858497363281 2.5393102103515623 55.40858497363281Q2.4986581156249996 55.40858497363281 2.4728199198242184 55.44027982714844Q2.4469817240234373 55.47197468066406 2.4469817240234373 55.52020597949219H2.2519894730468746Q2.2519894730468746 55.44165786425781 2.2881629471679683 55.37930168505859Q2.324336421289062 55.31694550585938 2.389448674707031 55.281805559570316Q2.454560928125 55.24666561328125 2.5337980619140623 55.24666561328125Q2.6722907914062497 55.24666561328125 2.7508389066406247 55.323146672851564Q2.8293870218749997 55.39962773242188 2.8293870218749997 55.532608313476565Q2.8293870218749997 55.60082115039063 2.7939025663085935 55.65904321826172Q2.7584181107421872 55.717265286132815 2.7005405521484374 55.74827112109375Q2.77150946328125 55.7785879375 2.8063049002929685 55.8392215703125Q2.8411003373046873 55.899855203125 2.8411003373046873 55.982537429687504Q2.8411003373046873 56.11620702929687 2.7560065458007807 56.196822200195314Q2.6709127542968747 56.277437371093754 2.5324200248046873 56.277437371093754Q2.4035735550781245 56.277437371093754 2.323302893457031 56.19785572802735Q2.243032231835937 56.11827408496094 2.243032231835937 55.98873859667969H2.4380244828124997Q2.4380244828124997 56.04248204394531 2.466274243554687 56.07900002734375Q2.4945240042968746 56.11551801074219 2.5379321732421873 56.11551801074219Q2.5882305277343747 56.11551801074219 2.6175138163085934 56.078311008789065Q2.646797104882812 56.04110400683594 2.646797104882812 55.979092336914064Q2.646797104882812 55.830953347656255 2.53173100625 55.83026432910157H2.435957427148437Z" />
    <path
       id="text-title-4-5-bright"
       style="fill:#15152b;fill-rule:nonzero;stroke:none"
       d="M2.7677208931640624 66.80635779492187H2.8531591939453125V66.96827715527343H2.7677208931640624V67.185318H2.5727286421874997V66.96827715527343H2.2406216988281247L2.231664457617187 66.84218675976562L2.5720396236328122 66.182106984375H2.7677208931640624ZM2.42114456015625 66.80635779492187H2.5727286421874997V66.47080575878906L2.5685945308593747 66.47838496289062Z" />
    <path
       id="text-title-4-4-bright"
       style="fill:#15152b;fill-rule:nonzero;stroke:none"
       d="M2.268182389453125 77.60708871484375 2.3177917253906246 77.097214984375H2.803549806445312V77.26395747460937H2.4776440300781246L2.45972954765625 77.47893126367187Q2.516229069140625 77.44103524316407 2.576173683398437 77.44103524316407Q2.700197023242187 77.44103524316407 2.7673763323242184 77.52922961816407Q2.83455564140625 77.61742399316407 2.83455564140625 77.77865433496093Q2.83455564140625 77.9295493984375 2.7546294890625 78.02187788476562Q2.67470333671875 78.11420637109374 2.541033737109375 78.11420637109374Q2.4617966033203125 78.11420637109374 2.394272784960937 78.07665485986328Q2.326748966601562 78.0391033486328 2.2878194182617184 77.97226854882811Q2.2488898699218747 77.90543374902343 2.248200851367187 77.82068446679688H2.4411260466796874Q2.4459491765625 77.88338515527343 2.4721318816406246 77.91783608300781Q2.4983145867187497 77.95228701074218 2.5396557 77.95228701074218Q2.587886998828125 77.95228701074218 2.6140697039062495 77.90577825830078Q2.6402524089843746 77.85926950585937 2.6402524089843746 77.76694101953125Q2.6402524089843746 77.68012468164062 2.6089020647460934 77.63602749414062Q2.5775517205078122 77.59193030664062 2.5210521990234374 77.59193030664062Q2.4659307146484375 77.59193030664062 2.4356138982421873 77.62982632714844L2.4232115642578123 77.64705179101563Z" />
    <path
       id="text-title-4-03-bright"
       style="fill:#15152b;fill-rule:nonzero;stroke:none"
       d="M2.70674237578125 88.26839070605469V88.43375515917968H2.69571807890625Q2.586164128710937 88.43444417773438 2.5217408938476558 88.49955643115234Q2.4573176589843744 88.56466868457031 2.4435372878906247 88.68180183886719Q2.506237976367187 88.61014390917968 2.6006335183593747 88.61014390917968Q2.70949845 88.61014390917968 2.7746107034179683 88.70316141406249Q2.8397229568359372 88.79617891894532 2.8397229568359372 88.95120809375Q2.8397229568359372 89.04973774707031 2.8025159548828125 89.12897488085937Q2.7653089529296873 89.20821201464844 2.698129643847656 89.2519646928711Q2.6309503347656245 89.29571737109374 2.546201052539062 89.29571737109374Q2.409775378710937 89.29571737109374 2.3274376614257806 89.18616342089842Q2.2450999441406245 89.07660947070312 2.2450999441406245 88.89126347949218V88.81891653125Q2.2450999441406245 88.65286305957031 2.297120845019531 88.52815070117188Q2.349141745898437 88.40343834277344 2.447326889941406 88.3362590336914Q2.5455120339843744 88.26907972460937 2.6764255593749997 88.26839070605469ZM2.539310866992187 88.77137425097656Q2.502103865039062 88.77137425097656 2.4769546877929685 88.79480088183594Q2.451805510546875 88.81822751269532 2.4394031765624997 88.85267844042968V88.92295833300781Q2.4394031765624997 89.02906719042969 2.4676529373046874 89.08143260058594Q2.4959026980468746 89.13379801074218 2.542066941210937 89.13379801074218Q2.588920202929687 89.13379801074218 2.6171699636718744 89.08315514697264Q2.645419724414062 89.03251228320312 2.645419724414062 88.95327514941407Q2.645419724414062 88.87265997851563 2.6161364358398433 88.8220171147461Q2.5868531472656247 88.77137425097656 2.539310866992187 88.77137425097656Z" />
    <path
       id="text-title-4-1-bright"
       style="fill:#15152b;fill-rule:nonzero;stroke:none"
       d="M2.8462680970703125 99.31440900878906 2.5293195619140625 100.20531H2.3233030140624997L2.6416295863281247 99.36401834472656H2.2392427503906247V99.202098984375H2.8462680970703125Z" />
    <path
       id="text-title-4-2-bright"
       style="fill:#15152b;fill-rule:nonzero;stroke:none"
       d="M2.8138855919921872 110.39883916503906Q2.8138855919921872 110.47187513183594 2.7828797570312496 110.52837465332033Q2.7518739220703123 110.5848741748047 2.69744145625 110.61863608398438Q2.759453126171875 110.65377603027345 2.7952820910156246 110.71544319091797Q2.831111055859375 110.7771103515625 2.831111055859375 110.86048159667969Q2.831111055859375 110.99415119628907 2.753940977734375 111.0716657836914Q2.676770899609375 111.14918037109375 2.543790318554687 111.14918037109375Q2.4108097374999997 111.14918037109375 2.3322616222656247 111.0716657836914Q2.2537135070312497 110.99415119628907 2.2537135070312497 110.86048159667969Q2.2537135070312497 110.7771103515625 2.2895424718749995 110.71509868164063Q2.3253714367187497 110.65308701171875 2.388072125195312 110.61863608398438Q2.3329506408203122 110.5848741748047 2.3019448058593746 110.52837465332033Q2.2709389708984373 110.47187513183594 2.2709389708984373 110.39883916503906Q2.2709389708984373 110.26723662109376 2.34466395625 110.19282261718752Q2.4183889416015623 110.11840861328126 2.5424122814453125 110.11840861328126Q2.6678136583984373 110.11840861328126 2.7408496251953123 110.1935116357422Q2.8138855919921872 110.26861465820313 2.8138855919921872 110.39883916503906ZM2.5437903185546875 110.98726101074219Q2.5878875060546873 110.98726101074219 2.611658646191406 110.94970949951173Q2.6354297863281246 110.91215798828125 2.6354297863281246 110.84532318847656Q2.6354297863281246 110.77848838867187 2.6106251183593745 110.74059236816407Q2.585820450390625 110.70269634765626 2.542412281445312 110.70269634765626Q2.4990041124999998 110.70269634765626 2.473854935253906 110.74059236816407Q2.4487057580078124 110.77848838867187 2.4487057580078124 110.84532318847656Q2.4487057580078124 110.91215798828125 2.473854935253906 110.94970949951173Q2.4990041124999998 110.98726101074219 2.5437903185546875 110.98726101074219ZM2.6195823595703125 110.40917444335938Q2.6195823595703125 110.35060786621094 2.6006343493164064 110.31546791992187Q2.5816863390625 110.28032797363282 2.5424122814453125 110.28032797363282Q2.5052052794921873 110.28032797363282 2.4859127599609376 110.31443439208985Q2.4666202404296875 110.34854081054688 2.4666202404296875 110.40917444335938Q2.4666202404296875 110.46843003906251 2.4859127599609376 110.50460351318361Q2.5052052794921873 110.5407769873047 2.543790318554687 110.5407769873047Q2.5823753576171873 110.5407769873047 2.60097885859375 110.50460351318361Q2.6195823595703125 110.46843003906251 2.6195823595703125 110.40917444335938Z" />
  </g>

  <g
     inkscape:groupmode="layer"
     id="layer-bg-dark"
     inkscape:label="BackgroundDark"
     style="display:none"
     sodipodi:insensitive="true">
    <path
       id="bg-dark"
       style="fill:#202020;fill-opacity:1;stroke:none"
       d="M 0,0 H 15.24 V 128.5 H 0 Z" />
  </g>
    <g
     inkscape:groupmode="layer"
     id="layer-panel-dark"
     inkscape:label="PanelDark"
     style="display:none"
     sodipodi:insensitive="true">
    <path
       id="accent-orange-dark"
       style="fill:none;stroke:#ff6600;stroke-width:0.3;stroke-linecap:round"
       d="M 0.762,124.71525 H 14.478" />
    <path
       style="fill:#171717;fill-opacity:1;stroke:#606060;stroke-width:0.3;stroke-opacity:0.98;stroke-linejoin:round;stroke-dasharray:none;stroke-opacity:1"
       d="m 0.762,8.382 c -1e-8,-0.420841 0.341159,-0.762 0.762,-0.762 h 12.192 c 0.420841,0 0.762,0.341159 0.762,0.762 v 5.84325 H 0.76200008 Z"
       id="path6-dark"
       sodipodi:nodetypes="ssssccs" />
    <path
       id="rect8-dark"
       style="fill:none;stroke:#606060;stroke-width:0.3;stroke-opacity:0.98;stroke-linejoin:round"
       d="m 1.5028339,7.6212501 12.2131661,0 a 0.74193715,0.74193715 44.957371 0 1 0.741936,0.7408331 l 0.01704,11.4511688 A 2.0289784,2.0289784 134.95737 0 1 12.446,21.84525 H 2.8363374 A 2.0743376,2.0743376 45 0 1 0.76199985,19.770912 l 1.4e-7,-11.408828 A 0.74083394,0.74083394 135 0 1 1.5028339,7.6212501 Z"
       sodipodi:nodetypes="ccccc"
       inkscape:path-effect="#path-effect8"
       inkscape:original-d="M 0.762,7.6212501 H 14.456834 L 14.478,21.84525 H 0.76199983 Z" />
    <path
       id="rect8-7-dark"
       style="display:inline;fill:none;stroke:#606060;stroke-width:0.3;stroke-opacity:0.98;stroke-linejoin:round"
       d="m 2.7919419,-61.509087 h 9.6520001 a 2.032047,2.032047 44.999335 0 1 2.032047,2.032 l 0.002,85.788504 a 2.645772,2.645772 134.99933 0 1 -2.645772,2.645833 l -8.4243758,0 A 2.6458936,2.6458936 44.999348 0 1 0.76193957,26.311417 l -0.001951,-85.788504 a 2.0319536,2.0319536 134.99935 0 1 2.03195357,-2.032 z"
       sodipodi:nodetypes="ccccc"
       inkscape:path-effect="#path-effect8-7"
       inkscape:original-d="M 0.75994211,-61.509087 H 14.475942 l 0.0021,90.466337 H 0.76199975 Z"
       transform="translate(0.00205789,91.990337)" />
    <rect
       style="display:inline;opacity:1;fill:#171717;fill-opacity:1;stroke:#606060;stroke-width:0.3;stroke-opacity:0.98;stroke-dasharray:none;stroke-opacity:1"
       id="rect1-dark"
       width="13.716001"
       height="4.5719995"
       x="0.76200002"
       y="35.307251" />
    <rect
       style="display:inline;fill:#171717;fill-opacity:1;stroke:#606060;stroke-width:0.3;stroke-opacity:0.98;stroke-dasharray:none;stroke-opacity:1"
       id="rect1-2-dark"
       width="13.716001"
       height="4.5719995"
       x="0.76200002"
       y="111.76125" />
    <rect
       style="display:inline;fill:#171717;fill-opacity:1;stroke:#606060;stroke-width:0.3;stroke-opacity:0.98;stroke-dasharray:none;stroke-opacity:1"
       id="rect1-2-4-dark"
       width="13.716001"
       height="4.5719995"
       x="0.76200002"
       y="46.229252" />
    <rect
       style="display:inline;fill:#171717;fill-opacity:1;stroke:#606060;stroke-width:0.3;stroke-opacity:0.98;stroke-dasharray:none;stroke-opacity:1"
       id="rect1-2-8-dark"
       width="13.716001"
       height="4.5719995"
       x="0.76200002"
       y="57.151253" />
    <rect
       style="display:inline;fill:#171717;fill-opacity:1;stroke:#606060;stroke-width:0.3;stroke-opacity:0.98;stroke-dasharray:none;stroke-opacity:1"
       id="rect1-2-1-dark"
       width="13.716001"
       height="4.5719995"
       x="0.76200002"
       y="68.07325" />
    <rect
       style="display:inline;fill:#171717;fill-opacity:1;stroke:#606060;stroke-width:0.3;stroke-opacity:0.98;stroke-dasharray:none;stroke-opacity:1"
       id="rect1-2-88-dark"
       width="13.716001"
       height="4.5719995"
       x="0.76200002"
       y="78.995255" />
    <rect
       style="display:inline;fill:#171717;fill-opacity:1;stroke:#606060;stroke-width:0.3;stroke-opacity:0.98;stroke-dasharray:none;stroke-opacity:1"
       id="rect1-2-7-dark"
       width="13.716001"
       height="4.5719995"
       x="0.76200002"
       y="89.917252" />
    <rect
       style="display:inline;fill:#171717;fill-opacity:1;stroke:#606060;stroke-width:0.3;stroke-opacity:0.98;stroke-dasharray:none;stroke-opacity:1"
       id="rect1-2-3-dark"
       width="13.716001"
       height="4.5719995"
       x="0.76200002"
       y="100.83926" />
  </g>

    <g
     inkscape:groupmode="layer"
     id="layer-text-dark"
     inkscape:label="TextDark"
     style="display:none">
    <path
       id="text-title-dark"
       style="fill:#c4bac4;fill-rule:nonzero;stroke:none"
       d="M4.597965019140625 3.181559246875 5.138155566015626 1.8035221375H6.066952577734376L5.124375194921876 3.7934077234375L6.089001171484376 5.8163662H5.149179862890626L4.597965019140625 4.41352442265625L4.049506249609376 5.8163662H3.1096849410156255L4.074310917578126 3.7934077234375L3.1289774605468756 1.8035221375H4.057774472265626Z M6.499656230078125 5.8163662V1.8035221375H7.560744804296876Q8.263543730078126 1.8035221375 8.681088974218751 2.2500061609374997Q9.098634218359376 2.696490184375 9.106902441015626 3.4737031140625V4.1241366296875Q9.106902441015626 4.91512993046875 8.689357196875001 5.365748065234375Q8.271811952734375 5.8163662 7.538696210546876 5.8163662ZM7.309942050390625 2.4787603210937497V5.143884090625H7.552476581640626Q7.957619491796875 5.143884090625 8.122983944921875 4.930288338671875Q8.288348398046875 4.71669258671875 8.296616620703126 4.19303848515625V3.4957517078125Q8.296616620703126 2.9335125671875 8.139520390234376 2.7116485925781246Q7.982424159765626 2.4897846179687497 7.604841991796875 2.4787603210937497Z M11.876757030859375 2.87012286015625Q11.876757030859375 3.16226672734375 11.752733691015624 3.38826481328125Q11.628710351171875 3.6142628992187498 11.410980487890626 3.7493105359375Q11.659027167578126 3.88987032109375 11.802343026953125 4.136538963671875Q11.945658886328125 4.38320760625 11.945658886328125 4.71669258671875Q11.945658886328125 5.25137098515625 11.636978573828126 5.561429334765625Q11.328298261328126 5.871487684375 10.796375937109374 5.871487684375Q10.264453612890625 5.871487684375 9.950261151953125 5.561429334765625Q9.636068691015625 5.25137098515625 9.636068691015625 4.71669258671875Q9.636068691015625 4.38320760625 9.779384550390624 4.1351609265625004Q9.922700409765625 3.887114246875 10.173503163671874 3.7493105359375Q9.953017226171875 3.6142628992187498 9.828993886328124 3.38826481328125Q9.704970546484375 3.16226672734375 9.704970546484375 2.87012286015625Q9.704970546484375 2.343712684375 9.999870487890625 2.0460566687499995Q10.294770429296875 1.7484006531249996 10.790863788671876 1.7484006531249996Q11.292469296484375 1.7484006531249996 11.584613163671875 2.0488127429687495Q11.876757030859375 2.3492248328125 11.876757030859375 2.87012286015625ZM10.796375937109376 5.22381024296875Q10.972764687109375 5.22381024296875 11.06784924765625 5.0736041980468745Q11.162933808203125 4.9233981531249995 11.162933808203125 4.65605895390625Q11.162933808203125 4.3887197546875 11.063715136328124 4.23713567265625Q10.964496464453125 4.085551590625 10.790863788671874 4.085551590625Q10.617231112890625 4.085551590625 10.51663440390625 4.23713567265625Q10.416037694921876 4.3887197546875 10.416037694921876 4.65605895390625Q10.416037694921876 4.9233981531249995 10.51663440390625 5.0736041980468745Q10.617231112890625 5.22381024296875 10.796375937109376 5.22381024296875ZM11.099544101171876 2.9114639734375Q11.099544101171876 2.67719766484375 11.023752060156252 2.5366378796874995Q10.947960019140625 2.3960780945312496 10.790863788671876 2.3960780945312496Q10.642035780859375 2.3960780945312496 10.564865702734377 2.5325037683593745Q10.487695624609376 2.6689294421875 10.487695624609376 2.9114639734375Q10.487695624609376 3.14848635625 10.564865702734377 3.2931802527343748Q10.642035780859375 3.4378741492187497 10.796375937109374 3.4378741492187497Q10.950716093359375 3.4378741492187497 11.025130097265626 3.2931802527343748Q11.099544101171876 3.14848635625 11.099544101171876 2.9114639734375Z" />
    <path
       id="text-orange-dark"
       style="fill:#c4bac4;fill-rule:nonzero;stroke:none"
       d="M3.4807265855468748 123.14444126464844Q3.4807265855468748 123.64914664062499 3.2421542491210937 123.92819875976562Q3.0035819126953127 124.20725087890625 2.5798361021484375 124.20725087890625Q2.157812835546875 124.20725087890625 1.916656683203125 123.9307825756836Q1.6755005308593751 123.65431427246094 1.67205544296875 123.15649907226562V122.72758562988281Q1.67205544296875 122.21082244628906 1.9114890513671874 121.9205737915039Q2.150922659765625 121.63032513671874 2.576391014257813 121.63032513671874Q2.99496919296875 121.63032513671874 3.2361253453125 121.91540615966795Q3.47728149765625 122.20048718261718 3.4807265855468748 122.71552782226561ZM2.9725761216796878 122.72414054199218Q2.9725761216796878 122.38479938476561 2.8761136607421878 122.21943516601561Q2.7796511998046878 122.05407094726561 2.576391014257813 122.05407094726561Q2.37485337265625 122.05407094726561 2.27839091171875 122.21340626220703Q2.18192845078125 122.37274157714843 2.178483362890625 122.6983023828125V123.14444126464844Q2.178483362890625 123.47344715820311 2.2766683677734374 123.6293373852539Q2.37485337265625 123.78522761230468 2.5798361021484375 123.78522761230468Q2.777928655859375 123.78522761230468 2.874391116796875 123.63278247314452Q2.970853577734375 123.48033733398437 2.9725761216796878 123.15994416015624Z M4.603825237890625 123.25640662109375H4.352333821875V124.1728H3.8459059019531248V121.664776015625H4.653779012304687Q5.03446122421875 121.664776015625 5.242027769628907 121.86200729736328Q5.449594315039063 122.05923857910156 5.449594315039063 122.4226953515625Q5.449594315039063 122.92223309570312 5.086137542578125 123.12204819335938L5.525386248632812 124.14868438476562V124.1728H4.981062361914062ZM4.352333821875 122.83438335449219H4.6399986607421875Q4.7915825279296875 122.83438335449219 4.867374461523437 122.7336145336914Q4.943166395117187 122.63284571289061 4.943166395117187 122.46403640624999Q4.943166395117187 122.08679928222656 4.64861138046875 122.08679928222656H4.352333821875Z M6.994716233984375 123.65948190429687H6.3039761119140625L6.169617684179688 124.1728H5.6339065171875005L6.417664012304687 121.664776015625H6.8810283335937505L7.669953460546875 124.1728H7.12907466171875ZM6.414218924414063 123.23745863769531H6.8827508775390625L6.6484849009765625 122.34345833007812Z M9.6577691734375 124.1728H9.151341253515625L8.41064735703125 122.52777053222655V124.1728H7.904219437109375V121.664776015625H8.41064735703125L9.153063797460938 123.31152802734374V121.664776015625H9.6577691734375Z M11.769608050390625 123.88858024902343Q11.623191815039062 124.04705429199218 11.41045763779297 124.12715258544921Q11.197723460546875 124.20725087890625 10.944509500585937 124.20725087890625Q10.5121509703125 124.20725087890625 10.272717361914063 123.93939529541015Q10.033283753515626 123.67153971191406 10.026393577734375 123.15994416015624V122.70863764648438Q10.026393577734375 122.1901519189453 10.252908106542968 121.91023852783202Q10.479422635351563 121.63032513671874 10.913503709570312 121.63032513671874Q11.321746624609375 121.63032513671874 11.529313170019531 121.8318627783203Q11.736879715429687 122.03340041992188 11.769608050390625 122.46403640624999H11.27696048203125Q11.2562899546875 122.22460279785156 11.177052933203125 122.13761432861327Q11.097815911718751 122.05062585937499 10.929006605078126 122.05062585937499Q10.724023875585937 122.05062585937499 10.631006502539062 122.20048718261718Q10.537989129492187 122.35034850585937 10.534544041601563 122.67763185546875V123.13238345703124Q10.534544041601563 123.47516970214843 10.637035406347657 123.63105992919921Q10.73952677109375 123.78695015625 10.973792747656251 123.78695015625Q11.123654070898437 123.78695015625 11.216671443945312 123.72666111816406L11.261457586523438 123.69565532714843V123.23573609374999H10.906613533789063V122.85333133789062H11.769608050390625Z M13.423250237890624 123.08759731445312H12.6343251109375V123.75249927734374H13.567943929296876V124.1728H12.127897191015625V121.664776015625H13.56449884140625V122.08679928222656H12.6343251109375V122.67935439941405H13.423250237890624Z" />
    <path
       id="text-line-dark"
       style="fill:#c4bac4;fill-rule:nonzero;stroke:none"
       d="M5.005181061523437 127.30849927734376H5.894013737304688V127.7288H4.498753141601562V125.220776015625H5.005181061523437Z M6.71566719921875 127.7288H6.209239279296875V125.220776015625H6.71566719921875Z M8.894685290039062 127.7288H8.388257370117188L7.647563473632812 126.08377053222657V127.7288H7.141135553710937V125.220776015625H7.647563473632812L8.389979914062499 126.86752802734375V125.220776015625H8.894685290039062Z M10.596558708007812 126.64359731445313H9.807633581054688V127.30849927734376H10.741252399414064V127.7288H9.301205661132814V125.220776015625H10.737807311523438V125.64279928222658H9.807633581054688V126.23535439941406H10.596558708007812Z" />
    <path
       id="text-title-4-dark"
       style="fill:#c4bac4;fill-rule:nonzero;stroke:none"
       d="M2.7356812109375 34.420345H2.5399999414062497V33.6541563671875L2.3491418017578125 33.72788135253906V33.56527297363281L2.715010654296875 33.41575594726562H2.7356812109375Z" />
    <path
       id="text-title-4-0-dark"
       style="fill:#c4bac4;fill-rule:nonzero;stroke:none"
       d="M2.845923871289062 45.348549H2.254745951367187V45.2107452890625L2.526219261914062 44.86554699316406Q2.5778956535156246 44.79388906347656 2.6023558122070307 44.7398011069336Q2.6268159708984373 44.685713150390626 2.6268159708984373 44.63610381445312Q2.6268159708984373 44.569269014648434 2.6037338493164057 44.531372994140625Q2.5806517277343746 44.49347697363281 2.5372435587890623 44.49347697363281Q2.4897012785156245 44.49347697363281 2.461796027050781 44.53757416113281Q2.433890775585937 44.58167134863281 2.433890775585937 44.66159750097656H2.238209506054687Q2.238209506054687 44.569269014648434 2.276450035839843 44.49278795507812Q2.3146905656249994 44.41630689550781 2.3839369303710933 44.37393225439453Q2.4531832951171872 44.33155761328125 2.5406886515625 44.33155761328125Q2.675047269726562 44.33155761328125 2.7491167643554686 44.40562710791015Q2.8231862589843746 44.47969660253906 2.8231862589843746 44.616122276367186Q2.8231862589843746 44.70087155859375 2.7821896549804683 44.78803240576171Q2.741193050976562 44.875193252929684 2.633706156445312 45.002661685546876L2.5048596867187496 45.18662963964844H2.845923871289062Z" />
    <path
       id="text-title-4-9-dark"
       style="fill:#c4bac4;fill-rule:nonzero;stroke:none"
       d="M2.435957427148437 55.673168098632814H2.530352969140625Q2.5840964164062497 55.673168098632814 2.6092455936523438 55.635616587402346Q2.6343947708984374 55.59806507617188 2.6343947708984374 55.53536438769532Q2.6343947708984374 55.4754197734375 2.608556575097656 55.44200237353516Q2.5827183792968746 55.40858497363281 2.5393102103515623 55.40858497363281Q2.4986581156249996 55.40858497363281 2.4728199198242184 55.44027982714844Q2.4469817240234373 55.47197468066406 2.4469817240234373 55.52020597949219H2.2519894730468746Q2.2519894730468746 55.44165786425781 2.2881629471679683 55.37930168505859Q2.324336421289062 55.31694550585938 2.389448674707031 55.281805559570316Q2.454560928125 55.24666561328125 2.5337980619140623 55.24666561328125Q2.6722907914062497 55.24666561328125 2.7508389066406247 55.323146672851564Q2.8293870218749997 55.39962773242188 2.8293870218749997 55.532608313476565Q2.8293870218749997 55.60082115039063 2.7939025663085935 55.65904321826172Q2.7584181107421872 55.717265286132815 2.7005405521484374 55.74827112109375Q2.77150946328125 55.7785879375 2.8063049002929685 55.8392215703125Q2.8411003373046873 55.899855203125 2.8411003373046873 55.982537429687504Q2.8411003373046873 56.11620702929687 2.7560065458007807 56.196822200195314Q2.6709127542968747 56.277437371093754 2.5324200248046873 56.277437371093754Q2.4035735550781245 56.277437371093754 2.323302893457031 56.19785572802735Q2.243032231835937 56.11827408496094 2.243032231835937 55.98873859667969H2.4380244828124997Q2.4380244828124997 56.04248204394531 2.466274243554687 56.07900002734375Q2.4945240042968746 56.11551801074219 2.5379321732421873 56.11551801074219Q2.5882305277343747 56.11551801074219 2.6175138163085934 56.078311008789065Q2.646797104882812 56.04110400683594 2.646797104882812 55.979092336914064Q2.646797104882812 55.830953347656255 2.53173100625 55.83026432910157H2.435957427148437Z" />
    <path
       id="text-title-4-5-dark"
       style="fill:#c4bac4;fill-rule:nonzero;stroke:none"
       d="M2.7677208931640624 66.80635779492187H2.8531591939453125V66.96827715527343H2.7677208931640624V67.185318H2.5727286421874997V66.96827715527343H2.2406216988281247L2.231664457617187 66.84218675976562L2.5720396236328122 66.182106984375H2.7677208931640624ZM2.42114456015625 66.80635779492187H2.5727286421874997V66.47080575878906L2.5685945308593747 66.47838496289062Z" />
    <path
       id="text-title-4-4-dark"
       style="fill:#c4bac4;fill-rule:nonzero;stroke:none"
       d="M2.268182389453125 77.60708871484375 2.3177917253906246 77.097214984375H2.803549806445312V77.26395747460937H2.4776440300781246L2.45972954765625 77.47893126367187Q2.516229069140625 77.44103524316407 2.576173683398437 77.44103524316407Q2.700197023242187 77.44103524316407 2.7673763323242184 77.52922961816407Q2.83455564140625 77.61742399316407 2.83455564140625 77.77865433496093Q2.83455564140625 77.9295493984375 2.7546294890625 78.02187788476562Q2.67470333671875 78.11420637109374 2.541033737109375 78.11420637109374Q2.4617966033203125 78.11420637109374 2.394272784960937 78.07665485986328Q2.326748966601562 78.0391033486328 2.2878194182617184 77.97226854882811Q2.2488898699218747 77.90543374902343 2.248200851367187 77.82068446679688H2.4411260466796874Q2.4459491765625 77.88338515527343 2.4721318816406246 77.91783608300781Q2.4983145867187497 77.95228701074218 2.5396557 77.95228701074218Q2.587886998828125 77.95228701074218 2.6140697039062495 77.90577825830078Q2.6402524089843746 77.85926950585937 2.6402524089843746 77.76694101953125Q2.6402524089843746 77.68012468164062 2.6089020647460934 77.63602749414062Q2.5775517205078122 77.59193030664062 2.5210521990234374 77.59193030664062Q2.4659307146484375 77.59193030664062 2.4356138982421873 77.62982632714844L2.4232115642578123 77.64705179101563Z" />
    <path
       id="text-title-4-03-dark"
       style="fill:#c4bac4;fill-rule:nonzero;stroke:none"
       d="M2.70674237578125 88.26839070605469V88.43375515917968H2.69571807890625Q2.586164128710937 88.43444417773438 2.5217408938476558 88.49955643115234Q2.4573176589843744 88.56466868457031 2.4435372878906247 88.68180183886719Q2.506237976367187 88.61014390917968 2.6006335183593747 88.61014390917968Q2.70949845 88.61014390917968 2.7746107034179683 88.70316141406249Q2.8397229568359372 88.79617891894532 2.8397229568359372 88.95120809375Q2.8397229568359372 89.04973774707031 2.8025159548828125 89.12897488085937Q2.7653089529296873 89.20821201464844 2.698129643847656 89.2519646928711Q2.6309503347656245 89.29571737109374 2.546201052539062 89.29571737109374Q2.409775378710937 89.29571737109374 2.3274376614257806 89.18616342089842Q2.2450999441406245 89.07660947070312 2.2450999441406245 88.89126347949218V88.81891653125Q2.2450999441406245 88.65286305957031 2.297120845019531 88.52815070117188Q2.349141745898437 88.40343834277344 2.447326889941406 88.3362590336914Q2.5455120339843744 88.26907972460937 2.6764255593749997 88.26839070605469ZM2.539310866992187 88.77137425097656Q2.502103865039062 88.77137425097656 2.4769546877929685 88.79480088183594Q2.451805510546875 88.81822751269532 2.4394031765624997 88.85267844042968V88.92295833300781Q2.4394031765624997 89.02906719042969 2.4676529373046874 89.08143260058594Q2.4959026980468746 89.13379801074218 2.542066941210937 89.13379801074218Q2.588920202929687 89.13379801074218 2.6171699636718744 89.08315514697264Q2.645419724414062 89.03251228320312 2.645419724414062 88.95327514941407Q2.645419724414062 88.87265997851563 2.6161364358398433 88.8220171147461Q2.5868531472656247 88.77137425097656 2.539310866992187 88.77137425097656Z" />
    <path
       id="text-title-4-1-dark"
       style="fill:#c4bac4;fill-rule:nonzero;stroke:none"
       d="M2.8462680970703125 99.31440900878906 2.5293195619140625 100.20531H2.3233030140624997L2.6416295863281247 99.36401834472656H2.2392427503906247V99.202098984375H2.8462680970703125Z" />
    <path
       id="text-title-4-2-dark"
       style="fill:#c4bac4;fill-rule:nonzero;stroke:none"
       d="M2.8138855919921872 110.39883916503906Q2.8138855919921872 110.47187513183594 2.7828797570312496 110.52837465332033Q2.7518739220703123 110.5848741748047 2.69744145625 110.61863608398438Q2.759453126171875 110.65377603027345 2.7952820910156246 110.71544319091797Q2.831111055859375 110.7771103515625 2.831111055859375 110.86048159667969Q2.831111055859375 110.99415119628907 2.753940977734375 111.0716657836914Q2.676770899609375 111.14918037109375 2.543790318554687 111.14918037109375Q2.4108097374999997 111.14918037109375 2.3322616222656247 111.0716657836914Q2.2537135070312497 110.99415119628907 2.2537135070312497 110.86048159667969Q2.2537135070312497 110.7771103515625 2.2895424718749995 110.71509868164063Q2.3253714367187497 110.65308701171875 2.388072125195312 110.61863608398438Q2.3329506408203122 110.5848741748047 2.3019448058593746 110.52837465332033Q2.2709389708984373 110.47187513183594 2.2709389708984373 110.39883916503906Q2.2709389708984373 110.26723662109376 2.34466395625 110.19282261718752Q2.4183889416015623 110.11840861328126 2.5424122814453125 110.11840861328126Q2.6678136583984373 110.11840861328126 2.7408496251953123 110.1935116357422Q2.8138855919921872 110.26861465820313 2.8138855919921872 110.39883916503906ZM2.5437903185546875 110.98726101074219Q2.5878875060546873 110.98726101074219 2.611658646191406 110.94970949951173Q2.6354297863281246 110.91215798828125 2.6354297863281246 110.84532318847656Q2.6354297863281246 110.77848838867187 2.6106251183593745 110.74059236816407Q2.585820450390625 110.70269634765626 2.542412281445312 110.70269634765626Q2.4990041124999998 110.70269634765626 2.473854935253906 110.74059236816407Q2.4487057580078124 110.77848838867187 2.4487057580078124 110.84532318847656Q2.4487057580078124 110.91215798828125 2.473854935253906 110.94970949951173Q2.4990041124999998 110.98726101074219 2.5437903185546875 110.98726101074219ZM2.6195823595703125 110.40917444335938Q2.6195823595703125 110.35060786621094 2.6006343493164064 110.31546791992187Q2.5816863390625 110.28032797363282 2.5424122814453125 110.28032797363282Q2.5052052794921873 110.28032797363282 2.4859127599609376 110.31443439208985Q2.4666202404296875 110.34854081054688 2.4666202404296875 110.40917444335938Q2.4666202404296875 110.46843003906251 2.4859127599609376 110.50460351318361Q2.5052052794921873 110.5407769873047 2.543790318554687 110.5407769873047Q2.5823753576171873 110.5407769873047 2.60097885859375 110.50460351318361Q2.6195823595703125 110.46843003906251 2.6195823595703125 110.40917444335938Z" />
  </g>

  <g
     inkscape:groupmode="layer"
     id="layer-bg-orange"
     inkscape:label="BackgroundOrange"
     style="display:none"
     sodipodi:insensitive="true">
    <path
       id="bg-orange"
       style="fill:#15152b;fill-opacity:1;stroke:none"
       d="M 0,0 H 15.24 V 128.5 H 0 Z" />
  </g>
    <g
     inkscape:groupmode="layer"
     id="layer-text-orange"
     inkscape:label="TextOrange"
     style="display:none">
    <path
       id="text-title-orange"
       style="fill:#ff6600;fill-rule:nonzero;stroke:none"
       d="M4.597965019140625 3.181559246875 5.138155566015626 1.8035221375H6.066952577734376L5.124375194921876 3.7934077234375L6.089001171484376 5.8163662H5.149179862890626L4.597965019140625 4.41352442265625L4.049506249609376 5.8163662H3.1096849410156255L4.074310917578126 3.7934077234375L3.1289774605468756 1.8035221375H4.057774472265626Z M6.499656230078125 5.8163662V1.8035221375H7.560744804296876Q8.263543730078126 1.8035221375 8.681088974218751 2.2500061609374997Q9.098634218359376 2.696490184375 9.106902441015626 3.4737031140625V4.1241366296875Q9.106902441015626 4.91512993046875 8.689357196875001 5.365748065234375Q8.271811952734375 5.8163662 7.538696210546876 5.8163662ZM7.309942050390625 2.4787603210937497V5.143884090625H7.552476581640626Q7.957619491796875 5.143884090625 8.122983944921875 4.930288338671875Q8.288348398046875 4.71669258671875 8.296616620703126 4.19303848515625V3.4957517078125Q8.296616620703126 2.9335125671875 8.139520390234376 2.7116485925781246Q7.982424159765626 2.4897846179687497 7.604841991796875 2.4787603210937497Z M11.876757030859375 2.87012286015625Q11.876757030859375 3.16226672734375 11.752733691015624 3.38826481328125Q11.628710351171875 3.6142628992187498 11.410980487890626 3.7493105359375Q11.659027167578126 3.88987032109375 11.802343026953125 4.136538963671875Q11.945658886328125 4.38320760625 11.945658886328125 4.71669258671875Q11.945658886328125 5.25137098515625 11.636978573828126 5.561429334765625Q11.328298261328126 5.871487684375 10.796375937109374 5.871487684375Q10.264453612890625 5.871487684375 9.950261151953125 5.561429334765625Q9.636068691015625 5.25137098515625 9.636068691015625 4.71669258671875Q9.636068691015625 4.38320760625 9.779384550390624 4.1351609265625004Q9.922700409765625 3.887114246875 10.173503163671874 3.7493105359375Q9.953017226171875 3.6142628992187498 9.828993886328124 3.38826481328125Q9.704970546484375 3.16226672734375 9.704970546484375 2.87012286015625Q9.704970546484375 2.343712684375 9.999870487890625 2.0460566687499995Q10.294770429296875 1.7484006531249996 10.790863788671876 1.7484006531249996Q11.292469296484375 1.7484006531249996 11.584613163671875 2.0488127429687495Q11.876757030859375 2.3492248328125 11.876757030859375 2.87012286015625ZM10.796375937109376 5.22381024296875Q10.972764687109375 5.22381024296875 11.06784924765625 5.0736041980468745Q11.162933808203125 4.9233981531249995 11.162933808203125 4.65605895390625Q11.162933808203125 4.3887197546875 11.063715136328124 4.23713567265625Q10.964496464453125 4.085551590625 10.790863788671874 4.085551590625Q10.617231112890625 4.085551590625 10.51663440390625 4.23713567265625Q10.416037694921876 4.3887197546875 10.416037694921876 4.65605895390625Q10.416037694921876 4.9233981531249995 10.51663440390625 5.0736041980468745Q10.617231112890625 5.22381024296875 10.796375937109376 5.22381024296875ZM11.099544101171876 2.9114639734375Q11.099544101171876 2.67719766484375 11.023752060156252 2.5366378796874995Q10.947960019140625 2.3960780945312496 10.790863788671876 2.3960780945312496Q10.642035780859375 2.3960780945312496 10.564865702734377 2.5325037683593745Q10.487695624609376 2.6689294421875 10.487695624609376 2.9114639734375Q10.487695624609376 3.14848635625 10.564865702734377 3.2931802527343748Q10.642035780859375 3.4378741492187497 10.796375937109374 3.4378741492187497Q10.950716093359375 3.4378741492187497 11.025130097265626 3.2931802527343748Q11.099544101171876 3.14848635625 11.099544101171876 2.9114639734375Z" />
    <path
       id="text-orange-orange"
       style="fill:#ff6600;fill-rule:nonzero;stroke:none"
       d="M3.4807265855468748 123.14444126464844Q3.4807265855468748 123.64914664062499 3.2421542491210937 123.92819875976562Q3.0035819126953127 124.20725087890625 2.5798361021484375 124.20725087890625Q2.157812835546875 124.20725087890625 1.916656683203125 123.9307825756836Q1.6755005308593751 123.65431427246094 1.67205544296875 123.15649907226562V122.72758562988281Q1.67205544296875 122.21082244628906 1.9114890513671874 121.9205737915039Q2.150922659765625 121.63032513671874 2.576391014257813 121.63032513671874Q2.99496919296875 121.63032513671874 3.2361253453125 121.91540615966795Q3.47728149765625 122.20048718261718 3.4807265855468748 122.71552782226561ZM2.9725761216796878 122.72414054199218Q2.9725761216796878 122.38479938476561 2.8761136607421878 122.21943516601561Q2.7796511998046878 122.05407094726561 2.576391014257813 122.05407094726561Q2.37485337265625 122.05407094726561 2.27839091171875 122.21340626220703Q2.18192845078125 122.37274157714843 2.178483362890625 122.6983023828125V123.14444126464844Q2.178483362890625 123.47344715820311 2.2766683677734374 123.6293373852539Q2.37485337265625 123.78522761230468 2.5798361021484375 123.78522761230468Q2.777928655859375 123.78522761230468 2.874391116796875 123.63278247314452Q2.970853577734375 123.48033733398437 2.9725761216796878 123.15994416015624Z M4.603825237890625 123.25640662109375H4.352333821875V124.1728H3.8459059019531248V121.664776015625H4.653779012304687Q5.03446122421875 121.664776015625 5.242027769628907 121.86200729736328Q5.449594315039063 122.05923857910156 5.449594315039063 122.4226953515625Q5.449594315039063 122.92223309570312 5.086137542578125 123.12204819335938L5.525386248632812 124.14868438476562V124.1728H4.981062361914062ZM4.352333821875 122.83438335449219H4.6399986607421875Q4.7915825279296875 122.83438335449219 4.867374461523437 122.7336145336914Q4.943166395117187 122.63284571289061 4.943166395117187 122.46403640624999Q4.943166395117187 122.08679928222656 4.64861138046875 122.08679928222656H4.352333821875Z M6.994716233984375 123.65948190429687H6.3039761119140625L6.169617684179688 124.1728H5.6339065171875005L6.417664012304687 121.664776015625H6.8810283335937505L7.669953460546875 124.1728H7.12907466171875ZM6.414218924414063 123.23745863769531H6.8827508775390625L6.6484849009765625 122.34345833007812Z M9.6577691734375 124.1728H9.151341253515625L8.41064735703125 122.52777053222655V124.1728H7.904219437109375V121.664776015625H8.41064735703125L9.153063797460938 123.31152802734374V121.664776015625H9.6577691734375Z M11.769608050390625 123.88858024902343Q11.623191815039062 124.04705429199218 11.41045763779297 124.12715258544921Q11.197723460546875 124.20725087890625 10.944509500585937 124.20725087890625Q10.5121509703125 124.20725087890625 10.272717361914063 123.93939529541015Q10.033283753515626 123.67153971191406 10.026393577734375 123.15994416015624V122.70863764648438Q10.026393577734375 122.1901519189453 10.252908106542968 121.91023852783202Q10.479422635351563 121.63032513671874 10.913503709570312 121.63032513671874Q11.321746624609375 121.63032513671874 11.529313170019531 121.8318627783203Q11.736879715429687 122.03340041992188 11.769608050390625 122.46403640624999H11.27696048203125Q11.2562899546875 122.22460279785156 11.177052933203125 122.13761432861327Q11.097815911718751 122.05062585937499 10.929006605078126 122.05062585937499Q10.724023875585937 122.05062585937499 10.631006502539062 122.20048718261718Q10.537989129492187 122.35034850585937 10.534544041601563 122.67763185546875V123.13238345703124Q10.534544041601563 123.47516970214843 10.637035406347657 123.63105992919921Q10.73952677109375 123.78695015625 10.973792747656251 123.78695015625Q11.123654070898437 123.78695015625 11.216671443945312 123.72666111816406L11.261457586523438 123.69565532714843V123.23573609374999H10.906613533789063V122.85333133789062H11.769608050390625Z M13.423250237890624 123.08759731445312H12.6343251109375V123.75249927734374H13.567943929296876V124.1728H12.127897191015625V121.664776015625H13.56449884140625V122.08679928222656H12.6343251109375V122.67935439941405H13.423250237890624Z" />
    <path
       id="text-line-orange"
       style="fill:#ff6600;fill-rule:nonzero;stroke:none"
       d="M5.005181061523437 127.30849927734376H5.894013737304688V127.7288H4.498753141601562V125.220776015625H5.005181061523437Z M6.71566719921875 127.7288H6.209239279296875V125.220776015625H6.71566719921875Z M8.894685290039062 127.7288H8.388257370117188L7.647563473632812 126.08377053222657V127.7288H7.141135553710937V125.220776015625H7.647563473632812L8.389979914062499 126.86752802734375V125.220776015625H8.894685290039062Z M10.596558708007812 126.64359731445313H9.807633581054688V127.30849927734376H10.741252399414064V127.7288H9.301205661132814V125.220776015625H10.737807311523438V125.64279928222658H9.807633581054688V126.23535439941406H10.596558708007812Z" />
    <path
       id="text-title-4-orange"
       style="fill:#ff6600;fill-rule:nonzero;stroke:none"
       d="M2.7356812109375 34.420345H2.5399999414062497V33.6541563671875L2.3491418017578125 33.72788135253906V33.56527297363281L2.715010654296875 33.41575594726562H2.7356812109375Z" />
    <path
       id="text-title-4-0-orange"
       style="fill:#ff6600;fill-rule:nonzero;stroke:none"
       d="M2.845923871289062 45.348549H2.254745951367187V45.2107452890625L2.526219261914062 44.86554699316406Q2.5778956535156246 44.79388906347656 2.6023558122070307 44.7398011069336Q2.6268159708984373 44.685713150390626 2.6268159708984373 44.63610381445312Q2.6268159708984373 44.569269014648434 2.6037338493164057 44.531372994140625Q2.5806517277343746 44.49347697363281 2.5372435587890623 44.49347697363281Q2.4897012785156245 44.49347697363281 2.461796027050781 44.53757416113281Q2.433890775585937 44.58167134863281 2.433890775585937 44.66159750097656H2.238209506054687Q2.238209506054687 44.569269014648434 2.276450035839843 44.49278795507812Q2.3146905656249994 44.41630689550781 2.3839369303710933 44.37393225439453Q2.4531832951171872 44.33155761328125 2.5406886515625 44.33155761328125Q2.675047269726562 44.33155761328125 2.7491167643554686 44.40562710791015Q2.8231862589843746 44.47969660253906 2.8231862589843746 44.616122276367186Q2.8231862589843746 44.70087155859375 2.7821896549804683 44.78803240576171Q2.741193050976562 44.875193252929684 2.633706156445312 45.002661685546876L2.5048596867187496 45.18662963964844H2.845923871289062Z" />
    <path
       id="text-title-4-9-orange"
       style="fill:#ff6600;fill-rule:nonzero;stroke:none"
       d="M2.435957427148437 55.673168098632814H2.530352969140625Q2.5840964164062497 55.673168098632814 2.6092455936523438 55.635616587402346Q2.6343947708984374 55.59806507617188 2.6343947708984374 55.53536438769532Q2.6343947708984374 55.4754197734375 2.608556575097656 55.44200237353516Q2.5827183792968746 55.40858497363281 2.5393102103515623 55.40858497363281Q2.4986581156249996 55.40858497363281 2.4728199198242184 55.44027982714844Q2.4469817240234373 55.47197468066406 2.4469817240234373 55.52020597949219H2.2519894730468746Q2.2519894730468746 55.44165786425781 2.2881629471679683 55.37930168505859Q2.324336421289062 55.31694550585938 2.389448674707031 55.281805559570316Q2.454560928125 55.24666561328125 2.5337980619140623 55.24666561328125Q2.6722907914062497 55.24666561328125 2.7508389066406247 55.323146672851564Q2.8293870218749997 55.39962773242188 2.8293870218749997 55.532608313476565Q2.8293870218749997 55.60082115039063 2.7939025663085935 55.65904321826172Q2.7584181107421872 55.717265286132815 2.7005405521484374 55.74827112109375Q2.77150946328125 55.7785879375 2.8063049002929685 55.8392215703125Q2.8411003373046873 55.899855203125 2.8411003373046873 55.982537429687504Q2.8411003373046873 56.11620702929687 2.7560065458007807 56.196822200195314Q2.6709127542968747 56.277437371093754 2.5324200248046873 56.277437371093754Q2.4035735550781245 56.277437371093754 2.323302893457031 56.19785572802735Q2.243032231835937 56.11827408496094 2.243032231835937 55.98873859667969H2.4380244828124997Q2.4380244828124997 56.04248204394531 2.466274243554687 56.07900002734375Q2.4945240042968746 56.11551801074219 2.5379321732421873 56.11551801074219Q2.5882305277343747 56.11551801074219 2.6175138163085934 56.078311008789065Q2.646797104882812 56.04110400683594 2.646797104882812 55.979092336914064Q2.646797104882812 55.830953347656255 2.53173100625 55.83026432910157H2.435957427148437Z" />
    <path
       id="text-title-4-5-orange"
       style="fill:#ff6600;fill-rule:nonzero;stroke:none"
       d="M2.7677208931640624 66.80635779492187H2.8531591939453125V66.96827715527343H2.7677208931640624V67.185318H2.5727286421874997V66.96827715527343H2.2406216988281247L2.231664457617187 66.84218675976562L2.5720396236328122 66.182106984375H2.7677208931640624ZM2.42114456015625 66.80635779492187H2.5727286421874997V66.47080575878906L2.5685945308593747 66.47838496289062Z" />
    <path
       id="text-title-4-4-orange"
       style="fill:#ff6600;fill-rule:nonzero;stroke:none"
       d="M2.268182389453125 77.60708871484375 2.3177917253906246 77.097214984375H2.803549806445312V77.26395747460937H2.4776440300781246L2.45972954765625 77.47893126367187Q2.516229069140625 77.44103524316407 2.576173683398437 77.44103524316407Q2.700197023242187 77.44103524316407 2.7673763323242184 77.52922961816407Q2.83455564140625 77.61742399316407 2.83455564140625 77.77865433496093Q2.83455564140625 77.9295493984375 2.7546294890625 78.02187788476562Q2.67470333671875 78.11420637109374 2.541033737109375 78.11420637109374Q2.4617966033203125 78.11420637109374 2.394272784960937 78.07665485986328Q2.326748966601562 78.0391033486328 2.2878194182617184 77.97226854882811Q2.2488898699218747 77.90543374902343 2.248200851367187 77.82068446679688H2.4411260466796874Q2.4459491765625 77.88338515527343 2.4721318816406246 77.91783608300781Q2.4983145867187497 77.95228701074218 2.5396557 77.95228701074218Q2.587886998828125 77.95228701074218 2.6140697039062495 77.90577825830078Q2.6402524089843746 77.85926950585937 2.6402524089843746 77.76694101953125Q2.6402524089843746 77.68012468164062 2.6089020647460934 77.63602749414062Q2.5775517205078122 77.59193030664062 2.5210521990234374 77.59193030664062Q2.4659307146484375 77.59193030664062 2.4356138982421873 77.62982632714844L2.4232115642578123 77.64705179101563Z" />
    <path
       id="text-title-4-03-orange"
       style="fill:#ff6600;fill-rule:nonzero;stroke:none"
       d="M2.70674237578125 88.26839070605469V88.43375515917968H2.69571807890625Q2.586164128710937 88.43444417773438 2.5217408938476558 88.49955643115234Q2.4573176589843744 88.56466868457031 2.4435372878906247 88.68180183886719Q2.506237976367187 88.61014390917968 2.6006335183593747 88.61014390917968Q2.70949845 88.61014390917968 2.7746107034179683 88.70316141406249Q2.8397229568359372 88.79617891894532 2.8397229568359372 88.95120809375Q2.8397229568359372 89.04973774707031 2.8025159548828125 89.12897488085937Q2.7653089529296873 89.20821201464844 2.698129643847656 89.2519646928711Q2.6309503347656245 89.29571737109374 2.546201052539062 89.29571737109374Q2.409775378710937 89.29571737109374 2.3274376614257806 89.18616342089842Q2.2450999441406245 89.07660947070312 2.2450999441406245 88.89126347949218V88.81891653125Q2.2450999441406245 88.65286305957031 2.297120845019531 88.52815070117188Q2.349141745898437 88.40343834277344 2.447326889941406 88.3362590336914Q2.5455120339843744 88.26907972460937 2.6764255593749997 88.26839070605469ZM2.539310866992187 88.77137425097656Q2.502103865039062 88.77137425097656 2.4769546877929685 88.79480088183594Q2.451805510546875 88.81822751269532 2.4394031765624997 88.85267844042968V88.92295833300781Q2.4394031765624997 89.02906719042969 2.4676529373046874 89.08143260058594Q2.4959026980468746 89.13379801074218 2.542066941210937 89.13379801074218Q2.588920202929687 89.13379801074218 2.6171699636718744 89.08315514697264Q2.645419724414062 89.03251228320312 2.645419724414062 88.95327514941407Q2.645419724414062 88.87265997851563 2.6161364358398433 88.8220171147461Q2.5868531472656247 88.77137425097656 2.539310866992187 88.77137425097656Z" />
    <path
       id="text-title-4-1-orange"
       style="fill:#ff6600;fill-rule:nonzero;stroke:none"
       d="M2.8462680970703125 99.31440900878906 2.5293195619140625 100.20531H2.3233030140624997L2.6416295863281247 99.36401834472656H2.2392427503906247V99.202098984375H2.8462680970703125Z" />
    <path
       id="text-title-4-2-orange"
       style="fill:#ff6600;fill-rule:nonzero;stroke:none"
       d="M2.8138855919921872 110.39883916503906Q2.8138855919921872 110.47187513183594 2.7828797570312496 110.52837465332033Q2.7518739220703123 110.5848741748047 2.69744145625 110.61863608398438Q2.759453126171875 110.65377603027345 2.7952820910156246 110.71544319091797Q2.831111055859375 110.7771103515625 2.831111055859375 110.86048159667969Q2.831111055859375 110.99415119628907 2.753940977734375 111.0716657836914Q2.676770899609375 111.14918037109375 2.543790318554687 111.14918037109375Q2.4108097374999997 111.14918037109375 2.3322616222656247 111.0716657836914Q2.2537135070312497 110.99415119628907 2.2537135070312497 110.86048159667969Q2.2537135070312497 110.7771103515625 2.2895424718749995 110.71509868164063Q2.3253714367187497 110.65308701171875 2.388072125195312 110.61863608398438Q2.3329506408203122 110.5848741748047 2.3019448058593746 110.52837465332033Q2.2709389708984373 110.47187513183594 2.2709389708984373 110.39883916503906Q2.2709389708984373 110.26723662109376 2.34466395625 110.19282261718752Q2.4183889416015623 110.11840861328126 2.5424122814453125 110.11840861328126Q2.6678136583984373 110.11840861328126 2.7408496251953123 110.1935116357422Q2.8138855919921872 110.26861465820313 2.8138855919921872 110.39883916503906ZM2.5437903185546875 110.98726101074219Q2.5878875060546873 110.98726101074219 2.611658646191406 110.94970949951173Q2.6354297863281246 110.91215798828125 2.6354297863281246 110.84532318847656Q2.6354297863281246 110.77848838867187 2.6106251183593745 110.74059236816407Q2.585820450390625 110.70269634765626 2.542412281445312 110.70269634765626Q2.4990041124999998 110.70269634765626 2.473854935253906 110.74059236816407Q2.4487057580078124 110.77848838867187 2.4487057580078124 110.84532318847656Q2.4487057580078124 110.91215798828125 2.473854935253906 110.94970949951173Q2.4990041124999998 110.98726101074219 2.5437903185546875 110.98726101074219ZM2.6195823595703125 110.40917444335938Q2.6195823595703125 110.35060786621094 2.6006343493164064 110.31546791992187Q2.5816863390625 110.28032797363282 2.5424122814453125 110.28032797363282Q2.5052052794921873 110.28032797363282 2.4859127599609376 110.31443439208985Q2.4666202404296875 110.34854081054688 2.4666202404296875 110.40917444335938Q2.4666202404296875 110.46843003906251 2.4859127599609376 110.50460351318361Q2.5052052794921873 110.5407769873047 2.543790318554687 110.5407769873047Q2.5823753576171873 110.5407769873047 2.60097885859375 110.50460351318361Q2.6195823595703125 110.46843003906251 2.6195823595703125 110.40917444335938Z" />
  </g>

  <g
     inkscape:groupmode="layer"
     id="layer-text-work"
     inkscape:label="TextWork"
     style="display:none"
     sodipodi:insensitive="true">
    <text
       id="text-title"
       x="7.6200004"
       y="5.8163662"
       style="font-style:normal;font-weight:bold;font-size:5.64444px;font-family:'Roboto Condensed';-inkscape-font-specification:'Roboto Condensed, Bold';text-align:center;text-anchor:middle;fill:#ff6600;stroke:none"><tspan
         id="tspan-title"
         x="7.6200004"
         y="5.8163662">XD8</tspan></text>
    <text
       id="text-orange"
       x="1.5135814"
       y="124.1728"
       style="font-style:normal;font-weight:bold;font-size:3.52777px;font-family:'Roboto Condensed';-inkscape-font-specification:'Roboto Condensed, Bold';text-align:start;text-anchor:start;fill:#ff6600;stroke:none"><tspan
         id="tspan-orange"
         x="1.5135814"
         y="124.1728">ORANGE</tspan></text>
    <text
       id="text-line"
       x="4.2972155"
       y="127.7288"
       style="font-style:normal;font-weight:bold;font-size:3.52777px;font-family:'Roboto Condensed';-inkscape-font-specification:'Roboto Condensed, Bold';text-align:start;text-anchor:start;fill:#ff6600;stroke:none"><tspan
         id="tspan-line"
         x="4.2972155"
         y="127.7288">LINE</tspan></text>
    <text
       id="text-title-4"
       x="2.5978775"
       y="34.420345"
       style="font-style:normal;font-weight:bold;font-size:5.64444px;font-family:'Roboto Condensed';-inkscape-font-specification:'Roboto Condensed, Bold';text-align:center;text-anchor:middle;display:inline;fill:#ff6600;stroke:none"><tspan
         id="tspan-title-6"
         x="2.5978775"
         y="34.420345"
         style="font-style:normal;font-variant:normal;font-weight:normal;font-stretch:normal;font-size:1.41111px;font-family:'Roboto Condensed';-inkscape-font-specification:'Roboto Condensed, @wght=700';font-variant-ligatures:normal;font-variant-caps:normal;font-variant-numeric:normal;font-variant-east-asian:normal;font-variation-settings:'wght' 700">1</tspan></text>
    <text
       id="text-title-4-0"
       x="2.5462008"
       y="45.348549"
       style="font-style:normal;font-weight:bold;font-size:5.64444px;font-family:'Roboto Condensed';-inkscape-font-specification:'Roboto Condensed, Bold';text-align:center;text-anchor:middle;display:inline;fill:#ff6600;stroke:none"><tspan
         id="tspan-title-6-2"
         x="2.5462008"
         y="45.348549"
         style="font-style:normal;font-variant:normal;font-weight:normal;font-stretch:normal;font-size:1.41111px;font-family:'Roboto Condensed';-inkscape-font-specification:'Roboto Condensed, @wght=700';font-variant-ligatures:normal;font-variant-caps:normal;font-variant-numeric:normal;font-variant-east-asian:normal;font-variation-settings:'wght' 700">2</tspan></text>
    <text
       id="text-title-4-9"
       x="2.5537796"
       y="56.263657"
       style="font-style:normal;font-weight:bold;font-size:5.64444px;font-family:'Roboto Condensed';-inkscape-font-specification:'Roboto Condensed, Bold';text-align:center;text-anchor:middle;display:inline;fill:#ff6600;stroke:none"><tspan
         id="tspan-title-6-3"
         x="2.5537796"
         y="56.263657"
         style="font-style:normal;font-variant:normal;font-weight:normal;font-stretch:normal;font-size:1.41111px;font-family:'Roboto Condensed';-inkscape-font-specification:'Roboto Condensed, @wght=700';font-variant-ligatures:normal;font-variant-caps:normal;font-variant-numeric:normal;font-variant-east-asian:normal;font-variation-settings:'wght' 700">3</tspan></text>
    <text
       id="text-title-4-5"
       x="2.5451679"
       y="67.185318"
       style="font-style:normal;font-weight:bold;font-size:5.64444px;font-family:'Roboto Condensed';-inkscape-font-specification:'Roboto Condensed, Bold';text-align:center;text-anchor:middle;display:inline;fill:#ff6600;stroke:none"><tspan
         id="tspan-title-6-24"
         x="2.5451679"
         y="67.185318"
         style="font-style:normal;font-variant:normal;font-weight:normal;font-stretch:normal;font-size:1.41111px;font-family:'Roboto Condensed';-inkscape-font-specification:'Roboto Condensed, @wght=700';font-variant-ligatures:normal;font-variant-caps:normal;font-variant-numeric:normal;font-variant-east-asian:normal;font-variation-settings:'wght' 700">4</tspan></text>
    <text
       id="text-title-4-4"
       x="2.5396557"
       y="78.100426"
       style="font-style:normal;font-weight:bold;font-size:5.64444px;font-family:'Roboto Condensed';-inkscape-font-specification:'Roboto Condensed, Bold';text-align:center;text-anchor:middle;display:inline;fill:#ff6600;stroke:none"><tspan
         id="tspan-title-6-6"
         x="2.5396557"
         y="78.100426"
         style="font-style:normal;font-variant:normal;font-weight:normal;font-stretch:normal;font-size:1.41111px;font-family:'Roboto Condensed';-inkscape-font-specification:'Roboto Condensed, @wght=700';font-variant-ligatures:normal;font-variant-caps:normal;font-variant-numeric:normal;font-variant-east-asian:normal;font-variation-settings:'wght' 700">5</tspan></text>
    <text
       id="text-title-4-03"
       x="2.5331097"
       y="89.281937"
       style="font-style:normal;font-weight:bold;font-size:5.64444px;font-family:'Roboto Condensed';-inkscape-font-specification:'Roboto Condensed, Bold';text-align:center;text-anchor:middle;display:inline;fill:#ff6600;stroke:none"><tspan
         id="tspan-title-6-4"
         x="2.5331097"
         y="89.281937"
         style="font-style:normal;font-variant:normal;font-weight:normal;font-stretch:normal;font-size:1.41111px;font-family:'Roboto Condensed';-inkscape-font-specification:'Roboto Condensed, @wght=700';font-variant-ligatures:normal;font-variant-caps:normal;font-variant-numeric:normal;font-variant-east-asian:normal;font-variation-settings:'wght' 700">6</tspan></text>
    <text
       id="text-title-4-1"
       x="2.5493011"
       y="100.20531"
       style="font-style:normal;font-weight:bold;font-size:5.64444px;font-family:'Roboto Condensed';-inkscape-font-specification:'Roboto Condensed, Bold';text-align:center;text-anchor:middle;display:inline;fill:#ff6600;stroke:none"><tspan
         id="tspan-title-6-8"
         x="2.5493011"
         y="100.20531"
         style="font-style:normal;font-variant:normal;font-weight:normal;font-stretch:normal;font-size:1.41111px;font-family:'Roboto Condensed';-inkscape-font-specification:'Roboto Condensed, @wght=700';font-variant-ligatures:normal;font-variant-caps:normal;font-variant-numeric:normal;font-variant-east-asian:normal;font-variation-settings:'wght' 700">7</tspan></text>
    <text
       id="text-title-4-2"
       x="2.5431013"
       y="111.1354"
       style="font-style:normal;font-weight:bold;font-size:5.64444px;font-family:'Roboto Condensed';-inkscape-font-specification:'Roboto Condensed, Bold';text-align:center;text-anchor:middle;display:inline;fill:#ff6600;stroke:none"><tspan
         id="tspan-title-6-31"
         x="2.5431013"
         y="111.1354"
         style="font-style:normal;font-variant:normal;font-weight:normal;font-stretch:normal;font-size:1.41111px;font-family:'Roboto Condensed';-inkscape-font-specification:'Roboto Condensed, @wght=700';font-variant-ligatures:normal;font-variant-caps:normal;font-variant-numeric:normal;font-variant-east-asian:normal;font-variation-settings:'wght' 700">8</tspan></text>
  </g>
  <g
     inkscape:groupmode="layer"
     id="layer-panel-orange"
     inkscape:label="PanelOrange"
     style="display:none">
    <path
       id="accent-orange"
       style="fill:none;stroke:#ff6600;stroke-width:0.3;stroke-linecap:round"
       d="M 0.762,124.71525 H 14.478" />
    <path
       style="fill:#100600;fill-opacity:1;stroke:#803300;stroke-width:0.3;stroke-linejoin:round;stroke-dasharray:none;stroke-opacity:1"
       d="m 0.762,8.382 c -1e-8,-0.420841 0.341159,-0.762 0.762,-0.762 h 12.192 c 0.420841,0 0.762,0.341159 0.762,0.762 v 5.84325 H 0.76200008 Z"
       id="path6"
       sodipodi:nodetypes="ssssccs" />
    <path
       id="rect8"
       style="fill:none;stroke:#803300;stroke-width:0.3;stroke-linejoin:round"
       d="m 1.5028339,7.6212501 12.2131661,0 a 0.74193715,0.74193715 44.957371 0 1 0.741936,0.7408331 l 0.01704,11.4511688 A 2.0289784,2.0289784 134.95737 0 1 12.446,21.84525 H 2.8363374 A 2.0743376,2.0743376 45 0 1 0.76199985,19.770912 l 1.4e-7,-11.408828 A 0.74083394,0.74083394 135 0 1 1.5028339,7.6212501 Z"
       sodipodi:nodetypes="ccccc"
       inkscape:path-effect="#path-effect8"
       inkscape:original-d="M 0.762,7.6212501 H 14.456834 L 14.478,21.84525 H 0.76199983 Z" />
    <path
       id="rect8-7"
       style="display:inline;fill:none;stroke:#803300;stroke-width:0.3;stroke-linejoin:round"
       d="m 2.7919419,-61.509087 h 9.6520001 a 2.032047,2.032047 44.999335 0 1 2.032047,2.032 l 0.002,85.788504 a 2.645772,2.645772 134.99933 0 1 -2.645772,2.645833 l -8.4243758,0 A 2.6458936,2.6458936 44.999348 0 1 0.76193957,26.311417 l -0.001951,-85.788504 a 2.0319536,2.0319536 134.99935 0 1 2.03195357,-2.032 z"
       sodipodi:nodetypes="ccccc"
       inkscape:path-effect="#path-effect8-7"
       inkscape:original-d="M 0.75994211,-61.509087 H 14.475942 l 0.0021,90.466337 H 0.76199975 Z"
       transform="translate(0.00205789,91.990337)" />
    <rect
       style="display:inline;opacity:1;fill:#100600;fill-opacity:1;stroke:#803300;stroke-width:0.3;stroke-dasharray:none;stroke-opacity:1"
       id="rect1"
       width="13.716001"
       height="4.5719995"
       x="0.76200002"
       y="35.307251" />
    <rect
       style="display:inline;fill:#100600;fill-opacity:1;stroke:#803300;stroke-width:0.3;stroke-dasharray:none;stroke-opacity:1"
       id="rect1-2"
       width="13.716001"
       height="4.5719995"
       x="0.76200002"
       y="111.76125" />
    <rect
       style="display:inline;fill:#100600;fill-opacity:1;stroke:#803300;stroke-width:0.3;stroke-dasharray:none;stroke-opacity:1"
       id="rect1-2-4"
       width="13.716001"
       height="4.5719995"
       x="0.76200002"
       y="46.229252" />
    <rect
       style="display:inline;fill:#100600;fill-opacity:1;stroke:#803300;stroke-width:0.3;stroke-dasharray:none;stroke-opacity:1"
       id="rect1-2-8"
       width="13.716001"
       height="4.5719995"
       x="0.76200002"
       y="57.151253" />
    <rect
       style="display:inline;fill:#100600;fill-opacity:1;stroke:#803300;stroke-width:0.3;stroke-dasharray:none;stroke-opacity:1"
       id="rect1-2-1"
       width="13.716001"
       height="4.5719995"
       x="0.76200002"
       y="68.07325" />
    <rect
       style="display:inline;fill:#100600;fill-opacity:1;stroke:#803300;stroke-width:0.3;stroke-dasharray:none;stroke-opacity:1"
       id="rect1-2-88"
       width="13.716001"
       height="4.5719995"
       x="0.76200002"
       y="78.995255" />
    <rect
       style="display:inline;fill:#100600;fill-opacity:1;stroke:#803300;stroke-width:0.3;stroke-dasharray:none;stroke-opacity:1"
       id="rect1-2-7"
       width="13.716001"
       height="4.5719995"
       x="0.76200002"
       y="89.917252" />
    <rect
       style="display:inline;fill:#100600;fill-opacity:1;stroke:#803300;stroke-width:0.3;stroke-dasharray:none;stroke-opacity:1"
       id="rect1-2-3"
       width="13.716001"
       height="4.5719995"
       x="0.76200002"
       y="100.83926" />
  </g>
  <g
     inkscape:groupmode="layer"
     id="layer2"
     inkscape:label="MASK"
     style="display:none">
    <path
       style="display:inline;opacity:0.410458;fill:#ff152b;fill-opacity:1;stroke:none;stroke-width:0.3;stroke-opacity:0.980392"
       d="m 0.9103849,35.036577 v 5.08 h 2.54 v 5.842 H 0.9103853 l 0.09095,5.080001 h 2.4490496 v 5.842 H 0.9103853 l -4e-7,5.334 h 2.54 v 5.588 H 0.9103853 l -4e-7,5.334 h 2.54 v 5.588 H 0.9103853 l -4e-7,5.334 h 2.54 v 5.588 h -2.54 v 5.334 h 2.54 v 5.842002 H 0.9103853 l -4e-7,5.08 h 2.54 v 5.842 H 0.9103853 l -4e-7,5.08 H 14.372385 V 35.036577 c -4.313367,7.75e-4 -9.1317812,-0.0032 -13.4620001,0 z"
       id="path38-9"
       sodipodi:nodetypes="ccccccccccccccccccccccccccccccccc" />
  </g>
  <g
     inkscape:groupmode="layer"
     id="layer-controls"
     inkscape:label="Controls"
     style="display:none"
     sodipodi:insensitive="true">
    <text
       xml:space="preserve"
       style="font-style:normal;font-variant:normal;font-weight:normal;font-stretch:normal;font-size:4.49792px;line-height:1.25;font-family:'Repetition Scrolling';-inkscape-font-specification:'Repetition Scrolling, Normal';font-variant-ligatures:normal;font-variant-caps:normal;font-variant-numeric:normal;font-variant-east-asian:normal;text-align:start;letter-spacing:0px;word-spacing:0px;writing-mode:lr-tb;text-anchor:start;display:inline;opacity:0.98;fill:#00dd00;fill-opacity:1;stroke:none;stroke-width:0.264583"
       x="1.41287"
       y="12.449"
       id="text4126-0"
       inkscape:label="DISPLAY"><tspan
         sodipodi:role="line"
         id="tspan4124-6"
         x="1.41287"
         y="12.449"
         style="font-style:normal;font-variant:normal;font-weight:normal;font-stretch:normal;font-size:4.49792px;font-family:'Repetition Scrolling';-inkscape-font-specification:'Repetition Scrolling, Normal';font-variant-ligatures:normal;font-variant-caps:normal;font-variant-numeric:normal;font-variant-east-asian:normal;text-align:start;writing-mode:lr-tb;text-anchor:start;fill:#00dd00;fill-opacity:1;stroke-width:0.264583">_S#R_</tspan></text>
    <g
       id="g35"
       inkscape:label="LEFT"
       transform="translate(1.8242726e-7,1.5812493)">
      <path
         id="rect21"
         style="fill:#100600;fill-opacity:1;stroke:#ff6600;stroke-width:0.3;stroke-linejoin:round;stroke-opacity:1"
         d="m 2.7939998,14.168001 3.5348331,-0.02117 c 0.2922456,-0.0017 0.529167,0.236916 0.529167,0.529167 v 3.556 c 0,0.292251 -0.2369162,0.529167 -0.529167,0.529167 H 2.7728328 c -0.2922508,0 -0.530917,-0.236921 -0.529167,-0.529167 l 0.021167,-3.534833 c 0.00175,-0.292246 0.2369214,-0.527417 0.529167,-0.529167 z"
         inkscape:label="BUTTON_FRAME"
         sodipodi:nodetypes="sssssssss" />
      <text
         xml:space="preserve"
         style="font-style:normal;font-variant:normal;font-weight:normal;font-stretch:normal;font-size:4.49792px;line-height:1.25;font-family:'Repetition Scrolling';-inkscape-font-specification:'Repetition Scrolling, Normal';text-align:center;letter-spacing:0px;word-spacing:0px;writing-mode:lr-tb;text-anchor:middle;display:inline;opacity:0.98;fill:#ff6600;fill-opacity:1;stroke:none;stroke-width:0.264583"
         x="4.7131114"
         y="17.41638"
         id="text4126-0-7"
         inkscape:label="BUTTON_TEXT"><tspan
           sodipodi:role="line"
           id="tspan4124-6-9"
           x="4.7131114"
           y="17.41638"
           style="font-style:normal;font-variant:normal;font-weight:normal;font-stretch:normal;font-size:2.82222px;font-family:'Repetition Scrolling';-inkscape-font-specification:'Repetition Scrolling, Normal';text-align:center;writing-mode:lr-tb;text-anchor:middle;fill:#ff6600;fill-opacity:1;stroke-width:0.264583">&lt;</tspan></text>
    </g>
    <g
       id="g36"
       inkscape:label="RIGHT"
       transform="translate(1.8242726e-7,1.5812493)">
      <path
         id="rect21-8"
         style="display:inline;fill:#100600;fill-opacity:1;stroke:#ff6600;stroke-width:0.3;stroke-linejoin:round;stroke-opacity:1"
         d="m 2.2859999,14.168001 3.534833,-0.02117 c 0.2922456,-0.0017 0.529167,0.236916 0.529167,0.529167 v 3.556 c 0,0.292251 -0.2369214,0.530917 -0.529167,0.529167 l -3.534833,-0.02117 c -0.2922457,-0.0017 -0.529167,-0.236916 -0.529167,-0.529167 v -3.513666 c 0,-0.292251 0.2369213,-0.527417 0.529167,-0.529167 z"
         transform="translate(6.604)"
         inkscape:label="BUTTON_FRAME"
         sodipodi:nodetypes="sssssssss" />
      <text
         xml:space="preserve"
         style="font-style:normal;font-variant:normal;font-weight:normal;font-stretch:normal;font-size:4.49792px;line-height:1.25;font-family:'Repetition Scrolling';-inkscape-font-specification:'Repetition Scrolling, Normal';text-align:center;letter-spacing:0px;word-spacing:0px;writing-mode:lr-tb;text-anchor:middle;display:inline;opacity:0.98;fill:#ff6600;fill-opacity:1;stroke:none;stroke-width:0.264583"
         x="10.526888"
         y="17.416378"
         id="text4126-0-7-7"
         inkscape:label="BUTTON_TEXT"><tspan
           sodipodi:role="line"
           id="tspan4124-6-9-3"
           x="10.526888"
           y="17.416378"
           style="font-style:normal;font-variant:normal;font-weight:normal;font-stretch:normal;font-size:2.82222px;font-family:'Repetition Scrolling';-inkscape-font-specification:'Repetition Scrolling, Normal';text-align:center;writing-mode:lr-tb;text-anchor:middle;fill:#ff6600;fill-opacity:1;stroke-width:0.264583">&gt;</tspan></text>
    </g>
    <text
       xml:space="preserve"
       style="font-style:normal;font-variant:normal;font-weight:normal;font-stretch:normal;font-size:4.49792px;line-height:1.25;font-family:'Repetition Scrolling';-inkscape-font-specification:'Repetition Scrolling, Normal';font-variant-ligatures:normal;font-variant-caps:normal;font-variant-numeric:normal;font-variant-east-asian:normal;text-align:start;letter-spacing:0px;word-spacing:0px;writing-mode:lr-tb;text-anchor:start;display:inline;opacity:0.98;fill:#ff6600;fill-opacity:1;stroke:none;stroke-width:0.264583"
       x="1.4145926"
       y="38.873039"
       id="text4126-0-4-28"
       inkscape:label="DISPLAY"><tspan
         sodipodi:role="line"
         id="tspan4124-6-0-25"
         x="1.4145926"
         y="38.873039"
         style="font-style:normal;font-variant:normal;font-weight:normal;font-stretch:normal;font-size:4.49792px;font-family:'Repetition Scrolling';-inkscape-font-specification:'Repetition Scrolling, Normal';font-variant-ligatures:normal;font-variant-caps:normal;font-variant-numeric:normal;font-variant-east-asian:normal;text-align:start;writing-mode:lr-tb;text-anchor:start;fill:#ff6600;fill-opacity:1;stroke-width:0.264583">0.005</tspan></text>
    <text
       xml:space="preserve"
       style="font-style:normal;font-variant:normal;font-weight:normal;font-stretch:normal;font-size:4.49792px;line-height:1.25;font-family:'Repetition Scrolling';-inkscape-font-specification:'Repetition Scrolling, Normal';font-variant-ligatures:normal;font-variant-caps:normal;font-variant-numeric:normal;font-variant-east-asian:normal;text-align:start;letter-spacing:0px;word-spacing:0px;writing-mode:lr-tb;text-anchor:start;display:inline;opacity:0.98;fill:#ff6600;fill-opacity:1;stroke:none;stroke-width:0.264583"
       x="1.4145926"
       y="115.57125"
       id="text4126-0-4-28-6"
       inkscape:label="DISPLAY"><tspan
         sodipodi:role="line"
         id="tspan4124-6-0-25-4"
         x="1.4145926"
         y="115.57125"
         style="font-style:normal;font-variant:normal;font-weight:normal;font-stretch:normal;font-size:4.49792px;font-family:'Repetition Scrolling';-inkscape-font-specification:'Repetition Scrolling, Normal';font-variant-ligatures:normal;font-variant-caps:normal;font-variant-numeric:normal;font-variant-east-asian:normal;text-align:start;writing-mode:lr-tb;text-anchor:start;fill:#ff6600;fill-opacity:1;stroke-width:0.264583">0.005</tspan></text>
    <text
       xml:space="preserve"
       style="font-style:normal;font-variant:normal;font-weight:normal;font-stretch:normal;font-size:4.49792px;line-height:1.25;font-family:'Repetition Scrolling';-inkscape-font-specification:'Repetition Scrolling, Normal';font-variant-ligatures:normal;font-variant-caps:normal;font-variant-numeric:normal;font-variant-east-asian:normal;text-align:start;letter-spacing:0px;word-spacing:0px;writing-mode:lr-tb;text-anchor:start;display:inline;opacity:0.98;fill:#ff6600;fill-opacity:1;stroke:none;stroke-width:0.264583"
       x="1.4145926"
       y="104.61436"
       id="text4126-0-4-28-6-6"
       inkscape:label="DISPLAY"><tspan
         sodipodi:role="line"
         id="tspan4124-6-0-25-4-8"
         x="1.4145926"
         y="104.61436"
         style="font-style:normal;font-variant:normal;font-weight:normal;font-stretch:normal;font-size:4.49792px;font-family:'Repetition Scrolling';-inkscape-font-specification:'Repetition Scrolling, Normal';font-variant-ligatures:normal;font-variant-caps:normal;font-variant-numeric:normal;font-variant-east-asian:normal;text-align:start;writing-mode:lr-tb;text-anchor:start;fill:#ff6600;fill-opacity:1;stroke-width:0.264583">0.005</tspan></text>
    <text
       xml:space="preserve"
       style="font-style:normal;font-variant:normal;font-weight:normal;font-stretch:normal;font-size:4.49792px;line-height:1.25;font-family:'Repetition Scrolling';-inkscape-font-specification:'Repetition Scrolling, Normal';font-variant-ligatures:normal;font-variant-caps:normal;font-variant-numeric:normal;font-variant-east-asian:normal;text-align:start;letter-spacing:0px;word-spacing:0px;writing-mode:lr-tb;text-anchor:start;display:inline;opacity:0.98;fill:#ff6600;fill-opacity:1;stroke:none;stroke-width:0.264583"
       x="1.4145926"
       y="93.657478"
       id="text4126-0-4-28-6-8"
       inkscape:label="DISPLAY"><tspan
         sodipodi:role="line"
         id="tspan4124-6-0-25-4-4"
         x="1.4145926"
         y="93.657478"
         style="font-style:normal;font-variant:normal;font-weight:normal;font-stretch:normal;font-size:4.49792px;font-family:'Repetition Scrolling';-inkscape-font-specification:'Repetition Scrolling, Normal';font-variant-ligatures:normal;font-variant-caps:normal;font-variant-numeric:normal;font-variant-east-asian:normal;text-align:start;writing-mode:lr-tb;text-anchor:start;fill:#ff6600;fill-opacity:1;stroke-width:0.264583">0.005</tspan></text>
    <text
       xml:space="preserve"
       style="font-style:normal;font-variant:normal;font-weight:normal;font-stretch:normal;font-size:4.49792px;line-height:1.25;font-family:'Repetition Scrolling';-inkscape-font-specification:'Repetition Scrolling, Normal';font-variant-ligatures:normal;font-variant-caps:normal;font-variant-numeric:normal;font-variant-east-asian:normal;text-align:start;letter-spacing:0px;word-spacing:0px;writing-mode:lr-tb;text-anchor:start;display:inline;opacity:0.98;fill:#ff6600;fill-opacity:1;stroke:none;stroke-width:0.264583"
       x="1.4145926"
       y="82.700592"
       id="text4126-0-4-28-6-7"
       inkscape:label="DISPLAY"><tspan
         sodipodi:role="line"
         id="tspan4124-6-0-25-4-0"
         x="1.4145926"
         y="82.700592"
         style="font-style:normal;font-variant:normal;font-weight:normal;font-stretch:normal;font-size:4.49792px;font-family:'Repetition Scrolling';-inkscape-font-specification:'Repetition Scrolling, Normal';font-variant-ligatures:normal;font-variant-caps:normal;font-variant-numeric:normal;font-variant-east-asian:normal;text-align:start;writing-mode:lr-tb;text-anchor:start;fill:#ff6600;fill-opacity:1;stroke-width:0.264583">0.005</tspan></text>
    <text
       xml:space="preserve"
       style="font-style:normal;font-variant:normal;font-weight:normal;font-stretch:normal;font-size:4.49792px;line-height:1.25;font-family:'Repetition Scrolling';-inkscape-font-specification:'Repetition Scrolling, Normal';font-variant-ligatures:normal;font-variant-caps:normal;font-variant-numeric:normal;font-variant-east-asian:normal;text-align:start;letter-spacing:0px;word-spacing:0px;writing-mode:lr-tb;text-anchor:start;display:inline;opacity:0.98;fill:#ff6600;fill-opacity:1;stroke:none;stroke-width:0.264583"
       x="1.4145926"
       y="71.743698"
       id="text4126-0-4-28-6-0"
       inkscape:label="DISPLAY"><tspan
         sodipodi:role="line"
         id="tspan4124-6-0-25-4-5"
         x="1.4145926"
         y="71.743698"
         style="font-style:normal;font-variant:normal;font-weight:normal;font-stretch:normal;font-size:4.49792px;font-family:'Repetition Scrolling';-inkscape-font-specification:'Repetition Scrolling, Normal';font-variant-ligatures:normal;font-variant-caps:normal;font-variant-numeric:normal;font-variant-east-asian:normal;text-align:start;writing-mode:lr-tb;text-anchor:start;fill:#ff6600;fill-opacity:1;stroke-width:0.264583">0.005</tspan></text>
    <text
       xml:space="preserve"
       style="font-style:normal;font-variant:normal;font-weight:normal;font-stretch:normal;font-size:4.49792px;line-height:1.25;font-family:'Repetition Scrolling';-inkscape-font-specification:'Repetition Scrolling, Normal';font-variant-ligatures:normal;font-variant-caps:normal;font-variant-numeric:normal;font-variant-east-asian:normal;text-align:start;letter-spacing:0px;word-spacing:0px;writing-mode:lr-tb;text-anchor:start;display:inline;opacity:0.98;fill:#ff6600;fill-opacity:1;stroke:none;stroke-width:0.264583"
       x="1.4145926"
       y="60.786816"
       id="text4126-0-4-28-6-84"
       inkscape:label="DISPLAY"><tspan
         sodipodi:role="line"
         id="tspan4124-6-0-25-4-9"
         x="1.4145926"
         y="60.786816"
         style="font-style:normal;font-variant:normal;font-weight:normal;font-stretch:normal;font-size:4.49792px;font-family:'Repetition Scrolling';-inkscape-font-specification:'Repetition Scrolling, Normal';font-variant-ligatures:normal;font-variant-caps:normal;font-variant-numeric:normal;font-variant-east-asian:normal;text-align:start;writing-mode:lr-tb;text-anchor:start;fill:#ff6600;fill-opacity:1;stroke-width:0.264583">0.005</tspan></text>
    <text
       xml:space="preserve"
       style="font-style:normal;font-variant:normal;font-weight:normal;font-stretch:normal;font-size:4.49792px;line-height:1.25;font-family:'Repetition Scrolling';-inkscape-font-specification:'Repetition Scrolling, Normal';font-variant-ligatures:normal;font-variant-caps:normal;font-variant-numeric:normal;font-variant-east-asian:normal;text-align:start;letter-spacing:0px;word-spacing:0px;writing-mode:lr-tb;text-anchor:start;display:inline;opacity:0.98;fill:#ff6600;fill-opacity:1;stroke:none;stroke-width:0.264583"
       x="1.4145926"
       y="49.829926"
       id="text4126-0-4-28-6-77"
       inkscape:label="DISPLAY"><tspan
         sodipodi:role="line"
         id="tspan4124-6-0-25-4-45"
         x="1.4145926"
         y="49.829926"
         style="font-style:normal;font-variant:normal;font-weight:normal;font-stretch:normal;font-size:4.49792px;font-family:'Repetition Scrolling';-inkscape-font-specification:'Repetition Scrolling, Normal';font-variant-ligatures:normal;font-variant-caps:normal;font-variant-numeric:normal;font-variant-east-asian:normal;text-align:start;writing-mode:lr-tb;text-anchor:start;fill:#ff6600;fill-opacity:1;stroke-width:0.264583">0.005</tspan></text>
  </g>
</svg>
