<?xml version="1.0" encoding="UTF-8" standalone="no"?>
<svg
   width="15.24mm"
   height="128.5mm"
   viewBox="0 0 15.24 128.5"
   version="1.1"
   id="svg_root"
   sodipodi:docname="XD8Work.svg"
   inkscape:version="1.4.4 (dcaf3e7, 2026-05-05)"
   xmlns:inkscape="http://www.inkscape.org/namespaces/inkscape"
   xmlns:sodipodi="http://sodipodi.sourceforge.net/DTD/sodipodi-0.dtd"
   xmlns="http://www.w3.org/2000/svg"
   xmlns:svg="http://www.w3.org/2000/svg">
  <defs
     id="defs1">
    <inkscape:path-effect
       effect="fillet_chamfer"
       id="path-effect8"
       is_visible="true"
       lpeversion="1"
       nodesatellites_param="F,0,0,1,0,0.74083393,0,1 @ F,0,0,1,0,0.74083393,0,1 @ F,0,0,1,0,2.0319999,0,1 @ F,0,0,1,0,2.0743376,0,1"
       radius="12"
       unit="px"
       method="auto"
       mode="F"
       chamfer_steps="1"
       flexible="false"
       use_knot_distance="true"
       apply_no_radius="true"
       apply_with_radius="true"
       only_selected="true"
       hide_knots="false" />
    <inkscape:path-effect
       effect="fillet_chamfer"
       id="path-effect23"
       is_visible="true"
       lpeversion="1"
       nodesatellites_param="F,0,0,1,0,0.52916668,0,1 @ F,0,0,1,0,0.52916668,0,1 @ F,0,0,1,0,0.52916668,0,1 @ F,0,0,1,0,0.52916668,0,1"
       radius="2"
       unit="px"
       method="auto"
       mode="F"
       chamfer_steps="1"
       flexible="false"
       use_knot_distance="true"
       apply_no_radius="true"
       apply_with_radius="true"
       only_selected="false"
       hide_knots="false" />
    <inkscape:path-effect
       effect="fillet_chamfer"
       id="path-effect6"
       is_visible="true"
       lpeversion="1"
       nodesatellites_param="F,0,1,1,0,0,0,1 @ F,0,1,1,0,0,0,1 @ F,0,0,1,0,0.76200048,0,1 @ F,0,0,1,0,0.76200048,0,1"
       radius="2"
       unit="px"
       method="auto"
       mode="F"
       chamfer_steps="1"
       flexible="false"
       use_knot_distance="true"
       apply_no_radius="true"
       apply_with_radius="true"
       only_selected="false"
       hide_knots="false" />
    <inkscape:path-effect
       effect="fillet_chamfer"
       id="path-effect23-8"
       is_visible="true"
       lpeversion="1"
       nodesatellites_param="F,0,0,1,0,0.52916668,0,1 @ F,0,0,1,0,0.52916668,0,1 @ F,0,0,1,0,0.52916668,0,1 @ F,0,0,1,0,0.52916668,0,1"
       radius="2"
       unit="px"
       method="auto"
       mode="F"
       chamfer_steps="1"
       flexible="false"
       use_knot_distance="true"
       apply_no_radius="true"
       apply_with_radius="true"
       only_selected="false"
       hide_knots="false" />
    <inkscape:path-effect
       effect="fillet_chamfer"
       id="path-effect8-7"
       is_visible="true"
       lpeversion="1"
       nodesatellites_param="F,0,1,1,0,2.0319998,0,1 @ F,0,0,1,0,2.0319998,0,1 @ F,0,0,1,0,2.6458334,0,1 @ F,0,0,1,0,2.6458334,0,1"
       radius="10"
       unit="px"
       method="auto"
       mode="F"
       chamfer_steps="1"
       flexible="false"
       use_knot_distance="true"
       apply_no_radius="true"
       apply_with_radius="true"
       only_selected="false"
       hide_knots="false" />
  </defs>
  <sodipodi:namedview
     id="namedview1"
     pagecolor="#ffffff"
     bordercolor="#000000"
     borderopacity="0.25"
     inkscape:showpageshadow="2"
     inkscape:pageopacity="0.0"
     inkscape:pagecheckerboard="0"
     inkscape:document-units="mm"
     inkscape:deskcolor="#d1d1d1"
     showguides="true"
     showgrid="true"
     inkscape:zoom="2.8284271"
     inkscape:cx="158.92225"
     inkscape:cy="312.71797"
     inkscape:window-width="2560"
     inkscape:window-height="1494"
     inkscape:window-x="-11"
     inkscape:window-y="-11"
     inkscape:window-maximized="1"
     inkscape:current-layer="svg_root">
    <inkscape:grid
       type="xygrid"
       id="grid1"
       originx="0"
       originy="-0.252750"
       spacingx="0.254000"
       spacingy="0.254000"
       units="mm"
       visible="true" />
    <sodipodi:guide
       position="0.91038492,93.463425"
       orientation="1,0"
       id="guide38"
       inkscape:locked="false" />
    <sodipodi:guide
       position="14.326771,12.113306"
       orientation="1,0"
       id="guide39"
       inkscape:locked="false" />
  </sodipodi:namedview>
  <g
     inkscape:groupmode="layer"
     id="layer-bg-bright"
     inkscape:label="BackgroundBright"
     style="display:none"
     sodipodi:insensitive="true">
    <path
       id="bg-bright"
       style="fill:#e6e6e6;fill-opacity:1;stroke:none"
       d="M 0,0 H 15.24 V 128.5 H 0 Z" />
  </g>
  <g
     inkscape:groupmode="layer"
     id="layer-panel-bright"
     inkscape:label="PanelBright"
     style="display:none"
     sodipodi:insensitive="true">
    <path
       id="accent-orange-bright"
       style="fill:none;stroke:#ff6600;stroke-width:0.3;stroke-linecap:round"
       d="M 0.762,124.71525 H 14.478" />
    <path
       style="fill:#15152b;fill-opacity:1;stroke:#606080;stroke-width:0.3;stroke-linejoin:round;stroke-dasharray:none;stroke-opacity:1"
       d="m 0.762,8.382 c -1e-8,-0.420841 0.341159,-0.762 0.762,-0.762 h 12.192 c 0.420841,0 0.762,0.341159 0.762,0.762 v 5.84325 H 0.76200008 Z"
       id="path6-bright"
       sodipodi:nodetypes="ssssccs" />
    <path
       id="rect8-bright"
       style="fill:none;stroke:#606080;stroke-width:0.3;stroke-linejoin:round;stroke-opacity:0.98"
       d="m 1.5028339,7.6212501 12.2131661,0 a 0.74193715,0.74193715 44.957371 0 1 0.741936,0.7408331 l 0.01704,11.4511688 A 2.0289784,2.0289784 134.95737 0 1 12.446,21.84525 H 2.8363374 A 2.0743376,2.0743376 45 0 1 0.76199985,19.770912 l 1.4e-7,-11.408828 A 0.74083394,0.74083394 135 0 1 1.5028339,7.6212501 Z"
       sodipodi:nodetypes="ccccc"
       inkscape:path-effect="#path-effect8"
       inkscape:original-d="M 0.762,7.6212501 H 14.456834 L 14.478,21.84525 H 0.76199983 Z" />
    <path
       id="rect8-7-bright"
       style="display:inline;fill:none;stroke:#606080;stroke-width:0.3;stroke-linejoin:round;stroke-opacity:0.98"
       d="m 2.7919419,-61.509087 9.6520001,0 a 2.0320469,2.0320469 44.999334 0 1 2.032047,2.032 l 0.002,85.788504 A 2.645772,2.645772 134.99933 0 1 11.832209,28.95725 H 3.4078332 A 2.6458936,2.6458936 44.999348 0 1 0.76193957,26.311417 l -0.001951,-85.788504 a 2.0319536,2.0319536 134.99935 0 1 2.03195357,-2.032 z"
       sodipodi:nodetypes="ccccc"
       inkscape:path-effect="#path-effect8-7"
       inkscape:original-d="m 0.75994211,-61.509087 13.71599989,0 0.0021,90.466337 H 0.76199975 Z"
       transform="translate(0.00205789,91.990337)" />
    <path
       id="path1-bright"
       style="display:inline;fill:#c4bac4;fill-rule:nonzero;stroke:none"
       d="M 2.7356813,34.420345 H 2.54 v -0.766189 l -0.1908581,0.07373 v -0.162608 l 0.3658689,-0.149517 h 0.020671 z" />
    <path
       id="path2-bright"
       style="display:inline;fill:#c4bac4;fill-rule:nonzero;stroke:none"
       d="M 2.845924,45.348548 H 2.2547461 v -0.137804 l 0.2714733,-0.345198 q 0.051676,-0.07166 0.076137,-0.125746 0.02446,-0.05409 0.02446,-0.103697 0,-0.06683 -0.023082,-0.104731 -0.023082,-0.0379 -0.06649,-0.0379 -0.047542,0 -0.075448,0.0441 -0.027905,0.0441 -0.027905,0.124024 H 2.2382096 q 0,-0.09233 0.038241,-0.16881 0.038241,-0.07648 0.1074869,-0.118856 0.069246,-0.04237 0.1567518,-0.04237 0.1343586,0 0.2084281,0.07407 0.07407,0.07407 0.07407,0.210495 0,0.08475 -0.040997,0.17191 -0.040997,0.08716 -0.1484835,0.21463 l -0.1288465,0.183968 h 0.3410642 z" />
    <path
       id="path3-bright"
       style="display:inline;fill:#c4bac4;fill-rule:nonzero;stroke:none"
       d="m 2.4359575,55.673167 h 0.094396 q 0.053743,0 0.078893,-0.03755 0.025149,-0.03755 0.025149,-0.100253 0,-0.05994 -0.025838,-0.09336 -0.025838,-0.03342 -0.069246,-0.03342 -0.040652,0 -0.06649,0.0317 -0.025838,0.03169 -0.025838,0.07993 H 2.2519896 q 0,-0.07855 0.036173,-0.140904 0.036174,-0.06236 0.1012858,-0.0975 0.065112,-0.03514 0.1443494,-0.03514 0.1384927,0 0.2170408,0.07648 0.078548,0.07648 0.078548,0.209461 0,0.06821 -0.035484,0.126435 -0.035484,0.05822 -0.093362,0.08923 0.070969,0.03032 0.1057643,0.09095 0.034795,0.06063 0.034795,0.143315 0,0.13367 -0.085094,0.214285 -0.085094,0.08062 -0.2235865,0.08062 -0.1288464,0 -0.2091171,-0.07958 -0.080271,-0.07958 -0.080271,-0.209117 h 0.1949923 q 0,0.05374 0.02825,0.09026 0.02825,0.03652 0.071658,0.03652 0.050298,0 0.079582,-0.03721 0.029283,-0.03721 0.029283,-0.09922 0,-0.148139 -0.1150661,-0.148828 h -0.095774 z" />
    <path
       id="path4-bright"
       style="display:inline;fill:#c4bac4;fill-rule:nonzero;stroke:none"
       d="m 2.767721,66.806354 h 0.085438 v 0.161919 H 2.767721 v 0.217041 H 2.5727287 V 66.968273 H 2.2406218 l -0.00896,-0.12609 0.3403751,-0.66008 h 0.1956813 z m -0.3465763,0 h 0.151584 v -0.335552 l -0.00413,0.0076 z" />
    <path
       id="path5-bright"
       style="display:inline;fill:#c4bac4;fill-rule:nonzero;stroke:none"
       d="m 2.2681825,77.607084 0.049609,-0.509874 h 0.4857581 v 0.166742 H 2.4776441 l -0.017915,0.214974 q 0.0565,-0.0379 0.1164442,-0.0379 0.1240233,0 0.1912026,0.08819 0.067179,0.08819 0.067179,0.249424 0,0.150895 -0.079926,0.243224 -0.079926,0.09233 -0.2135958,0.09233 -0.079237,0 -0.1467609,-0.03755 -0.067524,-0.03755 -0.1064534,-0.104386 -0.03893,-0.06683 -0.039619,-0.151585 h 0.1929263 q 0.00482,0.0627 0.031006,0.09715 0.026183,0.03445 0.067524,0.03445 0.048231,0 0.074414,-0.04651 0.026183,-0.04651 0.026183,-0.138837 0,-0.08682 -0.03135,-0.130914 -0.03135,-0.0441 -0.08785,-0.0441 -0.055122,0 -0.085438,0.0379 l -0.012402,0.01723 z" />
    <path
       id="path7-bright"
       style="display:inline;fill:#c4bac4;fill-rule:nonzero;stroke:none"
       d="m 2.7067425,88.268386 v 0.165364 h -0.011024 q -0.109554,6.89e-4 -0.1739772,0.0658 -0.064423,0.06511 -0.078204,0.182246 0.062701,-0.07166 0.1570962,-0.07166 0.108865,0 0.1739772,0.09302 0.065112,0.09302 0.065112,0.248047 0,0.09853 -0.037207,0.177767 -0.037207,0.07924 -0.1043864,0.12299 -0.067179,0.04375 -0.1519285,0.04375 -0.1364257,0 -0.2187634,-0.109554 -0.082338,-0.109554 -0.082338,-0.2949 v -0.07235 q 0,-0.166054 0.052021,-0.290766 0.052021,-0.124713 0.1502061,-0.191892 0.098185,-0.06718 0.2290987,-0.06787 z M 2.539311,88.771369 q -0.037207,0 -0.062356,0.02343 -0.025149,0.02343 -0.037551,0.05788 v 0.07028 q 0,0.106109 0.02825,0.158475 0.02825,0.05236 0.074414,0.05236 0.046853,0 0.075103,-0.05064 0.02825,-0.05064 0.02825,-0.12988 0,-0.08062 -0.029283,-0.131258 -0.029283,-0.05064 -0.076825,-0.05064 z" />
    <path
       id="path8-bright"
       style="display:inline;fill:#c4bac4;fill-rule:nonzero;stroke:none"
       d="M 2.8462683,99.314404 2.5293198,100.2053 H 2.3233032 L 2.6416298,99.364014 H 2.239243 v -0.16192 h 0.6070253 z" />
    <path
       id="path9-bright"
       style="display:inline;fill:#c4bac4;fill-rule:nonzero;stroke:none"
       d="m 2.8138857,110.39882 q 0,0.073 -0.031006,0.12953 -0.031006,0.0565 -0.085438,0.0903 0.062012,0.0351 0.097841,0.0968 0.035829,0.0617 0.035829,0.14504 0,0.13367 -0.07717,0.21119 -0.07717,0.0775 -0.2101507,0.0775 -0.1329806,0 -0.2115287,-0.0775 -0.078548,-0.0775 -0.078548,-0.21119 0,-0.0834 0.035829,-0.14538 0.035829,-0.062 0.09853,-0.0965 -0.055122,-0.0338 -0.086127,-0.0903 -0.031006,-0.0565 -0.031006,-0.12953 0,-0.1316 0.073725,-0.20602 0.073725,-0.0744 0.1977483,-0.0744 0.1254014,0 0.1984373,0.0751 0.073036,0.0751 0.073036,0.20533 z m -0.2700953,0.58842 q 0.044097,0 0.067868,-0.0375 0.023771,-0.0376 0.023771,-0.10439 0,-0.0668 -0.024805,-0.10473 -0.024805,-0.0379 -0.068213,-0.0379 -0.043408,0 -0.068557,0.0379 -0.025149,0.0379 -0.025149,0.10473 0,0.0668 0.025149,0.10439 0.025149,0.0375 0.069936,0.0375 z m 0.075792,-0.57809 q 0,-0.0586 -0.018948,-0.0937 -0.018948,-0.0351 -0.058222,-0.0351 -0.037207,0 -0.0565,0.0341 -0.019293,0.0341 -0.019293,0.0947 0,0.0593 0.019293,0.0954 0.019293,0.0362 0.057878,0.0362 0.038585,0 0.057189,-0.0362 0.018603,-0.0362 0.018603,-0.0954 z" />
    <rect
       style="opacity:0.849673;fill:#15152b;fill-opacity:1;stroke:#606080;stroke-width:0.3;stroke-dasharray:none;stroke-opacity:1"
       id="rect1-bright"
       width="13.716001"
       height="4.0639997"
       x="0.76200002"
       y="35.307251" />
    <rect
       style="display:inline;opacity:0.849673;fill:#15152b;fill-opacity:1;stroke:#606080;stroke-width:0.3;stroke-dasharray:none;stroke-opacity:1"
       id="rect1-3-bright"
       width="13.716001"
       height="4.0639997"
       x="0.76199967"
       y="112.01525" />
    <rect
       style="display:inline;opacity:0.849673;fill:#15152b;fill-opacity:1;stroke:#606080;stroke-width:0.3;stroke-dasharray:none;stroke-opacity:1"
       id="rect1-3-2-bright"
       width="13.716001"
       height="4.0639997"
       x="0.76199967"
       y="46.265537" />
    <rect
       style="display:inline;opacity:0.849673;fill:#15152b;fill-opacity:1;stroke:#606080;stroke-width:0.3;stroke-dasharray:none;stroke-opacity:1"
       id="rect1-3-0-bright"
       width="13.716001"
       height="4.0639997"
       x="0.76199967"
       y="57.223824" />
    <rect
       style="display:inline;opacity:0.849673;fill:#15152b;fill-opacity:1;stroke:#606080;stroke-width:0.3;stroke-dasharray:none;stroke-opacity:1"
       id="rect1-3-4-bright"
       width="13.716001"
       height="4.0639997"
       x="0.76199967"
       y="68.182106" />
    <rect
       style="display:inline;opacity:0.849673;fill:#15152b;fill-opacity:1;stroke:#606080;stroke-width:0.3;stroke-dasharray:none;stroke-opacity:1"
       id="rect1-3-3-bright"
       width="13.716001"
       height="4.0639997"
       x="0.76199967"
       y="79.140396" />
    <rect
       style="display:inline;opacity:0.849673;fill:#15152b;fill-opacity:1;stroke:#606080;stroke-width:0.3;stroke-dasharray:none;stroke-opacity:1"
       id="rect1-3-7-bright"
       width="13.716001"
       height="4.0639997"
       x="0.76199967"
       y="90.098679" />
    <rect
       style="display:inline;opacity:0.849673;fill:#15152b;fill-opacity:1;stroke:#606080;stroke-width:0.3;stroke-dasharray:none;stroke-opacity:1"
       id="rect1-3-45-bright"
       width="13.716001"
       height="4.0639997"
       x="0.76199967"
       y="101.05697" />
  </g>
  <g
     inkscape:groupmode="layer"
     id="g37"
     inkscape:label="TextBright"
     style="display:none"
     sodipodi:insensitive="true">
    <path
       id="path27"
       style="fill:#15152b;fill-opacity:1;fill-rule:nonzero;stroke:none"
       d="M 4.597965,3.1815592 5.1381556,1.8035221 h 0.928797 L 5.1243752,3.7934077 6.0890012,5.8163662 H 5.1491799 L 4.597965,4.4135244 4.0495062,5.8163662 H 3.1096849 L 4.0743109,3.7934077 3.1289775,1.8035221 h 0.928797 z m 1.9016912,2.634807 V 1.8035221 h 1.0610886 q 0.7027989,0 1.1203442,0.4464841 0.4175452,0.446484 0.4258134,1.2236969 v 0.6504335 q 0,0.7909933 -0.4175452,1.2416115 Q 8.271812,5.8163662 7.5386962,5.8163662 Z M 7.3099421,2.4787603 v 2.6651238 h 0.2425345 q 0.4051429,0 0.5705073,-0.2135958 Q 8.2883484,4.7166926 8.2966166,4.1930385 V 3.4957517 q 0,-0.5622391 -0.1570962,-0.7841031 Q 7.9824242,2.4897846 7.604842,2.4787603 Z m 4.5668149,0.3913626 q 0,0.2921438 -0.124023,0.5181419 -0.124024,0.2259981 -0.341754,0.3610457 0.248047,0.1405598 0.391363,0.3872285 0.143316,0.2466686 0.143316,0.5801536 0,0.5346784 -0.30868,0.8447367 -0.308681,0.3100584 -0.840603,0.3100584 -0.531922,0 -0.8461148,-0.3100584 Q 9.6360687,5.251371 9.6360687,4.7166926 q 0,-0.333485 0.1433159,-0.5815317 Q 9.9227004,3.8871142 10.173503,3.7493105 9.9530172,3.6142629 9.8289939,3.3882648 9.7049705,3.1622667 9.7049705,2.8701229 q 0,-0.5264102 0.2949,-0.8240662 0.2948995,-0.297656 0.7909935,-0.297656 0.501605,0 0.793749,0.300412 0.292144,0.3004121 0.292144,0.8213102 z m -1.080381,2.3536873 q 0.176389,0 0.271473,-0.150206 0.09508,-0.150206 0.09508,-0.4175452 0,-0.2673392 -0.09922,-0.4189233 -0.09922,-0.1515841 -0.272851,-0.1515841 -0.173633,0 -0.27423,0.1515841 -0.100596,0.1515841 -0.100596,0.4189233 0,0.2673392 0.100596,0.4175452 0.100597,0.150206 0.279742,0.150206 z M 11.099544,2.911464 q 0,-0.2342663 -0.07579,-0.3748261 -0.07579,-0.1405598 -0.232888,-0.1405598 -0.148828,0 -0.225998,0.1364257 -0.07717,0.1364256 -0.07717,0.3789602 0,0.2370224 0.07717,0.3817163 0.07717,0.1446938 0.23151,0.1446938 0.15434,0 0.228754,-0.1446938 0.07441,-0.1446939 0.07441,-0.3817163 z" />
    <path
       id="path28"
       style="fill:#15152b;fill-opacity:1;fill-rule:nonzero;stroke:none"
       d="m 3.4807266,123.14444 q 0,0.50471 -0.2385724,0.78376 -0.2385723,0.27905 -0.6623181,0.27905 -0.4220233,0 -0.6631794,-0.27647 -0.2411562,-0.27647 -0.2446013,-0.77428 v -0.42891 q 0,-0.51677 0.2394337,-0.80702 0.2394336,-0.29024 0.6649019,-0.29024 0.4185782,0 0.6597343,0.28508 0.2411562,0.28508 0.2446013,0.80012 z m -0.5081505,-0.4203 q 0,-0.33934 -0.096462,-0.5047 -0.096462,-0.16537 -0.2997227,-0.16537 -0.2015376,0 -0.2980001,0.15934 -0.096462,0.15933 -0.099908,0.48489 v 0.44614 q 0,0.32901 0.098185,0.4849 0.098185,0.15589 0.3031677,0.15589 0.1980926,0 0.294555,-0.15245 0.096462,-0.15244 0.098185,-0.47284 z m 1.6312491,0.53227 H 4.3523338 v 0.91639 H 3.8459059 v -2.50802 H 4.653779 q 0.3806822,0 0.5882488,0.19723 0.2075665,0.19723 0.2075665,0.56069 0,0.49953 -0.3634568,0.69935 l 0.4392487,1.02663 v 0.0241 H 4.9810624 Z m -0.2514914,-0.42203 h 0.2876649 q 0.1515838,0 0.2273758,-0.10077 0.075792,-0.10076 0.075792,-0.26957 0,-0.37724 -0.294555,-0.37724 H 4.3523338 Z m 2.6423824,0.8251 H 6.3039761 L 6.1696177,124.1728 H 5.6339065 l 0.7837575,-2.50802 h 0.4633643 l 0.7889252,2.50802 H 7.1290747 Z m -0.5804973,-0.42202 h 0.468532 l -0.234266,-0.894 z m 3.2435503,0.93534 H 9.1513413 l -0.7406939,-1.64503 v 1.64503 h -0.506428 v -2.50802 h 0.506428 l 0.7424164,1.64675 v -1.64675 h 0.5047054 z m 2.1118388,-0.28422 q -0.146416,0.15847 -0.35915,0.23857 -0.212735,0.0801 -0.465948,0.0801 -0.432359,0 -0.671793,-0.26785 -0.239433,-0.26786 -0.246323,-0.77946 v -0.4513 q 0,-0.51849 0.226514,-0.7984 0.226515,-0.27991 0.660596,-0.27991 0.408243,0 0.615809,0.20153 0.207567,0.20154 0.240295,0.63218 H 11.27696 q -0.02067,-0.23944 -0.09991,-0.32643 -0.07924,-0.087 -0.248046,-0.087 -0.204983,0 -0.298,0.14986 -0.09302,0.14986 -0.09646,0.47714 v 0.45475 q 0,0.34279 0.102491,0.49868 0.102492,0.15589 0.336758,0.15589 0.149861,0 0.242878,-0.0603 l 0.04479,-0.031 v -0.45992 h -0.354844 v -0.38241 h 0.862994 z m 1.653642,-0.80098 h -0.788925 v 0.6649 h 0.933619 v 0.4203 h -1.440047 v -2.50802 h 1.436602 v 0.42202 h -0.930174 v 0.59255 h 0.788925 z" />
    <path
       id="path29"
       style="fill:#15152b;fill-opacity:1;fill-rule:nonzero;stroke:none"
       d="m 5.0051811,127.3085 h 0.8888326 v 0.4203 H 4.4987531 v -2.50802 h 0.506428 z m 1.7104861,0.4203 H 6.2092393 v -2.50802 h 0.5064279 z m 2.1790181,0 H 8.3882574 l -0.7406939,-1.64503 v 1.64503 H 7.1411356 v -2.50802 h 0.5064279 l 0.7424164,1.64675 v -1.64675 h 0.5047054 z m 1.7018737,-1.0852 H 9.8076336 v 0.6649 h 0.9336184 v 0.4203 H 9.3012057 v -2.50802 h 1.4366013 v 0.42202 H 9.8076336 v 0.59255 h 0.7889254 z" />
    <path
       id="path30"
       style="fill:#15152b;fill-opacity:1;fill-rule:nonzero;stroke:none"
       d="M 2.7356812,34.420345 H 2.5399999 v -0.766189 l -0.1908581,0.07372 v -0.162608 l 0.3658689,-0.149517 h 0.020671 z" />
    <path
       id="path31"
       style="fill:#15152b;fill-opacity:1;fill-rule:nonzero;stroke:none"
       d="M 2.8459239,45.348549 H 2.254746 v -0.137804 l 0.2714733,-0.345198 q 0.051676,-0.07166 0.076137,-0.125746 0.02446,-0.05409 0.02446,-0.103697 0,-0.06684 -0.023082,-0.104731 -0.023082,-0.0379 -0.06649,-0.0379 -0.047542,0 -0.075448,0.0441 -0.027905,0.0441 -0.027905,0.124024 H 2.2382095 q 0,-0.09233 0.038241,-0.16881 0.038241,-0.07648 0.1074869,-0.118856 0.069246,-0.04237 0.1567518,-0.04237 0.1343586,0 0.2084281,0.07407 0.07407,0.07407 0.07407,0.210495 0,0.08475 -0.040997,0.17191 -0.040997,0.08716 -0.1484835,0.21463 L 2.5048597,45.18663 h 0.3410642 z" />
    <path
       id="path32"
       style="fill:#15152b;fill-opacity:1;fill-rule:nonzero;stroke:none"
       d="m 2.4359574,55.673168 h 0.094396 q 0.053743,0 0.078893,-0.03755 0.025149,-0.03755 0.025149,-0.100253 0,-0.05994 -0.025838,-0.09336 -0.025838,-0.03342 -0.069246,-0.03342 -0.040652,0 -0.06649,0.03169 -0.025838,0.03169 -0.025838,0.07993 H 2.2519895 q 0,-0.07855 0.036173,-0.140904 0.036173,-0.06236 0.1012858,-0.0975 0.065112,-0.03514 0.1443494,-0.03514 0.1384927,0 0.2170408,0.07648 0.078548,0.07648 0.078548,0.209461 0,0.06821 -0.035484,0.126435 -0.035484,0.05822 -0.093362,0.08923 0.070969,0.03032 0.1057643,0.09095 0.034795,0.06063 0.034795,0.143315 0,0.13367 -0.085094,0.214285 -0.085094,0.08062 -0.2235865,0.08062 -0.1288464,0 -0.2091171,-0.07958 -0.080271,-0.07958 -0.080271,-0.209117 h 0.1949923 q 0,0.05374 0.02825,0.09026 0.02825,0.03652 0.071658,0.03652 0.050298,0 0.079582,-0.03721 0.029283,-0.03721 0.029283,-0.09922 0,-0.148139 -0.1150661,-0.148828 h -0.095774 z" />
    <path
       id="path33"
       style="fill:#15152b;fill-opacity:1;fill-rule:nonzero;stroke:none"
       d="m 2.7677209,66.806358 h 0.085438 v 0.161919 h -0.085438 v 0.217041 H 2.5727286 V 66.968277 H 2.2406217 l -0.00896,-0.12609 0.3403751,-0.66008 h 0.1956813 z m -0.3465763,0 h 0.151584 v -0.335552 l -0.00413,0.0076 z" />
    <path
       id="path34"
       style="fill:#15152b;fill-opacity:1;fill-rule:nonzero;stroke:none"
       d="m 2.2681824,77.607089 0.049609,-0.509874 h 0.4857581 v 0.166742 H 2.477644 l -0.017915,0.214974 q 0.0565,-0.0379 0.1164442,-0.0379 0.1240233,0 0.1912026,0.08819 0.067179,0.08819 0.067179,0.249424 0,0.150895 -0.079926,0.243224 -0.079926,0.09233 -0.2135958,0.09233 -0.079237,0 -0.1467609,-0.03755 -0.067524,-0.03755 -0.1064534,-0.104386 -0.03893,-0.06683 -0.039619,-0.151585 H 2.441126 q 0.00482,0.0627 0.031006,0.09715 0.026183,0.03445 0.067524,0.03445 0.048231,0 0.074414,-0.04651 0.026183,-0.04651 0.026183,-0.138837 0,-0.08682 -0.03135,-0.130914 -0.03135,-0.0441 -0.08785,-0.0441 -0.055122,0 -0.085438,0.0379 l -0.012402,0.01723 z" />
    <path
       id="path35"
       style="fill:#15152b;fill-opacity:1;fill-rule:nonzero;stroke:none"
       d="m 2.7067424,88.268391 v 0.165364 h -0.011024 q -0.109554,6.89e-4 -0.1739772,0.0658 -0.064423,0.06511 -0.078204,0.182246 0.062701,-0.07166 0.1570962,-0.07166 0.108865,0 0.1739772,0.09302 0.065112,0.09302 0.065112,0.248047 0,0.09853 -0.037207,0.177767 -0.037207,0.07924 -0.1043864,0.12299 -0.067179,0.04375 -0.1519285,0.04375 -0.1364257,0 -0.2187634,-0.109554 -0.082338,-0.109554 -0.082338,-0.2949 v -0.07235 q 0,-0.166054 0.052021,-0.290766 0.052021,-0.124713 0.1502061,-0.191892 0.098185,-0.06718 0.2290987,-0.06787 z m -0.1674315,0.502983 q -0.037207,0 -0.062356,0.02343 -0.025149,0.02343 -0.037551,0.05788 v 0.07028 q 0,0.106109 0.02825,0.158475 0.02825,0.05236 0.074414,0.05236 0.046853,0 0.075103,-0.05064 0.02825,-0.05064 0.02825,-0.12988 0,-0.08062 -0.029283,-0.131258 -0.029283,-0.05064 -0.076825,-0.05064 z" />
    <path
       id="path36"
       style="fill:#15152b;fill-opacity:1;fill-rule:nonzero;stroke:none"
       d="M 2.8462681,99.314409 2.5293196,100.20531 H 2.323303 L 2.6416296,99.364018 H 2.2392428 v -0.161919 h 0.6070253 z" />
    <path
       id="path37"
       style="fill:#15152b;fill-opacity:1;fill-rule:nonzero;stroke:none"
       d="m 2.8138856,110.39884 q 0,0.073 -0.031006,0.12953 -0.031006,0.0565 -0.085438,0.0903 0.062012,0.0351 0.097841,0.0968 0.035829,0.0617 0.035829,0.14504 0,0.13367 -0.07717,0.21119 -0.07717,0.0775 -0.2101507,0.0775 -0.1329806,0 -0.2115287,-0.0775 -0.078548,-0.0775 -0.078548,-0.21119 0,-0.0834 0.035829,-0.14538 0.035829,-0.062 0.09853,-0.0965 -0.055121,-0.0338 -0.086127,-0.0903 -0.031006,-0.0565 -0.031006,-0.12953 0,-0.1316 0.073725,-0.20602 0.073725,-0.0744 0.1977483,-0.0744 0.1254014,0 0.1984373,0.0751 0.073036,0.0751 0.073036,0.20533 z m -0.2700953,0.58842 q 0.044097,0 0.067868,-0.0376 0.023771,-0.0375 0.023771,-0.10439 0,-0.0668 -0.024805,-0.10473 -0.024805,-0.0379 -0.068213,-0.0379 -0.043408,0 -0.068557,0.0379 -0.025149,0.0379 -0.025149,0.10473 0,0.0668 0.025149,0.10439 0.025149,0.0376 0.069935,0.0376 z m 0.075792,-0.57809 q 0,-0.0586 -0.018948,-0.0937 -0.018948,-0.0351 -0.058222,-0.0351 -0.037207,0 -0.0565,0.0341 -0.019293,0.0341 -0.019293,0.0947 0,0.0593 0.019293,0.0954 0.019293,0.0362 0.057878,0.0362 0.038585,0 0.057189,-0.0362 0.018604,-0.0362 0.018603,-0.0954 z" />
  </g>
  <g
     inkscape:groupmode="layer"
     id="layer-bg-dark"
     inkscape:label="BackgroundDark"
     style="display:none"
     sodipodi:insensitive="true">
    <path
       id="bg-dark"
       style="fill:#202020;fill-opacity:1;stroke:none"
       d="M 0,0 H 15.24 V 128.5 H 0 Z" />
  </g>
  <g
     inkscape:groupmode="layer"
     id="layer-panel-dark"
     inkscape:label="PanelDark"
     style="display:none"
     sodipodi:insensitive="true">
    <path
       id="accent-orange-dark"
       style="fill:none;stroke:#ff6600;stroke-width:0.3;stroke-linecap:round"
       d="M 0.762,124.71525 H 14.478" />
    <path
       style="fill:#171717;fill-opacity:1;stroke:#606060;stroke-width:0.3;stroke-linejoin:round;stroke-dasharray:none;stroke-opacity:1"
       d="m 0.762,8.382 c -1e-8,-0.420841 0.341159,-0.762 0.762,-0.762 h 12.192 c 0.420841,0 0.762,0.341159 0.762,0.762 v 5.84325 H 0.76200008 Z"
       id="path6-dark"
       sodipodi:nodetypes="ssssccs" />
    <path
       id="rect8-dark"
       style="fill:none;stroke:#606060;stroke-width:0.3;stroke-linejoin:round;stroke-opacity:0.98"
       d="m 1.5028339,7.6212501 12.2131661,0 a 0.74193715,0.74193715 44.957371 0 1 0.741936,0.7408331 l 0.01704,11.4511688 A 2.0289784,2.0289784 134.95737 0 1 12.446,21.84525 H 2.8363374 A 2.0743376,2.0743376 45 0 1 0.76199985,19.770912 l 1.4e-7,-11.408828 A 0.74083394,0.74083394 135 0 1 1.5028339,7.6212501 Z"
       sodipodi:nodetypes="ccccc"
       inkscape:path-effect="#path-effect8"
       inkscape:original-d="M 0.762,7.6212501 H 14.456834 L 14.478,21.84525 H 0.76199983 Z" />
    <path
       id="rect8-7-dark"
       style="display:inline;fill:none;stroke:#606060;stroke-width:0.3;stroke-linejoin:round;stroke-opacity:0.98"
       d="m 2.7919419,-61.509087 h 9.6520001 a 2.032047,2.032047 44.999335 0 1 2.032047,2.032 l 0.002,85.788504 a 2.645772,2.645772 134.99933 0 1 -2.645772,2.645833 l -8.4243758,0 A 2.6458936,2.6458936 44.999348 0 1 0.76193957,26.311417 l -0.001951,-85.788504 a 2.0319536,2.0319536 134.99935 0 1 2.03195357,-2.032 z"
       sodipodi:nodetypes="ccccc"
       inkscape:path-effect="#path-effect8-7"
       inkscape:original-d="M 0.75994211,-61.509087 H 14.475942 l 0.0021,90.466337 H 0.76199975 Z"
       transform="translate(0.00205789,91.990337)" />
    <rect
       style="opacity:0.849673;fill:#171717;fill-opacity:1;stroke:#606060;stroke-width:0.3;stroke-dasharray:none;stroke-opacity:0.980392"
       id="rect1-dark"
       width="13.716001"
       height="4.0639997"
       x="0.76199967"
       y="35.307251" />
    <rect
       style="display:inline;opacity:0.849673;fill:#171717;fill-opacity:1;stroke:#606060;stroke-width:0.3;stroke-dasharray:none;stroke-opacity:0.980392"
       id="rect1-3-dark"
       width="13.716001"
       height="4.0639997"
       x="0.76199967"
       y="112.01525" />
    <rect
       style="display:inline;opacity:0.849673;fill:#171717;fill-opacity:1;stroke:#606060;stroke-width:0.3;stroke-dasharray:none;stroke-opacity:0.980392"
       id="rect1-3-2-dark"
       width="13.716001"
       height="4.0639997"
       x="0.76199967"
       y="46.265537" />
    <rect
       style="display:inline;opacity:0.849673;fill:#171717;fill-opacity:1;stroke:#606060;stroke-width:0.3;stroke-dasharray:none;stroke-opacity:0.980392"
       id="rect1-3-0-dark"
       width="13.716001"
       height="4.0639997"
       x="0.76199967"
       y="57.223824" />
    <rect
       style="display:inline;opacity:0.849673;fill:#171717;fill-opacity:1;stroke:#606060;stroke-width:0.3;stroke-dasharray:none;stroke-opacity:0.980392"
       id="rect1-3-4-dark"
       width="13.716001"
       height="4.0639997"
       x="0.76199967"
       y="68.182106" />
    <rect
       style="display:inline;opacity:0.849673;fill:#171717;fill-opacity:1;stroke:#606060;stroke-width:0.3;stroke-dasharray:none;stroke-opacity:0.980392"
       id="rect1-3-3-dark"
       width="13.716001"
       height="4.0639997"
       x="0.76199967"
       y="79.140396" />
    <rect
       style="display:inline;opacity:0.849673;fill:#171717;fill-opacity:1;stroke:#606060;stroke-width:0.3;stroke-dasharray:none;stroke-opacity:0.980392"
       id="rect1-3-7-dark"
       width="13.716001"
       height="4.0639997"
       x="0.76199967"
       y="90.098679" />
    <rect
       style="display:inline;opacity:0.849673;fill:#171717;fill-opacity:1;stroke:#606060;stroke-width:0.3;stroke-dasharray:none;stroke-opacity:0.980392"
       id="rect1-3-45-dark"
       width="13.716001"
       height="4.0639997"
       x="0.76199967"
       y="101.05697" />
    <rect
       style="display:inline;opacity:1;fill:#171717;fill-opacity:1;stroke:#606060;stroke-width:0.3;stroke-dasharray:none;stroke-opacity:0.980392"
       id="rect2"
       width="13.716001"
       height="4.0639997"
       x="0.76199967"
       y="35.307251" />
    <rect
       style="display:inline;opacity:1;fill:#171717;fill-opacity:1;stroke:#606060;stroke-width:0.3;stroke-dasharray:none;stroke-opacity:0.980392"
       id="rect3"
       width="13.716001"
       height="4.0639997"
       x="0.76199967"
       y="112.01525" />
    <rect
       style="display:inline;opacity:1;fill:#171717;fill-opacity:1;stroke:#606060;stroke-width:0.3;stroke-dasharray:none;stroke-opacity:0.980392"
       id="rect4"
       width="13.716001"
       height="4.0639997"
       x="0.76199967"
       y="46.265537" />
    <rect
       style="display:inline;opacity:1;fill:#171717;fill-opacity:1;stroke:#606060;stroke-width:0.3;stroke-dasharray:none;stroke-opacity:0.980392"
       id="rect5"
       width="13.716001"
       height="4.0639997"
       x="0.76199967"
       y="57.223824" />
    <rect
       style="display:inline;opacity:1;fill:#171717;fill-opacity:1;stroke:#606060;stroke-width:0.3;stroke-dasharray:none;stroke-opacity:0.980392"
       id="rect6"
       width="13.716001"
       height="4.0639997"
       x="0.76199967"
       y="68.182106" />
    <rect
       style="display:inline;opacity:1;fill:#171717;fill-opacity:1;stroke:#606060;stroke-width:0.3;stroke-dasharray:none;stroke-opacity:0.980392"
       id="rect7"
       width="13.716001"
       height="4.0639997"
       x="0.76199967"
       y="79.140396" />
    <rect
       style="display:inline;opacity:1;fill:#171717;fill-opacity:1;stroke:#606060;stroke-width:0.3;stroke-dasharray:none;stroke-opacity:0.980392"
       id="rect9"
       width="13.716001"
       height="4.0639997"
       x="0.76199967"
       y="90.098679" />
    <rect
       style="display:inline;opacity:1;fill:#171717;fill-opacity:1;stroke:#606060;stroke-width:0.3;stroke-dasharray:none;stroke-opacity:0.980392"
       id="rect10"
       width="13.716001"
       height="4.0639997"
       x="0.76199967"
       y="101.05697" />
  </g>
  <g
     inkscape:groupmode="layer"
     id="layer-text-dark"
     inkscape:label="TextDark"
     style="display:none"
     sodipodi:insensitive="true">
    <path
       id="text-title-dark"
       style="fill:#c4bac4;fill-rule:nonzero;stroke:none"
       d="M 4.597965,3.1815592 5.1381556,1.8035221 h 0.928797 L 5.1243752,3.7934077 6.0890012,5.8163662 H 5.1491799 L 4.597965,4.4135244 4.0495062,5.8163662 H 3.1096849 L 4.0743109,3.7934077 3.1289775,1.8035221 h 0.928797 z m 1.9016912,2.634807 V 1.8035221 h 1.0610886 q 0.7027989,0 1.1203442,0.4464841 0.4175452,0.446484 0.4258134,1.2236969 v 0.6504335 q 0,0.7909933 -0.4175452,1.2416115 Q 8.271812,5.8163662 7.5386962,5.8163662 Z M 7.3099421,2.4787603 v 2.6651238 h 0.2425345 q 0.4051429,0 0.5705073,-0.2135958 Q 8.2883484,4.7166926 8.2966166,4.1930385 V 3.4957517 q 0,-0.5622391 -0.1570962,-0.7841031 Q 7.9824242,2.4897846 7.604842,2.4787603 Z m 4.5668149,0.3913626 q 0,0.2921438 -0.124023,0.5181419 -0.124024,0.2259981 -0.341754,0.3610457 0.248047,0.1405598 0.391363,0.3872285 0.143316,0.2466686 0.143316,0.5801536 0,0.5346784 -0.30868,0.8447367 -0.308681,0.3100584 -0.840603,0.3100584 -0.531922,0 -0.8461148,-0.3100584 Q 9.6360687,5.251371 9.6360687,4.7166926 q 0,-0.333485 0.1433159,-0.5815317 Q 9.9227004,3.8871142 10.173503,3.7493105 9.9530172,3.6142629 9.8289939,3.3882648 9.7049705,3.1622667 9.7049705,2.8701229 q 0,-0.5264102 0.2949,-0.8240662 0.2948995,-0.297656 0.7909935,-0.297656 0.501605,0 0.793749,0.300412 0.292144,0.3004121 0.292144,0.8213102 z m -1.080381,2.3536873 q 0.176389,0 0.271473,-0.150206 0.09508,-0.150206 0.09508,-0.4175452 0,-0.2673392 -0.09922,-0.4189233 -0.09922,-0.1515841 -0.272851,-0.1515841 -0.173633,0 -0.27423,0.1515841 -0.100596,0.1515841 -0.100596,0.4189233 0,0.2673392 0.100596,0.4175452 0.100597,0.150206 0.279742,0.150206 z M 11.099544,2.911464 q 0,-0.2342663 -0.07579,-0.3748261 -0.07579,-0.1405598 -0.232888,-0.1405598 -0.148828,0 -0.225998,0.1364257 -0.07717,0.1364256 -0.07717,0.3789602 0,0.2370224 0.07717,0.3817163 0.07717,0.1446938 0.23151,0.1446938 0.15434,0 0.228754,-0.1446938 0.07441,-0.1446939 0.07441,-0.3817163 z" />
    <path
       id="text-orange-dark"
       style="fill:#c4bac4;fill-rule:nonzero;stroke:none"
       d="m 3.4807266,123.14444 q 0,0.50471 -0.2385724,0.78376 -0.2385723,0.27905 -0.6623181,0.27905 -0.4220233,0 -0.6631794,-0.27647 -0.2411562,-0.27647 -0.2446013,-0.77428 v -0.42891 q 0,-0.51677 0.2394337,-0.80702 0.2394336,-0.29024 0.6649019,-0.29024 0.4185782,0 0.6597343,0.28508 0.2411562,0.28508 0.2446013,0.80012 z m -0.5081505,-0.4203 q 0,-0.33934 -0.096462,-0.5047 -0.096462,-0.16537 -0.2997227,-0.16537 -0.2015376,0 -0.2980001,0.15934 -0.096462,0.15933 -0.099908,0.48489 v 0.44614 q 0,0.32901 0.098185,0.4849 0.098185,0.15589 0.3031677,0.15589 0.1980926,0 0.294555,-0.15245 0.096462,-0.15244 0.098185,-0.47284 z m 1.6312491,0.53227 H 4.3523338 v 0.91639 H 3.8459059 v -2.50802 H 4.653779 q 0.3806822,0 0.5882488,0.19723 0.2075665,0.19723 0.2075665,0.56069 0,0.49953 -0.3634568,0.69935 l 0.4392487,1.02663 v 0.0241 H 4.9810624 Z m -0.2514914,-0.42203 h 0.2876649 q 0.1515838,0 0.2273758,-0.10077 0.075792,-0.10076 0.075792,-0.26957 0,-0.37724 -0.294555,-0.37724 H 4.3523338 Z m 2.6423824,0.8251 H 6.3039761 L 6.1696177,124.1728 H 5.6339065 l 0.7837575,-2.50802 h 0.4633643 l 0.7889252,2.50802 H 7.1290747 Z m -0.5804973,-0.42202 h 0.468532 l -0.234266,-0.894 z m 3.2435503,0.93534 H 9.1513413 l -0.7406939,-1.64503 v 1.64503 h -0.506428 v -2.50802 h 0.506428 l 0.7424164,1.64675 v -1.64675 h 0.5047054 z m 2.1118388,-0.28422 q -0.146416,0.15847 -0.35915,0.23857 -0.212735,0.0801 -0.465948,0.0801 -0.432359,0 -0.671793,-0.26785 -0.239433,-0.26786 -0.246323,-0.77946 v -0.4513 q 0,-0.51849 0.226514,-0.7984 0.226515,-0.27991 0.660596,-0.27991 0.408243,0 0.615809,0.20153 0.207567,0.20154 0.240295,0.63218 H 11.27696 q -0.02067,-0.23944 -0.09991,-0.32643 -0.07924,-0.087 -0.248046,-0.087 -0.204983,0 -0.298,0.14986 -0.09302,0.14986 -0.09646,0.47714 v 0.45475 q 0,0.34279 0.102491,0.49868 0.102492,0.15589 0.336758,0.15589 0.149861,0 0.242878,-0.0603 l 0.04479,-0.031 v -0.45992 h -0.354844 v -0.38241 h 0.862994 z m 1.653642,-0.80098 h -0.788925 v 0.6649 h 0.933619 v 0.4203 h -1.440047 v -2.50802 h 1.436602 v 0.42202 h -0.930174 v 0.59255 h 0.788925 z" />
    <path
       id="text-line-dark"
       style="fill:#c4bac4;fill-rule:nonzero;stroke:none"
       d="m 5.0051811,127.3085 h 0.8888326 v 0.4203 H 4.4987531 v -2.50802 h 0.506428 z m 1.7104861,0.4203 H 6.2092393 v -2.50802 h 0.5064279 z m 2.1790181,0 H 8.3882574 l -0.7406939,-1.64503 v 1.64503 H 7.1411356 v -2.50802 h 0.5064279 l 0.7424164,1.64675 v -1.64675 h 0.5047054 z m 1.7018737,-1.0852 H 9.8076336 v 0.6649 h 0.9336184 v 0.4203 H 9.3012057 v -2.50802 h 1.4366013 v 0.42202 H 9.8076336 v 0.59255 h 0.7889254 z" />
    <path
       id="text-title-4-dark"
       style="fill:#c4bac4;fill-rule:nonzero;stroke:none"
       d="M 2.7356812,34.420345 H 2.5399999 v -0.766189 l -0.1908581,0.07372 v -0.162608 l 0.3658689,-0.149517 h 0.020671 z" />
    <path
       id="text-title-4-0-dark"
       style="fill:#c4bac4;fill-rule:nonzero;stroke:none"
       d="M 2.8459239,45.348549 H 2.254746 v -0.137804 l 0.2714733,-0.345198 q 0.051676,-0.07166 0.076137,-0.125746 0.02446,-0.05409 0.02446,-0.103697 0,-0.06684 -0.023082,-0.104731 -0.023082,-0.0379 -0.06649,-0.0379 -0.047542,0 -0.075448,0.0441 -0.027905,0.0441 -0.027905,0.124024 H 2.2382095 q 0,-0.09233 0.038241,-0.16881 0.038241,-0.07648 0.1074869,-0.118856 0.069246,-0.04237 0.1567518,-0.04237 0.1343586,0 0.2084281,0.07407 0.07407,0.07407 0.07407,0.210495 0,0.08475 -0.040997,0.17191 -0.040997,0.08716 -0.1484835,0.21463 L 2.5048597,45.18663 h 0.3410642 z" />
    <path
       id="text-title-4-9-dark"
       style="fill:#c4bac4;fill-rule:nonzero;stroke:none"
       d="m 2.4359574,55.673168 h 0.094396 q 0.053743,0 0.078893,-0.03755 0.025149,-0.03755 0.025149,-0.100253 0,-0.05994 -0.025838,-0.09336 -0.025838,-0.03342 -0.069246,-0.03342 -0.040652,0 -0.06649,0.03169 -0.025838,0.03169 -0.025838,0.07993 H 2.2519895 q 0,-0.07855 0.036173,-0.140904 0.036173,-0.06236 0.1012858,-0.0975 0.065112,-0.03514 0.1443494,-0.03514 0.1384927,0 0.2170408,0.07648 0.078548,0.07648 0.078548,0.209461 0,0.06821 -0.035484,0.126435 -0.035484,0.05822 -0.093362,0.08923 0.070969,0.03032 0.1057643,0.09095 0.034795,0.06063 0.034795,0.143315 0,0.13367 -0.085094,0.214285 -0.085094,0.08062 -0.2235865,0.08062 -0.1288464,0 -0.2091171,-0.07958 -0.080271,-0.07958 -0.080271,-0.209117 h 0.1949923 q 0,0.05374 0.02825,0.09026 0.02825,0.03652 0.071658,0.03652 0.050298,0 0.079582,-0.03721 0.029283,-0.03721 0.029283,-0.09922 0,-0.148139 -0.1150661,-0.148828 h -0.095774 z" />
    <path
       id="text-title-4-5-dark"
       style="fill:#c4bac4;fill-rule:nonzero;stroke:none"
       d="m 2.7677209,66.806358 h 0.085438 v 0.161919 h -0.085438 v 0.217041 H 2.5727286 V 66.968277 H 2.2406217 l -0.00896,-0.12609 0.3403751,-0.66008 h 0.1956813 z m -0.3465763,0 h 0.151584 v -0.335552 l -0.00413,0.0076 z" />
    <path
       id="text-title-4-4-dark"
       style="fill:#c4bac4;fill-rule:nonzero;stroke:none"
       d="m 2.2681824,77.607089 0.049609,-0.509874 h 0.4857581 v 0.166742 H 2.477644 l -0.017915,0.214974 q 0.0565,-0.0379 0.1164442,-0.0379 0.1240233,0 0.1912026,0.08819 0.067179,0.08819 0.067179,0.249424 0,0.150895 -0.079926,0.243224 -0.079926,0.09233 -0.2135958,0.09233 -0.079237,0 -0.1467609,-0.03755 -0.067524,-0.03755 -0.1064534,-0.104386 -0.03893,-0.06683 -0.039619,-0.151585 H 2.441126 q 0.00482,0.0627 0.031006,0.09715 0.026183,0.03445 0.067524,0.03445 0.048231,0 0.074414,-0.04651 0.026183,-0.04651 0.026183,-0.138837 0,-0.08682 -0.03135,-0.130914 -0.03135,-0.0441 -0.08785,-0.0441 -0.055122,0 -0.085438,0.0379 l -0.012402,0.01723 z" />
    <path
       id="text-title-4-03-dark"
       style="fill:#c4bac4;fill-rule:nonzero;stroke:none"
       d="m 2.7067424,88.268391 v 0.165364 h -0.011024 q -0.109554,6.89e-4 -0.1739772,0.0658 -0.064423,0.06511 -0.078204,0.182246 0.062701,-0.07166 0.1570962,-0.07166 0.108865,0 0.1739772,0.09302 0.065112,0.09302 0.065112,0.248047 0,0.09853 -0.037207,0.177767 -0.037207,0.07924 -0.1043864,0.12299 -0.067179,0.04375 -0.1519285,0.04375 -0.1364257,0 -0.2187634,-0.109554 -0.082338,-0.109554 -0.082338,-0.2949 v -0.07235 q 0,-0.166054 0.052021,-0.290766 0.052021,-0.124713 0.1502061,-0.191892 0.098185,-0.06718 0.2290987,-0.06787 z m -0.1674315,0.502983 q -0.037207,0 -0.062356,0.02343 -0.025149,0.02343 -0.037551,0.05788 v 0.07028 q 0,0.106109 0.02825,0.158475 0.02825,0.05236 0.074414,0.05236 0.046853,0 0.075103,-0.05064 0.02825,-0.05064 0.02825,-0.12988 0,-0.08062 -0.029283,-0.131258 -0.029283,-0.05064 -0.076825,-0.05064 z" />
    <path
       id="text-title-4-1-dark"
       style="fill:#c4bac4;fill-rule:nonzero;stroke:none"
       d="M 2.8462681,99.314409 2.5293196,100.20531 H 2.323303 L 2.6416296,99.364018 H 2.2392428 v -0.161919 h 0.6070253 z" />
    <path
       id="text-title-4-2-dark"
       style="fill:#c4bac4;fill-rule:nonzero;stroke:none"
       d="m 2.8138856,110.39884 q 0,0.073 -0.031006,0.12953 -0.031006,0.0565 -0.085438,0.0903 0.062012,0.0351 0.097841,0.0968 0.035829,0.0617 0.035829,0.14504 0,0.13367 -0.07717,0.21119 -0.07717,0.0775 -0.2101507,0.0775 -0.1329806,0 -0.2115287,-0.0775 -0.078548,-0.0775 -0.078548,-0.21119 0,-0.0834 0.035829,-0.14538 0.035829,-0.062 0.09853,-0.0965 -0.055121,-0.0338 -0.086127,-0.0903 -0.031006,-0.0565 -0.031006,-0.12953 0,-0.1316 0.073725,-0.20602 0.073725,-0.0744 0.1977483,-0.0744 0.1254014,0 0.1984373,0.0751 0.073036,0.0751 0.073036,0.20533 z m -0.2700953,0.58842 q 0.044097,0 0.067868,-0.0376 0.023771,-0.0375 0.023771,-0.10439 0,-0.0668 -0.024805,-0.10473 -0.024805,-0.0379 -0.068213,-0.0379 -0.043408,0 -0.068557,0.0379 -0.025149,0.0379 -0.025149,0.10473 0,0.0668 0.025149,0.10439 0.025149,0.0376 0.069935,0.0376 z m 0.075792,-0.57809 q 0,-0.0586 -0.018948,-0.0937 -0.018948,-0.0351 -0.058222,-0.0351 -0.037207,0 -0.0565,0.0341 -0.019293,0.0341 -0.019293,0.0947 0,0.0593 0.019293,0.0954 0.019293,0.0362 0.057878,0.0362 0.038585,0 0.057189,-0.0362 0.018604,-0.0362 0.018603,-0.0954 z" />
  </g>
  <g
     inkscape:groupmode="layer"
     id="layer-bg-orange"
     inkscape:label="BackgroundOrange"
     style="display:inline"
     sodipodi:insensitive="true">
    <path
       id="bg-orange"
       style="fill:#15152b;fill-opacity:1;stroke:none"
       d="M 0,0 H 15.24 V 128.5 H 0 Z" />
  </g>
  <g
     inkscape:groupmode="layer"
     id="layer-text-orange"
     inkscape:label="TextOrange"
     style="display:none"
     sodipodi:insensitive="true">
    <path
       id="text-title-orange"
       style="fill:#ff6600;fill-rule:nonzero;stroke:none"
       d="M 4.597965,3.1815592 5.1381556,1.8035221 h 0.928797 L 5.1243752,3.7934077 6.0890012,5.8163662 H 5.1491799 L 4.597965,4.4135244 4.0495062,5.8163662 H 3.1096849 L 4.0743109,3.7934077 3.1289775,1.8035221 h 0.928797 z m 1.9016912,2.634807 V 1.8035221 h 1.0610886 q 0.7027989,0 1.1203442,0.4464841 0.4175452,0.446484 0.4258134,1.2236969 v 0.6504335 q 0,0.7909933 -0.4175452,1.2416115 Q 8.271812,5.8163662 7.5386962,5.8163662 Z M 7.3099421,2.4787603 v 2.6651238 h 0.2425345 q 0.4051429,0 0.5705073,-0.2135958 Q 8.2883484,4.7166926 8.2966166,4.1930385 V 3.4957517 q 0,-0.5622391 -0.1570962,-0.7841031 Q 7.9824242,2.4897846 7.604842,2.4787603 Z m 4.5668149,0.3913626 q 0,0.2921438 -0.124023,0.5181419 -0.124024,0.2259981 -0.341754,0.3610457 0.248047,0.1405598 0.391363,0.3872285 0.143316,0.2466686 0.143316,0.5801536 0,0.5346784 -0.30868,0.8447367 -0.308681,0.3100584 -0.840603,0.3100584 -0.531922,0 -0.8461148,-0.3100584 Q 9.6360687,5.251371 9.6360687,4.7166926 q 0,-0.333485 0.1433159,-0.5815317 Q 9.9227004,3.8871142 10.173503,3.7493105 9.9530172,3.6142629 9.8289939,3.3882648 9.7049705,3.1622667 9.7049705,2.8701229 q 0,-0.5264102 0.2949,-0.8240662 0.2948995,-0.297656 0.7909935,-0.297656 0.501605,0 0.793749,0.300412 0.292144,0.3004121 0.292144,0.8213102 z m -1.080381,2.3536873 q 0.176389,0 0.271473,-0.150206 0.09508,-0.150206 0.09508,-0.4175452 0,-0.2673392 -0.09922,-0.4189233 -0.09922,-0.1515841 -0.272851,-0.1515841 -0.173633,0 -0.27423,0.1515841 -0.100596,0.1515841 -0.100596,0.4189233 0,0.2673392 0.100596,0.4175452 0.100597,0.150206 0.279742,0.150206 z M 11.099544,2.911464 q 0,-0.2342663 -0.07579,-0.3748261 -0.07579,-0.1405598 -0.232888,-0.1405598 -0.148828,0 -0.225998,0.1364257 -0.07717,0.1364256 -0.07717,0.3789602 0,0.2370224 0.07717,0.3817163 0.07717,0.1446938 0.23151,0.1446938 0.15434,0 0.228754,-0.1446938 0.07441,-0.1446939 0.07441,-0.3817163 z" />
    <path
       id="text-orange-orange"
       style="fill:#ff6600;fill-rule:nonzero;stroke:none"
       d="m 3.4807266,123.14444 q 0,0.50471 -0.2385724,0.78376 -0.2385723,0.27905 -0.6623181,0.27905 -0.4220233,0 -0.6631794,-0.27647 -0.2411562,-0.27647 -0.2446013,-0.77428 v -0.42891 q 0,-0.51677 0.2394337,-0.80702 0.2394336,-0.29024 0.6649019,-0.29024 0.4185782,0 0.6597343,0.28508 0.2411562,0.28508 0.2446013,0.80012 z m -0.5081505,-0.4203 q 0,-0.33934 -0.096462,-0.5047 -0.096462,-0.16537 -0.2997227,-0.16537 -0.2015376,0 -0.2980001,0.15934 -0.096462,0.15933 -0.099908,0.48489 v 0.44614 q 0,0.32901 0.098185,0.4849 0.098185,0.15589 0.3031677,0.15589 0.1980926,0 0.294555,-0.15245 0.096462,-0.15244 0.098185,-0.47284 z m 1.6312491,0.53227 H 4.3523338 v 0.91639 H 3.8459059 v -2.50802 H 4.653779 q 0.3806822,0 0.5882488,0.19723 0.2075665,0.19723 0.2075665,0.56069 0,0.49953 -0.3634568,0.69935 l 0.4392487,1.02663 v 0.0241 H 4.9810624 Z m -0.2514914,-0.42203 h 0.2876649 q 0.1515838,0 0.2273758,-0.10077 0.075792,-0.10076 0.075792,-0.26957 0,-0.37724 -0.294555,-0.37724 H 4.3523338 Z m 2.6423824,0.8251 H 6.3039761 L 6.1696177,124.1728 H 5.6339065 l 0.7837575,-2.50802 h 0.4633643 l 0.7889252,2.50802 H 7.1290747 Z m -0.5804973,-0.42202 h 0.468532 l -0.234266,-0.894 z m 3.2435503,0.93534 H 9.1513413 l -0.7406939,-1.64503 v 1.64503 h -0.506428 v -2.50802 h 0.506428 l 0.7424164,1.64675 v -1.64675 h 0.5047054 z m 2.1118388,-0.28422 q -0.146416,0.15847 -0.35915,0.23857 -0.212735,0.0801 -0.465948,0.0801 -0.432359,0 -0.671793,-0.26785 -0.239433,-0.26786 -0.246323,-0.77946 v -0.4513 q 0,-0.51849 0.226514,-0.7984 0.226515,-0.27991 0.660596,-0.27991 0.408243,0 0.615809,0.20153 0.207567,0.20154 0.240295,0.63218 H 11.27696 q -0.02067,-0.23944 -0.09991,-0.32643 -0.07924,-0.087 -0.248046,-0.087 -0.204983,0 -0.298,0.14986 -0.09302,0.14986 -0.09646,0.47714 v 0.45475 q 0,0.34279 0.102491,0.49868 0.102492,0.15589 0.336758,0.15589 0.149861,0 0.242878,-0.0603 l 0.04479,-0.031 v -0.45992 h -0.354844 v -0.38241 h 0.862994 z m 1.653642,-0.80098 h -0.788925 v 0.6649 h 0.933619 v 0.4203 h -1.440047 v -2.50802 h 1.436602 v 0.42202 h -0.930174 v 0.59255 h 0.788925 z" />
    <path
       id="text-line-orange"
       style="fill:#ff6600;fill-rule:nonzero;stroke:none"
       d="m 5.0051811,127.3085 h 0.8888326 v 0.4203 H 4.4987531 v -2.50802 h 0.506428 z m 1.7104861,0.4203 H 6.2092393 v -2.50802 h 0.5064279 z m 2.1790181,0 H 8.3882574 l -0.7406939,-1.64503 v 1.64503 H 7.1411356 v -2.50802 h 0.5064279 l 0.7424164,1.64675 v -1.64675 h 0.5047054 z m 1.7018737,-1.0852 H 9.8076336 v 0.6649 h 0.9336184 v 0.4203 H 9.3012057 v -2.50802 h 1.4366013 v 0.42202 H 9.8076336 v 0.59255 h 0.7889254 z" />
    <path
       id="text-title-4-orange"
       style="fill:#ff6600;fill-rule:nonzero;stroke:none"
       d="M 2.7356812,34.420345 H 2.5399999 v -0.766189 l -0.1908581,0.07372 v -0.162608 l 0.3658689,-0.149517 h 0.020671 z" />
    <path
       id="text-title-4-0-orange"
       style="fill:#ff6600;fill-rule:nonzero;stroke:none"
       d="M 2.8459239,45.348549 H 2.254746 v -0.137804 l 0.2714733,-0.345198 q 0.051676,-0.07166 0.076137,-0.125746 0.02446,-0.05409 0.02446,-0.103697 0,-0.06684 -0.023082,-0.104731 -0.023082,-0.0379 -0.06649,-0.0379 -0.047542,0 -0.075448,0.0441 -0.027905,0.0441 -0.027905,0.124024 H 2.2382095 q 0,-0.09233 0.038241,-0.16881 0.038241,-0.07648 0.1074869,-0.118856 0.069246,-0.04237 0.1567518,-0.04237 0.1343586,0 0.2084281,0.07407 0.07407,0.07407 0.07407,0.210495 0,0.08475 -0.040997,0.17191 -0.040997,0.08716 -0.1484835,0.21463 L 2.5048597,45.18663 h 0.3410642 z" />
    <path
       id="text-title-4-9-orange"
       style="fill:#ff6600;fill-rule:nonzero;stroke:none"
       d="m 2.4359574,55.673168 h 0.094396 q 0.053743,0 0.078893,-0.03755 0.025149,-0.03755 0.025149,-0.100253 0,-0.05994 -0.025838,-0.09336 -0.025838,-0.03342 -0.069246,-0.03342 -0.040652,0 -0.06649,0.03169 -0.025838,0.03169 -0.025838,0.07993 H 2.2519895 q 0,-0.07855 0.036173,-0.140904 0.036173,-0.06236 0.1012858,-0.0975 0.065112,-0.03514 0.1443494,-0.03514 0.1384927,0 0.2170408,0.07648 0.078548,0.07648 0.078548,0.209461 0,0.06821 -0.035484,0.126435 -0.035484,0.05822 -0.093362,0.08923 0.070969,0.03032 0.1057643,0.09095 0.034795,0.06063 0.034795,0.143315 0,0.13367 -0.085094,0.214285 -0.085094,0.08062 -0.2235865,0.08062 -0.1288464,0 -0.2091171,-0.07958 -0.080271,-0.07958 -0.080271,-0.209117 h 0.1949923 q 0,0.05374 0.02825,0.09026 0.02825,0.03652 0.071658,0.03652 0.050298,0 0.079582,-0.03721 0.029283,-0.03721 0.029283,-0.09922 0,-0.148139 -0.1150661,-0.148828 h -0.095774 z" />
    <path
       id="text-title-4-5-orange"
       style="fill:#ff6600;fill-rule:nonzero;stroke:none"
       d="m 2.7677209,66.806358 h 0.085438 v 0.161919 h -0.085438 v 0.217041 H 2.5727286 V 66.968277 H 2.2406217 l -0.00896,-0.12609 0.3403751,-0.66008 h 0.1956813 z m -0.3465763,0 h 0.151584 v -0.335552 l -0.00413,0.0076 z" />
    <path
       id="text-title-4-4-orange"
       style="fill:#ff6600;fill-rule:nonzero;stroke:none"
       d="m 2.2681824,77.607089 0.049609,-0.509874 h 0.4857581 v 0.166742 H 2.477644 l -0.017915,0.214974 q 0.0565,-0.0379 0.1164442,-0.0379 0.1240233,0 0.1912026,0.08819 0.067179,0.08819 0.067179,0.249424 0,0.150895 -0.079926,0.243224 -0.079926,0.09233 -0.2135958,0.09233 -0.079237,0 -0.1467609,-0.03755 -0.067524,-0.03755 -0.1064534,-0.104386 -0.03893,-0.06683 -0.039619,-0.151585 H 2.441126 q 0.00482,0.0627 0.031006,0.09715 0.026183,0.03445 0.067524,0.03445 0.048231,0 0.074414,-0.04651 0.026183,-0.04651 0.026183,-0.138837 0,-0.08682 -0.03135,-0.130914 -0.03135,-0.0441 -0.08785,-0.0441 -0.055122,0 -0.085438,0.0379 l -0.012402,0.01723 z" />
    <path
       id="text-title-4-03-orange"
       style="fill:#ff6600;fill-rule:nonzero;stroke:none"
       d="m 2.7067424,88.268391 v 0.165364 h -0.011024 q -0.109554,6.89e-4 -0.1739772,0.0658 -0.064423,0.06511 -0.078204,0.182246 0.062701,-0.07166 0.1570962,-0.07166 0.108865,0 0.1739772,0.09302 0.065112,0.09302 0.065112,0.248047 0,0.09853 -0.037207,0.177767 -0.037207,0.07924 -0.1043864,0.12299 -0.067179,0.04375 -0.1519285,0.04375 -0.1364257,0 -0.2187634,-0.109554 -0.082338,-0.109554 -0.082338,-0.2949 v -0.07235 q 0,-0.166054 0.052021,-0.290766 0.052021,-0.124713 0.1502061,-0.191892 0.098185,-0.06718 0.2290987,-0.06787 z m -0.1674315,0.502983 q -0.037207,0 -0.062356,0.02343 -0.025149,0.02343 -0.037551,0.05788 v 0.07028 q 0,0.106109 0.02825,0.158475 0.02825,0.05236 0.074414,0.05236 0.046853,0 0.075103,-0.05064 0.02825,-0.05064 0.02825,-0.12988 0,-0.08062 -0.029283,-0.131258 -0.029283,-0.05064 -0.076825,-0.05064 z" />
    <path
       id="text-title-4-1-orange"
       style="fill:#ff6600;fill-rule:nonzero;stroke:none"
       d="M 2.8462681,99.314409 2.5293196,100.20531 H 2.323303 L 2.6416296,99.364018 H 2.2392428 v -0.161919 h 0.6070253 z" />
    <path
       id="text-title-4-2-orange"
       style="fill:#ff6600;fill-rule:nonzero;stroke:none"
       d="m 2.8138856,110.39884 q 0,0.073 -0.031006,0.12953 -0.031006,0.0565 -0.085438,0.0903 0.062012,0.0351 0.097841,0.0968 0.035829,0.0617 0.035829,0.14504 0,0.13367 -0.07717,0.21119 -0.07717,0.0775 -0.2101507,0.0775 -0.1329806,0 -0.2115287,-0.0775 -0.078548,-0.0775 -0.078548,-0.21119 0,-0.0834 0.035829,-0.14538 0.035829,-0.062 0.09853,-0.0965 -0.055121,-0.0338 -0.086127,-0.0903 -0.031006,-0.0565 -0.031006,-0.12953 0,-0.1316 0.073725,-0.20602 0.073725,-0.0744 0.1977483,-0.0744 0.1254014,0 0.1984373,0.0751 0.073036,0.0751 0.073036,0.20533 z m -0.2700953,0.58842 q 0.044097,0 0.067868,-0.0376 0.023771,-0.0375 0.023771,-0.10439 0,-0.0668 -0.024805,-0.10473 -0.024805,-0.0379 -0.068213,-0.0379 -0.043408,0 -0.068557,0.0379 -0.025149,0.0379 -0.025149,0.10473 0,0.0668 0.025149,0.10439 0.025149,0.0376 0.069935,0.0376 z m 0.075792,-0.57809 q 0,-0.0586 -0.018948,-0.0937 -0.018948,-0.0351 -0.058222,-0.0351 -0.037207,0 -0.0565,0.0341 -0.019293,0.0341 -0.019293,0.0947 0,0.0593 0.019293,0.0954 0.019293,0.0362 0.057878,0.0362 0.038585,0 0.057189,-0.0362 0.018604,-0.0362 0.018603,-0.0954 z" />
  </g>
  <g
     inkscape:groupmode="layer"
     id="layer-text-work"
     inkscape:label="TextWork"
     style="display:inline"
     sodipodi:insensitive="true">
    <text
       id="text-title"
       x="7.6200004"
       y="5.8163662"
       style="font-style:normal;font-weight:bold;font-size:5.64444px;font-family:'Roboto Condensed';-inkscape-font-specification:'Roboto Condensed, Bold';text-align:center;text-anchor:middle;fill:#ff6600;stroke:none"><tspan
         id="tspan-title"
         x="7.6200004"
         y="5.8163662">XD8</tspan></text>
    <text
       id="text-orange"
       x="1.5135814"
       y="124.1728"
       style="font-style:normal;font-weight:bold;font-size:3.52777px;font-family:'Roboto Condensed';-inkscape-font-specification:'Roboto Condensed, Bold';text-align:start;text-anchor:start;fill:#ff6600;stroke:none"><tspan
         id="tspan-orange"
         x="1.5135814"
         y="124.1728">ORANGE</tspan></text>
    <text
       id="text-line"
       x="4.2972155"
       y="127.7288"
       style="font-style:normal;font-weight:bold;font-size:3.52777px;font-family:'Roboto Condensed';-inkscape-font-specification:'Roboto Condensed, Bold';text-align:start;text-anchor:start;fill:#ff6600;stroke:none"><tspan
         id="tspan-line"
         x="4.2972155"
         y="127.7288">LINE</tspan></text>
    <text
       id="text-title-4"
       x="2.5978775"
       y="34.420345"
       style="font-style:normal;font-weight:bold;font-size:5.64444px;font-family:'Roboto Condensed';-inkscape-font-specification:'Roboto Condensed, Bold';text-align:center;text-anchor:middle;display:inline;fill:#ff6600;stroke:none"><tspan
         id="tspan-title-6"
         x="2.5978775"
         y="34.420345"
         style="font-style:normal;font-variant:normal;font-weight:normal;font-stretch:normal;font-size:1.41111px;font-family:'Roboto Condensed';-inkscape-font-specification:'Roboto Condensed, @wght=700';font-variant-ligatures:normal;font-variant-caps:normal;font-variant-numeric:normal;font-variant-east-asian:normal;font-variation-settings:'wght' 700">1</tspan></text>
    <text
       id="text-title-4-0"
       x="2.5462008"
       y="45.348549"
       style="font-style:normal;font-weight:bold;font-size:5.64444px;font-family:'Roboto Condensed';-inkscape-font-specification:'Roboto Condensed, Bold';text-align:center;text-anchor:middle;display:inline;fill:#ff6600;stroke:none"><tspan
         id="tspan-title-6-2"
         x="2.5462008"
         y="45.348549"
         style="font-style:normal;font-variant:normal;font-weight:normal;font-stretch:normal;font-size:1.41111px;font-family:'Roboto Condensed';-inkscape-font-specification:'Roboto Condensed, @wght=700';font-variant-ligatures:normal;font-variant-caps:normal;font-variant-numeric:normal;font-variant-east-asian:normal;font-variation-settings:'wght' 700">2</tspan></text>
    <text
       id="text-title-4-9"
       x="2.5537796"
       y="56.263657"
       style="font-style:normal;font-weight:bold;font-size:5.64444px;font-family:'Roboto Condensed';-inkscape-font-specification:'Roboto Condensed, Bold';text-align:center;text-anchor:middle;display:inline;fill:#ff6600;stroke:none"><tspan
         id="tspan-title-6-3"
         x="2.5537796"
         y="56.263657"
         style="font-style:normal;font-variant:normal;font-weight:normal;font-stretch:normal;font-size:1.41111px;font-family:'Roboto Condensed';-inkscape-font-specification:'Roboto Condensed, @wght=700';font-variant-ligatures:normal;font-variant-caps:normal;font-variant-numeric:normal;font-variant-east-asian:normal;font-variation-settings:'wght' 700">3</tspan></text>
    <text
       id="text-title-4-5"
       x="2.5451679"
       y="67.185318"
       style="font-style:normal;font-weight:bold;font-size:5.64444px;font-family:'Roboto Condensed';-inkscape-font-specification:'Roboto Condensed, Bold';text-align:center;text-anchor:middle;display:inline;fill:#ff6600;stroke:none"><tspan
         id="tspan-title-6-24"
         x="2.5451679"
         y="67.185318"
         style="font-style:normal;font-variant:normal;font-weight:normal;font-stretch:normal;font-size:1.41111px;font-family:'Roboto Condensed';-inkscape-font-specification:'Roboto Condensed, @wght=700';font-variant-ligatures:normal;font-variant-caps:normal;font-variant-numeric:normal;font-variant-east-asian:normal;font-variation-settings:'wght' 700">4</tspan></text>
    <text
       id="text-title-4-4"
       x="2.5396557"
       y="78.100426"
       style="font-style:normal;font-weight:bold;font-size:5.64444px;font-family:'Roboto Condensed';-inkscape-font-specification:'Roboto Condensed, Bold';text-align:center;text-anchor:middle;display:inline;fill:#ff6600;stroke:none"><tspan
         id="tspan-title-6-6"
         x="2.5396557"
         y="78.100426"
         style="font-style:normal;font-variant:normal;font-weight:normal;font-stretch:normal;font-size:1.41111px;font-family:'Roboto Condensed';-inkscape-font-specification:'Roboto Condensed, @wght=700';font-variant-ligatures:normal;font-variant-caps:normal;font-variant-numeric:normal;font-variant-east-asian:normal;font-variation-settings:'wght' 700">5</tspan></text>
    <text
       id="text-title-4-03"
       x="2.5331097"
       y="89.281937"
       style="font-style:normal;font-weight:bold;font-size:5.64444px;font-family:'Roboto Condensed';-inkscape-font-specification:'Roboto Condensed, Bold';text-align:center;text-anchor:middle;display:inline;fill:#ff6600;stroke:none"><tspan
         id="tspan-title-6-4"
         x="2.5331097"
         y="89.281937"
         style="font-style:normal;font-variant:normal;font-weight:normal;font-stretch:normal;font-size:1.41111px;font-family:'Roboto Condensed';-inkscape-font-specification:'Roboto Condensed, @wght=700';font-variant-ligatures:normal;font-variant-caps:normal;font-variant-numeric:normal;font-variant-east-asian:normal;font-variation-settings:'wght' 700">6</tspan></text>
    <text
       id="text-title-4-1"
       x="2.5493011"
       y="100.20531"
       style="font-style:normal;font-weight:bold;font-size:5.64444px;font-family:'Roboto Condensed';-inkscape-font-specification:'Roboto Condensed, Bold';text-align:center;text-anchor:middle;display:inline;fill:#ff6600;stroke:none"><tspan
         id="tspan-title-6-8"
         x="2.5493011"
         y="100.20531"
         style="font-style:normal;font-variant:normal;font-weight:normal;font-stretch:normal;font-size:1.41111px;font-family:'Roboto Condensed';-inkscape-font-specification:'Roboto Condensed, @wght=700';font-variant-ligatures:normal;font-variant-caps:normal;font-variant-numeric:normal;font-variant-east-asian:normal;font-variation-settings:'wght' 700">7</tspan></text>
    <text
       id="text-title-4-2"
       x="2.5431013"
       y="111.1354"
       style="font-style:normal;font-weight:bold;font-size:5.64444px;font-family:'Roboto Condensed';-inkscape-font-specification:'Roboto Condensed, Bold';text-align:center;text-anchor:middle;display:inline;fill:#ff6600;stroke:none"><tspan
         id="tspan-title-6-31"
         x="2.5431013"
         y="111.1354"
         style="font-style:normal;font-variant:normal;font-weight:normal;font-stretch:normal;font-size:1.41111px;font-family:'Roboto Condensed';-inkscape-font-specification:'Roboto Condensed, @wght=700';font-variant-ligatures:normal;font-variant-caps:normal;font-variant-numeric:normal;font-variant-east-asian:normal;font-variation-settings:'wght' 700">8</tspan></text>
  </g>
  <g
     inkscape:groupmode="layer"
     id="layer-panel-orange"
     inkscape:label="PanelOrange"
     style="display:inline">
    <path
       id="accent-orange"
       style="fill:none;stroke:#ff6600;stroke-width:0.3;stroke-linecap:round"
       d="M 0.762,124.71525 H 14.478" />
    <path
       style="fill:#100600;fill-opacity:1;stroke:#803300;stroke-width:0.3;stroke-linejoin:round;stroke-dasharray:none;stroke-opacity:1"
       d="m 0.762,8.382 c -1e-8,-0.420841 0.341159,-0.762 0.762,-0.762 h 12.192 c 0.420841,0 0.762,0.341159 0.762,0.762 v 5.84325 H 0.76200008 Z"
       id="path6"
       sodipodi:nodetypes="ssssccs" />
    <path
       id="rect8"
       style="fill:none;stroke:#803300;stroke-width:0.3;stroke-linejoin:round"
       d="m 1.5028339,7.6212501 12.2131661,0 a 0.74193715,0.74193715 44.957371 0 1 0.741936,0.7408331 l 0.01704,11.4511688 A 2.0289784,2.0289784 134.95737 0 1 12.446,21.84525 H 2.8363374 A 2.0743376,2.0743376 45 0 1 0.76199985,19.770912 l 1.4e-7,-11.408828 A 0.74083394,0.74083394 135 0 1 1.5028339,7.6212501 Z"
       sodipodi:nodetypes="ccccc"
       inkscape:path-effect="#path-effect8"
       inkscape:original-d="M 0.762,7.6212501 H 14.456834 L 14.478,21.84525 H 0.76199983 Z" />
    <path
       id="rect8-7"
       style="display:inline;fill:none;stroke:#803300;stroke-width:0.3;stroke-linejoin:round"
       d="m 2.7919419,-61.509087 h 9.6520001 a 2.032047,2.032047 44.999335 0 1 2.032047,2.032 l 0.002,85.788504 a 2.645772,2.645772 134.99933 0 1 -2.645772,2.645833 l -8.4243758,0 A 2.6458936,2.6458936 44.999348 0 1 0.76193957,26.311417 l -0.001951,-85.788504 a 2.0319536,2.0319536 134.99935 0 1 2.03195357,-2.032 z"
       sodipodi:nodetypes="ccccc"
       inkscape:path-effect="#path-effect8-7"
       inkscape:original-d="M 0.75994211,-61.509087 H 14.475942 l 0.0021,90.466337 H 0.76199975 Z"
       transform="translate(0.00205789,91.990337)" />
    <rect
       style="display:inline;opacity:1;fill:#100600;fill-opacity:1;stroke:#803300;stroke-width:0.3;stroke-dasharray:none;stroke-opacity:1"
       id="rect1"
       width="13.716001"
       height="4.5719995"
       x="0.76200002"
       y="35.307251" />
    <rect
       style="display:inline;fill:#100600;fill-opacity:1;stroke:#803300;stroke-width:0.3;stroke-dasharray:none;stroke-opacity:1"
       id="rect1-2"
       width="13.716001"
       height="4.5719995"
       x="0.76200002"
       y="111.76125" />
    <rect
       style="display:inline;fill:#100600;fill-opacity:1;stroke:#803300;stroke-width:0.3;stroke-dasharray:none;stroke-opacity:1"
       id="rect1-2-4"
       width="13.716001"
       height="4.5719995"
       x="0.76200002"
       y="46.229252" />
    <rect
       style="display:inline;fill:#100600;fill-opacity:1;stroke:#803300;stroke-width:0.3;stroke-dasharray:none;stroke-opacity:1"
       id="rect1-2-8"
       width="13.716001"
       height="4.5719995"
       x="0.76200002"
       y="57.151253" />
    <rect
       style="display:inline;fill:#100600;fill-opacity:1;stroke:#803300;stroke-width:0.3;stroke-dasharray:none;stroke-opacity:1"
       id="rect1-2-1"
       width="13.716001"
       height="4.5719995"
       x="0.76200002"
       y="68.07325" />
    <rect
       style="display:inline;fill:#100600;fill-opacity:1;stroke:#803300;stroke-width:0.3;stroke-dasharray:none;stroke-opacity:1"
       id="rect1-2-88"
       width="13.716001"
       height="4.5719995"
       x="0.76200002"
       y="78.995255" />
    <rect
       style="display:inline;fill:#100600;fill-opacity:1;stroke:#803300;stroke-width:0.3;stroke-dasharray:none;stroke-opacity:1"
       id="rect1-2-7"
       width="13.716001"
       height="4.5719995"
       x="0.76200002"
       y="89.917252" />
    <rect
       style="display:inline;fill:#100600;fill-opacity:1;stroke:#803300;stroke-width:0.3;stroke-dasharray:none;stroke-opacity:1"
       id="rect1-2-3"
       width="13.716001"
       height="4.5719995"
       x="0.76200002"
       y="100.83926" />
  </g>
  <g
     inkscape:groupmode="layer"
     id="layer2"
     inkscape:label="MASK"
     style="display:none">
    <path
       style="display:inline;opacity:0.410458;fill:#ff152b;fill-opacity:1;stroke:none;stroke-width:0.3;stroke-opacity:0.980392"
       d="m 0.9103849,35.036577 v 5.08 h 2.54 v 5.842 H 0.9103853 l 0.09095,5.080001 h 2.4490496 v 5.842 H 0.9103853 l -4e-7,5.334 h 2.54 v 5.588 H 0.9103853 l -4e-7,5.334 h 2.54 v 5.588 H 0.9103853 l -4e-7,5.334 h 2.54 v 5.588 h -2.54 v 5.334 h 2.54 v 5.842002 H 0.9103853 l -4e-7,5.08 h 2.54 v 5.842 H 0.9103853 l -4e-7,5.08 H 14.372385 V 35.036577 c -4.313367,7.75e-4 -9.1317812,-0.0032 -13.4620001,0 z"
       id="path38-9"
       sodipodi:nodetypes="ccccccccccccccccccccccccccccccccc" />
  </g>
  <g
     inkscape:groupmode="layer"
     id="layer-controls"
     inkscape:label="Controls"
     style="display:none"
     sodipodi:insensitive="true">
    <text
       xml:space="preserve"
       style="font-style:normal;font-variant:normal;font-weight:normal;font-stretch:normal;font-size:4.49792px;line-height:1.25;font-family:'Repetition Scrolling';-inkscape-font-specification:'Repetition Scrolling, Normal';font-variant-ligatures:normal;font-variant-caps:normal;font-variant-numeric:normal;font-variant-east-asian:normal;text-align:start;letter-spacing:0px;word-spacing:0px;writing-mode:lr-tb;text-anchor:start;display:inline;opacity:0.98;fill:#00dd00;fill-opacity:1;stroke:none;stroke-width:0.264583"
       x="1.41287"
       y="12.449"
       id="text4126-0"
       inkscape:label="DISPLAY"><tspan
         sodipodi:role="line"
         id="tspan4124-6"
         x="1.41287"
         y="12.449"
         style="font-style:normal;font-variant:normal;font-weight:normal;font-stretch:normal;font-size:4.49792px;font-family:'Repetition Scrolling';-inkscape-font-specification:'Repetition Scrolling, Normal';font-variant-ligatures:normal;font-variant-caps:normal;font-variant-numeric:normal;font-variant-east-asian:normal;text-align:start;writing-mode:lr-tb;text-anchor:start;fill:#00dd00;fill-opacity:1;stroke-width:0.264583">_S#R_</tspan></text>
    <g
       id="g35"
       inkscape:label="LEFT"
       transform="translate(1.8242726e-7,1.5812493)">
      <path
         id="rect21"
         style="fill:#100600;fill-opacity:1;stroke:#ff6600;stroke-width:0.3;stroke-linejoin:round;stroke-opacity:1"
         d="m 2.7939998,14.168001 3.5348331,-0.02117 c 0.2922456,-0.0017 0.529167,0.236916 0.529167,0.529167 v 3.556 c 0,0.292251 -0.2369162,0.529167 -0.529167,0.529167 H 2.7728328 c -0.2922508,0 -0.530917,-0.236921 -0.529167,-0.529167 l 0.021167,-3.534833 c 0.00175,-0.292246 0.2369214,-0.527417 0.529167,-0.529167 z"
         inkscape:label="BUTTON_FRAME"
         sodipodi:nodetypes="sssssssss" />
      <text
         xml:space="preserve"
         style="font-style:normal;font-variant:normal;font-weight:normal;font-stretch:normal;font-size:4.49792px;line-height:1.25;font-family:'Repetition Scrolling';-inkscape-font-specification:'Repetition Scrolling, Normal';text-align:center;letter-spacing:0px;word-spacing:0px;writing-mode:lr-tb;text-anchor:middle;display:inline;opacity:0.98;fill:#ff6600;fill-opacity:1;stroke:none;stroke-width:0.264583"
         x="4.7131114"
         y="17.41638"
         id="text4126-0-7"
         inkscape:label="BUTTON_TEXT"><tspan
           sodipodi:role="line"
           id="tspan4124-6-9"
           x="4.7131114"
           y="17.41638"
           style="font-style:normal;font-variant:normal;font-weight:normal;font-stretch:normal;font-size:2.82222px;font-family:'Repetition Scrolling';-inkscape-font-specification:'Repetition Scrolling, Normal';text-align:center;writing-mode:lr-tb;text-anchor:middle;fill:#ff6600;fill-opacity:1;stroke-width:0.264583">&lt;</tspan></text>
    </g>
    <g
       id="g36"
       inkscape:label="RIGHT"
       transform="translate(1.8242726e-7,1.5812493)">
      <path
         id="rect21-8"
         style="display:inline;fill:#100600;fill-opacity:1;stroke:#ff6600;stroke-width:0.3;stroke-linejoin:round;stroke-opacity:1"
         d="m 2.2859999,14.168001 3.534833,-0.02117 c 0.2922456,-0.0017 0.529167,0.236916 0.529167,0.529167 v 3.556 c 0,0.292251 -0.2369214,0.530917 -0.529167,0.529167 l -3.534833,-0.02117 c -0.2922457,-0.0017 -0.529167,-0.236916 -0.529167,-0.529167 v -3.513666 c 0,-0.292251 0.2369213,-0.527417 0.529167,-0.529167 z"
         transform="translate(6.604)"
         inkscape:label="BUTTON_FRAME"
         sodipodi:nodetypes="sssssssss" />
      <text
         xml:space="preserve"
         style="font-style:normal;font-variant:normal;font-weight:normal;font-stretch:normal;font-size:4.49792px;line-height:1.25;font-family:'Repetition Scrolling';-inkscape-font-specification:'Repetition Scrolling, Normal';text-align:center;letter-spacing:0px;word-spacing:0px;writing-mode:lr-tb;text-anchor:middle;display:inline;opacity:0.98;fill:#ff6600;fill-opacity:1;stroke:none;stroke-width:0.264583"
         x="10.526888"
         y="17.416378"
         id="text4126-0-7-7"
         inkscape:label="BUTTON_TEXT"><tspan
           sodipodi:role="line"
           id="tspan4124-6-9-3"
           x="10.526888"
           y="17.416378"
           style="font-style:normal;font-variant:normal;font-weight:normal;font-stretch:normal;font-size:2.82222px;font-family:'Repetition Scrolling';-inkscape-font-specification:'Repetition Scrolling, Normal';text-align:center;writing-mode:lr-tb;text-anchor:middle;fill:#ff6600;fill-opacity:1;stroke-width:0.264583">&gt;</tspan></text>
    </g>
    <text
       xml:space="preserve"
       style="font-style:normal;font-variant:normal;font-weight:normal;font-stretch:normal;font-size:4.49792px;line-height:1.25;font-family:'Repetition Scrolling';-inkscape-font-specification:'Repetition Scrolling, Normal';font-variant-ligatures:normal;font-variant-caps:normal;font-variant-numeric:normal;font-variant-east-asian:normal;text-align:start;letter-spacing:0px;word-spacing:0px;writing-mode:lr-tb;text-anchor:start;display:inline;opacity:0.98;fill:#ff6600;fill-opacity:1;stroke:none;stroke-width:0.264583"
       x="1.4145926"
       y="38.873039"
       id="text4126-0-4-28"
       inkscape:label="DISPLAY"><tspan
         sodipodi:role="line"
         id="tspan4124-6-0-25"
         x="1.4145926"
         y="38.873039"
         style="font-style:normal;font-variant:normal;font-weight:normal;font-stretch:normal;font-size:4.49792px;font-family:'Repetition Scrolling';-inkscape-font-specification:'Repetition Scrolling, Normal';font-variant-ligatures:normal;font-variant-caps:normal;font-variant-numeric:normal;font-variant-east-asian:normal;text-align:start;writing-mode:lr-tb;text-anchor:start;fill:#ff6600;fill-opacity:1;stroke-width:0.264583">0.005</tspan></text>
    <text
       xml:space="preserve"
       style="font-style:normal;font-variant:normal;font-weight:normal;font-stretch:normal;font-size:4.49792px;line-height:1.25;font-family:'Repetition Scrolling';-inkscape-font-specification:'Repetition Scrolling, Normal';font-variant-ligatures:normal;font-variant-caps:normal;font-variant-numeric:normal;font-variant-east-asian:normal;text-align:start;letter-spacing:0px;word-spacing:0px;writing-mode:lr-tb;text-anchor:start;display:inline;opacity:0.98;fill:#ff6600;fill-opacity:1;stroke:none;stroke-width:0.264583"
       x="1.4145926"
       y="115.57125"
       id="text4126-0-4-28-6"
       inkscape:label="DISPLAY"><tspan
         sodipodi:role="line"
         id="tspan4124-6-0-25-4"
         x="1.4145926"
         y="115.57125"
         style="font-style:normal;font-variant:normal;font-weight:normal;font-stretch:normal;font-size:4.49792px;font-family:'Repetition Scrolling';-inkscape-font-specification:'Repetition Scrolling, Normal';font-variant-ligatures:normal;font-variant-caps:normal;font-variant-numeric:normal;font-variant-east-asian:normal;text-align:start;writing-mode:lr-tb;text-anchor:start;fill:#ff6600;fill-opacity:1;stroke-width:0.264583">0.005</tspan></text>
    <text
       xml:space="preserve"
       style="font-style:normal;font-variant:normal;font-weight:normal;font-stretch:normal;font-size:4.49792px;line-height:1.25;font-family:'Repetition Scrolling';-inkscape-font-specification:'Repetition Scrolling, Normal';font-variant-ligatures:normal;font-variant-caps:normal;font-variant-numeric:normal;font-variant-east-asian:normal;text-align:start;letter-spacing:0px;word-spacing:0px;writing-mode:lr-tb;text-anchor:start;display:inline;opacity:0.98;fill:#ff6600;fill-opacity:1;stroke:none;stroke-width:0.264583"
       x="1.4145926"
       y="104.61436"
       id="text4126-0-4-28-6-6"
       inkscape:label="DISPLAY"><tspan
         sodipodi:role="line"
         id="tspan4124-6-0-25-4-8"
         x="1.4145926"
         y="104.61436"
         style="font-style:normal;font-variant:normal;font-weight:normal;font-stretch:normal;font-size:4.49792px;font-family:'Repetition Scrolling';-inkscape-font-specification:'Repetition Scrolling, Normal';font-variant-ligatures:normal;font-variant-caps:normal;font-variant-numeric:normal;font-variant-east-asian:normal;text-align:start;writing-mode:lr-tb;text-anchor:start;fill:#ff6600;fill-opacity:1;stroke-width:0.264583">0.005</tspan></text>
    <text
       xml:space="preserve"
       style="font-style:normal;font-variant:normal;font-weight:normal;font-stretch:normal;font-size:4.49792px;line-height:1.25;font-family:'Repetition Scrolling';-inkscape-font-specification:'Repetition Scrolling, Normal';font-variant-ligatures:normal;font-variant-caps:normal;font-variant-numeric:normal;font-variant-east-asian:normal;text-align:start;letter-spacing:0px;word-spacing:0px;writing-mode:lr-tb;text-anchor:start;display:inline;opacity:0.98;fill:#ff6600;fill-opacity:1;stroke:none;stroke-width:0.264583"
       x="1.4145926"
       y="93.657478"
       id="text4126-0-4-28-6-8"
       inkscape:label="DISPLAY"><tspan
         sodipodi:role="line"
         id="tspan4124-6-0-25-4-4"
         x="1.4145926"
         y="93.657478"
         style="font-style:normal;font-variant:normal;font-weight:normal;font-stretch:normal;font-size:4.49792px;font-family:'Repetition Scrolling';-inkscape-font-specification:'Repetition Scrolling, Normal';font-variant-ligatures:normal;font-variant-caps:normal;font-variant-numeric:normal;font-variant-east-asian:normal;text-align:start;writing-mode:lr-tb;text-anchor:start;fill:#ff6600;fill-opacity:1;stroke-width:0.264583">0.005</tspan></text>
    <text
       xml:space="preserve"
       style="font-style:normal;font-variant:normal;font-weight:normal;font-stretch:normal;font-size:4.49792px;line-height:1.25;font-family:'Repetition Scrolling';-inkscape-font-specification:'Repetition Scrolling, Normal';font-variant-ligatures:normal;font-variant-caps:normal;font-variant-numeric:normal;font-variant-east-asian:normal;text-align:start;letter-spacing:0px;word-spacing:0px;writing-mode:lr-tb;text-anchor:start;display:inline;opacity:0.98;fill:#ff6600;fill-opacity:1;stroke:none;stroke-width:0.264583"
       x="1.4145926"
       y="82.700592"
       id="text4126-0-4-28-6-7"
       inkscape:label="DISPLAY"><tspan
         sodipodi:role="line"
         id="tspan4124-6-0-25-4-0"
         x="1.4145926"
         y="82.700592"
         style="font-style:normal;font-variant:normal;font-weight:normal;font-stretch:normal;font-size:4.49792px;font-family:'Repetition Scrolling';-inkscape-font-specification:'Repetition Scrolling, Normal';font-variant-ligatures:normal;font-variant-caps:normal;font-variant-numeric:normal;font-variant-east-asian:normal;text-align:start;writing-mode:lr-tb;text-anchor:start;fill:#ff6600;fill-opacity:1;stroke-width:0.264583">0.005</tspan></text>
    <text
       xml:space="preserve"
       style="font-style:normal;font-variant:normal;font-weight:normal;font-stretch:normal;font-size:4.49792px;line-height:1.25;font-family:'Repetition Scrolling';-inkscape-font-specification:'Repetition Scrolling, Normal';font-variant-ligatures:normal;font-variant-caps:normal;font-variant-numeric:normal;font-variant-east-asian:normal;text-align:start;letter-spacing:0px;word-spacing:0px;writing-mode:lr-tb;text-anchor:start;display:inline;opacity:0.98;fill:#ff6600;fill-opacity:1;stroke:none;stroke-width:0.264583"
       x="1.4145926"
       y="71.743698"
       id="text4126-0-4-28-6-0"
       inkscape:label="DISPLAY"><tspan
         sodipodi:role="line"
         id="tspan4124-6-0-25-4-5"
         x="1.4145926"
         y="71.743698"
         style="font-style:normal;font-variant:normal;font-weight:normal;font-stretch:normal;font-size:4.49792px;font-family:'Repetition Scrolling';-inkscape-font-specification:'Repetition Scrolling, Normal';font-variant-ligatures:normal;font-variant-caps:normal;font-variant-numeric:normal;font-variant-east-asian:normal;text-align:start;writing-mode:lr-tb;text-anchor:start;fill:#ff6600;fill-opacity:1;stroke-width:0.264583">0.005</tspan></text>
    <text
       xml:space="preserve"
       style="font-style:normal;font-variant:normal;font-weight:normal;font-stretch:normal;font-size:4.49792px;line-height:1.25;font-family:'Repetition Scrolling';-inkscape-font-specification:'Repetition Scrolling, Normal';font-variant-ligatures:normal;font-variant-caps:normal;font-variant-numeric:normal;font-variant-east-asian:normal;text-align:start;letter-spacing:0px;word-spacing:0px;writing-mode:lr-tb;text-anchor:start;display:inline;opacity:0.98;fill:#ff6600;fill-opacity:1;stroke:none;stroke-width:0.264583"
       x="1.4145926"
       y="60.786816"
       id="text4126-0-4-28-6-84"
       inkscape:label="DISPLAY"><tspan
         sodipodi:role="line"
         id="tspan4124-6-0-25-4-9"
         x="1.4145926"
         y="60.786816"
         style="font-style:normal;font-variant:normal;font-weight:normal;font-stretch:normal;font-size:4.49792px;font-family:'Repetition Scrolling';-inkscape-font-specification:'Repetition Scrolling, Normal';font-variant-ligatures:normal;font-variant-caps:normal;font-variant-numeric:normal;font-variant-east-asian:normal;text-align:start;writing-mode:lr-tb;text-anchor:start;fill:#ff6600;fill-opacity:1;stroke-width:0.264583">0.005</tspan></text>
    <text
       xml:space="preserve"
       style="font-style:normal;font-variant:normal;font-weight:normal;font-stretch:normal;font-size:4.49792px;line-height:1.25;font-family:'Repetition Scrolling';-inkscape-font-specification:'Repetition Scrolling, Normal';font-variant-ligatures:normal;font-variant-caps:normal;font-variant-numeric:normal;font-variant-east-asian:normal;text-align:start;letter-spacing:0px;word-spacing:0px;writing-mode:lr-tb;text-anchor:start;display:inline;opacity:0.98;fill:#ff6600;fill-opacity:1;stroke:none;stroke-width:0.264583"
       x="1.4145926"
       y="49.829926"
       id="text4126-0-4-28-6-77"
       inkscape:label="DISPLAY"><tspan
         sodipodi:role="line"
         id="tspan4124-6-0-25-4-45"
         x="1.4145926"
         y="49.829926"
         style="font-style:normal;font-variant:normal;font-weight:normal;font-stretch:normal;font-size:4.49792px;font-family:'Repetition Scrolling';-inkscape-font-specification:'Repetition Scrolling, Normal';font-variant-ligatures:normal;font-variant-caps:normal;font-variant-numeric:normal;font-variant-east-asian:normal;text-align:start;writing-mode:lr-tb;text-anchor:start;fill:#ff6600;fill-opacity:1;stroke-width:0.264583">0.005</tspan></text>
  </g>
</svg>
