<?xml version="1.0" encoding="UTF-8" standalone="no"?>
<svg
   width="30.48mm"
   height="128.5mm"
   viewBox="0 0 30.48 128.5"
   version="1.1"
   id="svg_root"
   sodipodi:docname="XOD8Work.svg"
   inkscape:version="1.4.4 (dcaf3e7, 2026-05-05)"
   xmlns:inkscape="http://www.inkscape.org/namespaces/inkscape"
   xmlns:sodipodi="http://sodipodi.sourceforge.net/DTD/sodipodi-0.dtd"
   xmlns="http://www.w3.org/2000/svg"
   xmlns:svg="http://www.w3.org/2000/svg">
  <defs
     id="defs1">
    <inkscape:path-effect
       effect="fillet_chamfer"
       id="path-effect5"
       is_visible="true"
       lpeversion="1"
       nodesatellites_param="F,0,0,1,0,0.77258302,0,1 @ F,0,1,1,0,0.77258302,0,1 @ F,0,1,1,0,0.77258302,0,1 @ F,0,1,1,0,0.77258302,0,1"
       radius="2"
       unit="px"
       method="auto"
       mode="F"
       chamfer_steps="1"
       flexible="false"
       use_knot_distance="true"
       apply_no_radius="true"
       apply_with_radius="true"
       only_selected="false"
       hide_knots="false" />
    <inkscape:path-effect
       effect="fillet_chamfer"
       id="path-effect8"
       is_visible="true"
       lpeversion="1"
       nodesatellites_param="F,0,0,1,0,0.74083393,0,1 @ F,0,0,1,0,0.74083393,0,1 @ F,0,0,1,0,2.0319999,0,1 @ F,0,0,1,0,2.0743376,0,1"
       radius="12"
       unit="px"
       method="auto"
       mode="F"
       chamfer_steps="1"
       flexible="false"
       use_knot_distance="true"
       apply_no_radius="true"
       apply_with_radius="true"
       only_selected="true"
       hide_knots="false" />
    <inkscape:path-effect
       effect="fillet_chamfer"
       id="path-effect23"
       is_visible="true"
       lpeversion="1"
       nodesatellites_param="F,0,0,1,0,0.50800017,0,1 @ F,0,1,1,0,0.50800017,0,1 @ F,0,1,1,0,0.50800017,0,1 @ F,0,1,1,0,0.50800017,0,1"
       radius="2"
       unit="px"
       method="auto"
       mode="F"
       chamfer_steps="1"
       flexible="false"
       use_knot_distance="true"
       apply_no_radius="true"
       apply_with_radius="true"
       only_selected="false"
       hide_knots="false" />
    <inkscape:path-effect
       effect="fillet_chamfer"
       id="path-effect23-8"
       is_visible="true"
       lpeversion="1"
       nodesatellites_param="F,0,1,1,0,0.50799979,0,1 @ F,0,1,1,0,0.50799979,0,1 @ F,0,0,1,0,0.50799979,0,1 @ F,0,1,1,0,0.50799979,0,1"
       radius="2"
       unit="px"
       method="auto"
       mode="F"
       chamfer_steps="1"
       flexible="false"
       use_knot_distance="true"
       apply_no_radius="true"
       apply_with_radius="true"
       only_selected="false"
       hide_knots="false" />
    <inkscape:path-effect
       effect="fillet_chamfer"
       id="path-effect-engage"
       is_visible="true"
       lpeversion="1"
       nodesatellites_param="F,0,0,1,0,0.52916668,0,1 @ F,0,0,1,0,0.52916668,0,1 @ F,0,0,1,0,0.52916668,0,1 @ F,0,0,1,0,0.52916668,0,1"
       radius="2"
       unit="px"
       method="auto"
       mode="F"
       chamfer_steps="1"
       flexible="false"
       use_knot_distance="true"
       apply_no_radius="true"
       apply_with_radius="true"
       only_selected="false"
       hide_knots="false" />
    <inkscape:path-effect
       effect="fillet_chamfer"
       id="path-effect8-7"
       is_visible="true"
       lpeversion="1"
       nodesatellites_param="F,0,1,1,0,2.0319998,0,1 @ F,0,0,1,0,2.0319998,0,1 @ F,0,0,1,0,2.6458334,0,1 @ F,0,0,1,0,2.6458334,0,1"
       radius="10"
       unit="px"
       method="auto"
       mode="F"
       chamfer_steps="1"
       flexible="false"
       use_knot_distance="true"
       apply_no_radius="true"
       apply_with_radius="true"
       only_selected="false"
       hide_knots="false" />
    <inkscape:path-effect
       effect="fillet_chamfer"
       id="path-effect5-7"
       is_visible="true"
       lpeversion="1"
       nodesatellites_param="F,0,0,1,0,0.77258302,0,1 @ F,0,1,1,0,0.77258302,0,1 @ F,0,1,1,0,0.77258302,0,1 @ F,0,1,1,0,0.77258302,0,1"
       radius="2"
       unit="px"
       method="auto"
       mode="F"
       chamfer_steps="1"
       flexible="false"
       use_knot_distance="true"
       apply_no_radius="true"
       apply_with_radius="true"
       only_selected="false"
       hide_knots="false" />
    <inkscape:path-effect
       effect="fillet_chamfer"
       id="path-effect5-0"
       is_visible="true"
       lpeversion="1"
       nodesatellites_param="F,0,0,1,0,0.77258302,0,1 @ F,0,1,1,0,0.77258302,0,1 @ F,0,1,1,0,0.77258302,0,1 @ F,0,1,1,0,0.77258302,0,1"
       radius="2"
       unit="px"
       method="auto"
       mode="F"
       chamfer_steps="1"
       flexible="false"
       use_knot_distance="true"
       apply_no_radius="true"
       apply_with_radius="true"
       only_selected="false"
       hide_knots="false" />
    <inkscape:path-effect
       effect="fillet_chamfer"
       id="path-effect5-08"
       is_visible="true"
       lpeversion="1"
       nodesatellites_param="F,0,0,1,0,0.77258302,0,1 @ F,0,1,1,0,0.77258302,0,1 @ F,0,1,1,0,0.77258302,0,1 @ F,0,1,1,0,0.77258302,0,1"
       radius="2"
       unit="px"
       method="auto"
       mode="F"
       chamfer_steps="1"
       flexible="false"
       use_knot_distance="true"
       apply_no_radius="true"
       apply_with_radius="true"
       only_selected="false"
       hide_knots="false" />
    <inkscape:path-effect
       effect="fillet_chamfer"
       id="path-effect5-6"
       is_visible="true"
       lpeversion="1"
       nodesatellites_param="F,0,0,1,0,0.77258302,0,1 @ F,0,1,1,0,0.77258302,0,1 @ F,0,1,1,0,0.77258302,0,1 @ F,0,1,1,0,0.77258302,0,1"
       radius="2"
       unit="px"
       method="auto"
       mode="F"
       chamfer_steps="1"
       flexible="false"
       use_knot_distance="true"
       apply_no_radius="true"
       apply_with_radius="true"
       only_selected="false"
       hide_knots="false" />
    <inkscape:path-effect
       effect="fillet_chamfer"
       id="path-effect5-4"
       is_visible="true"
       lpeversion="1"
       nodesatellites_param="F,0,0,1,0,0.77258302,0,1 @ F,0,1,1,0,0.77258302,0,1 @ F,0,1,1,0,0.77258302,0,1 @ F,0,1,1,0,0.77258302,0,1"
       radius="2"
       unit="px"
       method="auto"
       mode="F"
       chamfer_steps="1"
       flexible="false"
       use_knot_distance="true"
       apply_no_radius="true"
       apply_with_radius="true"
       only_selected="false"
       hide_knots="false" />
    <inkscape:path-effect
       effect="fillet_chamfer"
       id="path-effect5-63"
       is_visible="true"
       lpeversion="1"
       nodesatellites_param="F,0,0,1,0,0.77258302,0,1 @ F,0,1,1,0,0.77258302,0,1 @ F,0,1,1,0,0.77258302,0,1 @ F,0,1,1,0,0.77258302,0,1"
       radius="2"
       unit="px"
       method="auto"
       mode="F"
       chamfer_steps="1"
       flexible="false"
       use_knot_distance="true"
       apply_no_radius="true"
       apply_with_radius="true"
       only_selected="false"
       hide_knots="false" />
    <inkscape:path-effect
       effect="fillet_chamfer"
       id="path-effect5-9"
       is_visible="true"
       lpeversion="1"
       nodesatellites_param="F,0,0,1,0,0.77258302,0,1 @ F,0,1,1,0,0.77258302,0,1 @ F,0,1,1,0,0.77258302,0,1 @ F,0,1,1,0,0.77258302,0,1"
       radius="2"
       unit="px"
       method="auto"
       mode="F"
       chamfer_steps="1"
       flexible="false"
       use_knot_distance="true"
       apply_no_radius="true"
       apply_with_radius="true"
       only_selected="false"
       hide_knots="false" />
  </defs>
  <sodipodi:namedview
     id="namedview1"
     pagecolor="#ffffff"
     bordercolor="#000000"
     borderopacity="0.25"
     inkscape:showpageshadow="2"
     inkscape:pageopacity="0.0"
     inkscape:pagecheckerboard="0"
     inkscape:document-units="mm"
     inkscape:deskcolor="#d1d1d1"
     showguides="true"
     showgrid="false"
     inkscape:zoom="2.4975843"
     inkscape:cx="57.455518"
     inkscape:cy="242.83465"
     inkscape:window-width="2560"
     inkscape:window-height="1494"
     inkscape:window-x="-11"
     inkscape:window-y="-11"
     inkscape:window-maximized="1"
     inkscape:current-layer="layer-panel-bright">
    <inkscape:grid
       type="xygrid"
       id="grid1"
       originx="0"
       originy="-0.252750"
       spacingx="0.254000"
       spacingy="0.254000"
       units="mm"
       visible="false" />
  </sodipodi:namedview>
  <g
     inkscape:groupmode="layer"
     id="layer-bg-bright"
     inkscape:label="BackgroundBright"
     style="display:none"
     sodipodi:insensitive="true">
    <path
       id="bg-bright"
       style="fill:#e6e6e6;fill-opacity:1;stroke:none"
       d="M 0,0 H 30.48 V 128.5 H 0 Z" />
  </g>
  <g
     inkscape:groupmode="layer"
     id="layer-panel-bright"
     inkscape:label="PanelBright"
     style="display:none"
     sodipodi:insensitive="true">
    <path
       id="accent-orange-bright"
       style="fill:none;stroke:#ff6600;stroke-width:0.3;stroke-linecap:round"
       d="M 0.762,124.71525 H 29.718" />
    <path
       style="fill:#15152b;fill-opacity:1;stroke:#606080;stroke-width:0.3;stroke-linejoin:round;stroke-dasharray:none;stroke-opacity:1"
       d="m 0.762,8.382 c -1e-8,-0.420841 0.341159,-0.762 0.762,-0.762 h 27.432 c 0.420841,0 0.762,0.341159 0.762,0.762 v 5.84325 H 0.76200008 Z"
       id="path6-bright"
       sodipodi:nodetypes="ssssccs" />
    <path
       id="rect8-bright"
       style="fill:none;stroke:#606080;stroke-width:0.3;stroke-linejoin:round;stroke-opacity:0.98"
       d="M 1.5028339,7.6212501 H 28.956 a 0.74193716,0.74193716 44.95737 0 1 0.741936,0.7408331 l 0.01704,11.4511698 A 2.0289784,2.0289784 134.95737 0 1 27.686,21.84525 H 2.8363375 A 2.0743376,2.0743376 45 0 1 0.76199992,19.770913 L 0.762,8.362084 A 0.74083393,0.74083393 135 0 1 1.5028339,7.6212501 Z"
       sodipodi:nodetypes="ccccc"
       inkscape:path-effect="#path-effect8"
       inkscape:original-d="M 0.762,7.6212501 H 29.696834 L 29.718,21.84525 H 0.76199991 Z" />
    <path
       id="rect8-7-bright"
       style="display:inline;fill:none;stroke:#606080;stroke-width:0.3;stroke-linejoin:round;stroke-opacity:0.98"
       d="m 2.813108,-61.509087 h 24.870834 a 2.032046,2.032046 44.999348 0 1 2.032046,2.032 l 0.002,85.788504 A 2.6457732,2.6457732 134.99935 0 1 27.072167,28.95725 H 3.4078332 A 2.6452746,2.6452746 45.006051 0 1 0.76255861,26.311417 l 0.0181204,-85.788504 a 2.032429,2.032429 135.00605 0 1 2.03242899,-2.032 z"
       sodipodi:nodetypes="ccccc"
       inkscape:path-effect="#path-effect8-7"
       inkscape:original-d="M 0.78110819,-61.509087 H 29.715942 L 29.718,28.95725 H 0.76199975 Z"
       transform="translate(0.00205789,91.990337)" />
    <path
       id="rect5-bright"
       style="display:inline;fill:#15152b;fill-opacity:1;stroke:#606080;stroke-width:0.3;stroke-linejoin:round;stroke-opacity:0.98"
       d="m -33.009417,35.05325 h 12.170834 a 0.77258302,0.77258302 45 0 1 0.772583,0.772583 v 3.026834 a 0.77258302,0.77258302 135 0 1 -0.772583,0.772583 H -33.009417 A 0.77258302,0.77258302 45 0 1 -33.782,38.852667 v -3.026834 a 0.77258302,0.77258302 135 0 1 0.772583,-0.772583 z"
       inkscape:path-effect="#path-effect5"
       inkscape:original-d="m -33.782,35.05325 h 13.716 v 4.572 h -13.716 z"
       transform="translate(48.26)"
       sodipodi:nodetypes="ccccc" />
    <path
       style="display:inline;fill:#15152b;fill-opacity:1;stroke:#606080;stroke-width:0.3;stroke-linejoin:round;stroke-opacity:0.98"
       d="m 7.62,37.33925 h 6.858"
       id="path7-bright"
       sodipodi:nodetypes="cc" />
    <path
       id="rect5-1-bright"
       style="display:inline;fill:#15152b;fill-opacity:1;stroke:#606080;stroke-width:0.3;stroke-linejoin:round;stroke-opacity:0.98"
       d="m -33.009417,35.05325 h 12.170834 a 0.77258302,0.77258302 45 0 1 0.772583,0.772583 v 3.026834 a 0.77258302,0.77258302 135 0 1 -0.772583,0.772583 H -33.009417 A 0.77258302,0.77258302 45 0 1 -33.782,38.852667 v -3.026834 a 0.77258302,0.77258302 135 0 1 0.772583,-0.772583 z"
       inkscape:path-effect="#path-effect5-7"
       inkscape:original-d="m -33.782,35.05325 h 13.716 v 4.572 h -13.716 z"
       transform="translate(48.26,76.708)"
       sodipodi:nodetypes="ccccc" />
    <path
       style="display:inline;fill:#15152b;fill-opacity:1;stroke:#606080;stroke-width:0.3;stroke-linejoin:round;stroke-opacity:0.98"
       d="m 7.620001,114.04725 h 6.858"
       id="path7-0-bright"
       sodipodi:nodetypes="cc" />
    <path
       id="rect5-6-bright"
       style="display:inline;fill:#15152b;fill-opacity:1;stroke:#606080;stroke-width:0.3;stroke-linejoin:round;stroke-opacity:0.98"
       d="m -33.009417,35.05325 h 12.170834 a 0.77258302,0.77258302 45 0 1 0.772583,0.772583 v 3.026834 a 0.77258302,0.77258302 135 0 1 -0.772583,0.772583 H -33.009417 A 0.77258302,0.77258302 45 0 1 -33.782,38.852667 v -3.026834 a 0.77258302,0.77258302 135 0 1 0.772583,-0.772583 z"
       inkscape:path-effect="#path-effect5-0"
       inkscape:original-d="m -33.782,35.05325 h 13.716 v 4.572 h -13.716 z"
       transform="translate(48.26,10.911417)"
       sodipodi:nodetypes="ccccc" />
    <path
       style="display:inline;fill:#15152b;fill-opacity:1;stroke:#606080;stroke-width:0.3;stroke-linejoin:round;stroke-opacity:0.98"
       d="m 7.62,48.250667 h 6.858"
       id="path7-4-bright"
       sodipodi:nodetypes="cc" />
    <path
       id="rect5-7-bright"
       style="display:inline;fill:#15152b;fill-opacity:1;stroke:#606080;stroke-width:0.3;stroke-linejoin:round;stroke-opacity:0.98"
       d="m -33.009417,35.05325 h 12.170834 a 0.77258302,0.77258302 45 0 1 0.772583,0.772583 v 3.026834 a 0.77258302,0.77258302 135 0 1 -0.772583,0.772583 H -33.009417 A 0.77258302,0.77258302 45 0 1 -33.782,38.852667 v -3.026834 a 0.77258302,0.77258302 135 0 1 0.772583,-0.772583 z"
       inkscape:path-effect="#path-effect5-08"
       inkscape:original-d="m -33.782,35.05325 h 13.716 v 4.572 h -13.716 z"
       transform="translate(48.26,21.844001)"
       sodipodi:nodetypes="ccccc" />
    <path
       style="display:inline;fill:#15152b;fill-opacity:1;stroke:#606080;stroke-width:0.3;stroke-linejoin:round;stroke-opacity:0.98"
       d="m 7.62,59.183251 h 6.858"
       id="path7-9-bright"
       sodipodi:nodetypes="cc" />
    <path
       id="rect5-0-bright"
       style="display:inline;fill:#15152b;fill-opacity:1;stroke:#606080;stroke-width:0.3;stroke-linejoin:round;stroke-opacity:0.98"
       d="m -33.009417,35.05325 h 12.170834 a 0.77258302,0.77258302 45 0 1 0.772583,0.772583 v 3.026834 a 0.77258302,0.77258302 135 0 1 -0.772583,0.772583 H -33.009417 A 0.77258302,0.77258302 45 0 1 -33.782,38.852667 v -3.026834 a 0.77258302,0.77258302 135 0 1 0.772583,-0.772583 z"
       inkscape:path-effect="#path-effect5-6"
       inkscape:original-d="m -33.782,35.05325 h 13.716 v 4.572 h -13.716 z"
       transform="translate(48.26,32.766001)"
       sodipodi:nodetypes="ccccc" />
    <path
       style="display:inline;fill:#15152b;fill-opacity:1;stroke:#606080;stroke-width:0.3;stroke-linejoin:round;stroke-opacity:0.98"
       d="m 7.62,70.105251 h 6.858"
       id="path7-3-bright"
       sodipodi:nodetypes="cc" />
    <path
       id="rect5-69-bright"
       style="display:inline;fill:#15152b;fill-opacity:1;stroke:#606080;stroke-width:0.3;stroke-linejoin:round;stroke-opacity:0.98"
       d="m -33.009417,35.05325 h 12.170834 a 0.77258302,0.77258302 45 0 1 0.772583,0.772583 v 3.026834 a 0.77258302,0.77258302 135 0 1 -0.772583,0.772583 H -33.009417 A 0.77258302,0.77258302 45 0 1 -33.782,38.852667 v -3.026834 a 0.77258302,0.77258302 135 0 1 0.772583,-0.772583 z"
       inkscape:path-effect="#path-effect5-4"
       inkscape:original-d="m -33.782,35.05325 h 13.716 v 4.572 h -13.716 z"
       transform="translate(48.26,43.942001)"
       sodipodi:nodetypes="ccccc" />
    <path
       style="display:inline;fill:#15152b;fill-opacity:1;stroke:#606080;stroke-width:0.3;stroke-linejoin:round;stroke-opacity:0.98"
       d="m 7.62,81.281251 h 6.858"
       id="path7-1-bright"
       sodipodi:nodetypes="cc" />
    <path
       id="rect5-9-bright"
       style="display:inline;fill:#15152b;fill-opacity:1;stroke:#606080;stroke-width:0.3;stroke-linejoin:round;stroke-opacity:0.98"
       d="m -33.009417,35.05325 h 12.170834 a 0.77258302,0.77258302 45 0 1 0.772583,0.772583 v 3.026834 a 0.77258302,0.77258302 135 0 1 -0.772583,0.772583 H -33.009417 A 0.77258302,0.77258302 45 0 1 -33.782,38.852667 v -3.026834 a 0.77258302,0.77258302 135 0 1 0.772583,-0.772583 z"
       inkscape:path-effect="#path-effect5-63"
       inkscape:original-d="m -33.782,35.05325 h 13.716 v 4.572 h -13.716 z"
       transform="translate(48.26,54.773591)"
       sodipodi:nodetypes="ccccc" />
    <path
       style="display:inline;fill:#15152b;fill-opacity:1;stroke:#606080;stroke-width:0.3;stroke-linejoin:round;stroke-opacity:0.98"
       d="m 7.62,92.112841 h 6.858"
       id="path7-10-bright"
       sodipodi:nodetypes="cc" />
    <path
       id="rect5-8-bright"
       style="display:inline;fill:#15152b;fill-opacity:1;stroke:#606080;stroke-width:0.3;stroke-linejoin:round;stroke-opacity:0.98"
       d="m -33.009417,35.05325 h 12.170834 a 0.77258302,0.77258302 45 0 1 0.772583,0.772583 v 3.026834 a 0.77258302,0.77258302 135 0 1 -0.772583,0.772583 H -33.009417 A 0.77258302,0.77258302 45 0 1 -33.782,38.852667 v -3.026834 a 0.77258302,0.77258302 135 0 1 0.772583,-0.772583 z"
       inkscape:path-effect="#path-effect5-9"
       inkscape:original-d="m -33.782,35.05325 h 13.716 v 4.572 h -13.716 z"
       transform="translate(48.26,65.786004)"
       sodipodi:nodetypes="ccccc" />
    <path
       style="display:inline;fill:#15152b;fill-opacity:1;stroke:#606080;stroke-width:0.3;stroke-linejoin:round;stroke-opacity:0.98"
       d="m 7.62,103.12525 h 6.858"
       id="path7-93-bright"
       sodipodi:nodetypes="cc" />
  </g>
  <g
     inkscape:groupmode="layer"
     id="layer-text-bright"
     inkscape:label="TextBright"
     style="display:none"
     sodipodi:insensitive="true">
    <path
       id="text-title-bright"
       style="fill:#15152b;fill-rule:nonzero;stroke:none"
       d="m 10.514711,3.1815592 0.54019,-1.3780371 h 0.928797 l -0.942577,1.9898856 0.964626,2.0229585 H 11.065926 L 10.514711,4.4135244 9.966252,5.8163662 H 9.0264307 L 9.9910567,3.7934077 9.0457232,1.8035221 h 0.928797 z m 4.726667,0.9894307 q 0,0.8075297 -0.381716,1.2540138 -0.381717,0.446484 -1.059711,0.446484 -0.675238,0 -1.061088,-0.4423499 Q 12.353012,4.9867879 12.3475,4.1902824 V 3.5040199 q 0,-0.8268222 0.383094,-1.2912207 0.383095,-0.4643985 1.063845,-0.4643985 0.669726,0 1.055576,0.4561302 0.385851,0.4561303 0.391363,1.2801965 z M 14.428336,3.4985078 q 0,-0.5429466 -0.15434,-0.8075298 -0.15434,-0.2645831 -0.479557,-0.2645831 -0.322461,0 -0.476801,0.2549369 -0.15434,0.2549368 -0.159852,0.7758349 v 0.7138232 q 0,0.5264102 0.157096,0.7758349 0.157096,0.2494247 0.485069,0.2494247 0.316949,0 0.471289,-0.2439126 0.15434,-0.2439125 0.157096,-0.7565423 z M 15.82291,5.8163662 V 1.8035221 h 1.061088 q 0.702799,0 1.120344,0.4464841 0.417546,0.446484 0.425814,1.2236969 v 0.6504335 q 0,0.7909933 -0.417545,1.2416115 -0.417546,0.4506181 -1.150661,0.4506181 z m 0.810286,-3.3376059 v 2.6651238 h 0.242534 q 0.405143,0 0.570507,-0.2135958 0.165365,-0.2135957 0.173633,-0.7372498 V 3.4957517 q 0,-0.5622391 -0.157096,-0.7841031 -0.157096,-0.221864 -0.534679,-0.2328883 z m 4.566814,0.3913626 q 0,0.2921438 -0.124023,0.5181419 -0.124023,0.2259981 -0.341753,0.3610457 0.248047,0.1405598 0.391362,0.3872285 0.143316,0.2466686 0.143316,0.5801536 0,0.5346784 -0.30868,0.8447367 -0.30868,0.3100584 -0.840603,0.3100584 -0.531922,0 -0.846114,-0.3100584 -0.314193,-0.3100583 -0.314193,-0.8447367 0,-0.333485 0.143316,-0.5815317 0.143316,-0.2480467 0.394119,-0.3858504 -0.220486,-0.1350476 -0.34451,-0.3610457 -0.124023,-0.2259981 -0.124023,-0.5181419 0,-0.5264102 0.2949,-0.8240662 0.2949,-0.297656 0.790993,-0.297656 0.501606,0 0.79375,0.300412 0.292143,0.3004121 0.292143,0.8213102 z m -1.080381,2.3536873 q 0.176389,0 0.271474,-0.150206 0.09508,-0.150206 0.09508,-0.4175452 0,-0.2673392 -0.09922,-0.4189233 -0.09922,-0.1515841 -0.272852,-0.1515841 -0.173632,0 -0.274229,0.1515841 -0.100597,0.1515841 -0.100597,0.4189233 0,0.2673392 0.100597,0.4175452 0.100597,0.150206 0.279741,0.150206 z M 20.422798,2.911464 q 0,-0.2342663 -0.07579,-0.3748261 -0.07579,-0.1405598 -0.232889,-0.1405598 -0.148828,0 -0.225998,0.1364257 -0.07717,0.1364256 -0.07717,0.3789602 0,0.2370224 0.07717,0.3817163 0.07717,0.1446938 0.23151,0.1446938 0.154341,0 0.228755,-0.1446938 0.07441,-0.1446939 0.07441,-0.3817163 z" />
    <path
       id="text-orange-bright"
       style="fill:#15152b;fill-rule:nonzero;stroke:none"
       d="m 11.135178,123.14444 q 0,0.50471 -0.238573,0.78376 -0.238572,0.27905 -0.662318,0.27905 -0.422023,0 -0.6631791,-0.27647 -0.2411562,-0.27647 -0.2446013,-0.77428 v -0.42891 q 0,-0.51677 0.2394336,-0.80702 0.2394337,-0.29024 0.6649018,-0.29024 0.418578,0 0.659735,0.28508 0.241156,0.28508 0.244601,0.80012 z m -0.508151,-0.4203 q 0,-0.33934 -0.09646,-0.5047 -0.09646,-0.16537 -0.299723,-0.16537 -0.201537,0 -0.2979999,0.15934 -0.096462,0.15933 -0.099908,0.48489 v 0.44614 q 0,0.32901 0.098185,0.4849 0.098185,0.15589 0.3031679,0.15589 0.198093,0 0.294555,-0.15245 0.09646,-0.15244 0.09819,-0.47284 z m 1.631249,0.53227 h -0.251491 v 0.91639 h -0.506428 v -2.50802 h 0.807873 q 0.380682,0 0.588249,0.19723 0.207567,0.19723 0.207567,0.56069 0,0.49953 -0.363457,0.69935 l 0.439248,1.02663 v 0.0241 h -0.544323 z m -0.251491,-0.42203 h 0.287665 q 0.151584,0 0.227376,-0.10077 0.07579,-0.10076 0.07579,-0.26957 0,-0.37724 -0.294555,-0.37724 h -0.296278 z m 2.642382,0.8251 h -0.69074 l -0.134358,0.51332 h -0.535711 l 0.783757,-2.50802 h 0.463365 l 0.788925,2.50802 h -0.540879 z m -0.580497,-0.42202 h 0.468532 l -0.234266,-0.894 z m 3.24355,0.93534 h -0.506428 l -0.740693,-1.64503 v 1.64503 h -0.506428 v -2.50802 h 0.506428 l 0.742416,1.64675 v -1.64675 h 0.504705 z m 2.111839,-0.28422 q -0.146416,0.15847 -0.35915,0.23857 -0.212734,0.0801 -0.465948,0.0801 -0.432359,0 -0.671792,-0.26785 -0.239434,-0.26786 -0.246324,-0.77946 v -0.4513 q 0,-0.51849 0.226514,-0.7984 0.226515,-0.27991 0.660596,-0.27991 0.408243,0 0.615809,0.20153 0.207567,0.20154 0.240295,0.63218 h -0.492647 q -0.02067,-0.23944 -0.09991,-0.32643 -0.07924,-0.087 -0.248046,-0.087 -0.204983,0 -0.298,0.14986 -0.09302,0.14986 -0.09646,0.47714 v 0.45475 q 0,0.34279 0.102492,0.49868 0.102491,0.15589 0.336757,0.15589 0.149861,0 0.242879,-0.0603 l 0.04479,-0.031 v -0.45992 H 18.56107 v -0.38241 h 0.862994 z m 1.653642,-0.80098 h -0.788925 v 0.6649 h 0.933619 v 0.4203 h -1.440047 v -2.50802 h 1.436602 v 0.42202 h -0.930174 v 0.59255 h 0.788925 z" />
    <path
       id="text-line-bright"
       style="fill:#15152b;fill-rule:nonzero;stroke:none"
       d="m 12.681161,127.3085 h 0.888833 v 0.4203 h -1.395261 v -2.50802 h 0.506428 z m 1.710486,0.4203 h -0.506428 v -2.50802 h 0.506428 z m 2.179018,0 h -0.506428 l -0.740694,-1.64503 v 1.64503 h -0.506428 v -2.50802 h 0.506428 l 0.742417,1.64675 v -1.64675 h 0.504705 z m 1.701874,-1.0852 h -0.788926 v 0.6649 h 0.933619 v 0.4203 h -1.440046 v -2.50802 h 1.436601 v 0.42202 h -0.930174 v 0.59255 h 0.788926 z" />
    <path
       id="text-title-4-bright"
       style="fill:#15152b;fill-rule:nonzero;stroke:none"
       d="M 2.140093,37.834156 H 1.9444117 v -0.766189 l -0.1908581,0.07372 v -0.162608 l 0.3658689,-0.149517 h 0.02067 z" />
    <path
       id="text-title-4-0-bright"
       style="fill:#15152b;fill-rule:nonzero;stroke:none"
       d="M 2.2503358,48.76236 H 1.6591579 v -0.137804 l 0.2714733,-0.345198 q 0.051676,-0.07166 0.076137,-0.125746 0.02446,-0.05409 0.02446,-0.103697 0,-0.06683 -0.023082,-0.104731 -0.023082,-0.0379 -0.06649,-0.0379 -0.047542,0 -0.075448,0.0441 -0.027905,0.0441 -0.027905,0.124024 H 1.6426214 q 0,-0.09233 0.038241,-0.16881 0.038241,-0.07648 0.1074869,-0.118856 0.069246,-0.04237 0.1567518,-0.04237 0.1343586,0 0.2084281,0.07407 0.07407,0.07407 0.07407,0.210495 0,0.08475 -0.040997,0.17191 -0.040997,0.08716 -0.1484835,0.21463 l -0.1288465,0.183968 h 0.3410642 z" />
    <path
       id="text-title-4-9-bright"
       style="fill:#15152b;fill-rule:nonzero;stroke:none"
       d="m 1.8403703,59.086978 h 0.094396 q 0.053743,0 0.078893,-0.03755 0.025149,-0.03755 0.025149,-0.100253 0,-0.05994 -0.025838,-0.09336 -0.025838,-0.03342 -0.069246,-0.03342 -0.040652,0 -0.06649,0.03169 -0.025838,0.03169 -0.025838,0.07993 H 1.6564024 q 0,-0.07855 0.036173,-0.140904 0.036174,-0.06236 0.1012858,-0.0975 0.065112,-0.03514 0.1443494,-0.03514 0.1384927,0 0.2170408,0.07648 0.078548,0.07648 0.078548,0.209461 0,0.06821 -0.035484,0.126435 -0.035484,0.05822 -0.093362,0.08923 0.070969,0.03032 0.1057643,0.09095 0.034795,0.06063 0.034795,0.143315 0,0.13367 -0.085094,0.214285 -0.085094,0.08061 -0.2235865,0.08061 -0.1288464,0 -0.2091171,-0.07958 -0.080271,-0.07958 -0.080271,-0.209117 h 0.1949923 q 0,0.05374 0.02825,0.09026 0.02825,0.03652 0.071658,0.03652 0.050298,0 0.079582,-0.03721 0.029283,-0.03721 0.029283,-0.09922 0,-0.148139 -0.1150661,-0.148828 h -0.095774 z" />
    <path
       id="text-title-4-5-bright"
       style="fill:#15152b;fill-rule:nonzero;stroke:none"
       d="m 2.1721328,70.220169 h 0.085438 v 0.161919 h -0.085438 v 0.217041 H 1.9771405 V 70.382088 H 1.6450336 l -0.00896,-0.12609 0.3403751,-0.66008 H 2.17213 Z m -0.3465763,0 h 0.151584 v -0.335552 l -0.00413,0.0076 z" />
    <path
       id="text-title-4-4-bright"
       style="fill:#15152b;fill-rule:nonzero;stroke:none"
       d="m 1.6725944,81.020899 0.049609,-0.509874 h 0.4857581 v 0.166742 H 1.882056 l -0.017915,0.214974 q 0.0565,-0.0379 0.1164442,-0.0379 0.1240233,0 0.1912026,0.08819 0.067179,0.08819 0.067179,0.249424 0,0.150895 -0.079926,0.243224 -0.079926,0.09233 -0.2135958,0.09233 -0.079237,0 -0.1467609,-0.03755 -0.067524,-0.03755 -0.1064534,-0.104386 -0.03893,-0.06683 -0.039619,-0.151585 H 1.845538 q 0.00482,0.0627 0.031006,0.09715 0.026183,0.03445 0.067524,0.03445 0.048231,0 0.074414,-0.04651 0.026183,-0.04651 0.026183,-0.138837 0,-0.08682 -0.03135,-0.130914 -0.03135,-0.0441 -0.08785,-0.0441 -0.055122,0 -0.085438,0.0379 l -0.012402,0.01723 z" />
    <path
       id="text-title-4-03-bright"
       style="fill:#15152b;fill-rule:nonzero;stroke:none"
       d="m 2.1111544,91.682201 v 0.165364 h -0.011024 q -0.109554,6.89e-4 -0.1739772,0.0658 -0.064423,0.06511 -0.078204,0.182246 0.062701,-0.07166 0.1570962,-0.07166 0.108865,0 0.1739772,0.09302 0.065112,0.09302 0.065112,0.248047 0,0.09853 -0.037207,0.177767 -0.037207,0.07924 -0.1043864,0.12299 -0.067179,0.04375 -0.1519285,0.04375 -0.1364257,0 -0.2187634,-0.109554 -0.082338,-0.109554 -0.082338,-0.2949 v -0.07235 q 0,-0.166054 0.052021,-0.290766 0.052021,-0.124713 0.1502061,-0.191892 0.098185,-0.06718 0.2290987,-0.06787 z m -0.1674315,0.502983 q -0.037207,0 -0.062356,0.02343 -0.025149,0.02343 -0.037551,0.05788 v 0.07028 q 0,0.106109 0.02825,0.158475 0.02825,0.05236 0.074414,0.05236 0.046853,0 0.075103,-0.05064 0.02825,-0.05064 0.02825,-0.12988 0,-0.08062 -0.029283,-0.131258 -0.029283,-0.05064 -0.076825,-0.05064 z" />
    <path
       id="text-title-4-1-bright"
       style="fill:#15152b;fill-rule:nonzero;stroke:none"
       d="m 2.250681,102.72822 -0.3169485,0.8909 H 1.7277159 l 0.3183266,-0.84129 H 1.6436557 v -0.16192 H 2.250681 Z" />
    <path
       id="text-title-4-2-bright"
       style="fill:#15152b;fill-rule:nonzero;stroke:none"
       d="m 2.2182967,113.81264 q 0,0.073 -0.031006,0.12953 -0.031006,0.0565 -0.085438,0.0903 0.062012,0.0351 0.097841,0.0968 0.035829,0.0617 0.035829,0.14504 0,0.13367 -0.07717,0.21119 -0.07717,0.0775 -0.2101507,0.0775 -0.1329806,0 -0.2115287,-0.0775 -0.078548,-0.0775 -0.078548,-0.21119 0,-0.0834 0.035829,-0.14538 0.035829,-0.062 0.09853,-0.0965 -0.055122,-0.0338 -0.086127,-0.0903 -0.031006,-0.0565 -0.031006,-0.12953 0,-0.1316 0.073725,-0.20602 0.073725,-0.0744 0.1977483,-0.0744 0.1254014,0 0.1984373,0.0751 0.073036,0.0751 0.073036,0.20533 z m -0.2700953,0.58842 q 0.044097,0 0.067868,-0.0375 0.023771,-0.0376 0.023771,-0.10439 0,-0.0668 -0.024805,-0.10473 -0.024805,-0.0379 -0.068213,-0.0379 -0.043408,0 -0.068557,0.0379 -0.025149,0.0379 -0.025149,0.10473 0,0.0668 0.025149,0.10439 0.025149,0.0375 0.069935,0.0375 z m 0.075792,-0.57809 q 0,-0.0586 -0.018948,-0.0937 -0.018948,-0.0351 -0.058222,-0.0351 -0.037207,0 -0.056499,0.0341 -0.019293,0.0341 -0.019293,0.0947 0,0.0593 0.019293,0.0954 0.019292,0.0362 0.057878,0.0362 0.038585,0 0.057189,-0.0362 0.018604,-0.0362 0.018604,-0.0954 z" />
  </g>
  <g
     inkscape:groupmode="layer"
     id="layer-bg-dark"
     inkscape:label="BackgroundDark"
     style="display:none"
     sodipodi:insensitive="true">
    <path
       id="bg-dark"
       style="fill:#202020;fill-opacity:1;stroke:none"
       d="M 0,0 H 30.48 V 128.5 H 0 Z" />
  </g>
  <g
     inkscape:groupmode="layer"
     id="layer-panel-dark"
     inkscape:label="PanelDark"
     style="display:none"
     sodipodi:insensitive="true">
    <path
       id="accent-orange-dark"
       style="fill:none;stroke:#ff6600;stroke-width:0.3;stroke-linecap:round"
       d="M 0.762,124.71525 H 29.718" />
    <path
       style="fill:#171717;fill-opacity:1;stroke:#606060;stroke-width:0.3;stroke-linejoin:round;stroke-dasharray:none;stroke-opacity:1"
       d="m 0.762,8.382 c -1e-8,-0.420841 0.341159,-0.762 0.762,-0.762 h 27.432 c 0.420841,0 0.762,0.341159 0.762,0.762 v 5.84325 H 0.76200008 Z"
       id="path6-dark"
       sodipodi:nodetypes="ssssccs" />
    <path
       id="rect8-dark"
       style="fill:none;stroke:#606060;stroke-width:0.3;stroke-linejoin:round;stroke-opacity:0.98"
       d="M 1.5028339,7.6212501 H 28.956 a 0.74193716,0.74193716 44.95737 0 1 0.741936,0.7408331 l 0.01704,11.4511698 A 2.0289784,2.0289784 134.95737 0 1 27.686,21.84525 H 2.8363375 A 2.0743376,2.0743376 45 0 1 0.76199992,19.770913 L 0.762,8.362084 A 0.74083393,0.74083393 135 0 1 1.5028339,7.6212501 Z"
       sodipodi:nodetypes="ccccc"
       inkscape:path-effect="#path-effect8"
       inkscape:original-d="M 0.762,7.6212501 H 29.696834 L 29.718,21.84525 H 0.76199991 Z" />
    <path
       id="rect8-7-dark"
       style="display:inline;fill:none;stroke:#606060;stroke-width:0.3;stroke-linejoin:round;stroke-opacity:0.98"
       d="m 2.813108,-61.509087 h 24.870834 a 2.032046,2.032046 44.999348 0 1 2.032046,2.032 l 0.002,85.788504 A 2.6457732,2.6457732 134.99935 0 1 27.072167,28.95725 H 3.4078332 A 2.6452746,2.6452746 45.006051 0 1 0.76255861,26.311417 l 0.0181204,-85.788504 a 2.032429,2.032429 135.00605 0 1 2.03242899,-2.032 z"
       sodipodi:nodetypes="ccccc"
       inkscape:path-effect="#path-effect8-7"
       inkscape:original-d="M 0.78110819,-61.509087 H 29.715942 L 29.718,28.95725 H 0.76199975 Z"
       transform="translate(0.00205789,91.990337)" />
    <path
       id="rect5-dark"
       style="display:inline;fill:#171717;fill-opacity:1;stroke:#606060;stroke-width:0.3;stroke-linejoin:round;stroke-opacity:0.98"
       d="m -33.009417,35.05325 h 12.170834 a 0.77258302,0.77258302 45 0 1 0.772583,0.772583 v 3.026834 a 0.77258302,0.77258302 135 0 1 -0.772583,0.772583 H -33.009417 A 0.77258302,0.77258302 45 0 1 -33.782,38.852667 v -3.026834 a 0.77258302,0.77258302 135 0 1 0.772583,-0.772583 z"
       inkscape:path-effect="#path-effect5"
       inkscape:original-d="m -33.782,35.05325 h 13.716 v 4.572 h -13.716 z"
       transform="translate(48.26)"
       sodipodi:nodetypes="ccccc" />
    <path
       style="display:inline;fill:#171717;fill-opacity:1;stroke:#606060;stroke-width:0.3;stroke-linejoin:round;stroke-opacity:0.98"
       d="M 7.619999,37.339251 14.478,37.33925"
       id="path7-dark"
       sodipodi:nodetypes="cc" />
    <path
       id="rect5-1-dark"
       style="display:inline;fill:#171717;fill-opacity:1;stroke:#606060;stroke-width:0.3;stroke-linejoin:round;stroke-opacity:0.98"
       d="m -33.009417,35.05325 h 12.170834 a 0.77258302,0.77258302 45 0 1 0.772583,0.772583 v 3.026834 a 0.77258302,0.77258302 135 0 1 -0.772583,0.772583 H -33.009417 A 0.77258302,0.77258302 45 0 1 -33.782,38.852667 v -3.026834 a 0.77258302,0.77258302 135 0 1 0.772583,-0.772583 z"
       inkscape:path-effect="#path-effect5-7"
       inkscape:original-d="m -33.782,35.05325 h 13.716 v 4.572 h -13.716 z"
       transform="translate(48.26,76.708)"
       sodipodi:nodetypes="ccccc" />
    <path
       style="display:inline;fill:#171717;fill-opacity:1;stroke:#606060;stroke-width:0.3;stroke-linejoin:round;stroke-opacity:0.98"
       d="m 7.62,114.04725 h 6.858001"
       id="path7-0-dark"
       sodipodi:nodetypes="cc" />
    <path
       id="rect5-6-dark"
       style="display:inline;fill:#171717;fill-opacity:1;stroke:#606060;stroke-width:0.3;stroke-linejoin:round;stroke-opacity:0.98"
       d="m -33.009417,35.05325 h 12.170834 a 0.77258302,0.77258302 45 0 1 0.772583,0.772583 v 3.026834 a 0.77258302,0.77258302 135 0 1 -0.772583,0.772583 H -33.009417 A 0.77258302,0.77258302 45 0 1 -33.782,38.852667 v -3.026834 a 0.77258302,0.77258302 135 0 1 0.772583,-0.772583 z"
       inkscape:path-effect="#path-effect5-0"
       inkscape:original-d="m -33.782,35.05325 h 13.716 v 4.572 h -13.716 z"
       transform="translate(48.26,10.911417)"
       sodipodi:nodetypes="ccccc" />
    <path
       style="display:inline;fill:#171717;fill-opacity:1;stroke:#606060;stroke-width:0.3;stroke-linejoin:round;stroke-opacity:0.98"
       d="m 7.619999,48.250668 6.858001,-10e-7"
       id="path7-4-dark"
       sodipodi:nodetypes="cc" />
    <path
       id="rect5-7-dark"
       style="display:inline;fill:#171717;fill-opacity:1;stroke:#606060;stroke-width:0.3;stroke-linejoin:round;stroke-opacity:0.98"
       d="m -33.009417,35.05325 h 12.170834 a 0.77258302,0.77258302 45 0 1 0.772583,0.772583 v 3.026834 a 0.77258302,0.77258302 135 0 1 -0.772583,0.772583 H -33.009417 A 0.77258302,0.77258302 45 0 1 -33.782,38.852667 v -3.026834 a 0.77258302,0.77258302 135 0 1 0.772583,-0.772583 z"
       inkscape:path-effect="#path-effect5-08"
       inkscape:original-d="m -33.782,35.05325 h 13.716 v 4.572 h -13.716 z"
       transform="translate(48.26,21.844001)"
       sodipodi:nodetypes="ccccc" />
    <path
       style="display:inline;fill:#171717;fill-opacity:1;stroke:#606060;stroke-width:0.3;stroke-linejoin:round;stroke-opacity:0.98"
       d="m 7.619999,59.183252 6.858001,-1e-6"
       id="path7-9-dark"
       sodipodi:nodetypes="cc" />
    <path
       id="rect5-0-dark"
       style="display:inline;fill:#171717;fill-opacity:1;stroke:#606060;stroke-width:0.3;stroke-linejoin:round;stroke-opacity:0.98"
       d="m -33.009417,35.05325 h 12.170834 a 0.77258302,0.77258302 45 0 1 0.772583,0.772583 v 3.026834 a 0.77258302,0.77258302 135 0 1 -0.772583,0.772583 H -33.009417 A 0.77258302,0.77258302 45 0 1 -33.782,38.852667 v -3.026834 a 0.77258302,0.77258302 135 0 1 0.772583,-0.772583 z"
       inkscape:path-effect="#path-effect5-6"
       inkscape:original-d="m -33.782,35.05325 h 13.716 v 4.572 h -13.716 z"
       transform="translate(48.26,32.766001)"
       sodipodi:nodetypes="ccccc" />
    <path
       style="display:inline;fill:#171717;fill-opacity:1;stroke:#606060;stroke-width:0.3;stroke-linejoin:round;stroke-opacity:0.98"
       d="m 7.619999,70.105252 6.858001,-10e-7"
       id="path7-3-dark"
       sodipodi:nodetypes="cc" />
    <path
       id="rect5-69-dark"
       style="display:inline;fill:#171717;fill-opacity:1;stroke:#606060;stroke-width:0.3;stroke-linejoin:round;stroke-opacity:0.98"
       d="m -33.009417,35.05325 h 12.170834 a 0.77258302,0.77258302 45 0 1 0.772583,0.772583 v 3.026834 a 0.77258302,0.77258302 135 0 1 -0.772583,0.772583 H -33.009417 A 0.77258302,0.77258302 45 0 1 -33.782,38.852667 v -3.026834 a 0.77258302,0.77258302 135 0 1 0.772583,-0.772583 z"
       inkscape:path-effect="#path-effect5-4"
       inkscape:original-d="m -33.782,35.05325 h 13.716 v 4.572 h -13.716 z"
       transform="translate(48.26,43.942001)"
       sodipodi:nodetypes="ccccc" />
    <path
       style="display:inline;fill:#171717;fill-opacity:1;stroke:#606060;stroke-width:0.3;stroke-linejoin:round;stroke-opacity:0.98"
       d="m 7.619999,81.281252 6.858001,-10e-7"
       id="path7-1-dark"
       sodipodi:nodetypes="cc" />
    <path
       id="rect5-9-dark"
       style="display:inline;fill:#171717;fill-opacity:1;stroke:#606060;stroke-width:0.3;stroke-linejoin:round;stroke-opacity:0.98"
       d="m -33.009417,35.05325 h 12.170834 a 0.77258302,0.77258302 45 0 1 0.772583,0.772583 v 3.026834 a 0.77258302,0.77258302 135 0 1 -0.772583,0.772583 H -33.009417 A 0.77258302,0.77258302 45 0 1 -33.782,38.852667 v -3.026834 a 0.77258302,0.77258302 135 0 1 0.772583,-0.772583 z"
       inkscape:path-effect="#path-effect5-63"
       inkscape:original-d="m -33.782,35.05325 h 13.716 v 4.572 h -13.716 z"
       transform="translate(48.26,54.773591)"
       sodipodi:nodetypes="ccccc" />
    <path
       style="display:inline;fill:#171717;fill-opacity:1;stroke:#606060;stroke-width:0.3;stroke-linejoin:round;stroke-opacity:0.98"
       d="m 7.619999,92.112842 6.858001,-10e-7"
       id="path7-10-dark"
       sodipodi:nodetypes="cc" />
    <path
       id="rect5-8-dark"
       style="display:inline;fill:#171717;fill-opacity:1;stroke:#606060;stroke-width:0.3;stroke-linejoin:round;stroke-opacity:0.98"
       d="m -33.009417,35.05325 h 12.170834 a 0.77258302,0.77258302 45 0 1 0.772583,0.772583 v 3.026834 a 0.77258302,0.77258302 135 0 1 -0.772583,0.772583 H -33.009417 A 0.77258302,0.77258302 45 0 1 -33.782,38.852667 v -3.026834 a 0.77258302,0.77258302 135 0 1 0.772583,-0.772583 z"
       inkscape:path-effect="#path-effect5-9"
       inkscape:original-d="m -33.782,35.05325 h 13.716 v 4.572 h -13.716 z"
       transform="translate(48.26,65.786004)"
       sodipodi:nodetypes="ccccc" />
    <path
       style="display:inline;fill:#171717;fill-opacity:1;stroke:#606060;stroke-width:0.3;stroke-linejoin:round;stroke-opacity:0.98"
       d="M 7.619999,103.12525 H 14.478"
       id="path7-93-dark"
       sodipodi:nodetypes="cc" />
  </g>
  <g
     inkscape:groupmode="layer"
     id="layer-text-dark"
     inkscape:label="TextDark"
     style="display:none"
     sodipodi:insensitive="true">
    <path
       id="text-title-dark"
       style="fill:#c4bac4;fill-rule:nonzero;stroke:none"
       d="m 10.514711,3.1815592 0.54019,-1.3780371 h 0.928797 l -0.942577,1.9898856 0.964626,2.0229585 H 11.065926 L 10.514711,4.4135244 9.966252,5.8163662 H 9.0264307 L 9.9910567,3.7934077 9.0457232,1.8035221 h 0.928797 z m 4.726667,0.9894307 q 0,0.8075297 -0.381716,1.2540138 -0.381717,0.446484 -1.059711,0.446484 -0.675238,0 -1.061088,-0.4423499 Q 12.353012,4.9867879 12.3475,4.1902824 V 3.5040199 q 0,-0.8268222 0.383094,-1.2912207 0.383095,-0.4643985 1.063845,-0.4643985 0.669726,0 1.055576,0.4561302 0.385851,0.4561303 0.391363,1.2801965 z M 14.428336,3.4985078 q 0,-0.5429466 -0.15434,-0.8075298 -0.15434,-0.2645831 -0.479557,-0.2645831 -0.322461,0 -0.476801,0.2549369 -0.15434,0.2549368 -0.159852,0.7758349 v 0.7138232 q 0,0.5264102 0.157096,0.7758349 0.157096,0.2494247 0.485069,0.2494247 0.316949,0 0.471289,-0.2439126 0.15434,-0.2439125 0.157096,-0.7565423 z M 15.82291,5.8163662 V 1.8035221 h 1.061088 q 0.702799,0 1.120344,0.4464841 0.417546,0.446484 0.425814,1.2236969 v 0.6504335 q 0,0.7909933 -0.417545,1.2416115 -0.417546,0.4506181 -1.150661,0.4506181 z m 0.810286,-3.3376059 v 2.6651238 h 0.242534 q 0.405143,0 0.570507,-0.2135958 0.165365,-0.2135957 0.173633,-0.7372498 V 3.4957517 q 0,-0.5622391 -0.157096,-0.7841031 -0.157096,-0.221864 -0.534679,-0.2328883 z m 4.566814,0.3913626 q 0,0.2921438 -0.124023,0.5181419 -0.124023,0.2259981 -0.341753,0.3610457 0.248047,0.1405598 0.391362,0.3872285 0.143316,0.2466686 0.143316,0.5801536 0,0.5346784 -0.30868,0.8447367 -0.30868,0.3100584 -0.840603,0.3100584 -0.531922,0 -0.846114,-0.3100584 -0.314193,-0.3100583 -0.314193,-0.8447367 0,-0.333485 0.143316,-0.5815317 0.143316,-0.2480467 0.394119,-0.3858504 -0.220486,-0.1350476 -0.34451,-0.3610457 -0.124023,-0.2259981 -0.124023,-0.5181419 0,-0.5264102 0.2949,-0.8240662 0.2949,-0.297656 0.790993,-0.297656 0.501606,0 0.79375,0.300412 0.292143,0.3004121 0.292143,0.8213102 z m -1.080381,2.3536873 q 0.176389,0 0.271474,-0.150206 0.09508,-0.150206 0.09508,-0.4175452 0,-0.2673392 -0.09922,-0.4189233 -0.09922,-0.1515841 -0.272852,-0.1515841 -0.173632,0 -0.274229,0.1515841 -0.100597,0.1515841 -0.100597,0.4189233 0,0.2673392 0.100597,0.4175452 0.100597,0.150206 0.279741,0.150206 z M 20.422798,2.911464 q 0,-0.2342663 -0.07579,-0.3748261 -0.07579,-0.1405598 -0.232889,-0.1405598 -0.148828,0 -0.225998,0.1364257 -0.07717,0.1364256 -0.07717,0.3789602 0,0.2370224 0.07717,0.3817163 0.07717,0.1446938 0.23151,0.1446938 0.154341,0 0.228755,-0.1446938 0.07441,-0.1446939 0.07441,-0.3817163 z" />
    <path
       id="text-orange-dark"
       style="fill:#c4bac4;fill-rule:nonzero;stroke:none"
       d="m 11.135178,123.14444 q 0,0.50471 -0.238573,0.78376 -0.238572,0.27905 -0.662318,0.27905 -0.422023,0 -0.6631791,-0.27647 -0.2411562,-0.27647 -0.2446013,-0.77428 v -0.42891 q 0,-0.51677 0.2394336,-0.80702 0.2394337,-0.29024 0.6649018,-0.29024 0.418578,0 0.659735,0.28508 0.241156,0.28508 0.244601,0.80012 z m -0.508151,-0.4203 q 0,-0.33934 -0.09646,-0.5047 -0.09646,-0.16537 -0.299723,-0.16537 -0.201537,0 -0.2979999,0.15934 -0.096462,0.15933 -0.099908,0.48489 v 0.44614 q 0,0.32901 0.098185,0.4849 0.098185,0.15589 0.3031679,0.15589 0.198093,0 0.294555,-0.15245 0.09646,-0.15244 0.09819,-0.47284 z m 1.631249,0.53227 h -0.251491 v 0.91639 h -0.506428 v -2.50802 h 0.807873 q 0.380682,0 0.588249,0.19723 0.207567,0.19723 0.207567,0.56069 0,0.49953 -0.363457,0.69935 l 0.439248,1.02663 v 0.0241 h -0.544323 z m -0.251491,-0.42203 h 0.287665 q 0.151584,0 0.227376,-0.10077 0.07579,-0.10076 0.07579,-0.26957 0,-0.37724 -0.294555,-0.37724 h -0.296278 z m 2.642382,0.8251 h -0.69074 l -0.134358,0.51332 h -0.535711 l 0.783757,-2.50802 h 0.463365 l 0.788925,2.50802 h -0.540879 z m -0.580497,-0.42202 h 0.468532 l -0.234266,-0.894 z m 3.24355,0.93534 h -0.506428 l -0.740693,-1.64503 v 1.64503 h -0.506428 v -2.50802 h 0.506428 l 0.742416,1.64675 v -1.64675 h 0.504705 z m 2.111839,-0.28422 q -0.146416,0.15847 -0.35915,0.23857 -0.212734,0.0801 -0.465948,0.0801 -0.432359,0 -0.671792,-0.26785 -0.239434,-0.26786 -0.246324,-0.77946 v -0.4513 q 0,-0.51849 0.226514,-0.7984 0.226515,-0.27991 0.660596,-0.27991 0.408243,0 0.615809,0.20153 0.207567,0.20154 0.240295,0.63218 h -0.492647 q -0.02067,-0.23944 -0.09991,-0.32643 -0.07924,-0.087 -0.248046,-0.087 -0.204983,0 -0.298,0.14986 -0.09302,0.14986 -0.09646,0.47714 v 0.45475 q 0,0.34279 0.102492,0.49868 0.102491,0.15589 0.336757,0.15589 0.149861,0 0.242879,-0.0603 l 0.04479,-0.031 v -0.45992 H 18.56107 v -0.38241 h 0.862994 z m 1.653642,-0.80098 h -0.788925 v 0.6649 h 0.933619 v 0.4203 h -1.440047 v -2.50802 h 1.436602 v 0.42202 h -0.930174 v 0.59255 h 0.788925 z" />
    <path
       id="text-line-dark"
       style="fill:#c4bac4;fill-rule:nonzero;stroke:none"
       d="m 12.681161,127.3085 h 0.888833 v 0.4203 h -1.395261 v -2.50802 h 0.506428 z m 1.710486,0.4203 h -0.506428 v -2.50802 h 0.506428 z m 2.179018,0 h -0.506428 l -0.740694,-1.64503 v 1.64503 h -0.506428 v -2.50802 h 0.506428 l 0.742417,1.64675 v -1.64675 h 0.504705 z m 1.701874,-1.0852 h -0.788926 v 0.6649 h 0.933619 v 0.4203 h -1.440046 v -2.50802 h 1.436601 v 0.42202 h -0.930174 v 0.59255 h 0.788926 z" />
    <path
       id="text-title-4-dark"
       style="fill:#c4bac4;fill-rule:nonzero;stroke:none"
       d="M 2.140093,37.834156 H 1.9444117 v -0.766189 l -0.1908581,0.07372 v -0.162608 l 0.3658689,-0.149517 h 0.02067 z" />
    <path
       id="text-title-4-0-dark"
       style="fill:#c4bac4;fill-rule:nonzero;stroke:none"
       d="M 2.2503358,48.76236 H 1.6591579 v -0.137804 l 0.2714733,-0.345198 q 0.051676,-0.07166 0.076137,-0.125746 0.02446,-0.05409 0.02446,-0.103697 0,-0.06683 -0.023082,-0.104731 -0.023082,-0.0379 -0.06649,-0.0379 -0.047542,0 -0.075448,0.0441 -0.027905,0.0441 -0.027905,0.124024 H 1.6426214 q 0,-0.09233 0.038241,-0.16881 0.038241,-0.07648 0.1074869,-0.118856 0.069246,-0.04237 0.1567518,-0.04237 0.1343586,0 0.2084281,0.07407 0.07407,0.07407 0.07407,0.210495 0,0.08475 -0.040997,0.17191 -0.040997,0.08716 -0.1484835,0.21463 l -0.1288465,0.183968 h 0.3410642 z" />
    <path
       id="text-title-4-9-dark"
       style="fill:#c4bac4;fill-rule:nonzero;stroke:none"
       d="m 1.8403703,59.086978 h 0.094396 q 0.053743,0 0.078893,-0.03755 0.025149,-0.03755 0.025149,-0.100253 0,-0.05994 -0.025838,-0.09336 -0.025838,-0.03342 -0.069246,-0.03342 -0.040652,0 -0.06649,0.03169 -0.025838,0.03169 -0.025838,0.07993 H 1.6564024 q 0,-0.07855 0.036173,-0.140904 0.036174,-0.06236 0.1012858,-0.0975 0.065112,-0.03514 0.1443494,-0.03514 0.1384927,0 0.2170408,0.07648 0.078548,0.07648 0.078548,0.209461 0,0.06821 -0.035484,0.126435 -0.035484,0.05822 -0.093362,0.08923 0.070969,0.03032 0.1057643,0.09095 0.034795,0.06063 0.034795,0.143315 0,0.13367 -0.085094,0.214285 -0.085094,0.08061 -0.2235865,0.08061 -0.1288464,0 -0.2091171,-0.07958 -0.080271,-0.07958 -0.080271,-0.209117 h 0.1949923 q 0,0.05374 0.02825,0.09026 0.02825,0.03652 0.071658,0.03652 0.050298,0 0.079582,-0.03721 0.029283,-0.03721 0.029283,-0.09922 0,-0.148139 -0.1150661,-0.148828 h -0.095774 z" />
    <path
       id="text-title-4-5-dark"
       style="fill:#c4bac4;fill-rule:nonzero;stroke:none"
       d="m 2.1721328,70.220169 h 0.085438 v 0.161919 h -0.085438 v 0.217041 H 1.9771405 V 70.382088 H 1.6450336 l -0.00896,-0.12609 0.3403751,-0.66008 H 2.17213 Z m -0.3465763,0 h 0.151584 v -0.335552 l -0.00413,0.0076 z" />
    <path
       id="text-title-4-4-dark"
       style="fill:#c4bac4;fill-rule:nonzero;stroke:none"
       d="m 1.6725944,81.020899 0.049609,-0.509874 h 0.4857581 v 0.166742 H 1.882056 l -0.017915,0.214974 q 0.0565,-0.0379 0.1164442,-0.0379 0.1240233,0 0.1912026,0.08819 0.067179,0.08819 0.067179,0.249424 0,0.150895 -0.079926,0.243224 -0.079926,0.09233 -0.2135958,0.09233 -0.079237,0 -0.1467609,-0.03755 -0.067524,-0.03755 -0.1064534,-0.104386 -0.03893,-0.06683 -0.039619,-0.151585 H 1.845538 q 0.00482,0.0627 0.031006,0.09715 0.026183,0.03445 0.067524,0.03445 0.048231,0 0.074414,-0.04651 0.026183,-0.04651 0.026183,-0.138837 0,-0.08682 -0.03135,-0.130914 -0.03135,-0.0441 -0.08785,-0.0441 -0.055122,0 -0.085438,0.0379 l -0.012402,0.01723 z" />
    <path
       id="text-title-4-03-dark"
       style="fill:#c4bac4;fill-rule:nonzero;stroke:none"
       d="m 2.1111544,91.682201 v 0.165364 h -0.011024 q -0.109554,6.89e-4 -0.1739772,0.0658 -0.064423,0.06511 -0.078204,0.182246 0.062701,-0.07166 0.1570962,-0.07166 0.108865,0 0.1739772,0.09302 0.065112,0.09302 0.065112,0.248047 0,0.09853 -0.037207,0.177767 -0.037207,0.07924 -0.1043864,0.12299 -0.067179,0.04375 -0.1519285,0.04375 -0.1364257,0 -0.2187634,-0.109554 -0.082338,-0.109554 -0.082338,-0.2949 v -0.07235 q 0,-0.166054 0.052021,-0.290766 0.052021,-0.124713 0.1502061,-0.191892 0.098185,-0.06718 0.2290987,-0.06787 z m -0.1674315,0.502983 q -0.037207,0 -0.062356,0.02343 -0.025149,0.02343 -0.037551,0.05788 v 0.07028 q 0,0.106109 0.02825,0.158475 0.02825,0.05236 0.074414,0.05236 0.046853,0 0.075103,-0.05064 0.02825,-0.05064 0.02825,-0.12988 0,-0.08062 -0.029283,-0.131258 -0.029283,-0.05064 -0.076825,-0.05064 z" />
    <path
       id="text-title-4-1-dark"
       style="fill:#c4bac4;fill-rule:nonzero;stroke:none"
       d="m 2.250681,102.72822 -0.3169485,0.8909 H 1.7277159 l 0.3183266,-0.84129 H 1.6436557 v -0.16192 H 2.250681 Z" />
    <path
       id="text-title-4-2-dark"
       style="fill:#c4bac4;fill-rule:nonzero;stroke:none"
       d="m 2.2182967,113.81264 q 0,0.073 -0.031006,0.12953 -0.031006,0.0565 -0.085438,0.0903 0.062012,0.0351 0.097841,0.0968 0.035829,0.0617 0.035829,0.14504 0,0.13367 -0.07717,0.21119 -0.07717,0.0775 -0.2101507,0.0775 -0.1329806,0 -0.2115287,-0.0775 -0.078548,-0.0775 -0.078548,-0.21119 0,-0.0834 0.035829,-0.14538 0.035829,-0.062 0.09853,-0.0965 -0.055122,-0.0338 -0.086127,-0.0903 -0.031006,-0.0565 -0.031006,-0.12953 0,-0.1316 0.073725,-0.20602 0.073725,-0.0744 0.1977483,-0.0744 0.1254014,0 0.1984373,0.0751 0.073036,0.0751 0.073036,0.20533 z m -0.2700953,0.58842 q 0.044097,0 0.067868,-0.0375 0.023771,-0.0376 0.023771,-0.10439 0,-0.0668 -0.024805,-0.10473 -0.024805,-0.0379 -0.068213,-0.0379 -0.043408,0 -0.068557,0.0379 -0.025149,0.0379 -0.025149,0.10473 0,0.0668 0.025149,0.10439 0.025149,0.0375 0.069935,0.0375 z m 0.075792,-0.57809 q 0,-0.0586 -0.018948,-0.0937 -0.018948,-0.0351 -0.058222,-0.0351 -0.037207,0 -0.056499,0.0341 -0.019293,0.0341 -0.019293,0.0947 0,0.0593 0.019293,0.0954 0.019292,0.0362 0.057878,0.0362 0.038585,0 0.057189,-0.0362 0.018604,-0.0362 0.018604,-0.0954 z" />
  </g>
  <g
     inkscape:groupmode="layer"
     id="layer-bg-orange"
     inkscape:label="BackgroundOrange"
     style="display:inline"
     sodipodi:insensitive="true">
    <path
       id="bg-orange"
       style="fill:#15152b;fill-opacity:1;stroke:none"
       d="M 0,0 H 30.48 V 128.5 H 0 Z" />
  </g>
  <g
     inkscape:groupmode="layer"
     id="layer-panel-orange"
     inkscape:label="PanelOrange"
     style="display:inline"
     sodipodi:insensitive="true">
    <path
       id="accent-orange"
       style="fill:none;stroke:#ff6600;stroke-width:0.3;stroke-linecap:round"
       d="M 0.762,124.71525 H 29.718" />
    <path
       style="fill:#100600;fill-opacity:1;stroke:#803300;stroke-width:0.3;stroke-linejoin:round;stroke-dasharray:none;stroke-opacity:1"
       d="m 0.762,8.382 c -1e-8,-0.420841 0.341159,-0.762 0.762,-0.762 h 27.432 c 0.420841,0 0.762,0.341159 0.762,0.762 v 5.84325 H 0.76200008 Z"
       id="path6"
       sodipodi:nodetypes="ssssccs" />
    <path
       id="rect8"
       style="fill:none;stroke:#803300;stroke-width:0.3;stroke-linejoin:round"
       d="M 1.5028339,7.6212501 H 28.956 a 0.74193716,0.74193716 44.95737 0 1 0.741936,0.7408331 l 0.01704,11.4511698 A 2.0289784,2.0289784 134.95737 0 1 27.686,21.84525 H 2.8363375 A 2.0743376,2.0743376 45 0 1 0.76199992,19.770913 L 0.762,8.362084 A 0.74083393,0.74083393 135 0 1 1.5028339,7.6212501 Z"
       sodipodi:nodetypes="ccccc"
       inkscape:path-effect="#path-effect8"
       inkscape:original-d="M 0.762,7.6212501 H 29.696834 L 29.718,21.84525 H 0.76199991 Z" />
    <path
       id="rect8-7"
       style="display:inline;fill:none;stroke:#803300;stroke-width:0.3;stroke-linejoin:round"
       d="m 2.813108,-61.509087 h 24.870834 a 2.032046,2.032046 44.999348 0 1 2.032046,2.032 l 0.002,85.788504 A 2.6457732,2.6457732 134.99935 0 1 27.072167,28.95725 H 3.4078332 A 2.6452746,2.6452746 45.006051 0 1 0.76255861,26.311417 l 0.0181204,-85.788504 a 2.032429,2.032429 135.00605 0 1 2.03242899,-2.032 z"
       sodipodi:nodetypes="ccccc"
       inkscape:path-effect="#path-effect8-7"
       inkscape:original-d="M 0.78110819,-61.509087 H 29.715942 L 29.718,28.95725 H 0.76199975 Z"
       transform="translate(0.00205789,91.990337)" />
    <path
       id="rect5"
       style="display:inline;fill:#100600;fill-opacity:1;stroke:#803300;stroke-width:0.3;stroke-linejoin:round"
       d="m -33.009417,35.05325 h 12.170834 a 0.77258302,0.77258302 45 0 1 0.772583,0.772583 v 3.026834 a 0.77258302,0.77258302 135 0 1 -0.772583,0.772583 H -33.009417 A 0.77258302,0.77258302 45 0 1 -33.782,38.852667 v -3.026834 a 0.77258302,0.77258302 135 0 1 0.772583,-0.772583 z"
       inkscape:path-effect="#path-effect5"
       inkscape:original-d="m -33.782,35.05325 h 13.716 v 4.572 h -13.716 z"
       transform="translate(48.26)"
       sodipodi:nodetypes="ccccc" />
    <path
       style="display:inline;fill:#100600;fill-opacity:1;stroke:#803300;stroke-width:0.3;stroke-linejoin:round"
       d="M 7.6200001,37.349834 14.478,37.33925"
       id="path7"
       sodipodi:nodetypes="cc" />
    <path
       id="rect5-1"
       style="display:inline;fill:#100600;fill-opacity:1;stroke:#803300;stroke-width:0.3;stroke-linejoin:round"
       d="m -33.009417,35.05325 h 12.170834 a 0.77258302,0.77258302 45 0 1 0.772583,0.772583 v 3.026834 a 0.77258302,0.77258302 135 0 1 -0.772583,0.772583 H -33.009417 A 0.77258302,0.77258302 45 0 1 -33.782,38.852667 v -3.026834 a 0.77258302,0.77258302 135 0 1 0.772583,-0.772583 z"
       inkscape:path-effect="#path-effect5-7"
       inkscape:original-d="m -33.782,35.05325 h 13.716 v 4.572 h -13.716 z"
       transform="translate(48.26,76.708)"
       sodipodi:nodetypes="ccccc" />
    <path
       style="display:inline;fill:#100600;fill-opacity:1;stroke:#803300;stroke-width:0.3;stroke-linejoin:round"
       d="m 7.620001,114.05783 6.858,-0.0106"
       id="path7-0"
       sodipodi:nodetypes="cc" />
    <path
       id="rect5-6"
       style="display:inline;fill:#100600;fill-opacity:1;stroke:#803300;stroke-width:0.3;stroke-linejoin:round"
       d="m -33.009417,35.05325 h 12.170834 a 0.77258302,0.77258302 45 0 1 0.772583,0.772583 v 3.026834 a 0.77258302,0.77258302 135 0 1 -0.772583,0.772583 H -33.009417 A 0.77258302,0.77258302 45 0 1 -33.782,38.852667 v -3.026834 a 0.77258302,0.77258302 135 0 1 0.772583,-0.772583 z"
       inkscape:path-effect="#path-effect5-0"
       inkscape:original-d="m -33.782,35.05325 h 13.716 v 4.572 h -13.716 z"
       transform="translate(48.26,10.911417)"
       sodipodi:nodetypes="ccccc" />
    <path
       style="display:inline;fill:#100600;fill-opacity:1;stroke:#803300;stroke-width:0.3;stroke-linejoin:round"
       d="m 7.62,48.261251 6.858,-0.01058"
       id="path7-4"
       sodipodi:nodetypes="cc" />
    <path
       id="rect5-7"
       style="display:inline;fill:#100600;fill-opacity:1;stroke:#803300;stroke-width:0.3;stroke-linejoin:round"
       d="m -33.009417,35.05325 h 12.170834 a 0.77258302,0.77258302 45 0 1 0.772583,0.772583 v 3.026834 a 0.77258302,0.77258302 135 0 1 -0.772583,0.772583 H -33.009417 A 0.77258302,0.77258302 45 0 1 -33.782,38.852667 v -3.026834 a 0.77258302,0.77258302 135 0 1 0.772583,-0.772583 z"
       inkscape:path-effect="#path-effect5-08"
       inkscape:original-d="m -33.782,35.05325 h 13.716 v 4.572 h -13.716 z"
       transform="translate(48.26,21.844001)"
       sodipodi:nodetypes="ccccc" />
    <path
       style="display:inline;fill:#100600;fill-opacity:1;stroke:#803300;stroke-width:0.3;stroke-linejoin:round"
       d="m 7.62,59.193835 6.858,-0.01058"
       id="path7-9"
       sodipodi:nodetypes="cc" />
    <path
       id="rect5-0"
       style="display:inline;fill:#100600;fill-opacity:1;stroke:#803300;stroke-width:0.3;stroke-linejoin:round"
       d="m -33.009417,35.05325 h 12.170834 a 0.77258302,0.77258302 45 0 1 0.772583,0.772583 v 3.026834 a 0.77258302,0.77258302 135 0 1 -0.772583,0.772583 H -33.009417 A 0.77258302,0.77258302 45 0 1 -33.782,38.852667 v -3.026834 a 0.77258302,0.77258302 135 0 1 0.772583,-0.772583 z"
       inkscape:path-effect="#path-effect5-6"
       inkscape:original-d="m -33.782,35.05325 h 13.716 v 4.572 h -13.716 z"
       transform="translate(48.26,32.766001)"
       sodipodi:nodetypes="ccccc" />
    <path
       style="display:inline;fill:#100600;fill-opacity:1;stroke:#803300;stroke-width:0.3;stroke-linejoin:round"
       d="m 7.62,70.115835 6.858,-0.01058"
       id="path7-3"
       sodipodi:nodetypes="cc" />
    <path
       id="rect5-69"
       style="display:inline;fill:#100600;fill-opacity:1;stroke:#803300;stroke-width:0.3;stroke-linejoin:round"
       d="m -33.009417,35.05325 h 12.170834 a 0.77258302,0.77258302 45 0 1 0.772583,0.772583 v 3.026834 a 0.77258302,0.77258302 135 0 1 -0.772583,0.772583 H -33.009417 A 0.77258302,0.77258302 45 0 1 -33.782,38.852667 v -3.026834 a 0.77258302,0.77258302 135 0 1 0.772583,-0.772583 z"
       inkscape:path-effect="#path-effect5-4"
       inkscape:original-d="m -33.782,35.05325 h 13.716 v 4.572 h -13.716 z"
       transform="translate(48.26,43.942001)"
       sodipodi:nodetypes="ccccc" />
    <path
       style="display:inline;fill:#100600;fill-opacity:1;stroke:#803300;stroke-width:0.3;stroke-linejoin:round"
       d="m 7.62,81.291835 6.858,-0.01058"
       id="path7-1"
       sodipodi:nodetypes="cc" />
    <path
       id="rect5-9"
       style="display:inline;fill:#100600;fill-opacity:1;stroke:#803300;stroke-width:0.3;stroke-linejoin:round"
       d="m -33.009417,35.05325 h 12.170834 a 0.77258302,0.77258302 45 0 1 0.772583,0.772583 v 3.026834 a 0.77258302,0.77258302 135 0 1 -0.772583,0.772583 H -33.009417 A 0.77258302,0.77258302 45 0 1 -33.782,38.852667 v -3.026834 a 0.77258302,0.77258302 135 0 1 0.772583,-0.772583 z"
       inkscape:path-effect="#path-effect5-63"
       inkscape:original-d="m -33.782,35.05325 h 13.716 v 4.572 h -13.716 z"
       transform="translate(48.26,54.773591)"
       sodipodi:nodetypes="ccccc" />
    <path
       style="display:inline;fill:#100600;fill-opacity:1;stroke:#803300;stroke-width:0.3;stroke-linejoin:round"
       d="m 7.62,92.123425 6.858,-0.01058"
       id="path7-10"
       sodipodi:nodetypes="cc" />
    <path
       id="rect5-8"
       style="display:inline;fill:#100600;fill-opacity:1;stroke:#803300;stroke-width:0.3;stroke-linejoin:round"
       d="m -33.009417,35.05325 h 12.170834 a 0.77258302,0.77258302 45 0 1 0.772583,0.772583 v 3.026834 a 0.77258302,0.77258302 135 0 1 -0.772583,0.772583 H -33.009417 A 0.77258302,0.77258302 45 0 1 -33.782,38.852667 v -3.026834 a 0.77258302,0.77258302 135 0 1 0.772583,-0.772583 z"
       inkscape:path-effect="#path-effect5-9"
       inkscape:original-d="m -33.782,35.05325 h 13.716 v 4.572 h -13.716 z"
       transform="translate(48.26,65.786004)"
       sodipodi:nodetypes="ccccc" />
    <path
       style="display:inline;fill:#100600;fill-opacity:1;stroke:#803300;stroke-width:0.3;stroke-linejoin:round"
       d="m 7.62,103.13583 6.858,-0.0106"
       id="path7-93"
       sodipodi:nodetypes="cc" />
  </g>
  <g
     inkscape:groupmode="layer"
     id="layer-text-orange"
     inkscape:label="TextOrange"
     style="display:none"
     sodipodi:insensitive="true">
    <path
       id="text-title-orange"
       style="fill:#ff6600;fill-rule:nonzero;stroke:none"
       d="m 10.514711,3.1815592 0.54019,-1.3780371 h 0.928797 l -0.942577,1.9898856 0.964626,2.0229585 H 11.065926 L 10.514711,4.4135244 9.966252,5.8163662 H 9.0264307 L 9.9910567,3.7934077 9.0457232,1.8035221 h 0.928797 z m 4.726667,0.9894307 q 0,0.8075297 -0.381716,1.2540138 -0.381717,0.446484 -1.059711,0.446484 -0.675238,0 -1.061088,-0.4423499 Q 12.353012,4.9867879 12.3475,4.1902824 V 3.5040199 q 0,-0.8268222 0.383094,-1.2912207 0.383095,-0.4643985 1.063845,-0.4643985 0.669726,0 1.055576,0.4561302 0.385851,0.4561303 0.391363,1.2801965 z M 14.428336,3.4985078 q 0,-0.5429466 -0.15434,-0.8075298 -0.15434,-0.2645831 -0.479557,-0.2645831 -0.322461,0 -0.476801,0.2549369 -0.15434,0.2549368 -0.159852,0.7758349 v 0.7138232 q 0,0.5264102 0.157096,0.7758349 0.157096,0.2494247 0.485069,0.2494247 0.316949,0 0.471289,-0.2439126 0.15434,-0.2439125 0.157096,-0.7565423 z M 15.82291,5.8163662 V 1.8035221 h 1.061088 q 0.702799,0 1.120344,0.4464841 0.417546,0.446484 0.425814,1.2236969 v 0.6504335 q 0,0.7909933 -0.417545,1.2416115 -0.417546,0.4506181 -1.150661,0.4506181 z m 0.810286,-3.3376059 v 2.6651238 h 0.242534 q 0.405143,0 0.570507,-0.2135958 0.165365,-0.2135957 0.173633,-0.7372498 V 3.4957517 q 0,-0.5622391 -0.157096,-0.7841031 -0.157096,-0.221864 -0.534679,-0.2328883 z m 4.566814,0.3913626 q 0,0.2921438 -0.124023,0.5181419 -0.124023,0.2259981 -0.341753,0.3610457 0.248047,0.1405598 0.391362,0.3872285 0.143316,0.2466686 0.143316,0.5801536 0,0.5346784 -0.30868,0.8447367 -0.30868,0.3100584 -0.840603,0.3100584 -0.531922,0 -0.846114,-0.3100584 -0.314193,-0.3100583 -0.314193,-0.8447367 0,-0.333485 0.143316,-0.5815317 0.143316,-0.2480467 0.394119,-0.3858504 -0.220486,-0.1350476 -0.34451,-0.3610457 -0.124023,-0.2259981 -0.124023,-0.5181419 0,-0.5264102 0.2949,-0.8240662 0.2949,-0.297656 0.790993,-0.297656 0.501606,0 0.79375,0.300412 0.292143,0.3004121 0.292143,0.8213102 z m -1.080381,2.3536873 q 0.176389,0 0.271474,-0.150206 0.09508,-0.150206 0.09508,-0.4175452 0,-0.2673392 -0.09922,-0.4189233 -0.09922,-0.1515841 -0.272852,-0.1515841 -0.173632,0 -0.274229,0.1515841 -0.100597,0.1515841 -0.100597,0.4189233 0,0.2673392 0.100597,0.4175452 0.100597,0.150206 0.279741,0.150206 z M 20.422798,2.911464 q 0,-0.2342663 -0.07579,-0.3748261 -0.07579,-0.1405598 -0.232889,-0.1405598 -0.148828,0 -0.225998,0.1364257 -0.07717,0.1364256 -0.07717,0.3789602 0,0.2370224 0.07717,0.3817163 0.07717,0.1446938 0.23151,0.1446938 0.154341,0 0.228755,-0.1446938 0.07441,-0.1446939 0.07441,-0.3817163 z" />
    <path
       id="text-orange-orange"
       style="fill:#ff6600;fill-rule:nonzero;stroke:none"
       d="m 11.135178,123.14444 q 0,0.50471 -0.238573,0.78376 -0.238572,0.27905 -0.662318,0.27905 -0.422023,0 -0.6631791,-0.27647 -0.2411562,-0.27647 -0.2446013,-0.77428 v -0.42891 q 0,-0.51677 0.2394336,-0.80702 0.2394337,-0.29024 0.6649018,-0.29024 0.418578,0 0.659735,0.28508 0.241156,0.28508 0.244601,0.80012 z m -0.508151,-0.4203 q 0,-0.33934 -0.09646,-0.5047 -0.09646,-0.16537 -0.299723,-0.16537 -0.201537,0 -0.2979999,0.15934 -0.096462,0.15933 -0.099908,0.48489 v 0.44614 q 0,0.32901 0.098185,0.4849 0.098185,0.15589 0.3031679,0.15589 0.198093,0 0.294555,-0.15245 0.09646,-0.15244 0.09819,-0.47284 z m 1.631249,0.53227 h -0.251491 v 0.91639 h -0.506428 v -2.50802 h 0.807873 q 0.380682,0 0.588249,0.19723 0.207567,0.19723 0.207567,0.56069 0,0.49953 -0.363457,0.69935 l 0.439248,1.02663 v 0.0241 h -0.544323 z m -0.251491,-0.42203 h 0.287665 q 0.151584,0 0.227376,-0.10077 0.07579,-0.10076 0.07579,-0.26957 0,-0.37724 -0.294555,-0.37724 h -0.296278 z m 2.642382,0.8251 h -0.69074 l -0.134358,0.51332 h -0.535711 l 0.783757,-2.50802 h 0.463365 l 0.788925,2.50802 h -0.540879 z m -0.580497,-0.42202 h 0.468532 l -0.234266,-0.894 z m 3.24355,0.93534 h -0.506428 l -0.740693,-1.64503 v 1.64503 h -0.506428 v -2.50802 h 0.506428 l 0.742416,1.64675 v -1.64675 h 0.504705 z m 2.111839,-0.28422 q -0.146416,0.15847 -0.35915,0.23857 -0.212734,0.0801 -0.465948,0.0801 -0.432359,0 -0.671792,-0.26785 -0.239434,-0.26786 -0.246324,-0.77946 v -0.4513 q 0,-0.51849 0.226514,-0.7984 0.226515,-0.27991 0.660596,-0.27991 0.408243,0 0.615809,0.20153 0.207567,0.20154 0.240295,0.63218 h -0.492647 q -0.02067,-0.23944 -0.09991,-0.32643 -0.07924,-0.087 -0.248046,-0.087 -0.204983,0 -0.298,0.14986 -0.09302,0.14986 -0.09646,0.47714 v 0.45475 q 0,0.34279 0.102492,0.49868 0.102491,0.15589 0.336757,0.15589 0.149861,0 0.242879,-0.0603 l 0.04479,-0.031 v -0.45992 H 18.56107 v -0.38241 h 0.862994 z m 1.653642,-0.80098 h -0.788925 v 0.6649 h 0.933619 v 0.4203 h -1.440047 v -2.50802 h 1.436602 v 0.42202 h -0.930174 v 0.59255 h 0.788925 z" />
    <path
       id="text-line-orange"
       style="fill:#ff6600;fill-rule:nonzero;stroke:none"
       d="m 12.681161,127.3085 h 0.888833 v 0.4203 h -1.395261 v -2.50802 h 0.506428 z m 1.710486,0.4203 h -0.506428 v -2.50802 h 0.506428 z m 2.179018,0 h -0.506428 l -0.740694,-1.64503 v 1.64503 h -0.506428 v -2.50802 h 0.506428 l 0.742417,1.64675 v -1.64675 h 0.504705 z m 1.701874,-1.0852 h -0.788926 v 0.6649 h 0.933619 v 0.4203 h -1.440046 v -2.50802 h 1.436601 v 0.42202 h -0.930174 v 0.59255 h 0.788926 z" />
    <path
       id="text-title-4-orange"
       style="fill:#ff6600;fill-rule:nonzero;stroke:none"
       d="M 2.140093,37.834156 H 1.9444117 v -0.766189 l -0.1908581,0.07372 v -0.162608 l 0.3658689,-0.149517 h 0.02067 z" />
    <path
       id="text-title-4-0-orange"
       style="fill:#ff6600;fill-rule:nonzero;stroke:none"
       d="M 2.2503358,48.76236 H 1.6591579 v -0.137804 l 0.2714733,-0.345198 q 0.051676,-0.07166 0.076137,-0.125746 0.02446,-0.05409 0.02446,-0.103697 0,-0.06683 -0.023082,-0.104731 -0.023082,-0.0379 -0.06649,-0.0379 -0.047542,0 -0.075448,0.0441 -0.027905,0.0441 -0.027905,0.124024 H 1.6426214 q 0,-0.09233 0.038241,-0.16881 0.038241,-0.07648 0.1074869,-0.118856 0.069246,-0.04237 0.1567518,-0.04237 0.1343586,0 0.2084281,0.07407 0.07407,0.07407 0.07407,0.210495 0,0.08475 -0.040997,0.17191 -0.040997,0.08716 -0.1484835,0.21463 l -0.1288465,0.183968 h 0.3410642 z" />
    <path
       id="text-title-4-9-orange"
       style="fill:#ff6600;fill-rule:nonzero;stroke:none"
       d="m 1.8403703,59.086978 h 0.094396 q 0.053743,0 0.078893,-0.03755 0.025149,-0.03755 0.025149,-0.100253 0,-0.05994 -0.025838,-0.09336 -0.025838,-0.03342 -0.069246,-0.03342 -0.040652,0 -0.06649,0.03169 -0.025838,0.03169 -0.025838,0.07993 H 1.6564024 q 0,-0.07855 0.036173,-0.140904 0.036174,-0.06236 0.1012858,-0.0975 0.065112,-0.03514 0.1443494,-0.03514 0.1384927,0 0.2170408,0.07648 0.078548,0.07648 0.078548,0.209461 0,0.06821 -0.035484,0.126435 -0.035484,0.05822 -0.093362,0.08923 0.070969,0.03032 0.1057643,0.09095 0.034795,0.06063 0.034795,0.143315 0,0.13367 -0.085094,0.214285 -0.085094,0.08061 -0.2235865,0.08061 -0.1288464,0 -0.2091171,-0.07958 -0.080271,-0.07958 -0.080271,-0.209117 h 0.1949923 q 0,0.05374 0.02825,0.09026 0.02825,0.03652 0.071658,0.03652 0.050298,0 0.079582,-0.03721 0.029283,-0.03721 0.029283,-0.09922 0,-0.148139 -0.1150661,-0.148828 h -0.095774 z" />
    <path
       id="text-title-4-5-orange"
       style="fill:#ff6600;fill-rule:nonzero;stroke:none"
       d="m 2.1721328,70.220169 h 0.085438 v 0.161919 h -0.085438 v 0.217041 H 1.9771405 V 70.382088 H 1.6450336 l -0.00896,-0.12609 0.3403751,-0.66008 H 2.17213 Z m -0.3465763,0 h 0.151584 v -0.335552 l -0.00413,0.0076 z" />
    <path
       id="text-title-4-4-orange"
       style="fill:#ff6600;fill-rule:nonzero;stroke:none"
       d="m 1.6725944,81.020899 0.049609,-0.509874 h 0.4857581 v 0.166742 H 1.882056 l -0.017915,0.214974 q 0.0565,-0.0379 0.1164442,-0.0379 0.1240233,0 0.1912026,0.08819 0.067179,0.08819 0.067179,0.249424 0,0.150895 -0.079926,0.243224 -0.079926,0.09233 -0.2135958,0.09233 -0.079237,0 -0.1467609,-0.03755 -0.067524,-0.03755 -0.1064534,-0.104386 -0.03893,-0.06683 -0.039619,-0.151585 H 1.845538 q 0.00482,0.0627 0.031006,0.09715 0.026183,0.03445 0.067524,0.03445 0.048231,0 0.074414,-0.04651 0.026183,-0.04651 0.026183,-0.138837 0,-0.08682 -0.03135,-0.130914 -0.03135,-0.0441 -0.08785,-0.0441 -0.055122,0 -0.085438,0.0379 l -0.012402,0.01723 z" />
    <path
       id="text-title-4-03-orange"
       style="fill:#ff6600;fill-rule:nonzero;stroke:none"
       d="m 2.1111544,91.682201 v 0.165364 h -0.011024 q -0.109554,6.89e-4 -0.1739772,0.0658 -0.064423,0.06511 -0.078204,0.182246 0.062701,-0.07166 0.1570962,-0.07166 0.108865,0 0.1739772,0.09302 0.065112,0.09302 0.065112,0.248047 0,0.09853 -0.037207,0.177767 -0.037207,0.07924 -0.1043864,0.12299 -0.067179,0.04375 -0.1519285,0.04375 -0.1364257,0 -0.2187634,-0.109554 -0.082338,-0.109554 -0.082338,-0.2949 v -0.07235 q 0,-0.166054 0.052021,-0.290766 0.052021,-0.124713 0.1502061,-0.191892 0.098185,-0.06718 0.2290987,-0.06787 z m -0.1674315,0.502983 q -0.037207,0 -0.062356,0.02343 -0.025149,0.02343 -0.037551,0.05788 v 0.07028 q 0,0.106109 0.02825,0.158475 0.02825,0.05236 0.074414,0.05236 0.046853,0 0.075103,-0.05064 0.02825,-0.05064 0.02825,-0.12988 0,-0.08062 -0.029283,-0.131258 -0.029283,-0.05064 -0.076825,-0.05064 z" />
    <path
       id="text-title-4-1-orange"
       style="fill:#ff6600;fill-rule:nonzero;stroke:none"
       d="m 2.250681,102.72822 -0.3169485,0.8909 H 1.7277159 l 0.3183266,-0.84129 H 1.6436557 v -0.16192 H 2.250681 Z" />
    <path
       id="text-title-4-2-orange"
       style="fill:#ff6600;fill-rule:nonzero;stroke:none"
       d="m 2.2182967,113.81264 q 0,0.073 -0.031006,0.12953 -0.031006,0.0565 -0.085438,0.0903 0.062012,0.0351 0.097841,0.0968 0.035829,0.0617 0.035829,0.14504 0,0.13367 -0.07717,0.21119 -0.07717,0.0775 -0.2101507,0.0775 -0.1329806,0 -0.2115287,-0.0775 -0.078548,-0.0775 -0.078548,-0.21119 0,-0.0834 0.035829,-0.14538 0.035829,-0.062 0.09853,-0.0965 -0.055122,-0.0338 -0.086127,-0.0903 -0.031006,-0.0565 -0.031006,-0.12953 0,-0.1316 0.073725,-0.20602 0.073725,-0.0744 0.1977483,-0.0744 0.1254014,0 0.1984373,0.0751 0.073036,0.0751 0.073036,0.20533 z m -0.2700953,0.58842 q 0.044097,0 0.067868,-0.0375 0.023771,-0.0376 0.023771,-0.10439 0,-0.0668 -0.024805,-0.10473 -0.024805,-0.0379 -0.068213,-0.0379 -0.043408,0 -0.068557,0.0379 -0.025149,0.0379 -0.025149,0.10473 0,0.0668 0.025149,0.10439 0.025149,0.0375 0.069935,0.0375 z m 0.075792,-0.57809 q 0,-0.0586 -0.018948,-0.0937 -0.018948,-0.0351 -0.058222,-0.0351 -0.037207,0 -0.056499,0.0341 -0.019293,0.0341 -0.019293,0.0947 0,0.0593 0.019293,0.0954 0.019292,0.0362 0.057878,0.0362 0.038585,0 0.057189,-0.0362 0.018604,-0.0362 0.018604,-0.0954 z" />
  </g>
  <g
     inkscape:groupmode="layer"
     id="layer-text-work"
     inkscape:label="TextWork"
     style="display:inline"
     sodipodi:insensitive="true">
    <text
       id="text-title"
       x="15.24"
       y="5.8163662"
       style="font-style:normal;font-weight:bold;font-size:5.64444px;font-family:'Roboto Condensed';-inkscape-font-specification:'Roboto Condensed, Bold';text-align:center;text-anchor:middle;fill:#ff6600;stroke:none"><tspan
         id="tspan-title"
         x="15.24"
         y="5.8163662">XOD8</tspan></text>
    <text
       id="text-orange"
       x="15.24"
       y="124.1728"
       style="font-style:normal;font-weight:bold;font-size:3.52777px;font-family:'Roboto Condensed';-inkscape-font-specification:'Roboto Condensed, Bold';text-align:center;text-anchor:middle;fill:#ff6600;stroke:none"><tspan
         id="tspan-orange"
         x="15.24"
         y="124.1728">ORANGE</tspan></text>
    <text
       id="text-line"
       x="15.24"
       y="127.7288"
       style="font-style:normal;font-weight:bold;font-size:3.52777px;font-family:'Roboto Condensed';-inkscape-font-specification:'Roboto Condensed, Bold';text-align:center;text-anchor:middle;fill:#ff6600;stroke:none"><tspan
         id="tspan-line"
         x="15.24"
         y="127.7288">LINE</tspan></text>
    <text
       id="text-title-4"
       x="2.0022893"
       y="37.834156"
       style="font-style:normal;font-weight:bold;font-size:5.64444px;font-family:'Roboto Condensed';-inkscape-font-specification:'Roboto Condensed, Bold';text-align:center;text-anchor:middle;display:inline;fill:#ff6600;stroke:none"><tspan
         id="tspan-title-6"
         x="2.0022893"
         y="37.834156"
         style="font-style:normal;font-variant:normal;font-weight:normal;font-stretch:normal;font-size:1.41111px;font-family:'Roboto Condensed';-inkscape-font-specification:'Roboto Condensed, @wght=700';font-variant-ligatures:normal;font-variant-caps:normal;font-variant-numeric:normal;font-variant-east-asian:normal;font-variation-settings:'wght' 700">1</tspan></text>
    <text
       id="text-title-4-0"
       x="1.9506127"
       y="48.76236"
       style="font-style:normal;font-weight:bold;font-size:5.64444px;font-family:'Roboto Condensed';-inkscape-font-specification:'Roboto Condensed, Bold';text-align:center;text-anchor:middle;display:inline;fill:#ff6600;stroke:none"><tspan
         id="tspan-title-6-2"
         x="1.9506127"
         y="48.76236"
         style="font-style:normal;font-variant:normal;font-weight:normal;font-stretch:normal;font-size:1.41111px;font-family:'Roboto Condensed';-inkscape-font-specification:'Roboto Condensed, @wght=700';font-variant-ligatures:normal;font-variant-caps:normal;font-variant-numeric:normal;font-variant-east-asian:normal;font-variation-settings:'wght' 700">2</tspan></text>
    <text
       id="text-title-4-9"
       x="1.9581925"
       y="59.677467"
       style="font-style:normal;font-weight:bold;font-size:5.64444px;font-family:'Roboto Condensed';-inkscape-font-specification:'Roboto Condensed, Bold';text-align:center;text-anchor:middle;display:inline;fill:#ff6600;stroke:none"><tspan
         id="tspan-title-6-3"
         x="1.9581925"
         y="59.677467"
         style="font-style:normal;font-variant:normal;font-weight:normal;font-stretch:normal;font-size:1.41111px;font-family:'Roboto Condensed';-inkscape-font-specification:'Roboto Condensed, @wght=700';font-variant-ligatures:normal;font-variant-caps:normal;font-variant-numeric:normal;font-variant-east-asian:normal;font-variation-settings:'wght' 700">3</tspan></text>
    <text
       id="text-title-4-5"
       x="1.9495798"
       y="70.599129"
       style="font-style:normal;font-weight:bold;font-size:5.64444px;font-family:'Roboto Condensed';-inkscape-font-specification:'Roboto Condensed, Bold';text-align:center;text-anchor:middle;display:inline;fill:#ff6600;stroke:none"><tspan
         id="tspan-title-6-24"
         x="1.9495798"
         y="70.599129"
         style="font-style:normal;font-variant:normal;font-weight:normal;font-stretch:normal;font-size:1.41111px;font-family:'Roboto Condensed';-inkscape-font-specification:'Roboto Condensed, @wght=700';font-variant-ligatures:normal;font-variant-caps:normal;font-variant-numeric:normal;font-variant-east-asian:normal;font-variation-settings:'wght' 700">4</tspan></text>
    <text
       id="text-title-4-4"
       x="1.9440677"
       y="81.514236"
       style="font-style:normal;font-weight:bold;font-size:5.64444px;font-family:'Roboto Condensed';-inkscape-font-specification:'Roboto Condensed, Bold';text-align:center;text-anchor:middle;display:inline;fill:#ff6600;stroke:none"><tspan
         id="tspan-title-6-6"
         x="1.9440677"
         y="81.514236"
         style="font-style:normal;font-variant:normal;font-weight:normal;font-stretch:normal;font-size:1.41111px;font-family:'Roboto Condensed';-inkscape-font-specification:'Roboto Condensed, @wght=700';font-variant-ligatures:normal;font-variant-caps:normal;font-variant-numeric:normal;font-variant-east-asian:normal;font-variation-settings:'wght' 700">5</tspan></text>
    <text
       id="text-title-4-03"
       x="1.9375217"
       y="92.695747"
       style="font-style:normal;font-weight:bold;font-size:5.64444px;font-family:'Roboto Condensed';-inkscape-font-specification:'Roboto Condensed, Bold';text-align:center;text-anchor:middle;display:inline;fill:#ff6600;stroke:none"><tspan
         id="tspan-title-6-4"
         x="1.9375217"
         y="92.695747"
         style="font-style:normal;font-variant:normal;font-weight:normal;font-stretch:normal;font-size:1.41111px;font-family:'Roboto Condensed';-inkscape-font-specification:'Roboto Condensed, @wght=700';font-variant-ligatures:normal;font-variant-caps:normal;font-variant-numeric:normal;font-variant-east-asian:normal;font-variation-settings:'wght' 700">6</tspan></text>
    <text
       id="text-title-4-1"
       x="1.953714"
       y="103.61912"
       style="font-style:normal;font-weight:bold;font-size:5.64444px;font-family:'Roboto Condensed';-inkscape-font-specification:'Roboto Condensed, Bold';text-align:center;text-anchor:middle;display:inline;fill:#ff6600;stroke:none"><tspan
         id="tspan-title-6-8"
         x="1.953714"
         y="103.61912"
         style="font-style:normal;font-variant:normal;font-weight:normal;font-stretch:normal;font-size:1.41111px;font-family:'Roboto Condensed';-inkscape-font-specification:'Roboto Condensed, @wght=700';font-variant-ligatures:normal;font-variant-caps:normal;font-variant-numeric:normal;font-variant-east-asian:normal;font-variation-settings:'wght' 700">7</tspan></text>
    <text
       id="text-title-4-2"
       x="1.9475124"
       y="114.5492"
       style="font-style:normal;font-weight:bold;font-size:5.64444px;font-family:'Roboto Condensed';-inkscape-font-specification:'Roboto Condensed, Bold';text-align:center;text-anchor:middle;display:inline;fill:#ff6600;stroke:none"><tspan
         id="tspan-title-6-31"
         x="1.9475124"
         y="114.5492"
         style="font-style:normal;font-variant:normal;font-weight:normal;font-stretch:normal;font-size:1.41111px;font-family:'Roboto Condensed';-inkscape-font-specification:'Roboto Condensed, @wght=700';font-variant-ligatures:normal;font-variant-caps:normal;font-variant-numeric:normal;font-variant-east-asian:normal;font-variation-settings:'wght' 700">8</tspan></text>
  </g>
  <g
     inkscape:groupmode="layer"
     id="layer-controls"
     inkscape:label="Controls"
     style="display:inline"
     sodipodi:insensitive="true">
    <g
       id="g36"
       inkscape:label="RIGHT">
      <path
         id="rect21-8"
         style="display:inline;fill:#100600;fill-opacity:1;stroke:#ff6600;stroke-width:0.3;stroke-linejoin:round;stroke-opacity:1"
         d="m 16.51,15.74925 h 11.176 a 0.50799979,0.50799979 45 0 1 0.508,0.508 v 3.556 a 0.50799979,0.50799979 135 0 1 -0.508,0.508 H 16.51 a 0.50799979,0.50799979 45 0 1 -0.508,-0.508 v -3.556 a 0.50799979,0.50799979 135 0 1 0.508,-0.508 z"
         sodipodi:nodetypes="ccccc"
         inkscape:path-effect="#path-effect23-8"
         inkscape:original-d="m 16.002,15.74925 h 12.192 v 4.572 H 16.002 Z"
         inkscape:label="BUTTON_FRAME" />
      <text
         xml:space="preserve"
         style="font-style:normal;font-variant:normal;font-weight:normal;font-stretch:normal;font-size:4.49792px;line-height:1.25;font-family:'Repetition Scrolling';-inkscape-font-specification:'Repetition Scrolling, Normal';text-align:center;letter-spacing:0px;word-spacing:0px;writing-mode:lr-tb;text-anchor:middle;display:inline;opacity:0.98;fill:#ff6600;fill-opacity:1;stroke:none;stroke-width:0.264583"
         x="21.978039"
         y="18.987003"
         id="text4126-0-7-7"
         inkscape:label="BUTTON_TEXT"><tspan
           sodipodi:role="line"
           id="tspan4124-6-9-3"
           x="21.978039"
           y="18.987003"
           style="font-style:normal;font-variant:normal;font-weight:normal;font-stretch:normal;font-size:2.82222px;font-family:'Repetition Scrolling';-inkscape-font-specification:'Repetition Scrolling, Normal';text-align:center;writing-mode:lr-tb;text-anchor:middle;fill:#ff6600;fill-opacity:1;stroke-width:0.264583">&gt;</tspan></text>
    </g>
    <text
       xml:space="preserve"
       style="font-style:normal;font-variant:normal;font-weight:normal;font-stretch:normal;font-size:4.49792px;line-height:1.25;font-family:'Repetition Scrolling';-inkscape-font-specification:'Repetition Scrolling, Normal';font-variant-ligatures:normal;font-variant-caps:normal;font-variant-numeric:normal;font-variant-east-asian:normal;text-align:start;letter-spacing:0px;word-spacing:0px;writing-mode:lr-tb;text-anchor:start;display:inline;opacity:0.98;fill:#ff6600;fill-opacity:1;stroke:none;stroke-width:0.264583"
       x="15.12887"
       y="38.873039"
       id="text4126-0-4"
       inkscape:label="DISPLAY"><tspan
         sodipodi:role="line"
         id="tspan4124-6-0"
         x="15.12887"
         y="38.873039"
         style="font-style:normal;font-variant:normal;font-weight:normal;font-stretch:normal;font-size:4.49792px;font-family:'Repetition Scrolling';-inkscape-font-specification:'Repetition Scrolling, Normal';font-variant-ligatures:normal;font-variant-caps:normal;font-variant-numeric:normal;font-variant-east-asian:normal;text-align:start;writing-mode:lr-tb;text-anchor:start;fill:#ff6600;fill-opacity:1;stroke-width:0.264583">0.005</tspan></text>
    <text
       xml:space="preserve"
       style="font-style:normal;font-variant:normal;font-weight:normal;font-stretch:normal;font-size:4.49792px;line-height:1.25;font-family:'Repetition Scrolling';-inkscape-font-specification:'Repetition Scrolling, Normal';font-variant-ligatures:normal;font-variant-caps:normal;font-variant-numeric:normal;font-variant-east-asian:normal;text-align:start;letter-spacing:0px;word-spacing:0px;writing-mode:lr-tb;text-anchor:start;display:inline;opacity:0.98;fill:#ff6600;fill-opacity:1;stroke:none;stroke-width:0.264583"
       x="15.128871"
       y="49.784458"
       id="text4126-0-4-1"
       inkscape:label="DISPLAY"><tspan
         sodipodi:role="line"
         id="tspan4124-6-0-4"
         x="15.128871"
         y="49.784458"
         style="font-style:normal;font-variant:normal;font-weight:normal;font-stretch:normal;font-size:4.49792px;font-family:'Repetition Scrolling';-inkscape-font-specification:'Repetition Scrolling, Normal';font-variant-ligatures:normal;font-variant-caps:normal;font-variant-numeric:normal;font-variant-east-asian:normal;text-align:start;writing-mode:lr-tb;text-anchor:start;fill:#ff6600;fill-opacity:1;stroke-width:0.264583">0.005</tspan></text>
    <text
       xml:space="preserve"
       style="font-style:normal;font-variant:normal;font-weight:normal;font-stretch:normal;font-size:4.49792px;line-height:1.25;font-family:'Repetition Scrolling';-inkscape-font-specification:'Repetition Scrolling, Normal';font-variant-ligatures:normal;font-variant-caps:normal;font-variant-numeric:normal;font-variant-east-asian:normal;text-align:start;letter-spacing:0px;word-spacing:0px;writing-mode:lr-tb;text-anchor:start;display:inline;opacity:0.98;fill:#ff6600;fill-opacity:1;stroke:none;stroke-width:0.264583"
       x="15.12887"
       y="115.58104"
       id="text4126-0-4-0"
       inkscape:label="DISPLAY"><tspan
         sodipodi:role="line"
         id="tspan4124-6-0-5"
         x="15.12887"
         y="115.58104"
         style="font-style:normal;font-variant:normal;font-weight:normal;font-stretch:normal;font-size:4.49792px;font-family:'Repetition Scrolling';-inkscape-font-specification:'Repetition Scrolling, Normal';font-variant-ligatures:normal;font-variant-caps:normal;font-variant-numeric:normal;font-variant-east-asian:normal;text-align:start;writing-mode:lr-tb;text-anchor:start;fill:#ff6600;fill-opacity:1;stroke-width:0.264583">0.005</tspan></text>
    <path
       id="rect21"
       style="display:inline;fill:#100600;fill-opacity:1;stroke:#ff6600;stroke-width:0.3;stroke-linejoin:round;stroke-opacity:1"
       d="M 2.7940002,15.74925 H 13.97 a 0.50800017,0.50800017 45 0 1 0.508,0.508 v 3.556 a 0.50800017,0.50800017 135 0 1 -0.508,0.508 H 2.7940002 A 0.50800017,0.50800017 45 0 1 2.286,19.81325 v -3.556 a 0.50800017,0.50800017 135 0 1 0.5080002,-0.508 z"
       sodipodi:nodetypes="ccccc"
       inkscape:path-effect="#path-effect23"
       inkscape:original-d="m 2.286,15.74925 h 12.192 v 4.572 H 2.286 Z"
       inkscape:label="BUTTON_FRAME" />
    <text
       xml:space="preserve"
       style="font-style:normal;font-variant:normal;font-weight:normal;font-stretch:normal;font-size:4.49792px;line-height:1.25;font-family:'Repetition Scrolling';-inkscape-font-specification:'Repetition Scrolling, Normal';text-align:center;letter-spacing:0px;word-spacing:0px;writing-mode:lr-tb;text-anchor:middle;display:inline;opacity:0.98;fill:#ff6600;fill-opacity:1;stroke:none;stroke-width:0.264583"
       x="8.5231113"
       y="18.997625"
       id="text4126-0-7"
       inkscape:label="BUTTON_TEXT"><tspan
         sodipodi:role="line"
         id="tspan4124-6-9"
         x="8.5231113"
         y="18.997625"
         style="font-style:normal;font-variant:normal;font-weight:normal;font-stretch:normal;font-size:2.82222px;font-family:'Repetition Scrolling';-inkscape-font-specification:'Repetition Scrolling, Normal';text-align:center;writing-mode:lr-tb;text-anchor:middle;fill:#ff6600;fill-opacity:1;stroke-width:0.264583">&lt;</tspan></text>
    <text
       xml:space="preserve"
       style="font-style:normal;font-variant:normal;font-weight:normal;font-stretch:normal;font-size:4.49792px;line-height:1.25;font-family:'Repetition Scrolling';-inkscape-font-specification:'Repetition Scrolling, Normal';font-variant-ligatures:normal;font-variant-caps:normal;font-variant-numeric:normal;font-variant-east-asian:normal;text-align:start;letter-spacing:0px;word-spacing:0px;writing-mode:lr-tb;text-anchor:start;display:inline;opacity:0.98;fill:#00dd00;fill-opacity:1;stroke:none;stroke-width:0.264583"
       x="1.5843138"
       y="12.457039"
       id="text4126-0"
       inkscape:label="DISPLAY"><tspan
         sodipodi:role="line"
         id="tspan4124-6"
         x="1.5843138"
         y="12.457039"
         style="font-style:normal;font-variant:normal;font-weight:normal;font-stretch:normal;font-size:4.49792px;font-family:'Repetition Scrolling';-inkscape-font-specification:'Repetition Scrolling, Normal';font-variant-ligatures:normal;font-variant-caps:normal;font-variant-numeric:normal;font-variant-east-asian:normal;text-align:start;writing-mode:lr-tb;text-anchor:start;fill:#00dd00;fill-opacity:1;stroke-width:0.264583">_   S#R   _</tspan></text>
    <g
       id="knob8"
       style="display:inline;opacity:0.98">
      <path
         id="knob8-p1"
         d="m 11.61975,37.339944 c 0,2.208995 -1.79006,3.999067 -3.99905,3.999067 -2.20902,0 -4.00046,-1.790072 -4.00046,-3.999067 0,-2.210372 1.79144,-4.000444 4.00046,-4.000444 2.20899,0 3.99905,1.790072 3.99905,4.000444"
         style="fill:#000000;fill-opacity:1;fill-rule:nonzero;stroke:none;stroke-width:0.352778" />
      <path
         id="knob8-p2"
         d="m 7.75299,33.354659 c -0.0427,-0.0097 -0.0868,-0.01517 -0.13229,-0.01517 -0.0455,0 -0.0896,0.0055 -0.13367,0.01517 v 4.034896 h 0.26596 z m 0,0"
         style="fill:#ffffff;fill-opacity:1;fill-rule:evenodd;stroke:none;stroke-width:0.352778" />
    </g>
    <g
       id="knob1"
       style="display:inline;opacity:0.98"
       transform="translate(-164.47357,42.624955)">
      <path
         id="knob1-p1"
         d="m 176.09263,71.397045 c 0,2.208995 -1.79006,3.999067 -3.99905,3.999067 -2.20902,0 -4.00046,-1.790072 -4.00046,-3.999067 0,-2.210372 1.79144,-4.000444 4.00046,-4.000444 2.20899,0 3.99905,1.790072 3.99905,4.000444"
         style="fill:#000000;fill-opacity:1;fill-rule:nonzero;stroke:none;stroke-width:0.352778" />
      <path
         id="knob1-p2"
         d="m 172.22587,67.41176 c -0.0427,-0.0097 -0.0868,-0.01517 -0.13229,-0.01517 -0.0455,0 -0.0896,0.0055 -0.13367,0.01517 v 4.034896 h 0.26596 z m 0,0"
         style="fill:#ffffff;fill-opacity:1;fill-rule:evenodd;stroke:none;stroke-width:0.352778" />
    </g>
    <g
       id="knob2"
       style="display:inline;opacity:0.98"
       transform="translate(-164.47357,31.670376)">
      <path
         id="knob2-p1"
         d="m 176.09263,71.397045 c 0,2.208995 -1.79006,3.999067 -3.99905,3.999067 -2.20902,0 -4.00046,-1.790072 -4.00046,-3.999067 0,-2.210372 1.79144,-4.000444 4.00046,-4.000444 2.20899,0 3.99905,1.790072 3.99905,4.000444"
         style="fill:#000000;fill-opacity:1;fill-rule:nonzero;stroke:none;stroke-width:0.352778" />
      <path
         id="knob2-p2"
         d="m 172.22587,67.41176 c -0.0427,-0.0097 -0.0868,-0.01517 -0.13229,-0.01517 -0.0455,0 -0.0896,0.0055 -0.13367,0.01517 v 4.034896 h 0.26596 z m 0,0"
         style="fill:#ffffff;fill-opacity:1;fill-rule:evenodd;stroke:none;stroke-width:0.352778" />
    </g>
    <g
       id="knob3"
       style="display:inline;opacity:0.98"
       transform="translate(-164.47357,20.715796)">
      <path
         id="knob3-p1"
         d="m 176.09263,71.397045 c 0,2.208995 -1.79006,3.999067 -3.99905,3.999067 -2.20902,0 -4.00046,-1.790072 -4.00046,-3.999067 0,-2.210372 1.79144,-4.000444 4.00046,-4.000444 2.20899,0 3.99905,1.790072 3.99905,4.000444"
         style="fill:#000000;fill-opacity:1;fill-rule:nonzero;stroke:none;stroke-width:0.352778" />
      <path
         id="knob3-p2"
         d="m 172.22587,67.41176 c -0.0427,-0.0097 -0.0868,-0.01517 -0.13229,-0.01517 -0.0455,0 -0.0896,0.0055 -0.13367,0.01517 v 4.034896 h 0.26596 z m 0,0"
         style="fill:#ffffff;fill-opacity:1;fill-rule:evenodd;stroke:none;stroke-width:0.352778" />
    </g>
    <g
       id="knob4"
       style="display:inline;opacity:0.98"
       transform="translate(-164.47357,9.7612168)">
      <path
         id="knob4-p1"
         d="m 176.09263,71.397045 c 0,2.208995 -1.79006,3.999067 -3.99905,3.999067 -2.20902,0 -4.00046,-1.790072 -4.00046,-3.999067 0,-2.210372 1.79144,-4.000444 4.00046,-4.000444 2.20899,0 3.99905,1.790072 3.99905,4.000444"
         style="fill:#000000;fill-opacity:1;fill-rule:nonzero;stroke:none;stroke-width:0.352778" />
      <path
         id="knob4-p2"
         d="m 172.22587,67.41176 c -0.0427,-0.0097 -0.0868,-0.01517 -0.13229,-0.01517 -0.0455,0 -0.0896,0.0055 -0.13367,0.01517 v 4.034896 h 0.26596 z m 0,0"
         style="fill:#ffffff;fill-opacity:1;fill-rule:evenodd;stroke:none;stroke-width:0.352778" />
    </g>
    <g
       id="knob5"
       style="display:inline;opacity:0.98"
       transform="translate(-164.47357,-1.1933626)">
      <path
         id="knob5-p1"
         d="m 176.09263,71.397045 c 0,2.208995 -1.79006,3.999067 -3.99905,3.999067 -2.20902,0 -4.00046,-1.790072 -4.00046,-3.999067 0,-2.210372 1.79144,-4.000444 4.00046,-4.000444 2.20899,0 3.99905,1.790072 3.99905,4.000444"
         style="fill:#000000;fill-opacity:1;fill-rule:nonzero;stroke:none;stroke-width:0.352778" />
      <path
         id="knob5-p2"
         d="m 172.22587,67.41176 c -0.0427,-0.0097 -0.0868,-0.01517 -0.13229,-0.01517 -0.0455,0 -0.0896,0.0055 -0.13367,0.01517 v 4.034896 h 0.26596 z m 0,0"
         style="fill:#ffffff;fill-opacity:1;fill-rule:evenodd;stroke:none;stroke-width:0.352778" />
    </g>
    <g
       id="knob6"
       style="display:inline;opacity:0.98"
       transform="translate(-164.47357,-12.147942)">
      <path
         id="knob6-p1"
         d="m 176.09263,71.397045 c 0,2.208995 -1.79006,3.999067 -3.99905,3.999067 -2.20902,0 -4.00046,-1.790072 -4.00046,-3.999067 0,-2.210372 1.79144,-4.000444 4.00046,-4.000444 2.20899,0 3.99905,1.790072 3.99905,4.000444"
         style="fill:#000000;fill-opacity:1;fill-rule:nonzero;stroke:none;stroke-width:0.352778" />
      <path
         id="knob6-p2"
         d="m 172.22587,67.41176 c -0.0427,-0.0097 -0.0868,-0.01517 -0.13229,-0.01517 -0.0455,0 -0.0896,0.0055 -0.13367,0.01517 v 4.034896 h 0.26596 z m 0,0"
         style="fill:#ffffff;fill-opacity:1;fill-rule:evenodd;stroke:none;stroke-width:0.352778" />
    </g>
    <g
       id="knob7"
       style="display:inline;opacity:0.98"
       transform="translate(-164.47357,-23.102521)">
      <path
         id="knob7-p1"
         d="m 176.09263,71.397045 c 0,2.208995 -1.79006,3.999067 -3.99905,3.999067 -2.20902,0 -4.00046,-1.790072 -4.00046,-3.999067 0,-2.210372 1.79144,-4.000444 4.00046,-4.000444 2.20899,0 3.99905,1.790072 3.99905,4.000444"
         style="fill:#000000;fill-opacity:1;fill-rule:nonzero;stroke:none;stroke-width:0.352778" />
      <path
         id="knob7-p2"
         d="m 172.22587,67.41176 c -0.0427,-0.0097 -0.0868,-0.01517 -0.13229,-0.01517 -0.0455,0 -0.0896,0.0055 -0.13367,0.01517 v 4.034896 h 0.26596 z m 0,0"
         style="fill:#ffffff;fill-opacity:1;fill-rule:evenodd;stroke:none;stroke-width:0.352778" />
    </g>
    <text
       xml:space="preserve"
       style="font-style:normal;font-variant:normal;font-weight:normal;font-stretch:normal;font-size:4.49792px;line-height:1.25;font-family:'Repetition Scrolling';-inkscape-font-specification:'Repetition Scrolling, Normal';font-variant-ligatures:normal;font-variant-caps:normal;font-variant-numeric:normal;font-variant-east-asian:normal;text-align:start;letter-spacing:0px;word-spacing:0px;writing-mode:lr-tb;text-anchor:start;display:inline;opacity:0.98;fill:#ff6600;fill-opacity:1;stroke:none;stroke-width:0.264583"
       x="15.128871"
       y="60.717041"
       id="text4126-0-4-9"
       inkscape:label="DISPLAY"><tspan
         sodipodi:role="line"
         id="tspan4124-6-0-6"
         x="15.128871"
         y="60.717041"
         style="font-style:normal;font-variant:normal;font-weight:normal;font-stretch:normal;font-size:4.49792px;font-family:'Repetition Scrolling';-inkscape-font-specification:'Repetition Scrolling, Normal';font-variant-ligatures:normal;font-variant-caps:normal;font-variant-numeric:normal;font-variant-east-asian:normal;text-align:start;writing-mode:lr-tb;text-anchor:start;fill:#ff6600;fill-opacity:1;stroke-width:0.264583">0.005</tspan></text>
    <text
       xml:space="preserve"
       style="font-style:normal;font-variant:normal;font-weight:normal;font-stretch:normal;font-size:4.49792px;line-height:1.25;font-family:'Repetition Scrolling';-inkscape-font-specification:'Repetition Scrolling, Normal';font-variant-ligatures:normal;font-variant-caps:normal;font-variant-numeric:normal;font-variant-east-asian:normal;text-align:start;letter-spacing:0px;word-spacing:0px;writing-mode:lr-tb;text-anchor:start;display:inline;opacity:0.98;fill:#ff6600;fill-opacity:1;stroke:none;stroke-width:0.264583"
       x="15.12887"
       y="71.639038"
       id="text4126-0-4-94"
       inkscape:label="DISPLAY"><tspan
         sodipodi:role="line"
         id="tspan4124-6-0-2"
         x="15.12887"
         y="71.639038"
         style="font-style:normal;font-variant:normal;font-weight:normal;font-stretch:normal;font-size:4.49792px;font-family:'Repetition Scrolling';-inkscape-font-specification:'Repetition Scrolling, Normal';font-variant-ligatures:normal;font-variant-caps:normal;font-variant-numeric:normal;font-variant-east-asian:normal;text-align:start;writing-mode:lr-tb;text-anchor:start;fill:#ff6600;fill-opacity:1;stroke-width:0.264583">0.005</tspan></text>
    <text
       xml:space="preserve"
       style="font-style:normal;font-variant:normal;font-weight:normal;font-stretch:normal;font-size:4.49792px;line-height:1.25;font-family:'Repetition Scrolling';-inkscape-font-specification:'Repetition Scrolling, Normal';font-variant-ligatures:normal;font-variant-caps:normal;font-variant-numeric:normal;font-variant-east-asian:normal;text-align:start;letter-spacing:0px;word-spacing:0px;writing-mode:lr-tb;text-anchor:start;display:inline;opacity:0.98;fill:#ff6600;fill-opacity:1;stroke:none;stroke-width:0.264583"
       x="15.12887"
       y="82.815041"
       id="text4126-0-4-91"
       inkscape:label="DISPLAY"><tspan
         sodipodi:role="line"
         id="tspan4124-6-0-1"
         x="15.12887"
         y="82.815041"
         style="font-style:normal;font-variant:normal;font-weight:normal;font-stretch:normal;font-size:4.49792px;font-family:'Repetition Scrolling';-inkscape-font-specification:'Repetition Scrolling, Normal';font-variant-ligatures:normal;font-variant-caps:normal;font-variant-numeric:normal;font-variant-east-asian:normal;text-align:start;writing-mode:lr-tb;text-anchor:start;fill:#ff6600;fill-opacity:1;stroke-width:0.264583">0.005</tspan></text>
    <text
       xml:space="preserve"
       style="font-style:normal;font-variant:normal;font-weight:normal;font-stretch:normal;font-size:4.49792px;line-height:1.25;font-family:'Repetition Scrolling';-inkscape-font-specification:'Repetition Scrolling, Normal';font-variant-ligatures:normal;font-variant-caps:normal;font-variant-numeric:normal;font-variant-east-asian:normal;text-align:start;letter-spacing:0px;word-spacing:0px;writing-mode:lr-tb;text-anchor:start;display:inline;opacity:0.98;fill:#ff6600;fill-opacity:1;stroke:none;stroke-width:0.264583"
       x="15.12887"
       y="93.646629"
       id="text4126-0-4-2"
       inkscape:label="DISPLAY"><tspan
         sodipodi:role="line"
         id="tspan4124-6-0-26"
         x="15.12887"
         y="93.646629"
         style="font-style:normal;font-variant:normal;font-weight:normal;font-stretch:normal;font-size:4.49792px;font-family:'Repetition Scrolling';-inkscape-font-specification:'Repetition Scrolling, Normal';font-variant-ligatures:normal;font-variant-caps:normal;font-variant-numeric:normal;font-variant-east-asian:normal;text-align:start;writing-mode:lr-tb;text-anchor:start;fill:#ff6600;fill-opacity:1;stroke-width:0.264583">0.005</tspan></text>
    <text
       xml:space="preserve"
       style="font-style:normal;font-variant:normal;font-weight:normal;font-stretch:normal;font-size:4.49792px;line-height:1.25;font-family:'Repetition Scrolling';-inkscape-font-specification:'Repetition Scrolling, Normal';font-variant-ligatures:normal;font-variant-caps:normal;font-variant-numeric:normal;font-variant-east-asian:normal;text-align:start;letter-spacing:0px;word-spacing:0px;writing-mode:lr-tb;text-anchor:start;display:inline;opacity:0.98;fill:#ff6600;fill-opacity:1;stroke:none;stroke-width:0.264583"
       x="15.12887"
       y="104.65906"
       id="text4126-0-4-5"
       inkscape:label="DISPLAY"><tspan
         sodipodi:role="line"
         id="tspan4124-6-0-63"
         x="15.12887"
         y="104.65906"
         style="font-style:normal;font-variant:normal;font-weight:normal;font-stretch:normal;font-size:4.49792px;font-family:'Repetition Scrolling';-inkscape-font-specification:'Repetition Scrolling, Normal';font-variant-ligatures:normal;font-variant-caps:normal;font-variant-numeric:normal;font-variant-east-asian:normal;text-align:start;writing-mode:lr-tb;text-anchor:start;fill:#ff6600;fill-opacity:1;stroke-width:0.264583">0.005</tspan></text>
  </g>
</svg>
